<?xml version="1.0" encoding="UTF-8"?>
<svg id="Layer_1" data-name="Layer 1" xmlns="http://www.w3.org/2000/svg" viewBox="0 0 270.18 725.85">
  <defs>
    <style>

      .paper {
        fill: #e0e8fa;
      }

      .outline {
        fill: #03112e;
      }

      .skin01Dark04 {
        fill: #b25235;
      }

      .skin04 {
        fill: #d59174;
      }
    </style>
  </defs>
  <rect class="skin04" x="206.36" y="507.63" width="34.58" height="194.01" transform="translate(-51.85 21.79) rotate(-5)"/>
  <rect class="skin04" x="97.39" y="511.6" width="34.58" height="190.03" transform="translate(53.31 -7.69) rotate(5)"/>
  <path class="mainColor" fill="var(--redColor)" d="m49.31,725.85h75.63l8.64-82.12-49.7-6.48,1.97,49.13c.11,2.65-1.89,4.91-4.54,5.14-10.37.88-34.16,4.93-34.16,23.52,0,6.48,2.16,10.8,2.16,10.8Z"/>
  <path class="mainColor" fill="var(--redColor)" d="m176.81,725.85h75.63v-82.12l-49.7-4.32,6.29,49.13c.11.49-1.89,4.91-4.54,5.14-10.37.88-29.84,4.93-29.84,23.52,0,6.48,2.16,8.64,2.16,8.64Z"/>
  <path class="colorDark01" fill="var(--redDark01)" d="m268.4,518.25l-11.25-214.68c-1.6-30.49-27.61-53.92-58.11-52.32l-24.33,1.28-24.35-1.28c-30.49-1.6-56.51,21.83-58.11,52.32l-11.25,214.69,84.16,4.41,9.54-181.97,9.54,181.97,84.16-4.41Z"/>
  <path class="colorDark02" fill="var(--redDark02)" d="m257.31,316.35c-31.28,0-56.73-25.45-56.73-56.73,0-.6.48-1.08,1.08-1.08s1.08.48,1.08,1.08c0,30.09,24.48,54.56,54.56,54.56.6,0,1.08.48,1.08,1.08s-.48,1.08-1.08,1.08Z"/>
  <rect class="colorDark02" fill="var(--redDark02)" x="112.69" y="24.95" width="73.2" height="87.65" rx="36.6" ry="36.6" transform="translate(16.26 -27.77) rotate(11.24)"/>
  <path class="colorDark02" fill="var(--redDark02)" d="m174.17,344.44c-1,0-6.73-.18-10.8-4.15-2.67-2.6-4.03-6.24-4.03-10.8v-76.9h2.16v76.9c0,3.95,1.13,7.06,3.36,9.24,2.74,2.68,6.53,3.34,8.34,3.5v-86.73h2.16v88.92l-1.05.03s-.07,0-.14,0Z"/>
  <path class="skin04" d="m183.95,60.38c-.54,0-1.07.05-1.59.12-1.78-13.15-11.69-24.31-25.43-27.04l-5.16-1.02c-17.31-3.44-34.12,7.8-37.56,25.11l-.56,2.83c-6.27.01-11.34,5.1-11.34,11.37,0,5.22,3.52,9.61,8.32,10.94,1.35,13.63,11.44,25.36,25.57,28.16l5.16,1.02c.49.1.98.18,1.47.25l5.34,19.92,22.96-6.15-5.16-19.25c6.47-4.56,11.28-11.51,12.94-19.89l.88-4.45c1.29.51,2.69.8,4.16.8,6.28,0,11.37-5.09,11.37-11.37s-5.09-11.37-11.37-11.37Z"/>
  <path class="colorDark02" fill="var(--redDark02)" d="m92.14,306.96c-.35,0-.69-.17-.9-.48-.33-.5-.2-1.17.3-1.5,15.17-10.17,24.23-27.12,24.23-45.36,0-.6.48-1.08,1.08-1.08s1.08.48,1.08,1.08c0,18.96-9.42,36.59-25.19,47.16-.18.12-.39.18-.6.18Z"/>
  <path class="skin04" d="m129.35,130.13l-2.21-1.32c-6.09-3.63-13.98-1.68-17.63,4.37l-66.04,109.51c-3.65,6.05-1.67,13.9,4.42,17.53l2.21,1.32c6.09,3.63,13.98,1.68,17.63-4.37l66.04-109.51c3.65-6.05,1.67-13.9-4.42-17.53Z"/>
  <path class="skin04" d="m27.7,226.67s-2.16,2.16,0,4.32c2.16,2.16,6.48,4.32,6.48,6.48s.3,8.28,2.31,10.63c2.01,2.34,6.33-10.63,6.33-10.63l-15.13-10.8h0"/>
  <polygon class="paper" points="154.81 274.21 81.34 274.21 0 205.06 73.47 205.06 154.81 274.21"/>
  <path class="mainColor" fill="var(--redColor)" d="m212.78,116.46s-5.72-6.48-25.17-2.16c-4.84,1.08-11.42,2.42-18.58,3.83l-1.74-6.49-22.96,6.15,1.3,4.84c-13.78,2.59-25,4.64-25,4.64,0,0-10.8,10.8-10.8,30.25s15.13,34.58,15.13,34.58l15.13,54.02h64.83s26.57-86.45,7.88-129.66Z"/>
  <rect class="mainColor" fill="var(--redColor)" x="183.24" y="503.33" width="86.55" height="17.23" transform="translate(-26.48 12.56) rotate(-3)"/>
  <rect class="mainColor" fill="var(--redColor)" x="79.52" y="503.33" width="86.55" height="17.23" transform="translate(26.96 -5.72) rotate(3)"/>
  <path class="skin04" d="m251.04,249.06c-.07-.62-.17-1.24-.33-1.85l-32.88-123.58c-1.82-6.83-8.84-10.85-15.68-9l-2.48.67c-6.84,1.86-10.92,8.89-9.1,15.72l27.76,104.35-96.73-14.38c-2.96-2.92-23.01-1.67-25.32-.98-2.33.7-5.13-2.92-6.26-4.37-1.12-1.45-2.95-.78-3.89.33-.94,1.12-.34,4.43,1.56,6.73,1.89,2.3,8.2,3.95,9.34,6.06,1.14,2.11-1.63,4.55-4.89,5.81-.46.18-.84.37-1.17.58l-7.82-1.17c-1.48-.22-2.85.8-3.07,2.27l-.1.7c-.22,1.48.8,2.85,2.27,3.07l2.56.38c.15.74.59,1.42,1.29,1.82l8.55,4.94c.36.21.74.31,1.12.35-.19.35-.4.86-.44,1.49-.08,1.24,2.4,2.07,4.14,2.59,1.74.51,6.73-1.56,6.73-1.56-.9,3.11,3.17,2.67,3.17,2.67,0,0,3.7-1.99,6.8-3.8l120.06,17.85c6.99,1.04,13.49-3.84,14.52-10.9l.37-2.56c.21-1.45.16-2.88-.09-4.24Z"/>
  <path class="skin04" d="m38.51,252.6s-6.39-11.59-2.11-16.6,4.28-7.17,4.28-7.17c0,0,2.16-4.32,4.32-2.16,2.16,2.16,0,4.32,0,4.32,0,0,2.16-2.16,4.32,0s-2.44,7.56-2.44,7.56l2.44-3.24s2.16-2.16,4.32,0c2.16,2.16-2.16,6.48-2.16,6.48l-4.32,2.16s4.32-2.16,4.32,0,0,10.8-2.16,10.8-3.74,3.22-3.89,3.51c-.01.02-.02.02-.04.03-.32.06-2.84.35-6.87-5.7Z"/>
  <path class="skin01Dark04" d="m110.86,252.98c-.38,0-.75-.2-.94-.56-.29-.52-.1-1.18.42-1.47l3.7-2.06c8.17-4.44,7.71-8.92,7.69-9.11-.07-.59.34-1.13.92-1.21.58-.08,1.13.31,1.22.9.04.25.82,6.1-8.79,11.32l-3.69,2.05c-.17.09-.35.14-.52.14Z"/>
  <path class="skin01Dark04" d="m112.71,65.08c-3.27.47-5.79,3.28-5.79,6.67,0,.6.48,1.08,1.08,1.08s1.08-.48,1.08-1.08c0-2.03,1.33-3.73,3.16-4.34l.46-2.33Z"/>
  <path class="skin01Dark04" d="m136.26,93.62c-2,0-3.85-.45-5.14-.97-.55-.23-.82-.86-.59-1.41.23-.55.86-.82,1.41-.59.34.14,8.18,3.2,11.73-3.51.28-.53.93-.73,1.46-.45.53.28.73.93.45,1.46-2.24,4.23-5.99,5.47-9.32,5.47Z"/>
  <path class="outline" d="m125.81,70.12c1.06,0,1.92,1.14,1.92,2.56s-.86,2.56-1.92,2.56-1.92-1.14-1.92-2.56.86-2.56,1.92-2.56Z"/>
  <path class="outline" d="m146.28,70.12c1.06,0,1.92,1.14,1.92,2.56s-.86,2.56-1.92,2.56-1.92-1.14-1.92-2.56.86-2.56,1.92-2.56Z"/>
  <path class="skin01Dark04" d="m178.28,72.83c-.6,0-1.08-.48-1.08-1.08,0-3.72,3.03-6.75,6.75-6.75.6,0,1.08.48,1.08,1.08s-.48,1.08-1.08,1.08c-2.53,0-4.58,2.06-4.58,4.58,0,.6-.48,1.08-1.08,1.08Z"/>
  <path class="skin01Dark04" d="m133.01,84.97c-1.59,0-3.17-.6-4.38-1.81-2.1-2.1-.45-5.57.86-7.28.36-.47,1.04-.56,1.51-.2.47.36.57,1.04.21,1.51-.61.81-2.13,3.36-1.05,4.44,1.57,1.57,4.13,1.57,5.71,0,.42-.42,1.11-.42,1.53,0s.42,1.11,0,1.53c-1.21,1.21-2.79,1.81-4.38,1.81Z"/>
  <rect class="colorDark01" fill="var(--redDark01)" x="120.63" y="59.2" width="6.48" height="2.16"/>
  <rect class="colorDark01" fill="var(--redDark01)" x="144.4" y="59.2" width="6.48" height="2.16"/>
  <path class="mainColor" fill="var(--redColor)" d="m206.96,43.72c-.87,0-1.74-.05-2.62-.19-1.29-.21-2.52-.56-3.69-1.03,6.18-2.96,9.58-9.98,7.74-16.84-2.04-7.63-9.8-12.19-17.43-10.35.08-1.49-.06-3.02-.47-4.54-2.08-7.75-10.04-12.35-17.79-10.27-2.25.6-4.23,1.72-5.86,3.16-3.42-2.65-7.98-3.74-12.48-2.53-6.48,1.74-10.7,7.65-10.59,14.06-10.23,2.17-10.35,9.63-10.35,18.52l.57.63h28.44c-.54,12.05,8.04,22.85,20.24,24.79,9.25,1.47,18.09-2.56,23.24-9.66-1.33,0-2.66-.08-4.01-.3-.48-.08-.94-.17-1.41-.27,2.56-1.12,4.8-2.91,6.46-5.19Z"/>
</svg>