<?xml version="1.0" encoding="UTF-8"?>
<svg id="Layer_2" data-name="Layer 2" xmlns="http://www.w3.org/2000/svg" xmlns:xlink="http://www.w3.org/1999/xlink" viewBox="0 0 334.12 634.51">
  <defs>
    <style>
      .cls-1 {
        fill: url(#Degradado_sin_nombre_44);
      }

      .redDark01 {
        fill: #ab123a;
      }

      .redDark02 {
        fill: #91082c;
      }

      .cls-2 {
        fill: url(#Degradado_sin_nombre_53);
      }

      .darkBlueDark02 {
        fill: #03112e;
      }

      .redDark03 {
        fill: #66142e;
      }

      .skin06 {
        fill: #b25235;
      }

      .greenDimmed01 {
        fill: #aae3b7;
      }

      .greenColor {
        fill: #71d187;
      }

      .skin04 {
        fill: #d59174;
      }
    </style>
    <linearGradient id="Degradado_sin_nombre_44" data-name="Degradado sin nombre 44" x1="95.41" y1="407.57" x2="155.2" y2="414.49" gradientUnits="userSpaceOnUse">
      <stop offset="0" stop-color="#91082c"/>
      <stop offset="1" stop-color="#ab123a"/>
    </linearGradient>
    <radialGradient id="Degradado_sin_nombre_53" data-name="Degradado sin nombre 53" cx="-4.62" cy="236.28" fx="-4.62" fy="236.28" r="41.39" gradientUnits="userSpaceOnUse">
      <stop offset="0" stop-color="#b25235"/>
      <stop offset="1" stop-color="#d59174"/>
    </radialGradient>
  </defs>
  <path class="redDark01" d="m318.24,275.18c0,26.78-21.71,48.48-48.48,48.48s-48.48-21.71-48.48-48.48,30.87-28.31,48.48-48.48c23.21-26.57,48.48,21.71,48.48,48.48Z"/>
  <path class="redDark01" d="m289.68,262.94c0,26.78-21.71,48.48-48.48,48.48-26.78,0-84.96-51.49-58.68-56.64,18.65-3.66,36.65-18.3,58.68-40.32,18.93-18.93,48.48,21.71,48.48,48.48Z"/>
  <rect class="skin04" x="233.02" y="83.85" width="22.44" height="24.48" transform="translate(-16.55 66.49) rotate(-15)"/>
  <path class="skin04" d="m216.82,110.99l-2.08-1.24c-5.75-3.43-13.2-1.58-16.64,4.13l-60.34,101.37c-3.44,5.71-1.57,13.12,4.18,16.55l2.08,1.24c5.75,3.43,13.2,1.58,16.64-4.13l60.34-101.37c3.44-5.71,1.57-13.12-4.18-16.55Z"/>
  <path class="redDark01" d="m179.11,103.54h29.53v66.72c0,8.15-6.62,14.76-14.76,14.76h0c-8.15,0-14.76-6.62-14.76-14.76v-66.72h0Z" transform="translate(297.43 362.63) rotate(-152.03)"/>
  <path class="redDark02" d="m297.58,96.09s-5.4-6.11-23.76-2.03c-18.36,4.08-63.24,12.24-63.24,12.24,0,0-10.2,10.2-10.2,28.56s14.28,53.04,14.28,53.04l14.28,30.6,67.32,8.16s18.96-89.76,1.32-130.56Z"/>
  <path class="redDark03" d="m300.43,223.8c-9.48,0-17.89-6.83-19.55-16.48l-15.87-92.17c-.9-5.22.29-10.49,3.35-14.82,3.06-4.33,7.62-7.21,12.84-8.11,10.79-1.86,21.07,5.41,22.93,16.19l15.87,92.17c.9,5.22-.29,10.49-3.35,14.82s-7.62,7.21-12.84,8.11l-.17-.99.17.99c-1.13.2-2.26.29-3.38.29Zm-15.85-129.87c-1,0-2.02.08-3.04.26-4.7.81-8.8,3.4-11.55,7.29-2.75,3.89-3.82,8.63-3.01,13.32l15.87,92.17c1.67,9.7,10.92,16.23,20.62,14.56h0c4.7-.81,8.8-3.4,11.55-7.29,2.75-3.89,3.82-8.63,3.01-13.32l-15.87-92.17c-1.49-8.68-9.06-14.82-17.58-14.82Z"/>
  <path class="redDark03" d="m205.11,159.42c-.28,0-.47,0-.57,0v-2c.55,0,55.92.14,79.99-10.98l.84,1.82c-23.43,10.82-73.96,11.17-80.26,11.17Z"/>
  <path class="redDark03" d="m208.72,170.5c-.12,0-.19,0-.21,0v-1c.59,0,56.05.13,80.24-10.61l.41.91c-23.63,10.5-76.67,10.7-80.44,10.7Z"/>
  <path class="skin04" d="m287.53,94.36l-2.34.63c-6.46,1.75-10.31,8.4-8.59,14.84l31.04,116.66c1.71,6.44,8.34,10.25,14.8,8.49l2.34-.63c6.46-1.75,10.31-8.4,8.59-14.84l-31.04-116.66c-1.71-6.44-8.34-10.25-14.8-8.49Z"/>
  <path class="redDark01" d="m281.1,91.3h29.53v66.72c0,8.15-6.62,14.76-14.76,14.76h0c-8.15,0-14.76-6.62-14.76-14.76v-66.72h0Z" transform="translate(615.82 183) rotate(165)"/>
  <rect class="redDark01" x="96.34" y="195.15" width="58.74" height="208.13" rx="29.37" ry="29.37" transform="translate(-134.02 493.82) rotate(-104.05)"/>
  <rect class="skin04" x="87.29" y="156.82" width="27.12" height="122.97" rx="13.56" ry="13.56" transform="translate(325.93 133.65) rotate(94.19)"/>
  <path class="redDark02" d="m309.28,268.44c-.24,0-.48-.08-.67-.26l-20.4-18.36c-.41-.37-.44-1-.07-1.41.37-.41,1-.44,1.41-.07l20.4,18.36c.41.37.44,1,.07,1.41-.2.22-.47.33-.74.33Z"/>
  <path class="redDark03" d="m236.51,0h0v69h-58v-11C178.51,25.99,204.5,0,236.51,0Z"/>
  <circle class="skin04" cx="200.07" cy="46.57" r="11.34"/>
  <path class="skin06" d="m194.42,47.07c-.28,0-.5-.22-.5-.5,0-3.39,2.76-6.15,6.15-6.15.28,0,.5.22.5.5s-.22.5-.5.5c-2.84,0-5.15,2.31-5.15,5.15,0,.28-.22.5-.5.5Z"/>
  <rect class="redDark03" x="199.1" y="-.11" width="73.01" height="87.43" rx="36.51" ry="36.51" transform="translate(13.01 -45.07) rotate(11.24)"/>
  <rect class="skin04" x="198.1" y="7.07" width="68.97" height="82.72" rx="34.49" ry="34.49" transform="translate(13.89 -44.39) rotate(11.24)"/>
  <path class="skin06" d="m222.71,70.77c-2.75,0-4.96-.87-5.01-.89-.26-.1-.38-.4-.27-.65.1-.26.4-.38.65-.28.35.14,8.64,3.4,12.43-3.77.13-.24.43-.34.68-.21.24.13.34.43.21.68-2.18,4.12-5.74,5.12-8.68,5.12Z"/>
  <path class="darkBlueDark02" d="m212.18,44.94c1.06,0,1.91,1.14,1.91,2.55s-.86,2.55-1.91,2.55-1.91-1.14-1.91-2.55.86-2.55,1.91-2.55Z"/>
  <path class="darkBlueDark02" d="m232.6,44.94c1.06,0,1.91,1.14,1.91,2.55s-.86,2.55-1.91,2.55-1.91-1.14-1.91-2.55.86-2.55,1.91-2.55Z"/>
  <path class="skin06" d="m264.52,47.07c-.28,0-.5-.22-.5-.5,0-3.39,2.76-6.15,6.15-6.15.28,0,.5.22.5.5s-.22.5-.5.5c-2.84,0-5.15,2.31-5.15,5.15,0,.28-.22.5-.5.5Z"/>
  <path class="skin06" d="m219.36,59.18c-1.5,0-2.9-.58-3.96-1.64-2.28-2.28.78-6.33.91-6.5.17-.22.48-.26.7-.09.22.17.26.48.09.7-.03.04-2.65,3.53-1,5.19.87.87,2.03,1.35,3.25,1.35s2.39-.48,3.25-1.35c.2-.2.51-.2.71,0,.2.2.2.51,0,.71-1.06,1.06-2.46,1.64-3.96,1.64Z"/>
  <rect class="redDark02" x="207.01" y="34.62" width="6.47" height="1"/>
  <rect class="redDark02" x="230.72" y="34.62" width="6.47" height="1"/>
  <path class="skin06" d="m235.17,67.07c-3.39,0-6.15-2.76-6.15-6.15,0-.28.22-.5.5-.5s.5.22.5.5c0,2.84,2.31,5.15,5.15,5.15.28,0,.5.22.5.5s-.22.5-.5.5Z"/>
  <circle class="skin04" cx="270.17" cy="46.57" r="11.34"/>
  <path class="redDark03" d="m241.94,1.92h0c-9.17-1.86-18.21-.04-25.68,4.45-.64,2.8-.99,5.71-.99,8.7,0,20.95,16.63,37.93,37.15,37.93,6.45,0,12.52-1.68,17.81-4.64l.49-2.5c3.94-20.24-8.94-39.92-28.77-43.94Z"/>
  <polygon class="skin04" points="233.51 100 243.51 130 254.38 95.87 233.51 100"/>
  <rect class="redDark01" x="244.51" y="100" width="23" height="10" transform="translate(78.15 316.97) rotate(-72.3)"/>
  <rect class="redDark01" x="220.85" y="101.63" width="20.5" height="10" transform="translate(203.28 359.61) rotate(-108.49)"/>
  <path class="skin04" d="m234.15,562.86l13.86,41.47-62.07,23.88s.33-9.12,10.25-15.12c9.92-6,18.33-12.27,15.4-19.9-2.93-7.62-8.1-19.24-8.1-19.24l30.66-11.1Z"/>
  <path class="redDark01" d="m212.09,591.76c1.99-.64,5.27-.71,7.7,4.15.43.85,1.39,1.26,2.23.94l20.17-7.76c.91-.35,1.94.15,2.32,1.11l6.72,17.46c.37.96-.07,2.03-.97,2.37l-63.33,24.37c-.89.34-1.9-.12-2.29-1.05-1.63-3.92-5.42-15.66,3.15-18.95,10.79-4.15,22.66-12.33,23.74-14.97.66-1.62.08-3.82-.48-5.28-.38-.99.1-2.08,1.06-2.39Z"/>
  <path class="cls-1" d="m299.01,276.47h0c-9.41-13.21-27.75-16.29-40.96-6.88l-121.67,86.68c-12.42,8.85-15.88,25.59-8.43,38.54l79.57,190.12,31.24-12.02-59.66-174.96,113.04-80.53c13.21-9.41,16.29-27.75,6.88-40.96Z"/>
  <path class="redDark02" d="m251.22,607.65c.37.96-.07,2.03-.97,2.37l-63.33,24.37c-.89.34-1.9-.12-2.29-1.05-.23-.56-.51-1.3-.79-2.14l66.6-25.63.79,2.07Z"/>
  <g>
    <path class="skin04" d="m250.21,333.8l43.06,7.64-8.68,65.94s-7.85-4.65-8.39-16.23c-.53-11.58-2.02-21.97-10.12-23.03-8.1-1.07-20.77-2.08-20.77-2.08l4.9-32.24Z"/>
    <path class="redDark01" d="m265.06,366.99c.39-2.05,1.89-4.97,7.32-4.78.95.03,1.77-.62,1.89-1.51l2.82-21.43c.13-.97,1.06-1.64,2.08-1.5l18.55,2.44c1.02.13,1.75,1.03,1.62,1.99l-8.85,67.28c-.12.94-1.01,1.62-2.01,1.51-4.22-.44-16.34-2.73-15.15-11.82,1.51-11.46,0-25.8-1.81-28.01-1.1-1.36-3.32-1.89-4.86-2.1-1.05-.14-1.78-1.08-1.59-2.07Z"/>
    <path class="redDark01" d="m26.62,319.54h0c-1.72,13.07,7.48,25.06,20.55,26.79l209.71,21.43,4.37-33.18-207.84-35.58c-13.07-1.72-25.06,7.48-26.79,20.55Z"/>
    <path class="redDark02" d="m297.72,340.2c1.02.13,1.75,1.03,1.62,1.99l-8.85,67.28c-.12.94-1.01,1.62-2.01,1.51-.61-.06-1.39-.17-2.26-.33l9.31-70.75,2.19.29Z"/>
  </g>
  <path class="cls-2" d="m11.85,221.77s.52,4.36,3.48,3.86,2.29-4.44,2.29-4.44c0,0,.67,3.94,4.61,3.28s3.27-4.46,3.27-4.46l4.45,2.14,17.58-3.99s2.29-4.44,1.96-6.42c-.33-1.97-1-5.92-1.17-6.9s-9.54-2.44-10.53-2.28-24.48,5.15-24.48,5.15c0,0-2.95.11-3.28.88s1.82,13.18,1.82,13.18Z"/>
  <path class="skin04" d="m42.51,217s-2,2-5,3-15,1-15,1c0,0-4,0-4,4s3,4,3,4h62l-26.51-27.5-35.49-.5S.01,201,.01,222.5c0,0-.44,4.03,4.03,4.03s4.47-4.53,4.47-4.53c0,0,4-12,14-12s20-2,20,7Z"/>
  <g>
    <path class="skin04" d="m332.21,217.06l-1.31-2.06c-3.61-5.69-11.1-7.41-16.74-3.85l-102.11,64.43c-5.64,3.56-7.29,11.05-3.68,16.74l1.31,2.06c3.61,5.69,11.1,7.41,16.74,3.85l102.11-64.43c5.64-3.56,7.29-11.05,3.68-16.74Z"/>
    <path class="skin04" d="m214.2,298.76c-2.01-2.08-11.32,2.51-13.95,5.78-2.64,3.27-4.95,2.26-6.77,1.01-1.82-1.26-.05-4.47-.05-4.47,0,0-1.64.14-3.7-.26-2.06-.41-2.22-5.37-2.22-5.37,0,0-1.17.55-2.62.19-1.45-.36-1.5-3.51-1.45-5.68.05-2.18,4.23-7.14,4.23-7.14-3.88-.1-1.9-4.6-1.9-4.6,0,0,9.04-8.77,11.13-10,2.09-1.23,6.77-1.01,6.77-1.01,0,0,20.29,4.27,22.8,8.41"/>
    <path class="skin06" d="m221.08,274.29c-.1,0-.21-.03-.3-.1-.12-.09-12.59-9.11-22.38-6.31-.27.08-.54-.08-.62-.34-.08-.27.08-.54.34-.62,10.28-2.93,22.73,6.08,23.25,6.47.22.16.27.48.11.7-.1.13-.25.2-.4.2Z"/>
    <rect class="greenColor" x="241.05" y="254.79" width="9" height="31" transform="translate(-105.08 168.25) rotate(-31.52)"/>
    <rect class="greenDimmed01" x="236.85" y="258.86" width="15" height="17" rx="2.94" ry="2.94" transform="translate(-103.72 167.19) rotate(-31.52)"/>
    <rect class="greenColor" x="236.07" y="259.08" width="15" height="14.01" rx="2.94" ry="2.94" transform="translate(-103.17 166.59) rotate(-31.52)"/>
    <rect class="greenDimmed01" x="238.07" y="260.96" width="10.99" height="10.26" rx="2.51" ry="2.51" transform="translate(-103.17 166.59) rotate(-31.52)"/>
  </g>
</svg>