<?xml version="1.0" encoding="UTF-8"?>
<svg id="Layer_2" data-name="Layer 2" xmlns="http://www.w3.org/2000/svg" xmlns:xlink="http://www.w3.org/1999/xlink" viewBox="0 0 293.2 701.88">
  <defs>
    <style>
      .skinDark03 {
        fill: #dfa890;
      }

      .greenDimmed02{
        fill: #e3f6e7;
      }

      .greenDark01{
        fill: #00a167;
      }

      .skin03 {
        fill: #e9c0ac;
      }

      .darkBlueDark02 {
        fill: #03112e;
      }

      .cls-6 {
        fill: url(#Degradado_sin_nombre_58);
      }

      .greenDark02 {
        fill: #317864;
      }

      .greenColor {
        fill: #71d187;
      }

      .cls-8 {
        fill: url(#Degradado_sin_nombre_9);
      }

      .skin04 {
        fill: #d59174;
      }
    </style>
    <linearGradient id="Degradado_sin_nombre_9" data-name="Degradado sin nombre 9" x1="108.03" y1="102.95" x2="108.03" y2="152" gradientUnits="userSpaceOnUse">
      <stop offset=".5" stop-color="#e9c0ac"/>
      <stop offset="1" stop-color="#dfa890"/>
    </linearGradient>
    <radialGradient id="Degradado_sin_nombre_58" data-name="Degradado sin nombre 58" cx="101.48" cy="78.06" fx="101.48" fy="78.06" r="28.73" gradientUnits="userSpaceOnUse">
      <stop offset="0" stop-color="#dfa890"/>
      <stop offset="1" stop-color="#e9c0ac"/>
    </radialGradient>
  </defs>
  <g>
    <path class="greenColor" d="m195.93,649.74l1.74,48.97-88.94,3.16-.18-5s.61-11.03,10.6-11.38c9.99-.36,35.4-15.88,35.28-19.07s-.54-15.18-.54-15.18l42.03-1.5Z"/>
    <rect class="skin03" x="153.73" y="631.49" width="42" height="26" transform="translate(-22.81 6.62) rotate(-2.04)"/>
    <rect class="greenDimmed02" x="157.4" y="665.54" width="2" height="10.61" transform="translate(-440.48 329.57) rotate(-47.04)"/>
    <path class="greenDimmed02" d="m153.37,667.88l.21-1.43c.17-1.18,1.11-7.15,2.71-8.86,1.83-1.97,4.93-2.08,6.9-.25.95.89,1.5,2.09,1.55,3.4.05,1.3-.42,2.54-1.31,3.5h0c-1.59,1.71-7.48,3.07-8.64,3.33l-1.41.31Zm6.49-9.84c-.77,0-1.54.31-2.11.92-.71.77-1.48,3.78-1.95,6.31,2.49-.64,5.45-1.62,6.16-2.39h0c.52-.56.8-1.3.77-2.06s-.35-1.48-.92-2c-.55-.52-1.26-.77-1.96-.77Z"/>
    <path class="greenDimmed02" d="m155.03,667.82l-1.43-.21c-1.18-.17-7.15-1.11-8.86-2.71-.95-.89-1.5-2.09-1.55-3.4-.05-1.3.42-2.54,1.31-3.5.89-.95,2.09-1.5,3.4-1.55,1.3-.04,2.54.42,3.5,1.31,1.71,1.59,3.07,7.48,3.33,8.64l.31,1.41Zm-6.96-9.37s-.07,0-.1,0c-.77.03-1.48.35-2,.92-.52.56-.8,1.3-.77,2.06s.35,1.48.91,2c.77.71,3.78,1.48,6.31,1.95-.64-2.49-1.62-5.45-2.39-6.16-.54-.5-1.23-.77-1.96-.77Z"/>
    <rect class="greenDimmed02" x="145.11" y="670.13" width="10.61" height="2" transform="translate(-443.17 323.71) rotate(-47.03)"/>
    <path class="greenDimmed02" d="m196.67,670.57c-1.93-.47-3.95-.7-6.03-.62-12.14.43-21.64,10.63-21.2,22.77l-33.98,1.21c-.16-4.61-2.15-8.71-5.24-11.67-4.3,1.86-8.28,3.14-11.07,3.24-9.99.36-10.6,11.38-10.6,11.38l.18,5,88.94-3.16-1-28.15Z"/>
  </g>
  <g>
    <path class="greenColor" d="m92.4,652.27l-1.85,48.97-88.94-3.36.19-5s1.41-10.95,11.41-10.58c9.99.38,36.47-13.25,36.59-16.44l.57-15.18,42.03,1.59Z"/>
    <rect class="skin03" x="50.64" y="632.48" width="42" height="26" transform="translate(24.41 -2.24) rotate(2.16)"/>
    <rect class="greenDimmed02" x="52.43" y="665.26" width="2" height="10.61" transform="translate(-441.69 215.19) rotate(-42.84)"/>
    <path class="greenDimmed02" d="m48.63,667.24l.31-1.41c.26-1.16,1.63-7.05,3.35-8.64.96-.89,2.2-1.33,3.5-1.3,1.3.05,2.51.6,3.39,1.56.89.96,1.35,2.2,1.3,3.5-.05,1.3-.6,2.51-1.56,3.39-1.71,1.59-7.68,2.52-8.86,2.69l-1.43.21Zm6.98-9.35c-.73,0-1.42.27-1.95.77-.77.71-1.75,3.66-2.4,6.15,2.53-.46,5.55-1.22,6.32-1.93.56-.52.89-1.23.92-2,.03-.77-.24-1.5-.77-2.07-.52-.56-1.23-.89-2-.92-.04,0-.07,0-.11,0Z"/>
    <path class="greenDimmed02" d="m50.29,667.3l-1.41-.31c-1.16-.26-7.05-1.63-8.64-3.35-1.83-1.97-1.71-5.07.26-6.9.96-.89,2.2-1.34,3.5-1.3,1.3.05,2.51.6,3.39,1.56,1.59,1.71,2.52,7.68,2.69,8.86l.21,1.43Zm-6.47-9.86c-.73,0-1.42.27-1.95.77-1.16,1.08-1.23,2.9-.15,4.07.71.77,3.66,1.75,6.15,2.4-.46-2.53-1.22-5.55-1.93-6.32-.52-.56-1.23-.89-2-.92-.04,0-.07,0-.11,0Z"/>
    <rect class="greenDimmed02" x="40.14" y="669.26" width="10.61" height="2" transform="translate(-443.57 209.63) rotate(-42.83)"/>
    <path class="greenDimmed02" d="m91.61,673.09c-1.89-.61-3.88-.98-5.96-1.06-12.14-.46-22.36,9.01-22.81,21.15l-33.98-1.28c.17-4.61-1.51-8.85-4.37-12.02-4.42,1.54-8.49,2.53-11.28,2.42-9.99-.38-11.41,10.58-11.41,10.58l-.19,5,88.94,3.36,1.06-28.14Z"/>
  </g>
  <polygon class="greenColor" points="127.83 648.16 195.78 645.75 184.05 315.95 183.61 315.97 105.1 315.95 106.12 289.02 38.16 286.46 24.6 645.71 92.55 648.27 102.72 378.99 118.25 378.99 127.83 648.16"/>
  <path class="greenDark01" d="m184.03,349c-18.2,0-33-14.8-33-33h2c0,17.09,13.91,31,31,31v2Z"/>
  <path class="greenDark01" d="m116.31,316v61.99h-.66c-6.81-.06-12.34-5.61-12.34-12.44v-49.55h-2v49.55c0,5.3,2.87,9.92,7.14,12.44h-16.56s0,2,0,2h23.77s.07.01.11.01h2.55v-64h-2Z"/>
  <path class="greenDimmed02" d="m128.33,102.96h-35.46c-49.83.04-85.83,36.04-50.78,50.75l-5.03,162.23,147,.03-4.97-162.23c0-28.04,33.95-46.74-50.76-50.78Z"/>
  <rect class="skinDark03" x="13.52" y="120.68" width="44" height="167" rx="22" ry="22" transform="translate(41.13 -2.99) rotate(11.42)"/>
  <g>
    <path class="greenDark01" d="m39.88,158.82c-.1,0-.2,0-.3-.03l-23.52-4.75c-.81-.16-1.34-.96-1.17-1.77.16-.81.95-1.34,1.77-1.17l23.52,4.75c.81.16,1.34.96,1.17,1.77-.14.71-.77,1.2-1.47,1.2Z"/>
    <path class="greenDark01" d="m36.91,173.52c-.1,0-.2,0-.3-.03l-23.52-4.75c-.81-.16-1.34-.96-1.17-1.77s.95-1.34,1.77-1.17l23.52,4.75c.81.16,1.34.96,1.17,1.77-.14.71-.77,1.2-1.47,1.2Z"/>
    <path class="greenDark01" d="m33.94,188.22c-.1,0-.2,0-.3-.03l-23.52-4.75c-.81-.16-1.34-.96-1.17-1.77.16-.81.95-1.34,1.77-1.17l23.52,4.75c.81.16,1.34.96,1.17,1.77-.14.71-.77,1.2-1.47,1.2Z"/>
    <path class="greenDark01" d="m30.97,202.93c-.1,0-.2,0-.3-.03l-23.52-4.75c-.81-.16-1.34-.96-1.17-1.77.16-.81.95-1.34,1.77-1.17l23.52,4.75c.81.16,1.34.96,1.17,1.77-.14.71-.77,1.2-1.47,1.2Z"/>
    <path class="greenDark01" d="m28,217.63c-.1,0-.2,0-.3-.03l-23.52-4.75c-.81-.16-1.34-.96-1.17-1.77.16-.81.95-1.34,1.77-1.17l23.52,4.75c.81.16,1.34.96,1.17,1.77-.14.71-.77,1.2-1.47,1.2Z"/>
    <path class="greenDark01" d="m25.03,232.33c-.1,0-.2,0-.3-.03l-23.52-4.75c-.81-.16-1.34-.96-1.17-1.77.16-.81.95-1.34,1.77-1.17l23.52,4.75c.81.16,1.34.96,1.17,1.77-.14.71-.77,1.2-1.47,1.2Z"/>
  </g>
  <path class="cls-8" d="m108.03,152c20.99,0,38-17.01,38-38,0-2.81-.31-5.54-.89-8.17-5.26-1.85-10.92-2.87-16.82-2.87h-35.46c-8.03-.01-15.62,1.86-22.38,5.18-.3,1.91-.45,3.87-.45,5.86,0,20.99,17.01,38,38,38Z"/>
  <g>
    <path class="greenDark01" d="m83.7,0h46.99C133.09,0,135.03,1.94,135.03,4.34v64.78c0,6.56-5.32,11.88-11.88,11.88h-17.79c-28.33,0-51.33-23-51.33-51.33h0C54.03,13.29,67.33,0,83.7,0Z"/>
    <path class="cls-6" d="m93.05,58.43h38.73v48.75h-38.73v-48.75Z"/>
    <path class="skin03" d="m137.66,37.27c5.54,0,10.04,4.49,10.04,10.04s-4.49,10.04-10.04,10.04-10.04-4.49-10.04-10.04,4.49-10.04,10.04-10.04Z"/>
    <path class="skin04" d="m132.46,46.51c-.11,0-.22-.02-.33-.06-.52-.18-.8-.75-.62-1.27,1.17-3.39,4.88-5.19,8.27-4.01.52.18.8.75.62,1.27-.18.52-.75.8-1.27.62-1.14-.39-2.36-.32-3.44.2s-1.89,1.44-2.29,2.57c-.14.41-.53.67-.94.67Z"/>
    <path class="greenDark01" d="m85.05,96.54l6.5.26c22.45.89,41.37-16.58,42.26-39.03l.93-23.42c.59-14.84-10.96-27.34-25.79-27.93l-20.29-.81c-14.84-.59-27.34,10.96-27.93,25.79l-1.48,37.2c-.59,14.84,10.96,27.34,25.79,27.93Z"/>
    <path class="skin03" d="m126.97,42.76c0-17.89-12.18-32.85-28.53-36.76l-9.78-.39c-14.84-.59-27.34,10.96-27.93,25.79l-1.3,32.59c6.65,9.97,17.86,16.52,30.56,16.52,20.42,0,36.97-16.9,36.97-37.76Z"/>
    <path class="greenDark01" d="m108.95,6.42l-20.29-.81c-1.23-.05-2.43,0-3.62.1,0,.09,0,.19,0,.28,0,17.67,14.33,32,32,32,6.55,0,12.65-1.97,17.72-5.35-.32-14.08-11.54-25.66-25.8-26.23Z"/>
    <path class="greenDark01" d="m70.07,63h32.93c6.64,0,12.04,5.39,12.04,12.04v20.46c0,15.73-12.77,28.5-28.5,28.5h0c-15.73,0-28.5-12.77-28.5-28.5v-20.46c0-6.64,5.39-12.04,12.04-12.04Z" transform="translate(3.89 -3.45) rotate(2.34)"/>
    <path class="darkBlueDark02" d="m99.63,40.23c1.19,0,2.15,1.28,2.15,2.87s-.96,2.87-2.15,2.87-2.15-1.28-2.15-2.87.96-2.87,2.15-2.87Z"/>
    <path class="darkBlueDark02" d="m77.67,40.23c1.19,0,2.15,1.28,2.15,2.87s-.96,2.87-2.15,2.87-2.15-1.28-2.15-2.87.96-2.87,2.15-2.87Z"/>
    <path class="greenDark02" d="m86.73,70.58c-3.84,0-8.26-1.41-12.43-4.12-.46-.3-.59-.92-.29-1.38.3-.46.92-.59,1.38-.29,5.93,3.85,12.29,4.89,16.21,2.65.48-.27,1.09-.11,1.36.37.27.48.11,1.09-.37,1.36-1.66.95-3.66,1.41-5.86,1.41Z"/>
    <path class="skinDark03" d="m84.54,60.71c-2.73,0-4.64-.79-5.67-2.35-1.84-2.78.01-6.84.09-7.01.23-.5.83-.72,1.33-.48.5.23.72.83.49,1.33-.41.89-1.25,3.54-.23,5.07.69,1.03,2.17,1.52,4.42,1.45.55,0,1.01.41,1.03.97.02.55-.41,1.01-.97,1.03-.17,0-.33,0-.49,0Z"/>
    <path class="greenDark01" d="m95.85,36h5c1.2,0,2.18.98,2.18,2.18h0c0,.45-.37.82-.82.82h-6.36c-.45,0-.82-.37-.82-.82v-1.36c0-.45.37-.82.82-.82Z" transform="translate(12.6 -23.68) rotate(14.55)"/>
    <path class="greenDark01" d="m71.85,36h6.36c.45,0,.82.37.82.82h0c0,1.2-.98,2.18-2.18,2.18h-5c-.45,0-.82-.37-.82-.82v-1.36c0-.45.37-.82.82-.82Z" transform="translate(156.05 59.23) rotate(168.46)"/>
  </g>
  <path class="skin03" d="m93.5,113.73c1.77-5.82-5.3-5.73-5.3-5.73l-.6-3.1c-4.05-7.59-21.08-.74-21.08-.74,0,0,5.69-20.44,7.2-24.27s1.03-8.28-2.8-9.44c-5.82-1.77-6.73,5.17-6.73,5.17l-20.41,63.52h0c-.38.82-.72,1.67-1.01,2.55L5.13,258.8c-3.72,11.57,2.64,23.96,14.21,27.68h0c11.57,3.72,23.96-2.64,27.68-14.21l37.41-116.36c.18.03.37.07.53.09,9.92,1.29,10.35-32.94,10.35-32.94,4.01-7.54-1.81-9.31-1.81-9.31Z"/>
  <path class="skin03" d="m210.08,319.39l78.11-95.01c7.72-9.39,6.36-23.25-3.02-30.97l-95.01-78.11c-9.39-7.72-23.25-6.36-30.97,3.02s-6.36,23.25,3.02,30.97l78.02,64.14-64.14,78.02c-5,6.08-6.17,14.02-3.84,20.97,0,.02.01.04.02.07.85,2.51,2.15,4.89,3.9,6.99,4.89,9.88,12.12,29.99,1.17,47.13-1.49,2.33-.81,5.42,1.52,6.91.83.53,1.77.79,2.69.79,1.65,0,3.26-.81,4.22-2.31.45-.71.87-1.42,1.28-2.13.24.24.51.46.81.65.83.53,1.77.79,2.69.79,1.65,0,3.26-.81,4.22-2.31.45-.71.87-1.42,1.28-2.13.24.24.51.46.81.65.83.53,1.77.79,2.69.79,1.65,0,3.26-.81,4.22-2.31,9.88-15.44,8.27-32.1,4.4-44.59.67-.63,1.31-1.29,1.91-2.02Z"/>
  <g>
    <path class="greenDark01" d="m230.04,307.89c-.34,0-.67-.11-.95-.34l-18.54-15.24c-.64-.53-.73-1.47-.21-2.11.53-.64,1.47-.73,2.11-.21l18.54,15.24c.64.53.73,1.47.21,2.11-.3.36-.73.55-1.16.55Z"/>
    <path class="greenDark01" d="m239.56,296.3c-.34,0-.67-.11-.95-.34l-18.54-15.24c-.64-.53-.73-1.47-.21-2.11.53-.64,1.47-.73,2.11-.21l18.54,15.24c.64.53.73,1.47.21,2.11-.3.36-.73.55-1.16.55Z"/>
    <path class="greenDark01" d="m249.09,284.71c-.34,0-.67-.11-.95-.34l-18.54-15.24c-.64-.53-.73-1.47-.21-2.11.53-.64,1.47-.73,2.11-.21l18.54,15.24c.64.53.73,1.47.21,2.11-.3.36-.73.55-1.16.55Z"/>
    <path class="greenDark01" d="m258.62,273.12c-.34,0-.67-.11-.95-.34l-18.54-15.24c-.64-.53-.73-1.47-.21-2.11.53-.64,1.47-.73,2.11-.21l18.54,15.24c.64.53.73,1.47.21,2.11-.3.36-.73.55-1.16.55Z"/>
    <path class="greenDark01" d="m268.14,261.54c-.34,0-.67-.11-.95-.34l-18.54-15.24c-.64-.53-.73-1.47-.21-2.11.53-.64,1.47-.73,2.11-.21l18.54,15.24c.64.53.73,1.47.21,2.11-.3.36-.73.55-1.16.55Z"/>
    <path class="greenDark01" d="m277.67,249.95c-.34,0-.67-.11-.95-.34l-18.54-15.24c-.64-.53-.73-1.47-.21-2.11.53-.64,1.47-.73,2.11-.21l18.54,15.24c.64.53.73,1.47.21,2.11-.3.36-.73.55-1.16.55Z"/>
    <path class="greenDark01" d="m190.16,138.23c-.34,0-.67-.11-.95-.34-.64-.53-.73-1.47-.21-2.11l15.24-18.54c.53-.64,1.47-.73,2.11-.21.64.53.73,1.47.21,2.11l-15.24,18.54c-.3.36-.73.55-1.16.55Z"/>
    <path class="greenDark01" d="m201.75,147.76c-.34,0-.67-.11-.95-.34-.64-.53-.73-1.47-.21-2.11l15.24-18.54c.53-.64,1.47-.73,2.11-.21.64.53.73,1.47.21,2.11l-15.24,18.54c-.3.36-.73.55-1.16.55Z"/>
    <path class="greenDark01" d="m213.34,157.28c-.34,0-.67-.11-.95-.34-.64-.53-.73-1.47-.21-2.11l15.24-18.54c.53-.64,1.47-.73,2.11-.21.64.53.73,1.47.21,2.11l-15.24,18.54c-.3.36-.73.55-1.16.55Z"/>
    <path class="greenDark01" d="m224.92,166.81c-.34,0-.67-.11-.95-.34-.64-.53-.73-1.47-.21-2.11l15.24-18.54c.53-.64,1.47-.73,2.11-.21.64.53.73,1.47.21,2.11l-15.24,18.54c-.3.36-.73.55-1.16.55Z"/>
    <path class="greenDark01" d="m236.51,176.34c-.34,0-.67-.11-.95-.34-.64-.53-.73-1.47-.21-2.11l15.24-18.54c.53-.64,1.47-.73,2.11-.21.64.53.73,1.47.21,2.11l-15.24,18.54c-.3.36-.73.55-1.16.55Z"/>
    <path class="greenDark01" d="m248.1,185.86c-.34,0-.67-.11-.95-.34-.64-.53-.73-1.47-.21-2.11l15.24-18.54c.53-.64,1.47-.73,2.11-.21.64.53.73,1.47.21,2.11l-15.24,18.54c-.3.36-.73.55-1.16.55Z"/>
  </g>
  <g>
    <path class="greenDark01" d="m51.85,169.99c-.15,0-.31-.02-.46-.07l-22.85-7.35c-.79-.25-1.22-1.1-.97-1.89.25-.79,1.1-1.22,1.89-.97l22.85,7.35c.79.25,1.22,1.1.97,1.89-.2.64-.79,1.04-1.43,1.04Z"/>
    <path class="greenDark01" d="m47.26,184.27c-.15,0-.31-.02-.46-.07l-22.85-7.35c-.79-.25-1.22-1.1-.97-1.89.25-.79,1.1-1.22,1.89-.97l22.85,7.35c.79.25,1.22,1.1.97,1.89-.2.64-.79,1.04-1.43,1.04Z"/>
    <path class="greenDark01" d="m42.67,198.55c-.15,0-.31-.02-.46-.07l-22.85-7.35c-.79-.25-1.22-1.1-.97-1.89.25-.79,1.1-1.22,1.89-.97l22.85,7.35c.79.25,1.22,1.1.97,1.89-.2.64-.79,1.04-1.43,1.04Z"/>
    <path class="greenDark01" d="m38.08,212.83c-.15,0-.31-.02-.46-.07l-22.85-7.35c-.79-.25-1.22-1.1-.97-1.89.25-.79,1.1-1.22,1.89-.97l22.85,7.35c.79.25,1.22,1.1.97,1.89-.2.64-.79,1.04-1.43,1.04Z"/>
    <path class="greenDark01" d="m33.49,227.11c-.15,0-.31-.02-.46-.07l-22.85-7.35c-.79-.25-1.22-1.1-.97-1.89.25-.79,1.1-1.22,1.89-.97l22.85,7.35c.79.25,1.22,1.1.97,1.89-.2.64-.79,1.04-1.43,1.04Z"/>
    <path class="greenDark01" d="m28.9,241.39c-.15,0-.31-.02-.46-.07l-22.85-7.35c-.79-.25-1.22-1.1-.97-1.89.25-.79,1.1-1.22,1.89-.97l22.85,7.35c.79.25,1.22,1.1.97,1.89-.2.64-.79,1.04-1.43,1.04Z"/>
  </g>
</svg>