<?xml version="1.0" encoding="UTF-8"?>
<svg id="Layer_2" data-name="Layer 2" xmlns="http://www.w3.org/2000/svg" viewBox="0 0 351.19 687.65">
  <defs>
    <style>
      .skinDark03 {
        fill: #dfa890;
      }

      .white {
        fill: #fff;
      }

      .greenDimmed02 {
        fill: #e3f6e7;
      }

      .yellowDark02 {
        fill: #e3ae00;
      }

      .greenDark01 {
        fill: #00a167;
      }

      .darkBlueDark02 {
        fill: #03112e;
      }

      .greenDimmed01 {
        fill: #aae3b7;
      }

      .orangeDark01 {
        fill: #bd6400;
      }

      .redDimmed02 {
        fill: #fdd6d8;
      }

      .greenColor {
        fill: #71d187;
      }

      .greenDark02 {
        fill: #317864;
      }

      .yellowColor {
        fill: #ffd300;
      }

      .orangeColor {
        fill: #fc8500;
      }
    </style>
  </defs>
  <rect class="redDimmed02" x="144.93" y="87.59" width="37" height="190" rx="18.5" ry="18.5" transform="translate(185.84 -61.43) rotate(47.08)"/>
  <rect class="redDimmed02" x="60.52" y="87.93" width="37" height="170.88" rx="18.5" ry="18.5" transform="translate(222.86 298.32) rotate(155.48)"/>
  <path class="redDimmed02" d="m70.96,111.22s-.81-24.22-17.81-25.22-15,19-15,19l32.81,6.22Z"/>
  <path class="redDimmed02" d="m11.15,95v-13.27s0-3.73,3.73-3.73,3.73,3.73,3.73,3.73v13.27h-7.46Z"/>
  <path class="redDimmed02" d="m15.15,91v-13.27s0-3.73,3.73-3.73,3.73,3.73,3.73,3.73v13.27h-7.46Z"/>
  <path class="redDimmed02" d="m20.15,88v-13.27s0-3.73,3.73-3.73,3.73,3.73,3.73,3.73v13.27h-7.46Z"/>
  <polygon class="yellowColor" points="46.15 50 6.71 101 65.6 101 46.15 50"/>
  <polygon class="yellowDark02" points="46.15 50 87.35 101 65.6 101 46.15 50"/>
  <path class="redDimmed02" d="m64.15,107s-16-16-28-12-14,6-14,6l-15-11s-5-2-6,0-2,4,0,6,9,7,14,11,14,3,14,3l8.57,16.82,26.43-19.82Z"/>
  <circle class="orangeColor" cx="287.76" cy="68.16" r="8"/>
  <circle class="orangeColor" cx="295.95" cy="82.09" r="8"/>
  <circle class="orangeColor" cx="302.16" cy="96.32" r="8"/>
  <rect class="greenDimmed01" x="186.18" y="103.07" width="37" height="81.87" rx="18.5" ry="18.5" transform="translate(168.91 -103.69) rotate(46.65)"/>
  <path class="redDimmed02" d="m119.15,117h8s6,1,6,5v6s5,5,6,11-2,8-2,8h-18v-30Z"/>
  <path class="greenDimmed02" d="m188.52,188.53l-30.57-33.02,19.08-17.66,30.57,33.02-19.08,17.66Z"/>
  <circle class="orangeColor" cx="306.55" cy="111.84" r="8"/>
  <path class="greenDark01" d="m242.06,113h56.1v233h-84v-205.1c0-15.4,12.5-27.9,27.9-27.9Z"/>
  <rect class="redDimmed02" x="297.11" y="602.56" width="41.11" height="38" transform="translate(-52.96 30.05) rotate(-5)"/>
  <path class="greenDark01" d="m339.48,631.1l4.26,48.81-88.66,7.74-.43-4.98s.04-11.05,10-11.91c9.96-.87,34.53-17.69,34.26-20.87-.28-3.18-1.32-15.13-1.32-15.13l41.9-3.66Z"/>
  <rect class="greenDimmed01" x="302.09" y="648.79" width="2" height="10.61" transform="translate(-392.77 465.71) rotate(-49.99)"/>
  <path class="greenDimmed01" d="m297.9,651.4l.14-1.44c.11-1.19.74-7.2,2.25-8.98.84-1,2.01-1.61,3.31-1.72,1.3-.12,2.56.29,3.56,1.12,1,.84,1.61,2.01,1.72,3.31.11,1.3-.29,2.56-1.12,3.56h0c-1.5,1.79-7.31,3.45-8.46,3.77l-1.4.38Zm6.12-10.17c-.08,0-.17,0-.26.01-.77.07-1.46.43-1.95,1.02-.67.8-1.29,3.85-1.62,6.41,2.46-.77,5.36-1.9,6.03-2.7.49-.59.73-1.34.66-2.1-.07-.77-.43-1.46-1.02-1.95-.52-.44-1.17-.67-1.85-.67Z"/>
  <path class="greenDimmed01" d="m299.56,651.25l-1.44-.14c-1.19-.11-7.2-.74-8.98-2.25-1-.84-1.61-2.01-1.72-3.31-.11-1.3.29-2.56,1.12-3.56.84-1,2.01-1.61,3.31-1.72,1.29-.12,2.56.29,3.56,1.12h0c1.79,1.5,3.45,7.31,3.77,8.46l.38,1.4Zm-7.28-9c-.08,0-.17,0-.26.01-.77.07-1.46.43-1.95,1.02-.49.59-.73,1.34-.66,2.1.07.77.43,1.46,1.02,1.95.8.67,3.85,1.29,6.41,1.62-.77-2.46-1.9-5.36-2.71-6.03h0c-.52-.44-1.17-.67-1.85-.67Z"/>
  <rect class="greenDimmed01" x="289.81" y="653.79" width="10.61" height="2" transform="translate(-396.12 459.77) rotate(-49.98)"/>
  <path class="greenColor" d="m341.29,651.85c-1.95-.37-3.98-.49-6.05-.31-12.1,1.06-21.06,11.73-20,23.83l-33.87,2.96c-.4-4.59-2.6-8.59-5.83-11.38-4.2,2.08-8.11,3.57-10.89,3.81-9.96.87-10,11.91-10,11.91l.43,4.98,88.66-7.74-2.45-28.06Z"/>
  <rect class="redDimmed02" x="246.15" y="45" width="34" height="69"/>
  <path class="greenDark01" d="m223.15,234h0c19.32,0,35,15.68,35,35v330h-70v-330c0-19.32,15.68-35,35-35Z" transform="translate(37.15 -17.86) rotate(5)"/>
  <path class="greenDark01" d="m298.15,234h0c19.32,0,35,15.68,35,35v330h-70v-330c0-19.32,15.68-35,35-35Z" transform="translate(-35.17 27.57) rotate(-5)"/>
  <circle class="white" cx="115.37" cy="64.12" r="28"/>
  <path class="yellowDark02" d="m115.34,94.12c-15.37,0-28.5-11.79-29.86-27.39-.7-7.98,1.75-15.76,6.9-21.9,5.15-6.14,12.38-9.9,20.37-10.6,7.98-.7,15.76,1.75,21.9,6.9,6.14,5.15,9.9,12.38,10.6,20.37h0c1.44,16.48-10.79,31.06-27.27,32.5-.88.08-1.77.12-2.64.12Zm.07-56c-.77,0-1.54.03-2.31.1-6.92.61-13.19,3.87-17.65,9.19s-6.59,12.06-5.98,18.98c1.25,14.28,13.89,24.89,28.17,23.64,14.28-1.25,24.88-13.89,23.63-28.17-.61-6.92-3.87-13.19-9.19-17.65-4.73-3.97-10.57-6.09-16.67-6.09Z"/>
  <rect class="yellowDark02" x="115.6" y="91.89" width="10" height="64" rx="5" ry="5" transform="translate(-10.34 10.98) rotate(-5)"/>
  <path class="greenDark01" d="m200.15,165c0,12,15,17.59,15,17.59v-45.68s-15,18.09-15,28.09Z"/>
  <rect class="redDimmed02" x="247.83" y="102.28" width="37" height="190" rx="18.5" ry="18.5" transform="translate(131.41 -105.45) rotate(29.45)"/>
  <rect class="greenColor" x="170.12" y="561.39" width="78" height="43"/>
  <rect class="greenColor" x="273.19" y="561.39" width="78" height="43"/>
  <path class="redDimmed02" d="m246.15,113s-22,5-22,22h44s3-22,16-22h-38Z"/>
  <circle class="orangeDark01" cx="255.15" cy="42" r="42"/>
  <rect class="redDimmed02" x="210.12" y="7.37" width="71.65" height="92" rx="34" ry="34" transform="translate(15.7 -48.25) rotate(11.57)"/>
  <circle class="redDimmed02" cx="284.15" cy="65" r="10"/>
  <path class="skinDark03" d="m230.15,58c-.28,0-.55-.11-.75-.34-8.46-9.52,2.49-23.68,2.96-24.28.34-.43.97-.51,1.4-.17.43.34.51.97.17,1.4-.11.13-10.39,13.45-3.04,21.72.37.41.33,1.04-.08,1.41-.19.17-.43.25-.66.25Z"/>
  <path class="skinDark03" d="m237.15,77.22c-5.92,0-10.51-3.36-10.59-3.42-.44-.33-.53-.96-.2-1.4.33-.44.96-.53,1.4-.2.46.34,11.38,8.27,20.63-2.84.35-.42.98-.48,1.41-.13.42.35.48.98.13,1.41-4.21,5.06-8.8,6.58-12.78,6.58Z"/>
  <ellipse class="darkBlueDark02" cx="221.15" cy="48" rx="2" ry="3"/>
  <ellipse class="darkBlueDark02" cx="244.15" cy="48" rx="2" ry="3"/>
  <path class="orangeColor" d="m285.75,40c.26-1.47.41-2.97.41-4.5,0-17.95-18.58-32.5-41.5-32.5s-41.5,14.55-41.5,32.5c0,1.53.14,3.03.41,4.5h82.19Z"/>
  <path class="greenDimmed01" d="m224.15,135h44s.75-5.5,3.12-11h-43.39c-2.22,2.93-3.74,6.55-3.74,11Z"/>
  <path class="greenDark02" d="m276.15,141h-5c-2.76,0-5-2.24-5-5s2.24-5,5-5h5c2.76,0,5,2.24,5,5s-2.24,5-5,5Zm-5-7c-1.1,0-2,.9-2,2s.9,2,2,2h5c1.1,0,2-.9,2-2s-.9-2-2-2h-5Z"/>
  <rect class="greenDark02" x="315.94" y="295.52" width="1" height="266.37" transform="translate(-36.16 29.21) rotate(-5)"/>
  <polygon class="greenDark02" points="235.33 561.43 234.34 561.34 254.4 332.01 248.01 331.53 248.09 330.53 255.49 331.09 255.44 331.6 235.33 561.43"/>
  <path class="greenDark02" d="m222.15,141h-5c-2.76,0-5-2.24-5-5s2.24-5,5-5h5c2.76,0,5,2.24,5,5s-2.24,5-5,5Zm-5-7c-1.1,0-2,.9-2,2s.9,2,2,2h5c1.1,0,2-.9,2-2s-.9-2-2-2h-5Z"/>
  <path class="redDimmed02" d="m241.22,249.75l-101.97-109.67c-.53-.58-1.11-1.09-1.69-1.59h0s-6.41-9.81-6.41-9.81c0,0-12-1.68-16-5.68s-6-2-8-1,0,6,0,6c0,0-2-2-5,1s0,6,0,6c-4,2-1,9-1,9-2,2,0,7,0,7l8.19,10.29c.74,1.41,1.67,2.76,2.8,3.98l2.54,2.73h0s0,0,0,0l99.43,106.93c6.96,7.48,18.66,7.91,26.15.95,7.48-6.96,7.91-18.66.95-26.15Z"/>
  <path class="greenDark02" d="m305.65,297c-17.92,0-32.5-14.58-32.5-32.5h1c0,17.37,14.13,31.5,31.5,31.5,5.82,0,11.52-1.6,16.46-4.64l.52.85c-5.1,3.13-10.98,4.79-16.98,4.79Z"/>
  <rect class="redDimmed02" x="187.01" y="604.26" width="41.11" height="38"/>
  <path class="greenDark01" d="m228.47,634.66v49s-89.01-.02-89.01-.02v-5s1-11,11-11c10,0,35.94-14.61,35.94-17.8,0-3.19,0-15.19,0-15.19h42.06Z"/>
  <rect class="greenDimmed01" x="189.21" y="649.1" width="2" height="10.61" transform="translate(-406.94 326.03) rotate(-44.99)"/>
  <path class="greenDimmed01" d="m185.29,651.26l.26-1.42c.21-1.17,1.37-7.1,3.02-8.75.92-.92,2.15-1.43,3.45-1.43h0c1.3,0,2.53.51,3.45,1.43,1.9,1.9,1.9,5,0,6.9h0c-1.65,1.65-7.58,2.8-8.76,3.02l-1.42.26Zm6.73-9.61c-.77,0-1.49.3-2.04.84-.74.74-1.62,3.73-2.17,6.24,2.52-.55,5.5-1.43,6.24-2.17h0c1.12-1.12,1.12-2.95,0-4.07-.54-.54-1.27-.84-2.04-.84h0Z"/>
  <path class="greenDimmed01" d="m186.95,651.26l-1.42-.26c-1.17-.21-7.1-1.37-8.75-3.02-.92-.92-1.43-2.15-1.43-3.45s.51-2.53,1.43-3.45c1.9-1.9,5-1.9,6.9,0h0c1.65,1.65,2.8,7.58,3.02,8.76l.26,1.42Zm-6.73-9.61c-.74,0-1.47.28-2.04.84-.54.54-.84,1.27-.84,2.04s.3,1.49.84,2.04c.74.74,3.73,1.62,6.24,2.17-.55-2.52-1.43-5.5-2.17-6.24-.56-.56-1.3-.84-2.04-.84Z"/>
  <rect class="greenDimmed01" x="176.91" y="653.4" width="10.61" height="2" transform="translate(-409.3 320.41) rotate(-44.99)"/>
  <path class="greenColor" d="m228.46,655.49c-1.91-.54-3.92-.84-6-.84-12.15,0-22,9.85-22,22h-34c0-4.62-1.84-8.79-4.82-11.85-4.36,1.71-8.39,2.85-11.18,2.84-10,0-11,11-11,11v5s89,.02,89,.02v-28.16Z"/>
  <rect class="greenDimmed01" x="274.42" y="109.27" width="37" height="81.87" rx="18.5" ry="18.5" transform="translate(111.69 -124.61) rotate(29.45)"/>
  <path class="greenDimmed02" d="m290.64,197.51l-38.97-22.5,13-22.52,38.97,22.5-13,22.52Z"/>
</svg>