<?xml version="1.0" encoding="UTF-8"?>
<svg id="Layer_2" data-name="Layer 2" xmlns="http://www.w3.org/2000/svg" viewBox="0 0 268.44 695.94">
  <defs>
    <style>
      .skinDark03 {
        fill: #dfa890;
      }

      .skin03 {
        fill: #e9c0ac;
      }

      .pinkDimmed01 {
        fill: #fbbedb;
      }

      .darkBlueDark02{
        fill: #03112e;
      }

      .redDimmed01 {
        fill: #f88389;
      }

      .pinkColor {
        fill: #f993c3;
      }

      .pinkDark01 {
        fill: #bb6e92;
      }

      .pinkDimmed02 {
        fill: #fee9f3;
      }

      .pinkDark02 {
        fill: #7d4a62;
      }
    </style>
  </defs>
  <g>
    <rect class="skin03" x="171.01" y="613.21" width="36.1" height="36.1"/>
    <path class="redDimmed01" d="m152.16,662.44h54.95v28.44h-72.2v-11.19c0-9.52,7.73-17.25,17.25-17.25Z"/>
    <rect class="pinkDark01" x="134.63" y="689.94" width="39.81" height="5.53"/>
    <rect class="pinkDark01" x="183.29" y="689.94" width="24.33" height="5.53"/>
    <rect class="redDimmed01" x="171.01" y="635.09" width="36.1" height="36.1"/>
    <rect class="pinkDark01" x="168.82" y="632.9" width="40.48" height="7.66" rx="2.69" ry="2.69"/>
    <path class="pinkDark02" d="m181.95,647.03h-10.94c-.55,0-1-.45-1-1s.45-1,1-1h10.94c.55,0,1,.45,1,1s-.45,1-1,1Z"/>
    <path class="pinkDark02" d="m181.95,651.41h-10.94c-.55,0-1-.45-1-1s.45-1,1-1h10.94c.55,0,1,.45,1,1s-.45,1-1,1Z"/>
    <path class="pinkDark02" d="m181.95,655.78h-10.94c-.55,0-1-.45-1-1s.45-1,1-1h10.94c.55,0,1,.45,1,1s-.45,1-1,1Z"/>
    <rect class="skin03" x="65.18" y="613.68" width="36.1" height="36.1"/>
    <path class="redDimmed01" d="m46.33,662.91h54.95v28.44H29.08v-11.19c0-9.52,7.73-17.25,17.25-17.25Z"/>
    <rect class="pinkDark01" x="27.66" y="690.41" width="39.81" height="5.53"/>
    <rect class="pinkDark01" x="76.31" y="690.41" width="24.33" height="5.53"/>
    <rect class="redDimmed01" x="65.18" y="635.56" width="36.1" height="36.1"/>
    <rect class="pinkDark01" x="62.99" y="633.37" width="40.48" height="7.66" rx="2.69" ry="2.69"/>
    <path class="pinkDark02" d="m76.12,647.5h-10.94c-.55,0-1-.45-1-1s.45-1,1-1h10.94c.55,0,1,.45,1,1s-.45,1-1,1Z"/>
    <path class="pinkDark02" d="m76.12,651.88h-10.94c-.55,0-1-.45-1-1s.45-1,1-1h10.94c.55,0,1,.45,1,1s-.45,1-1,1Z"/>
    <path class="pinkDark02" d="m76.12,656.25h-10.94c-.55,0-1-.45-1-1s.45-1,1-1h10.94c.55,0,1,.45,1,1s-.45,1-1,1Z"/>
  </g>
  <path class="pinkDark02" d="m194.73,86.81c2.13-1.39,3.65-3.68,3.95-6.4.54-4.83-2.93-9.18-7.76-9.73l1.87-16.65c1.81-16.16-9.82-30.74-25.98-32.55l-14.95-1.68c-21.47-2.41-40.82,13.04-43.23,34.51l-.79,7.05h0c-4.83-.54-9.18,2.93-9.73,7.76-.33,2.95.84,5.71,2.89,7.54-6.11,1.05-11.06,6.02-11.78,12.49-.55,4.94,1.48,9.56,5.01,12.54-2.85,2.28-4.84,5.65-5.28,9.57-.84,7.48,4.26,14.24,11.53,15.63l-.57,5.04c-1.05,9.32,5.66,17.73,14.99,18.78l49.32,5.53c9.32,1.05,17.73-5.66,18.78-14.99l.6-5.38c6.43-.78,11.73-5.87,12.48-12.59.36-3.19-.38-6.25-1.89-8.82,5.7-1.36,10.21-6.15,10.9-12.3.79-7.07-3.72-13.5-10.37-15.35Z"/>
  <path class="skin03" d="m259.84,21.61l.46-1.45c.75-2.38-.58-4.92-2.96-5.67-.94-.29-1.9-.26-2.76.03l1.04-3.32c.75-2.38-.58-4.92-2.96-5.67-1.71-.54-3.49,0-4.64,1.23l.27-.86c.75-2.38-.58-4.92-2.96-5.67-2.39-.75-4.92.58-5.67,2.96l-8.35,26.61c-.61.85-1.34,1.85-2.22,3.07-.1.14-.2.28-.3.42-1.31-3.14-3.25-6.42-6.1-9.27-1.77-1.77-4.63-1.77-6.4,0-1.77,1.77-1.77,4.63,0,6.4,4.72,4.72,5.86,11.5,6.14,14.35-.07.32-.12.64-.16.96-.12,1.2.02,2.35.48,3.46l3.13,25.34,25.45-3.14-1.27-10.29c.75-1.57,1.45-3.54,2.06-6,0,0,0,0,0,0,.28-.38.5-.82.65-1.3l8.57-27.31c.57-1.82-.07-3.73-1.47-4.86Z"/>
  <path class="pinkColor" d="m268.36,210.49l-16.29-147.58-28.07,3.03,11.16,101.04-34.42-40.39c-1.32-1.64-2.94-2.89-4.71-3.77-3.19-2.61-6.69-3.58-6.69-3.58,0,0-61.62-11.34-74.34-4.77-3.67,1.89-7.26,5.28-10.54,9.36L5.8,187.79c-5.89,3.82-7.58,11.72-3.77,17.65l1.38,2.15c1.16,1.81,2.7,3.22,4.45,4.21l91.53,85.16c5.14,4.78,13.23,4.46,18.07-.72l1.75-1.87c4.84-5.18,4.6-13.25-.54-18.03l-81.25-75.6,55.84-36.21c2.82,3.13,6.15,4.94,6.15,4.94l13.31,49.73,67.46,7.57s6.51-39.29,13.03-65.75l48.32,56.71c2.31,4.67,7.39,7.64,12.91,7.05l2.55-.28c7.05-.76,12.13-7.03,11.36-14.01Z"/>
  <path class="pinkDimmed01" d="m201.36,454.29v-155.32c5.86-6.21,9.83-14.3,10.86-23.44l.46-4.13c2.51-22.4-13.61-42.61-36.02-45.12l-65.35-7.33c-22.4-2.51-42.61,13.61-45.12,36.02l-.46,4.13c-.56,4.98-.19,9.86.96,14.45l-14.01,174.51c-.05.6-.08,1.2-.09,1.79-.25,1.61-.38,3.25-.38,4.92v172.71h64.11v-172.09c.11-.73.2-1.46.26-2.21l11.72-146,8.95,1v153.16c0,2.67.33,5.25.94,7.73l10.66,160.13,63.97-4.26-11.2-168.32c-.05-.79-.15-1.57-.26-2.34Z"/>
  <path class="pinkColor" d="m127.56,308.78c-.08,0-.16,0-.25-.02l-26.65-3.94.49-3.32,20.78,3.08c-21.32-22.07-2.07-72.25-1.18-74.51l3.13,1.22c-.22.56-21.75,56.65,4.62,74.43.65.44.91,1.27.63,2-.25.65-.88,1.07-1.56,1.07Z"/>
  <path class="pinkColor" d="m116.57,95.16c-.33,0-.67-.02-1.01-.06-4.89-.55-8.42-4.97-7.87-9.86.27-2.37,1.44-4.49,3.3-5.98,1.86-1.49,4.19-2.16,6.56-1.89,2.37.27,4.49,1.44,5.98,3.3,1.49,1.86,2.16,4.19,1.89,6.56s-1.44,4.49-3.3,5.98c-1.6,1.27-3.53,1.95-5.55,1.95Zm-.03-14.98c-1.37,0-2.68.46-3.77,1.32-1.26,1.01-2.06,2.45-2.24,4.06-.37,3.32,2.03,6.32,5.35,6.7,1.61.18,3.19-.28,4.46-1.29,1.26-1.01,2.06-2.45,2.24-4.06h0c.18-1.61-.28-3.19-1.29-4.46-1.01-1.26-2.45-2.06-4.06-2.24-.23-.03-.46-.04-.69-.04Z"/>
  <path class="skin03" d="m182.66,65.33c-.59-.07-1.17-.07-1.74-.04,2.78-18.27-5.11-35.48-20.05-41.01-17.66-6.55-38.48,5.7-46.5,27.34-8.02,21.65-.21,44.5,17.45,51.05,2.88,1.07,5.85,1.63,8.83,1.74l-.94,8.38c-.73-.05-1.48-.1-2.2-.14l-2.41,21.48c3.77,3.9,8.87,6.56,14.69,7.21s11.38-.81,15.92-3.78l2.44-21.7h0l3.09-27.59c.96-1.26,1.86-2.58,2.71-3.97,1.67,1.56,3.82,2.62,6.26,2.89,6.04.68,11.48-3.67,12.16-9.71s-3.67-11.48-9.71-12.16Z"/>
  <path class="cls-4" d="m143.25,62.31c1,.11,1.69,1.28,1.54,2.62-.15,1.33-1.08,2.32-2.09,2.21-1-.11-1.69-1.28-1.54-2.62.15-1.33,1.08-2.32,2.09-2.21Z"/>
  <path class="cls-4" d="m123.91,60.14c1,.11,1.69,1.28,1.54,2.62-.15,1.33-1.08,2.32-2.09,2.21s-1.69-1.28-1.54-2.62c.15-1.33,1.08-2.32,2.09-2.21Z"/>
  <path class="skinDark03" d="m133.33,82.17c-7.36,0-10.43-4.71-10.47-4.77-.25-.4-.13-.92.27-1.17.4-.25.92-.13,1.17.26.19.3,4.73,7.09,16.92,2.31.43-.17.93.04,1.1.48.17.44-.04.93-.48,1.1-3.31,1.3-6.13,1.79-8.51,1.79Z"/>
  <path class="skinDark03" d="m127.62,69.75c-.24,0-.48-.1-.64-.29-2.58-3,3.59-13.5,4.86-15.58.24-.4.77-.53,1.17-.28s.53.77.28,1.17c-3.33,5.47-6.2,12.22-5.02,13.59.31.35.27.89-.09,1.2-.16.14-.36.2-.55.2Z"/>
  <path class="pinkDark02" d="m182.27,65.29l1.83.21c2.89-19.42-5.48-37.69-21.36-43.57-8.48-3.14-17.63-2.2-25.92,1.87,4.43,21.62,22.33,38.91,45.45,41.5Z"/>
  <path class="skinDark03" d="m177.07,76.51s-.05,0-.08,0c-.4-.05-.69-.41-.65-.81.32-2.81,2.85-4.84,5.67-4.53.4.05.69.41.65.81-.04.4-.4.69-.81.65-2.01-.23-3.83,1.23-4.05,3.24-.04.37-.36.65-.73.65Z"/>
  <path class="skinDark03" d="m131.99,87.02c-3.81,0-5.4-2.44-5.49-2.58-.25-.4-.13-.92.27-1.17.4-.25.91-.13,1.17.26.1.15,2.19,3.2,7.86.98.43-.17.93.04,1.1.48.17.44-.04.93-.48,1.1-1.72.68-3.19.93-4.43.93Z"/>
  <path class="pinkColor" d="m182.15,104.8c-.42,0-.83-.02-1.26-.07-2.97-.33-5.64-1.8-7.5-4.14s-2.71-5.26-2.38-8.24c.33-2.97,1.8-5.64,4.14-7.5,2.34-1.87,5.27-2.71,8.24-2.38,2.97.33,5.64,1.8,7.5,4.14s2.71,5.26,2.38,8.24h0c-.64,5.71-5.5,9.95-11.12,9.95Zm-.02-18.81c-1.72,0-3.37.58-4.73,1.66-1.59,1.27-2.59,3.08-2.82,5.1-.23,2.02.35,4.01,1.62,5.6,1.27,1.59,3.08,2.59,5.1,2.82,4.17.47,7.94-2.54,8.41-6.71.23-2.02-.35-4.01-1.62-5.6-1.27-1.59-3.08-2.59-5.1-2.82-.29-.03-.58-.05-.86-.05Z"/>
  <path class="pinkDimmed02" d="m172.76,123.94l.4-15.91c.03-1.14-.62-2.09-1.44-2.11-.07,2.93-34.16,2.08-34.09-.85-.82-.02-1.51.89-1.54,2.04l-.4,15.91c-.03,1.14.62,2.09,1.44,2.11-.03,1.23,9.31,2.05,18.21,2.22l-19.73,61.74.49.16h0s-1.02,3.2-1.02,3.2c-.14.44.1.91.54,1.06.08.03.17.04.26.04.36,0,.69-.23.8-.58l1.02-3.2,1.6.51-1.02,3.2c-.14.44.1.91.54,1.06.08.03.17.04.26.04.36,0,.69-.23.8-.58l1.02-3.2,1.6.51h0s-1.02,3.2-1.02,3.2c-.14.44.1.91.54,1.06.08.03.17.04.26.04.36,0,.69-.23.8-.58l1.02-3.2h0s1.6.51,1.6.51l-1.02,3.2c-.14.44.1.91.54,1.06.08.03.17.04.26.04.36,0,.69-.23.8-.58l1.02-3.2h0s1.6.51,1.6.51l-1.02,3.2c-.14.44.1.91.54,1.06.08.03.17.04.26.04.36,0,.69-.23.8-.58l1.02-3.2h0s1.11.35,1.11.35l21.04-65.82c.36-1.13.26-2.28-.16-3.3.17-.33.27-.72.28-1.14Z"/>
</svg>