<?xml version="1.0" encoding="UTF-8"?>
<svg id="Layer_2" data-name="Layer 2" xmlns="http://www.w3.org/2000/svg" viewBox="0 0 573.99 431.86">
  <defs>
    <style>
      .skinDark03 {
        fill: #dfa890;
      }

      .pinkDimmed01 {
        fill: #fbbedb;
      }

      .skin03 {
        fill: #e9c0ac;
      }

      .yellowDimmed01 {
        fill: #ffe566;
      }

      .darkBlueDark02 {
        fill: #03112e;
        fill-rule: evenodd;
      }

      .pinkColor {
        fill: #f993c3;
      }

      .yellowDark01 {
        fill: #fec60d;
      }

      .pinkDark01 {
        fill: #bb6e92;
      }

      .pinkDark02 {
        fill: #7d4a62;
      }

      .yellowDark02 {
        fill: #e3ae00;
      }
    </style>
  </defs>
  <g>
    <rect class="yellowDark01" x="211.03" y="348.39" width="363.58" height="16.53" transform="translate(-72.94 102.53) rotate(-13.62)"/>
    <rect class="yellowDimmed01" x="210.05" y="348.5" width="363.58" height="8.26" transform="translate(-72.02 102.19) rotate(-13.62)"/>
    <g>
      <path class="yellowDark02" d="m226.66,392.84h0c1.14,0,2.07.93,2.07,2.07v10.33h-4.13v-10.33c0-1.14.93-2.07,2.07-2.07Z" transform="translate(-87.59 64.6) rotate(-13.62)"/>
      <path class="yellowDark02" d="m238.71,389.92h0c1.14,0,2.07.93,2.07,2.07v10.33h-4.13v-10.33c0-1.14.93-2.07,2.07-2.07Z" transform="translate(-86.57 67.35) rotate(-13.62)"/>
      <path class="yellowDark02" d="m250.76,387h0c1.14,0,2.07.93,2.07,2.07v10.33h-4.13v-10.33c0-1.14.93-2.07,2.07-2.07Z" transform="translate(-85.54 70.11) rotate(-13.62)"/>
      <path class="yellowDark02" d="m262.8,384.08h0c1.14,0,2.07.93,2.07,2.07v10.33h-4.13v-10.33c0-1.14.93-2.07,2.07-2.07Z" transform="translate(-84.51 72.86) rotate(-13.62)"/>
      <path class="yellowDark02" d="m274.85,381.16h0c1.14,0,2.07.93,2.07,2.07v10.33h-4.13v-10.33c0-1.14.93-2.07,2.07-2.07Z" transform="translate(-83.49 75.62) rotate(-13.62)"/>
      <path class="yellowDark02" d="m286.89,378.24h0c1.14,0,2.07.93,2.07,2.07v10.33h-4.13v-10.33c0-1.14.93-2.07,2.07-2.07Z" transform="translate(-82.46 78.37) rotate(-13.62)"/>
      <path class="yellowDark02" d="m298.94,375.32h0c1.14,0,2.07.93,2.07,2.07v10.33h-4.13v-10.33c0-1.14.93-2.07,2.07-2.07Z" transform="translate(-81.44 81.13) rotate(-13.62)"/>
      <path class="yellowDark02" d="m310.99,372.4h0c1.14,0,2.07.93,2.07,2.07v10.33h-4.13v-10.33c0-1.14.93-2.07,2.07-2.07Z" transform="translate(-80.41 83.88) rotate(-13.62)"/>
      <path class="yellowDark02" d="m323.03,369.49h0c1.14,0,2.07.93,2.07,2.07v10.33h-4.13v-10.33c0-1.14.93-2.07,2.07-2.07Z" transform="translate(-79.38 86.63) rotate(-13.62)"/>
      <path class="yellowDark02" d="m335.08,366.57h0c1.14,0,2.07.93,2.07,2.07v10.33h-4.13v-10.33c0-1.14.93-2.07,2.07-2.07Z" transform="translate(-78.36 89.39) rotate(-13.62)"/>
      <path class="yellowDark02" d="m347.13,363.65h0c1.14,0,2.07.93,2.07,2.07v10.33h-4.13v-10.33c0-1.14.93-2.07,2.07-2.07Z" transform="translate(-77.33 92.14) rotate(-13.62)"/>
      <path class="yellowDark02" d="m359.17,360.73h0c1.14,0,2.07.93,2.07,2.07v10.33h-4.13v-10.33c0-1.14.93-2.07,2.07-2.07Z" transform="translate(-76.31 94.9) rotate(-13.62)"/>
      <path class="yellowDark02" d="m371.22,357.81h0c1.14,0,2.07.93,2.07,2.07v10.33h-4.13v-10.33c0-1.14.93-2.07,2.07-2.07Z" transform="translate(-75.28 97.65) rotate(-13.62)"/>
      <path class="yellowDark02" d="m383.26,354.89h0c1.14,0,2.07.93,2.07,2.07v10.33h-4.13v-10.33c0-1.14.93-2.07,2.07-2.07Z" transform="translate(-74.25 100.41) rotate(-13.62)"/>
      <path class="yellowDark02" d="m395.31,351.97h0c1.14,0,2.07.93,2.07,2.07v10.33h-4.13v-10.33c0-1.14.93-2.07,2.07-2.07Z" transform="translate(-73.23 103.16) rotate(-13.62)"/>
      <path class="yellowDark02" d="m407.36,349.05h0c1.14,0,2.07.93,2.07,2.07v10.33h-4.13v-10.33c0-1.14.93-2.07,2.07-2.07Z" transform="translate(-72.2 105.92) rotate(-13.62)"/>
      <path class="yellowDark02" d="m419.4,346.14h0c1.14,0,2.07.93,2.07,2.07v10.33h-4.13v-10.33c0-1.14.93-2.07,2.07-2.07Z" transform="translate(-71.18 108.67) rotate(-13.62)"/>
      <path class="yellowDark02" d="m431.45,343.22h0c1.14,0,2.07.93,2.07,2.07v10.33h-4.13v-10.33c0-1.14.93-2.07,2.07-2.07Z" transform="translate(-70.15 111.43) rotate(-13.62)"/>
      <path class="yellowDark02" d="m443.5,340.3h0c1.14,0,2.07.93,2.07,2.07v10.33h-4.13v-10.33c0-1.14.93-2.07,2.07-2.07Z" transform="translate(-69.12 114.18) rotate(-13.62)"/>
      <path class="yellowDark02" d="m455.54,337.38h0c1.14,0,2.07.93,2.07,2.07v10.33h-4.13v-10.33c0-1.14.93-2.07,2.07-2.07Z" transform="translate(-68.1 116.93) rotate(-13.62)"/>
      <path class="yellowDark02" d="m467.59,334.46h0c1.14,0,2.07.93,2.07,2.07v10.33h-4.13v-10.33c0-1.14.93-2.07,2.07-2.07Z" transform="translate(-67.07 119.69) rotate(-13.62)"/>
      <path class="yellowDark02" d="m479.63,331.54h0c1.14,0,2.07.93,2.07,2.07v10.33h-4.13v-10.33c0-1.14.93-2.07,2.07-2.07Z" transform="translate(-66.04 122.44) rotate(-13.62)"/>
      <path class="yellowDark02" d="m491.68,328.62h0c1.14,0,2.07.93,2.07,2.07v10.33h-4.13v-10.33c0-1.14.93-2.07,2.07-2.07Z" transform="translate(-65.02 125.2) rotate(-13.62)"/>
      <path class="yellowDark02" d="m503.73,325.7h0c1.14,0,2.07.93,2.07,2.07v10.33h-4.13v-10.33c0-1.14.93-2.07,2.07-2.07Z" transform="translate(-63.99 127.95) rotate(-13.62)"/>
      <path class="yellowDark02" d="m515.77,322.78h0c1.14,0,2.07.93,2.07,2.07v10.33h-4.13v-10.33c0-1.14.93-2.07,2.07-2.07Z" transform="translate(-62.97 130.71) rotate(-13.62)"/>
      <path class="yellowDark02" d="m527.82,319.87h0c1.14,0,2.07.93,2.07,2.07v10.33h-4.13v-10.33c0-1.14.93-2.07,2.07-2.07Z" transform="translate(-61.94 133.46) rotate(-13.62)"/>
      <path class="yellowDark02" d="m539.87,316.95h0c1.14,0,2.07.93,2.07,2.07v10.33h-4.13v-10.33c0-1.14.93-2.07,2.07-2.07Z" transform="translate(-60.91 136.22) rotate(-13.62)"/>
      <path class="yellowDark02" d="m551.91,314.03h0c1.14,0,2.07.93,2.07,2.07v10.33h-4.13v-10.33c0-1.14.93-2.07,2.07-2.07Z" transform="translate(-59.89 138.97) rotate(-13.62)"/>
      <path class="yellowDark02" d="m563.96,311.11h0c1.14,0,2.07.93,2.07,2.07v10.33h-4.13v-10.33c0-1.14.93-2.07,2.07-2.07Z" transform="translate(-58.86 141.73) rotate(-13.62)"/>
    </g>
  </g>
  <path class="pinkDark02" d="m368.88,38.52h50.59c12.65,0,22.93,10.27,22.93,22.93v56.21c0,6.49-5.27,11.76-11.76,11.76h-61.76c-6.49,0-11.76-5.27-11.76-11.76V50.28c0-6.49,5.27-11.76,11.76-11.76Z"/>
  <path class="pinkColor" d="m396.21,36.02h5.45c9.82,0,17.79,7.97,17.79,17.79v153.65c0,5.39-4.38,9.76-9.76,9.76h-26.5c-2.63,0-4.77-2.14-4.77-4.77V53.82c0-9.82,7.97-17.79,17.79-17.79Z" transform="translate(48.69 355.79) rotate(-50.81)"/>
  <rect class="pinkDimmed01" x="372.16" y="83.96" width="12.39" height="30.99"/>
  <path class="pinkDark02" d="m432.35-4.47h1.56c13.52,0,24.51,10.98,24.51,24.51v36.31c0,23.98-19.47,43.44-43.44,43.44h0c-23.98,0-43.44-19.47-43.44-43.44h0c0-33.57,27.25-60.82,60.82-60.82Z" transform="translate(574.37 433.75) rotate(-118.99)"/>
  <path class="skin03" d="m403.94-.83h24.59c14.79,0,26.81,12.01,26.81,26.81v29.67c0,21.58-17.52,39.1-39.1,39.1h0c-21.58,0-39.1-17.52-39.1-39.1v-29.67c0-14.79,12.01-26.81,26.81-26.81Z" transform="translate(576.86 433.81) rotate(-118.99)"/>
  <path class="darkBlueDark02" d="m418.6,55.61c-1.34.79-2.9.61-3.49-.4-.59-1.01.02-2.46,1.36-3.24,1.34-.79,2.9-.61,3.49.4.59,1.01-.02,2.46-1.36,3.24Z"/>
  <path class="darkBlueDark02" d="m429.5,75.29c-1.34.79-2.9.61-3.49-.4s.02-2.46,1.36-3.24,2.9-.61,3.49.4c.59,1.01-.02,2.46-1.36,3.24Z"/>
  <path class="pinkDark02" d="m406.08,25.51l-1.04-1.85c17.52-10.71,29.92-23.59,43.66-13.04,1.45,1.12,11.51,14.45,12.37,16.11,6.12,11.79,2.03,13.64,1.45,24.3-2.17.44,3.91,4.88,1.73,5.08-22.98,2.05-46.11-9.18-58.16-30.59Z"/>
  <path class="pinkDark02" d="m440.93,97.53l.71,1.3c14.12-7.05,27.67-27.68,27.36-41.52-.16-7.26-3.29-6.5-9.79-10.09-12.19,12.88-27.23,33.9-18.28,50.31Z"/>
  <path class="skinDark03" d="m417.61,71.13c-.41,0-.84-.06-1.28-.19-2.08-.64-3.61-2.83-4.54-6.5-.13-.52.18-1.06.71-1.19.52-.13,1.06.18,1.19.71.74,2.91,1.85,4.68,3.21,5.1,1.6.5,3.25-.91,3.26-.93.41-.35,1.03-.31,1.38.09.36.41.32,1.02-.09,1.38-.08.07-1.75,1.52-3.84,1.52Z"/>
  <path class="pinkDark02" d="m379.81,50.05l67.49-31.98-4.88-10.3c-11.52-6.24-25.86-6.69-38.17.13l-26.35,14.59c-10.5,5.82-15.63,17.56-13.56,28.75,4.96,1.42,10.42,1.2,15.46-1.18Z"/>
  <circle class="skin03" cx="404.39" cy="32.82" r="9.66"/>
  <path class="pinkDark02" d="m170.21,200.7l-36.97-27.18-47.39,64.47c-.79,1.07-.56,2.57.51,3.36l2.59,1.9c2.01,1.48,4.82,1.21,6.49-.65,4.69-5.2,15.68-14.79,34.91-17.73,0,0,6.55-1,17.11,6.77h0s22.74-30.94,22.74-30.94Z"/>
  <path class="pinkDark01" d="m320.25,314.98l-6.77-190.26c-.82-20.9-28.07-37.58-61.41-37.58h0l6.58,178.54-90.68-69.05-29.39,38.6,137.57,104.76c9.03,6.88,21.34,6.45,29.83-.33,8.78-4.62,14.69-13.98,14.27-24.68Z"/>
  <rect class="pinkColor" x="256.47" y="100.49" width="115.69" height="57.84" transform="translate(-24.28 159.32) rotate(-27.43)"/>
  <path class="pinkDark02" d="m85.1,216.66l-36.78-27.44L.48,253.36c-.79,1.06-.57,2.57.49,3.36l2.58,1.92c2,1.49,4.81,1.24,6.5-.6,4.72-5.17,15.78-14.68,35.04-17.48,0,0,6.55-.95,17.06,6.89h0s22.96-30.78,22.96-30.78Z"/>
  <polygon class="pinkDark01" points="229.59 193.5 261.43 193.5 252.07 87.14 238.96 87.14 229.59 193.5"/>
  <path class="pinkDark01" d="m229.59,325.61l9.37-238.47h0c-33.34,0-60.59,16.68-61.41,37.58l-5.84,148.63-94.45-65.72-27.71,39.83,141.94,98.76c11,7.65,26.12,4.94,33.77-6.06h0c3.08-4.43,4.48-9.54,4.34-14.55h0Z"/>
  <path class="skin03" d="m260.6,381.44l-2.41-.96.49.02,5.96-146.45c.38-9.33-6.88-17.2-16.21-17.58l-1.77-.07c-9.33-.38-17.2,6.88-17.58,16.21l-5.9,145.02c-1.67,2.3-12.16,17.2-12.16,28.61,0,12.39,8.26,0,8.26,0v12.39s0,8.26,4.13,12.39c4.13,4.13,8.26-8.26,8.26-8.26,0,0,0,8.26,4.13,8.26s8.26-8.26,8.26-8.26l8.26-33.05s8.26,8.26,16.53,12.39,8.26-4.13,8.26-4.13l-16.53-16.53Z"/>
  <path class="pinkDark01" d="m357.25,71.42c-1.71-2.66-4.03-4.82-6.82-6.32-6.83-3.68-19.71-8.66-36.11-5.92-23.53,3.92-84.3,30.19-90.4,32.84-.32.14-.65.27-.98.39-3.47,1.26-24.3,9.47-24.3,24.62,0,16.53,4.13,37.18,24.79,41.32,20.66,4.13,37.18,8.26,49.58,4.13,10.68-3.56,76.53-34.71,94.58-43.27,5.11-2.42,9.12-6.89,10.33-12.42,1.12-5.13.21-11.79-6.77-19.05-8.39-8.73-12.18-13.64-13.9-16.3Z"/>
  <path class="skin03" d="m377.09,96.79c-1.07-2.86-2.91-5.9-5.95-9.07-8.39-8.73-12.18-13.64-13.9-16.3-1.71-2.66-4.03-4.82-6.82-6.32-.36-.19-.8-.4-1.18-.59-1.82,2.21-3.37,4.76-4.52,7.63-5.1,12.71-.65,26.45,9.94,30.7,7.58,3.04,16.25.37,22.43-6.05Z"/>
  <rect class="skin03" x="364.94" y="42.51" width="26.8" height="50.88" transform="translate(502.25 431.83) rotate(-118.99)"/>
  <path class="pinkColor" d="m351.5,74.29v-8.6c-6.49-3.7-19.87-9.41-37.18-6.52-24.79,4.13-90.9,33.05-90.9,33.05,0,0-24.79,8.26-24.79,24.79s4.13,37.18,24.79,41.32c20.66,4.13,37.12.23,49.52-3.9,6.96-2.32,37.33-16.35,62.65-28.21,10.08-17.68,15.91-30.11,15.91-51.92Z"/>
  <path class="skinDark03" d="m408.27,80.62c-.07,0-.14,0-.22-.02-.11-.02-11.07-2.67-9.69-16.77.05-.54.51-.94,1.07-.88.54.05.93.53.88,1.07-1.2,12.34,7.79,14.58,8.17,14.67.53.12.86.65.74,1.17-.1.45-.51.76-.95.76Z"/>
  <path class="skinDark03" d="m397.49,65.37c-.34,0-.68-.18-.86-.51-.26-.47-.09-1.07.38-1.33l5.07-2.81c.48-.26,1.07-.09,1.33.38.26.47.09,1.07-.38,1.33l-5.07,2.81c-.15.08-.31.12-.47.12Z"/>
  <rect class="pinkDimmed01" x="343.24" y="59.17" width="12.39" height="30.99"/>
  <path class="pinkDark02" d="m398.98,68.31h23.17v1.32c0,2.47-2,4.47-4.47,4.47h-14.23c-2.47,0-4.47-2-4.47-4.47v-1.32h0Z" transform="translate(547.23 464.85) rotate(-118.99)"/>
  <path class="pinkColor" d="m272.08,74.36h8.4c7.5,0,13.59,6.09,13.59,13.59v144.68c0,9.82-7.97,17.79-17.79,17.79h0c-9.82,0-17.79-7.97-17.79-17.79V87.95c0-7.5,6.09-13.59,13.59-13.59Z" transform="translate(472.19 416) rotate(-158.13)"/>
  <path class="pinkDark02" d="m386.5,76.06h0c2.4,0,4.34,1.95,4.34,4.34v4.34h-8.69v-4.34c0-2.4,1.95-4.34,4.34-4.34Z" transform="translate(503.46 457.46) rotate(-118.99)"/>
  <path class="skin03" d="m570.94,315.55l-6.3-10.67s13.42,6.47,7.12-4.2c-6.3-10.67-25.38-18.6-25.38-18.6l-1.89.56-71.58-118.18c-2.68-4.42-8.44-5.82-12.85-3.14l-6.52,3.96c-8.78,5.33-11.58,16.78-6.25,25.56l69.08,114.06-5.74,22.28s4.2,7.12,9.22-.64,7.93-19.07,7.93-19.07l23.92,24.26s7.76,5.02,11.32,2.92c3.56-2.1-.64-9.22-.64-9.22,0,0,9.86,8.57,11.32,2.92,1.46-5.66-2.74-12.77-2.74-12.77Z"/>
  <path class="pinkColor" d="m258.15,74.36h36.25c3.16,0,5.73,2.57,5.73,5.73v170.33h-47.71V80.09c0-3.16,2.57-5.73,5.73-5.73Z" transform="translate(472.19 416) rotate(-158.13)"/>
</svg>