<?xml version="1.0" encoding="UTF-8"?>
<svg id="Layer_2" data-name="Layer 2" xmlns="http://www.w3.org/2000/svg" xmlns:xlink="http://www.w3.org/1999/xlink" viewBox="0 0 471.26 709.46">
  <defs>
    <style>
      .skinDark03 {
        fill: #dfa890;
      }

      .blueDimmed01{
        fill: #a1b9f0;
      }

      .blueDimmed02 {
        fill: #e0e8fa;
      }

      .darkBlueDark02 {
        fill: #03112e;
      }

      .grey50 {
        fill: #7f7f7f;
      }

      .blueDark01 {
        fill: #4a68ad;
      }

      .skin03 {
        fill: #e9c0ac;
      }

      .cls-7 {
        fill: url(#Degradado_sin_nombre_58);
      }

      .blueDark02 {
        fill: #314573;
      }
    </style>
    <radialGradient id="Degradado_sin_nombre_58" data-name="Degradado sin nombre 58" cx="259.62" cy="84.52" fx="259.62" fy="84.52" r="28.73" gradientUnits="userSpaceOnUse">
      <stop offset="0" stop-color="#dfa890"/>
      <stop offset="1" stop-color="#e9c0ac"/>
    </radialGradient>
  </defs>
  <path class="blueDark02" d="m308.06,109.56s-66.09,0-79.54,8.97c-13.45,8.97-17.09,30.02-17.09,40.22s7.05,18.49,7.05,18.49l5.7,45.58v61.64h92v-65h-3.99c1.52-24.31,4.98-71.37,9.74-86.26,6.52-20.39-13.86-23.65-13.86-23.65Z"/>
  <path class="skin03" d="m103.29,203.96l-34.32-17.1c1.98-1.56,6.35-.91,8.24-.63,2.14.32,3.16-1.75,3.05-3.46-.11-1.72-3.33-4.05-6.82-4.46-3.49-.41-10.21,3.33-12.92,2.46,0,0-3.42-5.3-8.42-5.3s-35-2-45,1c0,0-8,1-7,4s4,3,4,3c0,0,0,3,2,3s13-1,13-1l-8,2s-2,1-1,2,10,0,14-1c1.32-.33,5.56-.11,10.64.33l60.98,30.38,7.58-15.22Z"/>
  <path class="darkBlueDark02" d="m249.17,122.06v-9.08s-.02,0-.02,0c-4.82.68-9.22,1.49-12.85,2.47-6.36-.59-12.57,3.1-14.85,9.35l-.42,1.15c-5.23,7.3-7.87,16.75-8.96,24.47l-33.17,90.64-101.38-51.87-15.35,30.37,116.42,57.11c.48.27.98.52,1.5.74l.93.46c1.62.83,3.33,1.31,5.04,1.48,6.71,1.12,13.48-2.63,15.9-9.22l2.94-8.05c25.73-8.65,44.27-32.96,44.27-61.6v-59.36l2.03-5.54c1.73-4.72.79-9.76-2.03-13.5Z"/>
  <rect class="blueDimmed01" x="55.77" y="201.14" width="36" height="9.94" transform="translate(290.52 236.83) rotate(117.76)"/>
  <path class="blueDimmed02" d="m264.17,6.46s1-5-4-6-28.42-.53-43,3c-33,8-20,41-15,48h32s58-37,30-45Z"/>
  <path class="cls-7" d="m251.18,64.89h38.73v48.75h-38.73v-48.75Z"/>
  <path class="blueDimmed01" d="m243.58,93.12l6.5.26c22.45.89,41.29-14.61,42.09-34.62l.83-20.87c.53-13.22-11.07-24.42-25.91-25.01l-20.29-.81c-14.84-.59-27.29,9.65-27.81,22.88l-1.32,33.16c-.53,13.22,11.07,24.42,25.91,25.01Z"/>
  <path class="skin03" d="m295.8,55.73c-1.59,0-3.09.38-4.42,1.04-4.01-22.35-23.16-39.3-46.2-39.3-7.36,0-14.33,1.73-20.53,4.82-3.41,4.3-5.53,9.69-5.77,15.59l-1.48,37.2c-.59,14.84,10.96,27.34,25.79,27.93l6.5.26c19,.75,35.47-11.65,40.63-29.09,1.58,1.03,3.46,1.64,5.49,1.64,5.54,0,10.04-4.5,10.04-10.04s-4.49-10.04-10.04-10.04Z"/>
  <g>
    <path class="darkBlueDark02" d="m256.76,51.69c1.19,0,2.15,1.28,2.15,2.87s-.96,2.87-2.15,2.87-2.15-1.28-2.15-2.87.96-2.87,2.15-2.87Z"/>
    <path class="darkBlueDark02" d="m233.81,51.69c1.19,0,2.15,1.28,2.15,2.87s-.96,2.87-2.15,2.87-2.15-1.28-2.15-2.87.96-2.87,2.15-2.87Z"/>
    <path class="skinDark03" d="m242.69,77.59c-4.61,0-8.13-1.32-8.2-1.34-.51-.2-.77-.78-.57-1.29s.78-.77,1.29-.57c.5.19,12.34,4.59,20.28-4.18.37-.41,1-.44,1.41-.07.41.37.44,1,.07,1.41-4.36,4.82-9.84,6.05-14.29,6.05Z"/>
    <path class="skinDark03" d="m240.96,61.17c-1.88,0-2.84-.91-3.31-1.69-3.11-5.08,5.48-20.94,6.47-22.74.27-.48.87-.66,1.36-.39.48.27.66.88.39,1.36-3.52,6.38-8.4,17.64-6.52,20.72.2.33.6.76,1.74.73.55,0,1.01.41,1.03.97.02.55-.41,1.01-.97,1.03-.07,0-.13,0-.2,0Z"/>
    <path class="skinDark03" d="m267.17,53.46h-4c-.55,0-1-.45-1-1s.45-1,1-1h4c.55,0,1,.45,1,1s-.45,1-1,1Z"/>
    <path class="skinDark03" d="m267.17,57.46c-.08,0-.16,0-.24-.03l-4-1c-.54-.13-.86-.68-.73-1.21.13-.54.68-.86,1.21-.73l4,1c.54.13.86.68.73,1.21-.11.45-.52.76-.97.76Z"/>
    <path class="skinDark03" d="m226.14,56.35c-.47,0-.89-.33-.98-.81-.1-.54.25-1.07.79-1.17l4.05-.78c.55-.1,1.07.25,1.17.79.1.54-.25,1.07-.79,1.17l-4.05.78c-.06.01-.13.02-.19.02Z"/>
    <path class="skinDark03" d="m229.23,52.12s-.05,0-.08,0l-4.11-.33c-.55-.04-.96-.53-.92-1.08.04-.55.52-.96,1.08-.92l4.11.33c.55.04.96.53.92,1.08-.04.52-.48.92-1,.92Z"/>
  </g>
  <path class="skin03" d="m464.17,104.46c-10-3-40-1-45-1s-8.42,5.3-8.42,5.3c-2.7.87-9.43-2.87-12.92-2.46-3.49.41-6.71,2.75-6.82,4.46-.11,1.72.9,3.78,3.05,3.46s7.48-1.11,8.9,1.39c.49.87,1.24,1.64,2.18,2.28l-19.04,65.02c-2.28,7.59,2.1,15.59,9.77,17.87l2.78.83c7.67,2.28,15.73-2.03,18.01-9.62l21.21-72.42c.33-1.09.5-2.06.56-2.94,4.22-.33,7.59-.46,8.75-.18,4,1,13,2,14,1s-1-2-1-2l-8-2s11,1,13,1,2-3,2-3c0,0,3,0,4-3s-7-4-7-4Z"/>
  <path class="darkBlueDark02" d="m401.31,129.88s-1.73,6.03-4.01,13.62l-20.79,69.55-55.06-94.94c-1.25-2.15-2.96-3.85-4.95-5.04-4.06-2.8-8.46-3.5-8.46-3.5,0,0-6.52,0-15.87.28-5.21.15-12.73,36.96-16.02,62.26v28.37c0,35.9,29.1,65,65,65h0l-8.2-64.34,33.11,57.1c1.2,2.07,2.84,3.71,4.73,4.9,1.45,1.18,3.15,2.1,5.06,2.67l2.78.83c7.67,2.28,15.73-2.03,18.01-9.62l33.21-102.42c2.28-7.59,4.23-13.87,4.23-13.87l-32.78-10.83Z"/>
  <rect class="blueDimmed01" x="399.16" y="131.6" width="36" height="9.94" transform="translate(54.84 -111.22) rotate(16.24)"/>
  <g>
    <path class="blueDark02" d="m267.17,660.46v49h-89v-5s1-11,11-11,35.94-14.62,35.94-17.81v-15.19h42.06Z"/>
    <path class="blueDark02" d="m323.17,660.46v49s89,0,89,0v-5s-1-11-11-11-35.94-14.62-35.94-17.81,0-15.19,0-15.19h-42.06Z"/>
    <path class="darkBlueDark02" d="m397.49,664.76l-46.46-354.29h.13c0-23.75-19.25-43-43-43h-84.29c-12.71,0-20.05,8-20.05,18.85l-1.29,24.06-9.11,354.38h84.8l3.03-239.74,31.44,239.74h84.8Z"/>
    <path class="blueDark01" d="m312.69,665.76c-.49,0-.92-.37-.99-.87l-39.94-304.62-16.54.02h0c-.55,0-1-.45-1-1,0-.55.45-1,1-1l18.3-.02,40.17,306.37c.07.55-.31,1.05-.86,1.12-.04,0-.09,0-.13,0Z"/>
    <rect class="darkBlueDark02" x="226.92" y="673.91" width="2" height="10.61" transform="translate(-413.52 360.1) rotate(-45)"/>
    <rect class="darkBlueDark02" x="222.92" y="676.91" width="2" height="10.61" transform="translate(-416.81 358.15) rotate(-45)"/>
    <rect class="darkBlueDark02" x="218.92" y="679.91" width="2" height="10.61" transform="translate(-420.1 356.2) rotate(-45)"/>
    <rect class="darkBlueDark02" x="357.62" y="678.21" width="10.61" height="2" transform="translate(-373.98 455.56) rotate(-45)"/>
    <rect class="darkBlueDark02" x="361.62" y="681.21" width="10.61" height="2" transform="translate(-374.93 459.27) rotate(-45)"/>
    <rect class="darkBlueDark02" x="365.62" y="684.21" width="10.61" height="2" transform="translate(-375.88 462.97) rotate(-45)"/>
  </g>
  <path class="blueDimmed02" d="m305.81,34.23s4.11-16.13-9.27-25.95c-11.48-8.43-27.1-3-31.29-1.29-4.62-2.21-25.88-10.83-40.08,10.46,0,0,17-13,36,3,0,0,11-3,15,9s2,25,19,26,21-2,21-2c0,0-9.73-5.46-10.36-19.23Z"/>
  <path class="skin03" d="m290.64,109.08c-15.94-.62-36.84,2.11-48.94,5.38,3.03,10.4,12.62,17.99,24,17.99,13.26,0,24.11-10.33,24.94-23.38Z"/>
  <g>
    <path class="grey50" d="m288.75,283.74l20.99-.64-4.54-148.9c0-.55,0-1.13-.03-1.74-1-22-15.25-30.4-15.25-30.4,0,10-2.69,21.39-4.38,27.57-.9,3.27-1.28,6.66-1.18,10.05l4.4,144.06Z"/>
    <path class="grey50" d="m251.18,105.12s-19.01,10.34-20.01,27.34c-.07,1.12-.09,2.16-.08,3.15l-3.76,94.51,20.98.83,3.86-95.5-.99-30.34Z"/>
  </g>
</svg>