<?xml version="1.0" encoding="UTF-8"?>
<svg id="Layer_2" data-name="Layer 2" xmlns="http://www.w3.org/2000/svg" viewBox="0 0 272.88 731">
  <defs>
    <style>
      .white {
        fill: #fff;
      }

      .skin03{
        fill: #e9c0ac;
      }

      .outline {
        fill: #03112e;
      }

      .skin01Dark03 {
        fill: #d59174;
      }
    </style>
  </defs>
  <path class="skin03" d="m270.57,111.54c0-9.23-4.61-4.61-4.61-4.61-2.31-4.61-6.92,0-6.92,0-2.31-9.23-11.53-4.61-11.53-4.61,2.31-6.92,2.31-23.07,2.31-25.37s0-4.61-2.31-4.61c-4.61,0-4.61,4.61-4.61,4.61,0,9.23-5.33,56.92-5.33,56.92h0c-.92,1.12-1.67,2.39-2.18,3.83l-25.36,71.14-13.36-76.25c-1.24-7.06-7.99-11.8-15.08-10.59l-2.57.44c-7.09,1.21-11.84,7.91-10.6,14.96l22.39,127.75c.17.99.47,1.93.84,2.82,1.17,3.83,4.07,7.1,8.15,8.57l2.47.89c6.81,2.45,14.28-1.04,16.69-7.79l43.56-122.19c.31-.88.52-1.76.64-2.65h0s5.12-12.48,5.12-12.48c4.61-4.61,4.61-11.53,4.61-16.15s-2.31-4.61-2.31-4.61Z"/>
  <path class="skin03" d="m123.7,678.98s-.7,13.64-.7,22.42c0,8.78,10.86,11.82,23.12,14.01,12.26,2.19,16.11,11.21,16.11,11.21h-71.46s-2.1-46.94-2.1-46.94l35.03-.7Z"/>
  <path class="skin03" d="m174.61,696.84l2-46.94,34.96,2.36s-4.88,38.5-5.65,47.25l-31.31-2.66Z"/>
  <path class="mainColor" fill="var(--violetColor)" d="m121.94,700.15c-2.24.13-5.56,1.32-6.12,7.13-.1,1.02-.91,1.8-1.87,1.8h-23.22c-1.05,0-1.89.9-1.89,2.01v17.91c0,1.11.85,2.01,1.89,2.01h72.91c1.02,0,1.87-.85,1.89-1.93.12-4.56-.61-15.6-10.47-15.6-12.42,0-27.48-3.63-29.58-5.86-1.29-1.37-1.55-3.8-1.55-5.48,0-1.14-.91-2.05-1.98-1.99Z"/>
  <path class="colorDark01" fill="var(--violetDark01)" d="m123.9,712.27c-.26,0-.51-.1-.71-.29-.39-.39-.39-1.02,0-1.41l4.38-4.38c.39-.39,1.02-.39,1.41,0s.39,1.02,0,1.41l-4.38,4.38c-.2.2-.45.29-.71.29Z"/>
  <path class="colorDark01" fill="var(--violetDark01)" d="m126.09,714.47c-.26,0-.51-.1-.71-.29-.39-.39-.39-1.02,0-1.41l4.38-4.38c.39-.39,1.02-.39,1.41,0s.39,1.02,0,1.41l-4.38,4.38c-.2.2-.45.29-.71.29Z"/>
  <path class="mainColor" fill="var(--violetColor)" d="m208.64,682.57c-2.01-.98-5.49-1.57-8.83,3.22-.58.84-1.67,1.13-2.52.66l-20.25-11.37c-.91-.51-2.09-.14-2.63.82l-8.76,15.62c-.54.97-.24,2.16.67,2.68l63.58,35.69c.89.5,2.04.17,2.6-.76,2.33-3.92,7.1-13.9-1.49-18.73-10.83-6.08-22.19-16.61-22.93-19.59-.46-1.82.51-4.07,1.32-5.54.56-1,.21-2.23-.76-2.7Z"/>
  <path class="colorDark01" fill="var(--violetDark01)" d="m204.9,694.23c-.44,0-.84-.29-.96-.73-.15-.53.16-1.08.69-1.23l5.97-1.68c.53-.15,1.08.16,1.23.69.15.53-.16,1.08-.69,1.23l-5.97,1.68c-.09.03-.18.04-.27.04Z"/>
  <path class="colorDark01" fill="var(--violetDark01)" d="m205.74,697.21c-.44,0-.84-.29-.96-.73-.15-.53.16-1.08.69-1.23l5.97-1.68c.53-.15,1.08.16,1.23.69.15.53-.16,1.08-.69,1.23l-5.97,1.68c-.09.03-.18.04-.27.04Z"/>
  <path class="skin01Dark03" d="m257.83,114.05c-.15,0-.3-.03-.45-.11-.49-.25-.69-.85-.45-1.34,1.95-3.89.02-7.83,0-7.87-.25-.49-.05-1.09.45-1.34.49-.25,1.09-.05,1.34.45.1.2,2.39,4.89,0,9.66-.18.35-.53.55-.9.55Z"/>
  <path class="mainColor" fill="var(--violetColor)" d="m189.53,40.99c0-3.29-1.56-6.22-3.97-8.09.15-.7.23-1.42.23-2.16,0-5.66-4.59-10.25-10.25-10.25,0-5.66-4.59-10.25-10.25-10.25-1.31,0-2.55.25-3.7.7-1.07-4.51-5.12-7.87-9.96-7.87-.91,0-1.78.13-2.62.35-1.88-2.1-4.6-3.42-7.63-3.42-3.53,0-6.64,1.78-8.48,4.49-1.52-.9-3.29-1.42-5.18-1.42-4.6,0-8.49,3.03-9.79,7.2-.15,0-.31-.02-.46-.02-5.3,0-9.66,4.02-10.19,9.18-3.92,1.44-6.72,5.19-6.72,9.61,0,1.29.25,2.51.68,3.65-2.58,1.86-4.27,4.89-4.27,8.31,0,2.09.63,4.03,1.7,5.65-3.06,1.77-5.12,5.07-5.12,8.86,0,4.9,3.45,9,8.05,10.01-.12.63-.19,1.28-.19,1.95,0,5.66,4.59,10.25,10.25,10.25s10.25-4.59,10.25-10.25c0-4.9-3.45-9-8.05-10.01.12-.63.19-1.28.19-1.95,0-2.09-.63-4.03-1.7-5.65,3.06-1.77,5.12-5.07,5.12-8.86,0-.62-.06-1.22-.17-1.81.96-.13,1.88-.38,2.73-.76,1.26.55,2.64.86,4.1.86s2.78-.29,4.01-.82c1.23.53,2.59.82,4.01.82,3.51,0,6.61-1.77,8.45-4.46,1.85,2.69,4.94,4.46,8.46,4.46,2.43,0,4.65-.85,6.4-2.26,1.76,1.41,3.98,2.26,6.41,2.26,2.2,0,4.22-.7,5.89-1.87.45.52.95,1,1.5,1.42-.15.7-.23,1.42-.23,2.16,0,2.76,1.09,5.26,2.87,7.1-1.96,1.87-3.19,4.5-3.19,7.42,0,.76.09,1.5.25,2.21-4.11,1.34-7.08,5.19-7.08,9.74,0,5.66,4.59,10.25,10.25,10.25s10.25-4.59,10.25-10.25c0-.76-.09-1.5-.25-2.21,4.11-1.34,7.08-5.19,7.08-9.74,0-2.76-1.09-5.26-2.87-7.1,1.96-1.87,3.19-4.5,3.19-7.42Z"/>
  <path class="colorDark01" fill="var(--violetDark01)" d="m126.33,106.64h37.74s6.15-.77,6.15,8.11v6.88s5.83,0,5.83,0v114.88h-49.95s.22-129.87.22-129.87Z"/>
  <path class="mainColor" fill="var(--violetColor)" d="m140.54,8.75h7.57c16.52,0,29.94,13.41,29.94,29.94v30.5c0,19.02-15.44,34.46-34.46,34.46h0c-19.02,0-34.46-15.44-34.46-34.46v-29.02c0-17.34,14.08-31.42,31.42-31.42Z" transform="translate(287.18 112.39) rotate(-180)"/>
  <path class="skin03" d="m143.42,19.73h5.77c15.93,0,28.86,12.93,28.86,28.86v27.46c0,15.23-12.36,27.59-27.59,27.59h-.38c-15.23,0-27.59-12.36-27.59-27.59v-35.39c0-11.55,9.38-20.94,20.94-20.94Z" transform="translate(300.54 123.38) rotate(-180)"/>
  <circle class="skin03" cx="178.31" cy="61.67" r="11.53"/>
  <path class="white" d="m147.2,75.31c4.77,19.07,17.47,7.54,17.47,7.54"/>
  <circle class="skin03" cx="115.16" cy="61.67" r="11.53"/>
  <path class="skin01Dark03" d="m184.05,62.67c-.55,0-1-.45-1-1,0-2.62-2.13-4.75-4.75-4.75-.55,0-1-.45-1-1s.45-1,1-1c3.72,0,6.75,3.03,6.75,6.75,0,.55-.45,1-1,1Z"/>
  <rect class="skin03" x="129.87" y="100.01" width="23.07" height="20.76" transform="translate(249.41 253.62) rotate(-165)"/>
  <path class="outline" d="m172.33,57.58c0,1.43-.87,2.59-1.95,2.59-1.08,0-1.95-1.16-1.95-2.59,0-1.43.87-2.59,1.95-2.59s1.95,1.16,1.95,2.59Z"/>
  <path class="outline" d="m149.38,57.58c0,1.43-.87,2.59-1.95,2.59s-1.95-1.16-1.95-2.59.87-2.59,1.95-2.59c1.08,0,1.95,1.16,1.95,2.59Z"/>
  <path class="mainColor" fill="var(--violetColor)" d="m246.97,428.37l-50.46-164.81c-4.2-19.57-20.27-34.73-40.31-37.56,6.63-1.72,17.73-6.53,20.1-18.52,4.28-21.65-.03-20.5,3.71-38.5.03-.12.07-21.58.07-21.58,0,0-.03-30.47-12.01-30.47l-26.36-5.13c-24.14-6.11-38.2-1.22-38.2-1.22-16.98,4.8-11.42,73.92-6.13,103.23.97,5.36,4.53,9.66,9.23,11.71h-7.05c-18.14,0-32.85,14.71-32.85,32.85v215.09c0,.37.02.74.03,1.1-.01.37-.03.73-.03,1.1l11.23,218.79h49.87l11.23-218.79c0-.37-.02-.74-.03-1.1.01-.37.03-.73.03-1.1v-150.51l37.12,121.24-8.16,217.02,49.6,6.3,30.66-218.36c.18-2.01.18-3.99.03-5.93.58-4.85.19-9.89-1.33-14.85Z"/>
  <path class="skin01Dark03" d="m120.9,62.67c-.55,0-1-.45-1-1,0-2.62-2.13-4.75-4.75-4.75-.55,0-1-.45-1-1s.45-1,1-1c3.72,0,6.75,3.03,6.75,6.75,0,.55-.45,1-1,1Z"/>
  <path class="colorDark01" fill="var(--violetDark01)" d="m79.12,294.03c-.2,0-.4-.13-.47-.33-.09-.26.04-.55.3-.64,9.43-3.41,18.26-8.29,26.27-14.52.22-.17.53-.13.7.09.17.22.13.53-.09.7-8.08,6.29-17.01,11.23-26.54,14.67-.06.02-.11.03-.17.03Z"/>
  <rect class="colorDark01" fill="var(--violetDark01)" x="138.59" y="322.92" width="22.98" height="2"/>
  <path class="colorDark01" fill="var(--violetDark01)" d="m142.52,313.29l-1.87-.72c14.64-38.07.98-67.68.84-67.98l1.81-.86c.14.3,14.19,30.64-.78,69.55Z"/>
  <path class="mainColor" fill="var(--violetColor)" d="m150.33,49.96v.16c0,.63-.51,1.14-1.14,1.14h-6.59c-.63,0-1.14-.51-1.14-1.14v-.16c0-1.08.87-1.95,1.95-1.95h4.96c1.08,0,1.95.87,1.95,1.95Z"/>
  <path class="mainColor" fill="var(--violetColor)" d="m172.13,49.96v.16c0,.63-.51,1.14-1.14,1.14h-6.59c-.63,0-1.14-.51-1.14-1.14v-.16c0-1.08.87-1.95,1.95-1.95h4.96c1.08,0,1.95.87,1.95,1.95Z"/>
  <g>
    <path class="skin03" d="m158.91,70.9s4.89-1.53,4.89-5.96c0-4.42-4.89-14.81-4.89-14.81"/>
    <path class="skin01Dark03" d="m158.91,71.9c-.43,0-.82-.27-.95-.7-.17-.53.13-1.09.65-1.25.18-.06,4.19-1.39,4.19-5,0-4.15-4.74-14.28-4.79-14.38-.24-.5-.02-1.1.48-1.33.5-.23,1.1-.02,1.33.48.2.43,4.98,10.64,4.98,15.23,0,5.1-5.36,6.84-5.59,6.91-.1.03-.2.05-.3.05Z"/>
  </g>
  <path class="mainColor" fill="var(--violetColor)" d="m175.54,27c-.35,0-.69.02-1.03.05.03-.34.05-.68.05-1.03,0-5.66-4.59-10.25-10.25-10.25-3.2,0-6.06,1.47-7.93,3.76-.3.01-.6.04-.89.07-1.18-4.36-5.15-7.58-9.89-7.58-5.05,0-9.24,3.66-10.08,8.47-1.82-2.84-5-4.73-8.63-4.73-5.66,0-10.25,4.59-10.25,10.25,0,2.18.68,4.19,1.84,5.85-3.31,1.7-5.58,5.14-5.58,9.12,0,5.66,4.59,10.25,10.25,10.25,5.13,0,9.37-3.78,10.12-8.7,1.44.78,3.09,1.22,4.85,1.22,5.05,0,9.24-3.66,10.08-8.47,1.82,2.84,5,4.73,8.63,4.73,3.2,0,6.05-1.47,7.93-3.76.19,0,.39-.01.58-.03-.03.34-.05.68-.05,1.03,0,5.66,4.59,10.25,10.25,10.25s10.25-4.59,10.25-10.25-4.59-10.25-10.25-10.25Z"/>
  <path class="skin03" d="m4.89,199.43l88.48-80.82c8.53,4.77,16.26,10.81,22.94,17.85l-81.49,74.44,70.71,68.03c-7.91,6.16-16.8,11.12-26.4,14.59L3.93,221.19c-3.83-3.68-4.86-9.17-3.1-13.88.39-2.93,1.71-5.74,4.05-7.88Z"/>
  <path class="colorDark01" fill="var(--violetDark01)" d="m136.12,113.64c0-6.99-5.27-6.99-5.27-6.99h-14.76c-5.66-2.2-12.32-1.25-17.19,3.06l-45,39.85,17.25,19.48v70.47h52.93c8.28,0,15-6.72,15-15v-110.87h-2.97Z"/>
  <rect class="colorDimmed02" fill="var(--violetDimmed02)" x="44.9" y="151.86" width="37.42" height="22.45" transform="translate(-21.44 316.1) rotate(-129.62)"/>
  <path class="colorDimmed02" fill="var(--violetDimmed02)" d="m138.45,114.44v48.65s-13.98-1.76-13.98-13.98c0-12.22,0-42.47,0-42.47,0,0,13.98-3.43,13.98,7.8Z"/>
  <path class="colorDark01" fill="var(--violetDark01)" d="m208.49,181.46l-10.43-53.45c-1.77-9.08-10.57-15.01-19.65-13.24-2.34.46-4.47,1.39-6.31,2.66-.71-.37-1.49-.6-2.33-.6l-12.6-2.82v113.96c0,5.49,4.45,9.94,9.94,9.94h8.77v-27.84c.4-1.16.72-2.39.95-3.72,1.67-9.71,1.82-14.78,1.78-19.09l29.88-5.83Z"/>
  <path class="mainColor" fill="var(--violetColor)" d="m164.3,70.57c-2.62-.7-5.3-.04-7.11.65-1.81-.69-4.49-1.36-7.11-.65-4.57,1.22-7.23,6.14-7.23,6.14,0,0,4.76,2.93,9.33,1.7,2.1-.56,3.79-1.9,5.01-3.19,1.22,1.29,2.91,2.62,5.01,3.19,4.57,1.22,9.33-1.7,9.33-1.7,0,0-2.65-4.91-7.23-6.14Z"/>
  <rect class="colorDimmed02" fill="var(--violetDimmed02)" x="172.13" y="166.83" width="37.42" height="22.45" transform="translate(412.25 316.27) rotate(168.96)"/>
  <path class="colorDimmed02" fill="var(--violetDimmed02)" d="m158.16,114.44v48.65s13.98-1.76,13.98-13.98v-42.47s-13.98-3.43-13.98,7.8Z"/>
</svg>