<?xml version="1.0" encoding="UTF-8"?>
<svg id="Layer_1" data-name="Layer 1" xmlns="http://www.w3.org/2000/svg" viewBox="0 0 166.54 232.35">
  <defs>
    <style>
      .white {
        fill: #fff;
      }

      .outline {
        fill: #03112e;
      }
    </style>
  </defs>
  <path class="white" d="m125.14,150.58h-19.82s-4.12,0-4.12,0v-21.76c8.53-4.19,15.6-11.03,20.02-19.55l1.58-18c1.76,1.57,3.92,2.71,6.32,3.22-2.91,1.16-4.98,4-4.98,7.33,0,4.36,3.54,7.9,7.9,7.9s7.9-3.54,7.9-7.9c0-3.33-2.06-6.17-4.98-7.33,6.28-1.34,10.99-6.92,10.99-13.6,0-7.68-6.23-13.91-13.91-13.91-3.92,0-7.46,1.63-9.99,4.24-.21-.84-.44-1.67-.7-2.49,1.66-4.17,2.54-7.51,2.54-7.51,0,0-2.1.23-5.41.59-6.78-13.17-19.95-22.68-35.8-24.06-18.55-1.62-35.43,8.36-43.5,23.92l-.03.36c-4.44-.48-7.4-.8-7.4-.8,0,0,.65,2.46,1.88,5.79-.13,0-.25-.02-.38-.02-7.68,0-13.91,6.23-13.91,13.91,0,6.55,4.53,12.03,10.62,13.51-3.05,1.09-5.23,4-5.23,7.43,0,4.36,3.54,7.9,7.9,7.9,3.32,0,6.16-2.05,7.32-4.95,4.48,11.62,13.71,21.02,25.52,25.59v20.23h-5.25s-18.82,0-18.82,0c-22.15,0-40.11,17.96-40.11,40.11v.25c0,22.15,17.96,40.11,40.11,40.11h83.74c22.15,0,40.11-17.96,40.11-40.11v-.25c0-22.15-17.96-40.11-40.11-40.11Zm-89.39-56.02c.53-.1,1.06-.21,1.57-.37.06.48.13.95.2,1.43-.54-.42-1.13-.78-1.77-1.06Z"/>
  <path class="outline" d="m62.48,74.07c1.04,0,1.88.84,1.88,1.88v2.51c0,1.04-.84,1.88-1.88,1.88s-1.88-.84-1.88-1.88v-2.51c0-1.04.84-1.88,1.88-1.88Z"/>
  <path class="outline" d="m90.81,74.07c1.04,0,1.88.84,1.88,1.88v2.51c0,1.04-.84,1.88-1.88,1.88s-1.88-.84-1.88-1.88v-2.51c0-1.04.84-1.88,1.88-1.88Z"/>
  <path class="outline" d="m77.28,110.65c-8.59,0-10.25-3.38-10.41-3.76-.26-.63.03-1.35.66-1.61.61-.24,1.31.02,1.59.62.07.12,1.46,2.3,8.16,2.3s8.4-2.77,8.41-2.8c.3-.6,1.02-.86,1.62-.58.6.28.88.97.62,1.58-.19.43-2.07,4.25-10.66,4.25Z"/>
  <path class="outline" d="m123.84,82.57c-.68,0-1.23-.55-1.23-1.23,0-4.51,3.67-8.19,8.18-8.19.68,0,1.23.55,1.23,1.23s-.55,1.23-1.23,1.23c-3.16,0-5.73,2.57-5.73,5.73,0,.68-.55,1.23-1.23,1.23Z"/>
  <path class="outline" d="m166.48,188.63c-.02-.37-.05-.73-.08-1.09-.02-.31-.04-.61-.07-.92,0,0,0-.02,0-.03,0-.01,0-.03,0-.04,0-.04-.01-.08-.02-.11-.05-.44-.1-.87-.16-1.3-.02-.16-.04-.32-.06-.48-.09-.6-.19-1.19-.31-1.78,0-.04-.02-.09-.02-.13,0-.02,0-.03-.01-.05-.01-.05-.02-.11-.03-.16-.02-.11-.05-.22-.08-.34-.24-1.12-.52-2.23-.84-3.32-.02-.07-.03-.14-.06-.21-.03-.11-.08-.22-.12-.34-.33-1.05-.7-2.08-1.11-3.09-.04-.1-.07-.19-.11-.29-.04-.09-.08-.17-.12-.26-.43-1.01-.89-2-1.39-2.97-.05-.1-.09-.2-.14-.29-.02-.05-.05-.09-.08-.13-6.97-13.07-20.73-22-36.55-22h-21.11l-1.54-.87v-18.78c8.34-4.26,15.35-11.06,19.88-19.78l.12-.23v-.12c.56-1.07,1.08-2.15,1.53-3.24,1.56,2.83,4.56,4.73,8.02,4.73,5.06,0,9.18-4.12,9.18-9.18,0-2.74-1.2-5.25-3.2-6.96,5.48-2.36,9.22-7.84,9.22-13.97,0-8.38-6.82-15.2-15.2-15.2-.83,0-1.66.07-2.49.21.11-5.47-.74-10.82-2.54-15.97,8.9-4.45,14.59-13.57,14.59-23.57,0-14.53-11.82-26.36-26.36-26.36-11.89,0-22.4,8.15-25.45,19.54-.68-.11-1.38-.2-2.1-.27-24.61-2.15-46.54,15.74-49.55,40.09l-6.11-.66c-.66-.07-1.32.12-1.85.54-.53.42-.85,1.02-.92,1.69-.07.67.12,1.33.54,1.85.35.43.81.72,1.33.86.19.61.42,1.32.69,2.11-7.71.73-13.76,7.24-13.76,15.13,0,6.04,3.52,11.36,8.83,13.8-2.13,1.71-3.45,4.32-3.45,7.14,0,5.06,4.12,9.18,9.18,9.18,2.83,0,5.41-1.28,7.12-3.39,1.71,3.79,3.95,7.37,6.69,10.64,4.86,5.79,10.94,10.2,17.75,12.98v17.61l-.9.45h-21.88c-.57,0-1.14.01-1.7.04-.14,0-.28.02-.41.02-.43.02-.87.05-1.3.08-.13.01-.26.03-.39.04-.44.04-.88.08-1.31.14-.11.01-.22.03-.34.05-.46.06-.91.13-1.36.2-.09.01-.17.03-.26.05-.48.08-.96.17-1.43.27-.06.01-.12.03-.18.04-.51.11-1.01.23-1.51.35-.03,0-.06.02-.09.02-.53.14-1.06.28-1.58.44h0c-4.33,1.3-8.37,3.29-11.98,5.85-.03.02-.07.05-.1.08-.4.28-.79.57-1.17.86-.1.07-.19.15-.29.22-.32.25-.64.5-.95.76-.13.1-.25.21-.38.32-.28.24-.56.48-.83.72-.14.13-.28.25-.42.38-.25.23-.51.47-.75.71-.14.14-.28.28-.43.42-.25.24-.49.49-.72.74-.13.14-.27.28-.4.42-.26.28-.51.56-.76.84-.1.11-.2.23-.3.34-.33.38-.65.77-.96,1.16-.02.02-.03.04-.05.06-2.57,3.23-4.68,6.84-6.2,10.75h-.01s-.11.32-.11.32c-1.15,3.03-1.96,6.22-2.38,9.54,0,.06-.01.11-.02.17-.05.45-.1.9-.14,1.36-.02.27-.04.55-.06.82-.02.31-.05.62-.06.94-.03.63-.05,1.26-.05,1.89v.25c0,1.12.06,2.31.19,3.75,0,.11.03.22.04.32.02.2.02.4.04.59l.02.26h0c.03.22.06.43.09.65.02.15.04.3.06.45.07.45.14.89.22,1.33.05.3.11.6.17.9.05.26.11.52.16.77.11.51.23,1.01.36,1.51,0,.02.01.04.02.06,4.67,17.97,20.81,30.81,40.02,30.81h83.74c19.2,0,35.34-12.84,40.01-30.81,0-.02.01-.04.02-.07.13-.5.25-1,.36-1.5.06-.26.11-.52.16-.78.06-.3.12-.59.17-.89.08-.44.15-.89.22-1.34.02-.15.04-.29.06-.44.03-.22.07-.43.09-.65h0l.02-.24c.02-.2.03-.4.05-.59.01-.11.03-.23.04-.34.13-1.42.19-2.62.19-3.75v-.25c0-.69-.02-1.38-.05-2.06Zm-41.81-36.76h.47c.45,0,.91.01,1.38.03-.24,3.2-.77,6.97-1.84,10.8v-10.83Zm-18.07,0h15.5v17.66c-3.32,6.79-8.98,12.81-18.56,15.02-4.09.94-9.08,1.69-14.62,2.23-1.22-1.11-2.74-1.9-4.43-2.22l6.27-11.13c8.96-3.2,15.46-11.61,15.84-21.56Zm-23.83,35.1c3.64,0,6.61,2.96,6.61,6.61s-2.96,6.61-6.61,6.61-6.61-2.96-6.61-6.61,2.97-6.61,6.61-6.61Zm-.18-4.04l-4.24-8.54c1.43.27,2.91.42,4.42.42,1.59,0,3.15-.16,4.65-.46l-4.83,8.58Zm20.32-31.06h1.12c-.33,7.69-4.75,14.32-11.14,17.79l10.02-17.79Zm35.74-50.05c0,3.64-2.97,6.61-6.61,6.61s-6.45-2.8-6.58-6.37l-.07-1.94,1.01-1.68c.75-1.25,1.89-2.22,3.22-2.75l2.43-.97,2.43.97c2.54,1.01,4.18,3.41,4.18,6.13Zm-6.61-33.56c6.96,0,12.63,5.66,12.63,12.63,0,5.92-4.2,11.12-9.99,12.35l-2.64.56-2.64-.56c-.96-.21-1.93-.54-2.88-1l-1.65-.8-.13,1.29c-1.17-.72-2.22-1.61-3.13-2.63l-1.64,18.72c-.25.48-.5.97-.78,1.44-.32.56-.64,1.12-.99,1.66-.34.53-.68,1.04-1.04,1.56-.36.52-.74,1.03-1.13,1.53l-.22.29c-.29.38-.57.76-.88,1.12-.62.75-1.3,1.51-2.02,2.26-.38.4-.77.77-1.17,1.15l-.14.13c-.53.51-1.05,1.01-1.61,1.48-.42.36-.85.72-1.28,1.06-.57.45-1.14.89-1.73,1.32l-.31.23c-.31.22-.62.45-.93.66-1.06.71-2.04,1.32-2.98,1.85-.15.09-.31.16-.47.24-.14.07-.27.14-.41.21-.41.22-.83.44-1.25.64l-.72.35v.03c-6.74,3.14-14.32,4.55-22.08,3.87-3.84-.34-7.55-1.17-11.07-2.45v-.02l-.82-.32c-11.35-4.4-20.38-13.48-24.76-24.9l-.79-2.05c-.48-1.46-.88-2.94-1.2-4.45l-.35-2.22c-.03-.21-.07-.42-.11-.62-.05-.28-.1-.56-.14-.85l-.12-.95c-.26-2.68-.29-5.39-.05-8.13l.43-4.91c2.45,3.3,5.42,5.83,8.87,6.2.8.09,1.61.18,2.43.27,3.9.44,8.01.91,11.92.91,3.61,0,7.05-.4,9.98-1.58-.61,2.11-1.02,4.08-1.02,5.58,0,6.28,6.6,8.42,6.88,8.51.12.04.25.06.37.06.52,0,1-.34,1.17-.86.2-.65-.15-1.33-.8-1.54-.21-.07-5.16-1.7-5.16-6.17,0-1.81.73-4.53,1.67-7.3.5-.37.97-.78,1.42-1.22.15-.06.29-.15.41-.27.5-.5,1.42-.13,1.87.1h.01c3.53,3.68,8.88,4.71,14.68,4.71,3.9,0,8.01-.47,11.92-.91.82-.09,1.63-.19,2.43-.27,6-.65,10.54-7.8,13.45-14.25,1.47-1.76,3.36-3.15,5.52-4.02l-.07,1.28,1.74-.5c1.15-.33,2.33-.5,3.49-.5Zm-53.23,3.82c-.62-.29-1.35-.02-1.64.59-.06.13-.44.94-.98,2.16-1.38-4.87-4.79-10.63-13.14-11.53l-22.01-2.38c8.35-14.83,24.49-23.4,41.53-21.91,14.68,1.28,27,9.8,33.82,21.71l-23.81,2.58c-11.81,1.28-13.73,12.24-14.02,16.72-.48-.1-.99-.13-1.5-.05-.02-.23-.03-.48-.06-.75,1.25-3.08,2.36-5.46,2.39-5.51.29-.61.03-1.35-.59-1.63Zm14.05-6.22l29.26-3.17c-2.12,6.94-7.58,20.25-14.49,21-.81.09-1.62.18-2.45.27-8.9,1.01-18.97,2.15-24.1-2.67-.01-2.58.54-14.22,11.78-15.44Zm-57.54,1.97l-.47-1.28c-.58-1.57-1.01-2.89-1.31-3.85l29.25,3.17c9.14.99,11.21,8.87,11.66,13.17-.42,1.06-.84,2.18-1.25,3.32-5.42,3.57-14.56,2.54-22.74,1.62-.82-.09-1.64-.19-2.44-.27-5.44-.59-9.97-8.95-12.69-15.87Zm-14.69,13.06c0-6.79,5.39-12.32,12.11-12.6.98,2.55,2.26,5.49,3.85,8.26l-.72,8.19c-.25,2.85-.23,5.69.04,8.48-.13.03-.26.06-.4.08l-2.61.47-2.59-.62c-5.7-1.37-9.68-6.41-9.68-12.27Zm12,27.54c-3.64,0-6.61-2.96-6.61-6.61,0-2.78,1.78-5.27,4.42-6.2l2.46-.87,2.34,1c.35.15.72.38,1.09.64.48,2.84,1.21,5.62,2.21,8.32-1.11,2.27-3.36,3.72-5.91,3.72Zm44.98,26.05c1.36.12,2.71.18,4.06.18,6.39,0,12.58-1.32,18.25-3.78v21.31l-10.74,19.05c-2.02.64-4.17,1-6.4,1-2.05,0-4.03-.3-5.91-.85l-10.34-20.83.24-.12v-18.24c3.47,1.18,7.1,1.95,10.85,2.28Zm-13.82,17.39h.64l9.03,18.19c-6.81-3.34-11.6-10.19-11.94-18.19h2.27Zm-20.09,0h15.25c.38,10.11,7.08,18.62,16.25,21.7l5.5,11.07c-1.93.45-3.63,1.51-4.88,2.96-10.32.35-21.51.08-32.12-.91v-34.83Zm-33.64,15.97c.05-.07.11-.15.17-.22.24-.32.48-.64.73-.96.09-.12.19-.23.28-.35.22-.27.44-.54.66-.8.12-.14.23-.27.35-.41.21-.24.43-.48.64-.71.13-.14.26-.28.39-.42.22-.23.45-.46.67-.69.13-.13.26-.26.39-.39.25-.24.5-.48.76-.72.11-.1.22-.21.33-.31.32-.29.65-.57.98-.85.05-.04.1-.09.15-.13,6-5.01,13.49-8.2,21.57-8.89.03,0,.07,0,.1,0,.48-.04.97-.07,1.46-.09.19,0,.37,0,.56-.02.29,0,.58-.02.87-.02v34.57c-14.96-1.57-28.41-4.6-36.04-9.32,1.25-3.35,2.93-6.47,4.98-9.28Zm153.91,23.1c0,.51-.02,1.02-.04,1.52-.03.62-.07,1.27-.14,2-.16,1.81-.45,3.57-.84,5.29-.03.13-.06.27-.09.4-.08.34-.17.68-.27,1.02-.1.38-.21.76-.32,1.14-.03.1-.06.2-.09.3-4.58,14.5-17.46,25.35-33.04,26.95,0,0-.02,0-.02,0-.58.06-1.16.1-1.74.13-.08,0-.17.01-.25.02-.65.03-1.31.05-1.97.05H41.4c-.66,0-1.31-.02-1.97-.05-.08,0-.17-.01-.25-.02-.58-.03-1.17-.07-1.74-.13,0,0-.01,0-.02,0-15.59-1.59-28.47-12.45-33.05-26.95-.03-.1-.06-.19-.09-.29-.12-.38-.22-.77-.33-1.15-.09-.34-.18-.67-.26-1.01-.03-.14-.06-.27-.1-.41-.39-1.72-.68-3.48-.84-5.29-.07-.74-.11-1.4-.14-2.02-.02-.5-.04-1-.04-1.5v-.25c0-.75.04-1.49.08-2.23.02-.36.05-.72.08-1.1.02-.28.06-.55.09-.83.03-.26.06-.51.1-.77l.1-.71c.04-.31.09-.62.14-.92.07-.38.13-.77.21-1.15.08-.38.17-.79.27-1.22.12-.49.25-.98.38-1.47.06-.22.12-.43.19-.65,14.01,8.25,44.32,11.38,69.97,10.65-.39,1.02-.62,2.13-.62,3.29,0,5.06,4.12,9.19,9.18,9.19s9.18-4.12,9.18-9.19c0-1.59-.41-3.08-1.12-4.39,4.96-.54,9.48-1.25,13.28-2.13,20.14-4.65,24.2-25.04,24.96-34.95.52.05,1.03.12,1.54.19.18.03.35.05.53.08.34.05.67.11,1.01.17.28.05.56.1.84.16.32.07.63.14.95.21.27.06.54.12.8.19.37.09.73.2,1.1.3.2.06.41.12.61.18.37.11.73.23,1.09.35.2.07.39.13.59.2.43.15.86.31,1.28.48.1.04.2.08.3.12.48.2.95.4,1.42.61.04.02.09.04.13.06,7.43,3.41,13.58,9.1,17.59,16.12.06.1.12.2.18.31.27.48.53.97.78,1.46.01.02.02.05.03.07.15.29.28.59.42.88l.1.21c.11.23.22.47.32.71.18.41.35.81.52,1.23.09.25.19.51.28.76l.35.97c.08.22.15.44.23.66.1.3.19.59.28.89.12.41.22.82.32,1.24l.26,1.04c.06.22.11.44.16.65.04.2.09.4.13.6.12.62.2,1.26.29,1.93l.04.3c.03.19.06.38.09.57.03.21.07.42.09.64,0,.06.01.12.02.17.06.62.11,1.24.14,1.86,0,.01,0,.03,0,.04.03.65.05,1.29.05,1.93v.25Z"/>
</svg>