<?xml version="1.0" encoding="UTF-8"?>
<svg id="Layer_1" data-name="Layer 1" xmlns="http://www.w3.org/2000/svg" xmlns:xlink="http://www.w3.org/1999/xlink" viewBox="0 0 1110 600">
  <defs>
    <style>
      .skinDark03 {
        fill: #dfa890;
      }

      .yellowDimmed02 {
        fill: #fff6cc;
      }

      .white {
        fill: #fff;
      }

      .greenDimmed02{
        fill: #e3f6e7;
      }

      .yellowDark02 {
        fill: #e3ae00;
      }

      .opacity50 {
        opacity: .25;
      }

      .greenDark01 {
        fill: #00a167;
      }

      .redDark01 {
        fill: #ab123a;
      }

      .violetColor {
        fill: #9572e8;
      }

      .redDark02 {
        fill: #91082c;
      }

      .redColor {
        fill: #f4313b;
      }

      .blueDimmed02 {
        fill: #e0e8fa;
      }

      .yellowColor {
        fill: #ffd300;
      }

      .darkBlueDark02 {
        fill: #03112e;
      }

      .violetDimmed01 {
        fill: #a994ed;
      }

      .greenDimmed01 {
        fill: #aae3b7;
      }

      .yellowDark01 {
        fill: #fec60d;
      }

      .yellowDimmed01 {
        fill: #ffe566;
      }

      .banner_01_degradado_sin_nombre_11 {
        fill: url(#Degradado_sin_nombre_11);
      }

      .banner_01_clippath-1_Class {
        clip-path: url(#clippath-1);
      }

      .orangeDark01 {
        fill: #bd6400;
      }

      .violetDark01 {
        fill: #7a69a4;
      }

      .redDimmed02{
        fill: #fdd6d8;
      }

      .blueDimmed01 {
        fill: #a1b9f0;
      }

      .redDimmed01 {
        fill: #f88389;
      }

      .banner_01_degradado_sin_nombre_2 {
        fill: url(#Degradado_sin_nombre_2);
      }

      .greenColor {
        fill: #71d187;
      }

      .greenDark02 {
        fill: #317864;
      }

      .banner_01_clipClass {
        clip-path: url(#clippath);
      }

      .noFill {
        fill: none;
      }

      .pinkDark02 {
        fill: #7d4a62;
      }

      .orangeColor {
        fill: #fc8500;
      }

      .banner_01_degradado_sin_nombre_2-2 {
        fill: url(#Degradado_sin_nombre_2-2);
      }

      .burgandyColor {
        fill: #af2f32;
      }

      .skin04 {
        fill: #d59174;
      }

      .lightBlueDimmed02 {
        fill: #e9f9fd;
      }

      .banner_01_degradado_sin_nombre_12 {
        fill: url(#Degradado_sin_nombre_12);
      }

      /* Patra Animations */
      #pen-Patra {
        transform-origin: 347px 100px;
        animation: penMove-Patra 10s infinite ease-in-out;
      }
      #eyes-Patra {
        transform-origin: 148px 36px;
        animation: blinkEyes-Patra 3.8s infinite;
      }
      #right_arm-Patra {
        transform-origin: 294px 128px;
        animation: rightArmMove-Patra 2s linear infinite alternate forwards;
      }
      #right_forearm-Patra {
        transform-origin: 360px 228px;
        animation: rightForearmMove-Patra 2s linear infinite ;
      }
      #right_hand-Patra{
        transform-origin:358px 194px;
        transform:rotate(172deg);
      }
      @keyframes penMove-Patra {
        00%   { transform:matrix(0.17,-0.98,0.98,0.17,30,10) }
        05%   { transform:matrix(0.34,-0.94,0.94,0.34,20,10) }
        10%   { transform:matrix(0.17,-0.98,0.98,0.17,10,10) }
        15%   { transform:matrix(0.34,-0.94,0.94,0.34,0,10) }
        20%   { transform:matrix(0.17,-0.98,0.98,0.17,30,15) }
        25%   { transform:matrix(0.34,-0.94,0.94,0.34,20,15) }
        30%   { transform:matrix(0.17,-0.98,0.98,0.17,10,15) }
        35%   { transform:matrix(0.34,-0.94,0.94,0.34,0,15) }
        40%   { transform:matrix(0.17,-0.98,0.98,0.17,20,20) }
        45%   { transform:matrix(0.34,-0.94,0.94,0.34,10,20) }
        60%   { transform:matrix(0.17,-0.98,0.98,0.17,0,20) }
        65%   { transform:matrix(0.34,-0.94,0.94,0.34,-10,20) }
        70%   { transform:matrix(0.17,-0.98,0.98,0.17,15,25) }
        75%   { transform:matrix(0.34,-0.94,0.94,0.34,05,25) }
        80%   { transform:matrix(0.17,-0.98,0.98,0.17,-15,25) }
        85%   { transform:matrix(0.34,-0.94,0.94,0.34,-20,25) }
        90%   { transform:matrix(0.17,-0.98,0.98,0.17,0,30) }
        95%   { transform:matrix(0.34,-0.94,0.94,0.34,15,30) }
        100%   { transform:matrix(0.17,-0.98,0.98,0.17,30,10) }
      }
      @keyframes penMove2-Patra {
        0%   { transform: translate(40px,10px) }
        30%   { transform: translate(20px,10px) }
        33%   { transform: translate(40px,14px) }
        63%   { transform: translate(20px,14px) }
        66%   { transform: translate(40px,18px) }
        96%   { transform: translate(20px,18px) }
        100%   { transform: translate(40px,10px) }
      }
      @keyframes blinkEyes-Patra {
        0%   { transform: scale(1,1) }
        10%   { transform: scale(1,1) }
        11%   { transform: scale(1,0) }
        12%   { transform: scale(1,1) }
        30%   { transform: scale(1,1) }
        31%   { transform: scale(1,0) }
        32%   { transform: scale(1,1) }
        36%   { transform: scale(1,1) }
        37%   { transform: scale(1,0) }
        38%   { transform: scale(1,1) }
        100%   { transform: scale(1,1) }
      }
      @keyframes rightArmMove-Patra {
        0%   { transform: rotate(0deg) }
        20%   { transform: rotate(-2.5deg) }
        40%   { transform: rotate(0deg) }
        60%   { transform: rotate(2.5deg) }
        80%   { transform: rotate(0deg) }
        100%   { transform: rotate(-2.5deg) }
      }
      @keyframes rightForearmMove-Patra {
        000%   { transform: rotate(180deg)translate(-2px, 70px) }
        025%   { transform: rotate(178deg)translate(-2px, 70px) }
        050%   { transform: rotate(179deg)translate(-2px, 70px) }
        075%   { transform: rotate(176deg)translate(-2px, 70px) }
        100%   { transform: rotate(180deg)translate(-2px, 70px) }
      }
      @keyframes rightForearmMove-Patra {
        000%   { transform: rotate(180deg)translate(-2px, 70px) }
        025%   { transform: rotate(178deg)translate(-2px, 70px) }
        050%   { transform: rotate(179deg)translate(-2px, 70px) }
        075%   { transform: rotate(176deg)translate(-2px, 70px) }
        100%   { transform: rotate(180deg)translate(-2px, 70px) }
      }
      /* Freya Animations */
      #eyes-Freya {
        transform-origin: 827px 91px;
        animation: blinkEyes-Freya 4.2s infinite;
      }
      #magnifying-Freya {
        transform-origin: 737px 103px;
        animation: magnifyingMove-Freya 10s infinite ease-in-out;
      }
      #arm01-Freya {
        transform-origin: 789px 152px;
        animation: armMove-Freya 10s infinite ease-in-out;
      }
      @keyframes blinkEyes-Freya {
        0%   { transform: scale(1,1) }
        10%   { transform: scale(1,1) }
        11%   { transform: scale(1,0) }
        12%   { transform: scale(1,1) }
        30%   { transform: scale(1,1) }
        31%   { transform: scale(1,0) }
        32%   { transform: scale(1,1) }
        36%   { transform: scale(1,1) }
        37%   { transform: scale(1,0) }
        38%   { transform: scale(1,1) }
        100%   { transform: scale(1,1) }
      }
      @keyframes magnifyingMove-Freya {
        0%   { transform: translate(0px,0px) }
        20%   { transform: translate(-10px,5px) }
        40%   { transform: translate(0px,0px) }
        60%   { transform: translate(10px,5px) }
        80%   { transform: translate(0px,0px) }
        100%   { transform: translate(0px,0px) }
      }
      @keyframes armMove-Freya {
        0%   { transform:translate(-40px, 16px) rotate(-40deg) scale(1,1)}
        20%   { transform:translate(-50px, 21px) rotate(-47deg) scale(1,1)}
        40%   { transform:translate(-40px, 16px) rotate(-40deg) scale(1,1)}
        60%   { transform:translate(-30px, 21px) rotate(-40deg) scale(1,0.9) }
        80%   { transform:translate(-40px, 16px) rotate(-40deg) scale(1,1)}
        100%   { transform:translate(-40px, 16px) rotate(-40deg) scale(1,1) }
      }
      /* Background Animations */
      .shapeRotate01 {
        animation: shapeRotate01 30s linear infinite;
      }
      .shapeRotate02 {
        animation: shapeRotate01 20s linear infinite;
      }
      .shapeRotate03 {
        animation: shapeRotate01 10s linear infinite;
      }
      #background_shapes{
        animation: shapeMovement 30s linear infinite;
      }
      @keyframes shapeRotate01 {
        0%   { transform: rotate(0deg) }
        100%   { transform: rotate(360deg) }
      }
      @keyframes shapeMovement {
        0%   { transform: translate(0px,0px) }
        100%   { transform: translate(0px,354px) }
      }
    </style>
    <clipPath id="clippath">
      <circle class="noFill" cx="721.22" cy="517.41" r="556.91"/>
    </clipPath>
    <clipPath id="clippath-1">
      <rect class="noFill" width="1110" height="600"/>
    </clipPath>
    <linearGradient id="Degradado_sin_nombre_2" data-name="Degradado sin nombre 2" x1="-1185.49" y1="85.73" x2="-1185.49" y2="77.3" gradientTransform="translate(-872.6) rotate(-180) scale(1 -1)" gradientUnits="userSpaceOnUse">
      <stop offset="0" stop-color="#a1b9f0"/>
      <stop offset="1" stop-color="#e0e8fa"/>
    </linearGradient>
    <linearGradient id="Degradado_sin_nombre_11" data-name="Degradado sin nombre 11" x1="-1251.3" y1="225.91" x2="-1151.01" y2="125.62" gradientTransform="translate(1228.24 990.77) rotate(33.85) scale(1 -1)" gradientUnits="userSpaceOnUse">
      <stop offset="0" stop-color="#e0e8fa"/>
      <stop offset="1" stop-color="#a1b9f0"/>
    </linearGradient>
    <radialGradient id="Degradado_sin_nombre_12" data-name="Degradado sin nombre 12" cx="-1000.15" cy="198.51" fx="-1000.15" fy="198.51" r="131.87" gradientTransform="translate(-872.6) rotate(-180) scale(1 -1)" gradientUnits="userSpaceOnUse">
      <stop offset="0" stop-color="#a1b9f0"/>
      <stop offset="1" stop-color="#e0e8fa"/>
    </radialGradient>
    <linearGradient id="Degradado_sin_nombre_2-2" data-name="Degradado sin nombre 2" x1="-1124.21" x2="-1124.21" xlink:href="#Degradado_sin_nombre_2"/>
  </defs>
  <rect class="violetDimmed01" width="1110" height="600"/>
  <g class="banner_01_clipClass">
    <rect class="violetColor" width="1110" height="600"/>
  </g>
  <rect class="violetDark01" y="530.67" width="1110" height="69.33"/>
  <g class="opacity50">
    <g class="banner_01_clippath-1_Class">
      <g id="background_shapes">
        <g transform="translate(0 -354)">
          <polygon transform-origin="-15px 106px" class="shapeRotate01 violetDark01" points="2.5 76.43 -32.14 76.43 -49.46 106.43 -32.14 136.43 2.5 136.43 19.82 106.43 2.5 76.43"/>
          <path transform-origin="174px 106px" class="shapeRotate03 violetDark01" d="m172.26,132.78l-18.2,9.57c-2.5,1.32-5.43-.81-4.95-3.6l3.48-20.26c.19-1.11-.18-2.24-.98-3.02l-14.72-14.35c-2.03-1.98-.91-5.42,1.89-5.82l20.34-2.96c1.11-.16,2.07-.86,2.57-1.87l9.1-18.43c1.25-2.54,4.87-2.54,6.12,0l9.1,18.43c.5,1.01,1.46,1.71,2.57,1.87l20.34,2.96c2.8.41,3.92,3.85,1.89,5.82l-14.72,14.35c-.8.78-1.17,1.91-.98,3.02l3.48,20.26c.48,2.79-2.45,4.92-4.95,3.6l-18.2-9.57c-.99-.52-2.18-.52-3.18,0Z"/>
          <circle class="violetDark01" cx="362.51" cy="108.91" r="33"/>
          <rect transform-origin="551px 106px" class="shapeRotate03 violetDark01" x="523.18" y="82.1" width="56" height="56"/>
          <polygon transform-origin="740px 106px" class="shapeRotate01 violetDark01" points="739.85 72.39 702.85 136.47 776.85 136.47 739.85 72.39"/>
          <polygon transform-origin="928px 106px" class="shapeRotate02 violetDark01" points="945.83 76.43 911.19 76.43 893.87 106.43 911.19 136.43 945.83 136.43 963.15 106.43 945.83 76.43"/>
          <path transform-origin="1117px 106px" class="shapeRotate01 violetDark01"  d="m1115.59,132.78l-18.2,9.57c-2.5,1.32-5.43-.81-4.95-3.6l3.48-20.26c.19-1.11-.18-2.24-.98-3.02l-14.72-14.35c-2.03-1.98-.91-5.42,1.89-5.82l20.34-2.96c1.11-.16,2.07-.86,2.57-1.87l9.1-18.43c1.25-2.54,4.87-2.54,6.12,0l9.1,18.43c.5,1.01,1.46,1.71,2.57,1.87l20.34,2.96c2.8.41,3.92,3.85,1.89,5.82l-14.72,14.35c-.8.78-1.17,1.91-.98,3.02l3.48,20.26c.48,2.79-2.45,4.92-4.95,3.6l-18.2-9.57c-.99-.52-2.18-.52-3.18,0Z"/>
        </g>
        <g transform="translate(0 -354)">
          <circle class="violetDark01" cx="-12.18" cy="289.05" r="33"/>
          <rect transform-origin="176px 290px" class="shapeRotate01 violetDark01" x="148.49" y="262.24" width="56" height="56"/>
          <polygon transform-origin="365px 290px" class="shapeRotate02 violetDark01" points="365.15 252.53 328.15 316.61 402.15 316.61 365.15 252.53"/>
          <polygon transform-origin="551px 290px" class="shapeRotate03 violetDark01" points="571.14 256.57 536.5 256.57 519.18 286.57 536.5 316.57 571.14 316.57 588.46 286.57 571.14 256.57"/>
          <path transform-origin="740px 290px" class="shapeRotate02 violetDark01" d="m740.9,312.92l-18.2,9.57c-2.5,1.32-5.43-.81-4.95-3.6l3.48-20.26c.19-1.11-.18-2.24-.98-3.02l-14.72-14.35c-2.03-1.98-.91-5.42,1.89-5.82l20.34-2.96c1.11-.16,2.07-.86,2.57-1.87l9.1-18.43c1.25-2.54,4.87-2.54,6.12,0l9.1,18.43c.5,1.01,1.46,1.71,2.57,1.87l20.34,2.96c2.8.41,3.92,3.85,1.89,5.82l-14.72,14.35c-.8.78-1.17,1.91-.98,3.02l3.48,20.26c.48,2.79-2.45,4.92-4.95,3.6l-18.2-9.57c-.99-.52-2.18-.52-3.18,0Z"/>
          <circle class="violetDark01" cx="931.15" cy="289.05" r="33"/>
          <rect transform-origin="1117px 290px" class="shapeRotate01 violetDark01" x="1091.82" y="262.24" width="56" height="56"/>
        </g>
        <g>
          <polygon transform-origin="-15px 106px" class="shapeRotate01 violetDark01" points="2.5 76.43 -32.14 76.43 -49.46 106.43 -32.14 136.43 2.5 136.43 19.82 106.43 2.5 76.43"/>
          <path transform-origin="174px 106px" class="shapeRotate03 violetDark01" d="m172.26,132.78l-18.2,9.57c-2.5,1.32-5.43-.81-4.95-3.6l3.48-20.26c.19-1.11-.18-2.24-.98-3.02l-14.72-14.35c-2.03-1.98-.91-5.42,1.89-5.82l20.34-2.96c1.11-.16,2.07-.86,2.57-1.87l9.1-18.43c1.25-2.54,4.87-2.54,6.12,0l9.1,18.43c.5,1.01,1.46,1.71,2.57,1.87l20.34,2.96c2.8.41,3.92,3.85,1.89,5.82l-14.72,14.35c-.8.78-1.17,1.91-.98,3.02l3.48,20.26c.48,2.79-2.45,4.92-4.95,3.6l-18.2-9.57c-.99-.52-2.18-.52-3.18,0Z"/>
          <circle class="violetDark01" cx="362.51" cy="108.91" r="33"/>
          <rect transform-origin="551px 106px" class="shapeRotate03 violetDark01" x="523.18" y="82.1" width="56" height="56"/>
          <polygon transform-origin="740px 106px" class="shapeRotate01 violetDark01" points="739.85 72.39 702.85 136.47 776.85 136.47 739.85 72.39"/>
          <polygon transform-origin="928px 106px" class="shapeRotate02 violetDark01" points="945.83 76.43 911.19 76.43 893.87 106.43 911.19 136.43 945.83 136.43 963.15 106.43 945.83 76.43"/>
          <path transform-origin="1117px 106px" class="shapeRotate01 violetDark01"  d="m1115.59,132.78l-18.2,9.57c-2.5,1.32-5.43-.81-4.95-3.6l3.48-20.26c.19-1.11-.18-2.24-.98-3.02l-14.72-14.35c-2.03-1.98-.91-5.42,1.89-5.82l20.34-2.96c1.11-.16,2.07-.86,2.57-1.87l9.1-18.43c1.25-2.54,4.87-2.54,6.12,0l9.1,18.43c.5,1.01,1.46,1.71,2.57,1.87l20.34,2.96c2.8.41,3.92,3.85,1.89,5.82l-14.72,14.35c-.8.78-1.17,1.91-.98,3.02l3.48,20.26c.48,2.79-2.45,4.92-4.95,3.6l-18.2-9.57c-.99-.52-2.18-.52-3.18,0Z"/>
        </g>
        <g>
          <circle class="violetDark01" cx="-12.18" cy="289.05" r="33"/>
          <rect transform-origin="176px 290px" class="shapeRotate01 violetDark01" x="148.49" y="262.24" width="56" height="56"/>
          <polygon transform-origin="365px 290px" class="shapeRotate02 violetDark01" points="365.15 252.53 328.15 316.61 402.15 316.61 365.15 252.53"/>
          <polygon transform-origin="551px 290px" class="shapeRotate03 violetDark01" points="571.14 256.57 536.5 256.57 519.18 286.57 536.5 316.57 571.14 316.57 588.46 286.57 571.14 256.57"/>
          <path transform-origin="740px 290px" class="shapeRotate02 violetDark01" d="m740.9,312.92l-18.2,9.57c-2.5,1.32-5.43-.81-4.95-3.6l3.48-20.26c.19-1.11-.18-2.24-.98-3.02l-14.72-14.35c-2.03-1.98-.91-5.42,1.89-5.82l20.34-2.96c1.11-.16,2.07-.86,2.57-1.87l9.1-18.43c1.25-2.54,4.87-2.54,6.12,0l9.1,18.43c.5,1.01,1.46,1.71,2.57,1.87l20.34,2.96c2.8.41,3.92,3.85,1.89,5.82l-14.72,14.35c-.8.78-1.17,1.91-.98,3.02l3.48,20.26c.48,2.79-2.45,4.92-4.95,3.6l-18.2-9.57c-.99-.52-2.18-.52-3.18,0Z"/>
          <circle class="violetDark01" cx="931.15" cy="289.05" r="33"/>
          <rect transform-origin="1117px 290px" class="shapeRotate01 violetDark01" x="1091.82" y="262.24" width="56" height="56"/>
        </g>
        <g>
          <polygon transform-origin="-15px 465px" class="shapeRotate03 violetDark01" points="2.5 434.71 -32.14 434.71 -49.46 464.71 -32.14 494.71 2.5 494.71 19.82 464.71 2.5 434.71"/>
          <path transform-origin="174px 465px" class="shapeRotate02 violetDark01" d="m172.26,491.06l-18.2,9.57c-2.5,1.32-5.43-.81-4.95-3.6l3.48-20.26c.19-1.11-.18-2.24-.98-3.02l-14.72-14.35c-2.03-1.98-.91-5.42,1.89-5.82l20.34-2.96c1.11-.16,2.07-.86,2.57-1.87l9.1-18.43c1.25-2.54,4.87-2.54,6.12,0l9.1,18.43c.5,1.01,1.46,1.71,2.57,1.87l20.34,2.96c2.8.41,3.92,3.85,1.89,5.82l-14.72,14.35c-.8.78-1.17,1.91-.98,3.02l3.48,20.26c.48,2.79-2.45,4.92-4.95,3.6l-18.2-9.57c-.99-.52-2.18-.52-3.18,0Z"/>
          <circle class="violetDark01" cx="362.51" cy="467.19" r="33"/>
          <rect transform-origin="551px 465px" class="shapeRotate02 violetDark01" x="523.18" y="440.38" width="56" height="56"/>
          <path transform-origin="1117px 465px" class="shapeRotate03 violetDark01" d="m1115.59,491.06l-18.2,9.57c-2.5,1.32-5.43-.81-4.95-3.6l3.48-20.26c.19-1.11-.18-2.24-.98-3.02l-14.72-14.35c-2.03-1.98-.91-5.42,1.89-5.82l20.34-2.96c1.11-.16,2.07-.86,2.57-1.87l9.1-18.43c1.25-2.54,4.87-2.54,6.12,0l9.1,18.43c.5,1.01,1.46,1.71,2.57,1.87l20.34,2.96c2.8.41,3.92,3.85,1.89,5.82l-14.72,14.35c-.8.78-1.17,1.91-.98,3.02l3.48,20.26c.48,2.79-2.45,4.92-4.95,3.6l-18.2-9.57c-.99-.52-2.18-.52-3.18,0Z"/>
          <polygon transform-origin="928px 465px" class="shapeRotate01 violetDark01" points="945.83 434.71 911.19 434.71 893.87 464.71 911.19 494.71 945.83 494.71 963.15 464.71 945.83 434.71"/>
          <polygon transform-origin="740px 465px" class="shapeRotate03 violetDark01" points="739.85 430.66 702.85 494.75 776.85 494.75 739.85 430.66"/>
        </g>
      </g>
    </g>
  </g>
  <g>
    <circle class="banner_01_degradado_sin_nombre_2" cx="312.89" cy="81.51" r="4.21"/>
    <g>
      <path class="redDark01" d="m252,70.02s-.77,9.57-3.06,13.4-10.72,19.15-9.96,26.81,54.38,5.02,54.38,5.02c0,0,6.86,3.6,9.94-2.63,3.08-6.22,2.32-15.41.02-27.67s9.19-37.53-51.32-14.94Z"/>
      <path class="redDark02" d="m240.51,115.6c.16,0,.32-.02.48-.05,1.24-.27,2.03-1.49,1.77-2.73-2.05-9.55,3.39-19.49,7.75-27.48l.44-.81c4.88-8.95,3.4-24.42,3.33-25.07-.13-1.26-1.25-2.18-2.51-2.06-1.26.13-2.18,1.25-2.06,2.51.01.15,1.4,14.72-2.79,22.42l-.44.81c-4.73,8.66-10.62,19.43-8.21,30.65.23,1.08,1.18,1.82,2.24,1.82Z"/>
      <path class="redDark02" d="m248.93,113.3c.08,0,.15,0,.23-.01,1.26-.13,2.18-1.25,2.06-2.52-.41-4.09,1.25-8.11,3-12.37,1.2-2.92,2.45-5.94,3.09-9.16,1.55-7.76,2.31-33.75,2.34-34.85.04-1.27-.96-2.33-2.23-2.36-1.26-.04-2.33.96-2.36,2.23,0,.27-.78,26.7-2.25,34.08-.56,2.78-1.66,5.47-2.83,8.31-1.89,4.6-3.85,9.35-3.33,14.58.12,1.19,1.12,2.07,2.28,2.07Z"/>
      <path class="redDark02" d="m301.78,122.49c.93,0,1.81-.57,2.15-1.49.1-.26,2.4-6.45,3.19-12.78.69-5.51-.32-10.81-1.6-17.52-.23-1.23-.48-2.51-.72-3.85-1.46-8.03.01-26.79.03-26.98.1-1.27-.84-2.37-2.11-2.47-1.26-.11-2.37.84-2.47,2.11-.06.79-1.54,19.55.03,28.17.25,1.35.49,2.65.73,3.89,1.2,6.32,2.15,11.31,1.55,16.1-.72,5.77-2.91,11.67-2.94,11.73-.44,1.19.16,2.51,1.35,2.96.27.1.54.15.81.15Z"/>
      <path class="redDark02" d="m297.95,118.66c1,0,1.92-.66,2.21-1.67.07-.24,1.65-5.96.07-17.79-1.51-11.34-3.04-24.34-3.06-24.47-.15-1.26-1.29-2.16-2.55-2.01-1.26.15-2.16,1.29-2.01,2.55.02.13,1.55,13.17,3.07,24.54,1.43,10.71.08,15.87.07,15.92-.35,1.22.36,2.49,1.58,2.84.21.06.42.09.63.09Z"/>
      <path class="redDark02" d="m291.83,114.83c1.13,0,2.11-.83,2.27-1.97.8-5.61-.7-17-.76-17.48-.17-1.26-1.32-2.14-2.58-1.97-1.26.17-2.14,1.32-1.97,2.58.01.11,1.48,11.24.77,16.22-.18,1.26.69,2.42,1.95,2.6.11.02.22.02.33.02Z"/>
      <path class="redDark02" d="m256.59,112.53c.07,0,.15,0,.22-.01,1.26-.12,2.19-1.24,2.07-2.5-1.39-14.57,6.51-21.48,6.85-21.77.96-.82,1.09-2.27.27-3.23-.81-.97-2.25-1.1-3.22-.29-.41.34-10.1,8.63-8.48,25.73.11,1.19,1.11,2.08,2.28,2.08Z"/>
    </g>
    <g id="right_arm-Patra">
      <rect class="banner_01_degradado_sin_nombre_11" x="314.01" y="103.76" width="29.11" height="144" rx="14.55" ry="14.55" transform="translate(699.33 138.73) rotate(146.15)"/>
      <g id="right_forearm-Patra" >
        <path id="right_hand-Patra" class="skin04" d="m371.67,153.36s6.79-7.8,3.27-18.56c-3.52-10.75-5.56-14.37-9.75-8.99-4.19,5.38-12.58,18.68,6.48,27.55Z"/>
        <path  class="blueDimmed02" d="m361.16,148.49h0c8.03,0,14.55,6.52,14.55,14.55v74.99h-29.11v-74.99c0-8.03,6.52-14.55,14.55-14.55Z"/>
      </g>
    </g>
    <path class="blueDimmed01" d="m377.61,440.35h-125.61s0-334.71,0-334.71h39.03c13.98,0,25.31,11.33,25.31,25.31l61.27,309.4Z"/>
    <ellipse class="redDark02" cx="283.76" cy="60.54" rx="32.39" ry="34.08" transform="translate(-6.02 45.94) rotate(-9.16)"/>
    <ellipse class="skin04" cx="285.78" cy="70.02" rx="30.56" ry="34.08" transform="translate(-7.5 46.38) rotate(-9.16)"/>
    <rect class="skin04" x="260.42" y="81.9" width="25.28" height="46.72" transform="translate(546.12 210.51) rotate(180)"/>
    <circle class="skin04" cx="253.53" cy="70.41" r="8.43"/>
    <path class="redDark02" d="m297.19,543.75v37.53h65.44c1.08,0,1.96-.88,1.96-1.96v-2.63c0-2.04-1.54-3.76-3.57-3.96-5.7-.57-17.34-3.17-28.6-14.42,0,0-3.83-3.83-3.83-14.55h0s-31.4,0-31.4,0Z"/>
    <path class="redDark02" d="m222.13,543.75v37.53h65.44c1.08,0,1.96-.88,1.96-1.96v-2.63c0-2.04-1.54-3.76-3.57-3.96-5.7-.57-17.34-3.17-28.6-14.42,0,0-3.83-3.83-3.83-14.55h0s-31.4,0-31.4,0Z"/>
    <path class="redDark01" d="m265.02,543.75h-49.02l6.45-280.68c.67-29.2,22.96-52.51,50.23-52.51h10.72c27.27,0,49.56,23.3,50.23,52.51l6.45,280.68h-49.02l-5.66-246.19h-14.72l-5.66,246.19Z"/>
    <path class="redColor" d="m316.34,545.28h14.55c1.69,0,3.06,1.37,3.06,3.06h0c0,1.69-1.37,3.06-3.06,3.06h-14.55v-6.13h0Z" transform="translate(650.29 1096.7) rotate(180)"/>
    <path class="redColor" d="m316.34,552.94h14.55c1.69,0,3.06,1.37,3.06,3.06h0c0,1.69-1.37,3.06-3.06,3.06h-14.55v-6.13h0Z" transform="translate(650.29 1112.02) rotate(180)"/>
    <path class="redColor" d="m241.27,545.28h14.55c1.69,0,3.06,1.37,3.06,3.06h0c0,1.69-1.37,3.06-3.06,3.06h-14.55v-6.13h0Z" transform="translate(500.17 1096.7) rotate(180)"/>
    <path class="redColor" d="m241.27,552.94h14.55c1.69,0,3.06,1.37,3.06,3.06h0c0,1.69-1.37,3.06-3.06,3.06h-14.55v-6.13h0Z" transform="translate(500.17 1112.02) rotate(180)"/>
    <path class="redColor" d="m269.37,114.77h20.16s3.12-.77,6.16,6.16c3.04,6.92,19.12,26.84,16.06,35.26-3.06,8.43-7.66,9.96-7.66,9.96l-3.06,47.49s0,3.83-3.06,3.83h-42.13v-102.63l13.54-.06Z"/>
    <path class="banner_01_degradado_sin_nombre_12" d="m160.85,439.59h94.98l7.66-334.71h-16.05c-13.98,0-25.31,11.33-25.31,25.31l-61.27,309.4Z"/>
    <path class="skin04" d="m308.68,134.75s-1.53-6.89,3.83-12.25,7.66-6.89,8.43-2.3,1.53,15.32-12.25,14.55Z"/>
    <rect id="pen-Patra" class="darkBlueDark02" x="343.61" y="96.45" width="31.24" height="7.66"/>
    <path class="pinkDark02" d="m297.01,176.87h49.39c3.92,0,8.35-2.64,9.91-5.9l28.8-60.2c1.56-3.26-.35-5.9-4.27-5.9h-49.39c-3.92,0-8.35,2.64-9.91,5.9l-28.8,60.2c-1.56,3.26.35,5.9,4.27,5.9Z"/>
    <g>
      <path class="blueDimmed01" d="m267.32,58.65c0-1.54,1.25-2.79,2.79-2.79h43.99c1.54,0,2.79,1.25,2.79,2.79v9.6h0c0,.09,0,.17,0,.26,0,5.56-5.27,10.07-10.84,10.07s-10.07-4.51-10.07-10.07c0-.09,0-.17,0-.26h-.02c-.13-2.45-1.39-3.62-3.87-3.62s-3.73,1.18-3.87,3.62h-.02c0,.09,0,.17,0,.26,0,5.56-4.51,10.07-10.07,10.07s-10.84-4.51-10.84-10.07c0-.09,0-.17,0-.26h0v-9.6Z"/>
      <path class="blueDimmed02" d="m268.85,58.65c0-1.54,1.25-2.79,2.79-2.79h43.99c1.54,0,2.79,1.25,2.79,2.79v9.6h0c0,.09,0,.17,0,.26,0,5.56-5.27,10.07-10.84,10.07s-10.07-4.51-10.07-10.07c0-.09,0-.17,0-.26h-.02c-.13-2.45-1.39-3.62-3.87-3.62s-3.73,1.18-3.87,3.62h-.02c0,.09,0,.17,0,.26,0,5.56-4.51,10.07-10.07,10.07s-10.84-4.51-10.84-10.07c0-.09,0-.17,0-.26h0v-9.6Z"/>
    </g>
    <g>
      <path class="redDimmed01" d="m297.95,91.09s-7.28,4.21-13.79-2.3c0,0,3.45,5.36,6.89,5.94,3.45.57,6.89-3.64,6.89-3.64Z"/>
      <path class="burgandyColor" d="m297.95,78.45s.05,0,.08,0c.21-.04.34-.25.29-.45l-2.3-10.72c-.04-.21-.25-.34-.45-.29-.21.04-.34.25-.29.45l2.3,10.72c.04.18.2.3.37.3Z"/>
      <path class="burgandyColor" d="m295.65,85.07c1.05,0,2.27-.3,3.34-1.37.15-.15.15-.39,0-.54s-.39-.15-.54,0c-2.07,2.07-4.8.75-4.92.69-.19-.09-.42-.02-.51.17-.09.19-.02.42.17.51.02,0,1.09.53,2.47.53Z"/>
      <path class="burgandyColor" d="m292.44,92.79c3.27,0,5.66-1.35,5.71-1.37.18-.11.25-.34.14-.52-.11-.18-.34-.25-.52-.14-.29.17-7.11,3.98-13.32-2.24-.15-.15-.39-.15-.54,0s-.15.39,0,.54c2.91,2.91,5.99,3.73,8.54,3.73Z"/>
      <path class="burgandyColor" d="m291.32,95.1c1.28,0,2.21-.53,2.23-.54.18-.11.24-.34.14-.52-.11-.18-.34-.25-.52-.14-.1.06-2.46,1.37-4.62-.79-.15-.15-.39-.15-.54,0s-.15.39,0,.54c1.13,1.13,2.32,1.44,3.31,1.44Z"/>
      <path class="burgandyColor" d="m256.98,70.41h.77c0-2.32-1.89-4.21-4.21-4.21v.77c1.9,0,3.45,1.55,3.45,3.45Z"/>
      <g id="eyes-Patra">
        <ellipse class="darkBlueDark02" cx="302.55" cy="72.7" rx="1.53" ry="2.3"/>
        <ellipse class="darkBlueDark02" cx="284.93" cy="72.7" rx="1.53" ry="2.3"/>
      </g>
    </g>
    <path class="redDark01" d="m311.74,50.49s-2.3-12.25-17.62-13.79c-15.32-1.53-20.88-4.82-28.44-.88-7.56,3.94-8.33,7.01-9.09,11.6s-5.36,9.96,2.3,11.49c7.66,1.53,9.96,1.65,14.17-1.09,4.21-2.74,11.11-7.47,11.87-10.85s6.13-2.61,6.13-2.61c0,0,26.81,19.15,20.68,6.13Z"/>
    <path class="redDark02" d="m253.08,58.54c-.16-.28-.28-.6-.31-.94-.06-.66.17-1.28.58-1.74-.13-.15-.25-.32-.35-.51-.44-.87-.26-1.88.35-2.56-.37-.41-.59-.94-.59-1.53,0-.38.08-9.26,7.26-14.86.16-.13.34-.24.51-.37.07-.23.17-.45.32-.66,6.88-9.63,15.84-10.55,22.87-8.75.96-.41,1.95-.71,3-.89,7.58-1.27,14.37,4.54,14.66,4.79.38.33.62.76.72,1.21,2.47,1.29,4.43,2.98,5.64,4.38.51.59.66,1.37.48,2.07,4.62,3.69,6.41,8.36,6.44,8.45.26.7.15,1.44-.23,2.02.55.69,1.07,1.4,1.54,2.13.56.88.44,1.99-.22,2.74l1.81,1.15c.95.6,1.3,1.78.9,2.78.02,0,.04.01.07.02,1.21.37,1.9,1.65,1.53,2.87-.3.99-1.21,1.63-2.2,1.63-.22,0-.45-.03-.67-.1-18.1-5.51-26.82-16.4-27.18-16.86-.59-.75-.64-1.76-.19-2.55h0c-.85-.54-1.21-1.54-.99-2.47-.44-.36-.74-.88-.82-1.48,0-.03,0-.07,0-.1-.05-.04-.09-.09-.14-.13.14.42.15.85.05,1.25.06.05.12.08.17.14.58.59.78,1.41.6,2.15.81.67,1.08,1.82.59,2.79-.1.2-9.34,18.21-27.5,18.21-2.28,0-4.71-.29-7.28-.93-1.23-.31-1.98-1.56-1.67-2.79.05-.21.14-.41.25-.59Zm10.5-11.04l14.85-7.42c-6.03,1.12-11.18,4.39-14.85,7.42Zm22.13-13.91c.01-.44.15-.87.4-1.24-.57-.26-1.21-.52-1.9-.76-.56.37-1.1.81-1.62,1.33,1.01.19,2.05.41,3.11.67Zm-24.76,20.36c6.44-1.81,12.28-5.24,16.57-8.28l-16.57,8.28Zm-2.3-8.29c3.34-3.09,8.34-6.86,14.5-8.96-4.2.17-7.64,1.26-10.25,3.29-2.13,1.65-3.44,3.74-4.24,5.67Zm12.2-13.39c1.98-.22,4.1-.24,6.37-.07.44-.62.89-1.19,1.36-1.72-2.45-.09-5.1.36-7.72,1.79Zm26.66,9.65l10.86,6.91c-3.23-3.07-7.26-5.48-10.86-6.91Zm-17.09,7.34c-4.51,3.24-10.7,6.91-17.68,8.95,8.09-.32,13.97-4.84,17.68-8.95Z"/>
    <circle class="banner_01_degradado_sin_nombre_2-2" cx="251.61" cy="81.51" r="4.21"/>
    <rect class="lightBlueDimmed02" x="194.55" y="359.93" width="42.13" height="6.89" transform="translate(625.02 467.86) rotate(135)"/>
    <path class="skin04" d="m314.8,125.55s.02.01.05.03l7.5-9.58c1.04-1.33,2.97-1.57,4.3-.52,1.23.96,1.51,2.68.72,3.98.8-.12,1.65.07,2.34.61,1.33,1.04,1.57,2.97.52,4.3l-.51.65c.99-.4,2.15-.3,3.05.41,1.33,1.04,1.57,2.97.52,4.3l-3.36,4.3c.58.11,1.13.39,1.58.84,1.2,1.2,1.2,3.14,0,4.33l-4.53,4.53c-.66,6.59-6.06,8.62-6.06,8.62l-8.43,7.66-14.55-16.85,16.85-17.62Z"/>
    <path class="blueDimmed02" d="m208.12,248.98c-.1-.13-.2-.26-.3-.4-.18-.27-.35-.54-.51-.82-.07-.13-.15-.25-.22-.38-.16-.28-.3-.57-.43-.86-.07-.14-.13-.28-.19-.42-.12-.28-.23-.56-.33-.84-.06-.17-.12-.34-.18-.51-.08-.26-.15-.52-.22-.78-.05-.2-.11-.41-.15-.61-.05-.24-.09-.48-.13-.73-.04-.23-.07-.45-.1-.68-.03-.24-.04-.48-.06-.73-.01-.23-.03-.45-.03-.68,0-.27,0-.54.02-.81,0-.2.01-.39.03-.59.03-.33.07-.66.12-.99.02-.12.02-.23.04-.35l.04-.21s0-.04,0-.06l19.9-112.88c1.4-7.92,8.94-13.2,16.86-11.8h0c7.92,1.4,13.2,8.94,11.8,16.86l-11.94,67.69,58.89-58.89,20.58,20.58-91.53,91.53c-.11.11-.23.2-.34.31-.21.19-.41.39-.63.57-.19.16-.39.3-.59.45-.17.13-.35.26-.53.39-.23.16-.47.3-.71.45-.16.1-.32.19-.48.28-.25.14-.51.26-.77.39-.17.08-.33.16-.5.23-.25.11-.51.2-.77.3-.19.07-.38.14-.58.2-.24.08-.48.14-.72.2-.22.06-.44.11-.66.16-.23.05-.46.09-.69.12-.24.04-.47.08-.71.1-.24.03-.47.04-.71.05-.23.01-.46.03-.69.03-.27,0-.55,0-.82-.02-.19,0-.38-.01-.58-.03-.34-.03-.69-.08-1.03-.13-.1-.02-.21-.02-.31-.04h0s-.05-.01-.07-.02c-.4-.07-.8-.17-1.19-.27-.07-.02-.15-.03-.22-.05-.41-.12-.82-.26-1.22-.41-.05-.02-.1-.03-.15-.05-.38-.15-.76-.33-1.13-.51-.06-.03-.12-.05-.18-.08-.31-.16-.61-.34-.91-.53-.11-.07-.23-.13-.33-.2-.23-.15-.46-.33-.68-.49-.16-.12-.33-.23-.48-.36-.19-.15-.37-.32-.55-.49-.18-.16-.36-.31-.52-.47-.04-.04-.08-.06-.11-.1-.15-.15-.28-.32-.43-.47-.14-.16-.29-.31-.43-.47-.19-.23-.37-.47-.55-.71Z"/>
    <polygon class="lightBlueDimmed02" points="262.3 156.78 263.49 103.34 243.57 99.51 249.95 109.01 245.1 112.64 262.3 156.78"/>
  </g>
  <g>
    <rect class="redDimmed02" x="760.53" y="121.68" width="28.34" height="145.53" rx="14.17" ry="14.17" transform="translate(389.51 -505.27) rotate(47.08)"/>
    <rect class="redDimmed02" x="695.88" y="121.94" width="28.34" height="130.88" rx="14.17" ry="14.17" transform="translate(1433.83 63.22) rotate(155.48)"/>
    <path class="redDimmed02" d="m703.87,139.78s-.62-18.55-13.64-19.31c-13.02-.77-11.49,14.55-11.49,14.55l25.13,4.76Z"/>
    <path class="redDimmed02" d="m658.07,127.36v-10.16s0-2.86,2.86-2.86,2.86,2.86,2.86,2.86v10.16h-5.72Z"/>
    <path class="redDimmed02" d="m661.13,124.29v-10.16s0-2.86,2.86-2.86,2.86,2.86,2.86,2.86v10.16h-5.72Z"/>
    <path class="redDimmed02" d="m664.96,121.99v-10.16s0-2.86,2.86-2.86,2.86,2.86,2.86,2.86v10.16h-5.72Z"/>
    <polygon class="yellowColor" points="684.87 92.89 654.66 131.95 699.77 131.95 684.87 92.89"/>
    <polygon class="yellowDark02" points="684.87 92.89 715.09 131.95 699.85 131.95 684.87 92.89"/>
    <path class="redDimmed02" d="m698.66,136.55s-12.25-12.25-21.45-9.19c-9.19,3.06-10.72,4.6-10.72,4.6l-11.49-8.43s-3.83-1.53-4.6,0-1.53,3.06,0,4.6,6.89,5.36,10.72,8.43,10.72,2.3,10.72,2.3l6.57,12.89,20.24-15.18Z"/>
    <circle class="orangeColor" cx="869.93" cy="106.8" r="6.13"/>
    <circle class="orangeColor" cx="876.2" cy="117.47" r="6.13"/>
    <circle class="orangeColor" cx="880.96" cy="128.36" r="6.13"/>
    <rect class="greenDimmed01" x="792.13" y="133.54" width="28.34" height="62.7" rx="14.17" ry="14.17" transform="translate(372.74 -534.63) rotate(46.65)"/>
    <path class="greenDimmed02" d="m793.91,198.99l-23.42-25.29,14.61-13.53,23.42,25.29-14.61,13.53Z"/>
    <circle class="orangeColor" cx="884.32" cy="140.25" r="6.13"/>
    <path class="greenDark01" d="m841.46,141.14h36.43v178.46h-64.34v-150.56c0-15.4,12.5-27.9,27.9-27.9Z"/>
    <rect class="redDimmed02" x="877.09" y="516.11" width="31.48" height="29.11" transform="translate(-42.85 79.83) rotate(-5)"/>
    <path class="greenDark01" d="m909.54,537.97l3.26,37.39-67.91,5.93-.33-3.82s.03-8.46,7.66-9.13c7.63-.67,26.45-13.55,26.24-15.98-.21-2.44-1.01-11.59-1.01-11.59l32.09-2.8Z"/>
    <rect class="greenDimmed01" x="880.9" y="551.52" width="1.53" height="8.12" transform="translate(-110.73 873.65) rotate(-49.99)"/>
    <path class="greenDimmed01" d="m877.7,553.52l.1-1.1c.09-.91.57-5.51,1.72-6.88.64-.76,1.54-1.23,2.54-1.32.99-.09,1.96.22,2.73.86.76.64,1.23,1.54,1.32,2.54s-.22,1.96-.86,2.73h0c-1.15,1.37-5.6,2.65-6.48,2.89l-1.07.29Zm4.69-7.79c-.07,0-.13,0-.2,0-.59.05-1.12.33-1.5.78-.52.61-.98,2.95-1.24,4.91,1.88-.59,4.1-1.46,4.62-2.07h0c.78-.93.66-2.32-.27-3.11-.4-.34-.9-.52-1.41-.52Z"/>
    <path class="greenDimmed01" d="m878.97,553.4l-1.1-.1c-.91-.09-5.51-.57-6.88-1.72-.76-.64-1.23-1.54-1.32-2.54-.09-.99.22-1.96.86-2.73,1.32-1.58,3.69-1.79,5.26-.46,1.37,1.15,2.65,5.6,2.89,6.48l.29,1.07Zm-5.58-6.89c-.63,0-1.25.27-1.69.79-.38.45-.56,1.02-.51,1.61.05.59.33,1.12.78,1.5.61.52,2.95.98,4.91,1.24-.59-1.88-1.46-4.1-2.07-4.62h0c-.41-.35-.92-.51-1.42-.51Z"/>
    <rect class="greenDimmed01" x="871.5" y="555.35" width="8.12" height="1.53" transform="translate(-113.18 869.58) rotate(-50.01)"/>
    <path class="greenColor" d="m910.93,553.87c-1.49-.28-3.05-.38-4.63-.24-9.27.81-16.13,8.98-15.32,18.25l-25.94,2.26c-.31-3.52-1.99-6.58-4.47-8.72-3.21,1.59-6.21,2.73-8.34,2.92-7.63.67-7.66,9.13-7.66,9.13l.33,3.82,67.91-5.93-1.88-21.49Z"/>
    <rect class="redDimmed02" x="838.06" y="89.06" width="26.04" height="52.85"/>
    <path class="greenDark01" d="m820.44,233.82h0c14.8,0,26.81,12.01,26.81,26.81v252.76h-53.62v-252.76c0-14.8,12.01-26.81,26.81-26.81Z" transform="translate(35.68 -70.08) rotate(5)"/>
    <path class="greenDark01" d="m877.89,233.82h0c14.8,0,26.81,12.01,26.81,26.81v252.76h-53.62v-252.76c0-14.8,12.01-26.81,26.81-26.81Z" transform="translate(-29.22 77.93) rotate(-5)"/>
    <g id="magnifying-Freya">
      <path class="redDimmed02" d="m740.79,144.21h6.13s4.6.77,4.6,3.83v4.6s3.83,3.83,4.6,8.43c.77,4.6-1.53,6.13-1.53,6.13h-13.79v-22.98Z"/>
      <circle class="white" cx="737.89" cy="103.7" r="21.45"/>
      <path class="yellowDark02" d="m737.85,126.68c-5.39,0-10.55-1.87-14.73-5.38-4.7-3.94-7.59-9.49-8.12-15.6-.54-6.11,1.34-12.07,5.29-16.77,3.95-4.7,9.49-7.59,15.6-8.12,6.12-.54,12.07,1.34,16.77,5.29,4.7,3.94,7.59,9.49,8.12,15.6.54,6.11-1.34,12.07-5.29,16.77-3.95,4.7-9.49,7.59-15.6,8.12-.68.06-1.36.09-2.04.09Zm.07-42.9c-.59,0-1.18.03-1.77.08-5.3.46-10.1,2.96-13.52,7.04-3.42,4.07-5.05,9.24-4.58,14.54.46,5.3,2.96,10.1,7.04,13.52,4.07,3.42,9.24,5.05,14.54,4.58,5.3-.46,10.1-2.96,13.52-7.04,3.42-4.07,5.05-9.24,4.58-14.54h0c-.46-5.3-2.96-10.1-7.04-13.52-3.62-3.04-8.1-4.66-12.77-4.66Z"/>
      <rect class="yellowDark02" x="738.06" y="124.98" width="7.66" height="49.02" rx="3.83" ry="3.83" transform="translate(-10.21 65.23) rotate(-5)"/>
      <path id="hand-Freya" class="redDimmed02" d="m737.37,183.27l-10.37-13.03s-1.53-3.83,0-5.36c0,0-2.3-5.36.77-6.89,0,0-2.3-2.3,0-4.6s3.83-.77,3.83-.77c0,0-1.53-3.83,0-4.6s3.06-2.3,6.13.77c3.06,3.06,12.25,4.35,12.25,4.35l4.91,7.51-17.52,22.61Z"/>
    </g>
    <path class="greenDark01" d="m802.83,180.97c0,9.19,11.49,13.48,11.49,13.48v-34.99s-11.49,13.85-11.49,21.51Z"/>
    <rect id="arm01-Freya" class="redDimmed02" x="770.68" y="142.01" width="28.34" height="143.04" rx="14.17" ry="14.17" />
    <g id="arm02-Freya">
      <rect class="redDimmed02" x="839.35" y="132.93" width="28.34" height="145.53" rx="14.17" ry="14.17" transform="translate(211.41 -393.06) rotate(29.45)"/>
      <rect class="greenDimmed01" x="859.71" y="138.28" width="28.34" height="62.7" rx="14.17" ry="14.17" transform="translate(196.31 -407.73) rotate(29.45)"/>
      <path class="greenDimmed02" d="m872.13,205.87l-29.85-17.23,9.96-17.25,29.85,17.23-9.96,17.25Z"/>
    </g>
    <rect class="greenColor" x="779.83" y="484.58" width="59.74" height="32.94"/>
    <rect class="greenColor" x="858.77" y="484.58" width="59.74" height="32.94"/>
    <path class="redDimmed02" d="m838.06,141.14s-16.85,3.83-16.85,16.85h33.7s2.3-16.85,12.25-16.85h-29.11Z"/>
    <circle class="orangeDark01" cx="844.95" cy="86.76" r="32.17"/>
    <rect class="redDimmed02" x="810.46" y="60.23" width="54.88" height="70.47" rx="27.44" ry="27.44" transform="translate(36.18 -166.14) rotate(11.57)"/>
    <circle class="redDimmed02" cx="867.17" cy="104.38" r="7.66"/>
    <path class="skinDark03" d="m825.81,99.02c-.21,0-.42-.09-.57-.26-6.48-7.29,1.91-18.14,2.27-18.6.26-.33.74-.39,1.07-.13.33.26.39.74.13,1.07-.08.1-7.96,10.3-2.33,16.64.28.32.25.8-.06,1.08-.15.13-.33.19-.51.19Z"/>
    <path class="skinDark03" d="m831.16,113.73c-4.54,0-8.05-2.57-8.11-2.62-.34-.25-.41-.73-.15-1.07.25-.34.73-.41,1.07-.15.35.26,8.71,6.33,15.8-2.18.27-.32.75-.37,1.08-.1.32.27.37.75.1,1.08-3.23,3.87-6.74,5.04-9.79,5.04Z"/>
    <g id="eyes-Freya">
      <ellipse class="darkBlueDark02" cx="818.91" cy="91.36" rx="1.53" ry="2.3"/>
      <ellipse class="darkBlueDark02" cx="836.53" cy="91.36" rx="1.53" ry="2.3"/>
    </g>
    <path class="orangeColor" d="m868.39,85.23c.2-1.13.31-2.28.31-3.45,0-13.75-14.23-24.89-31.79-24.89s-31.79,11.14-31.79,24.89c0,1.17.11,2.32.31,3.45h62.95Z"/>
    <path class="greenDimmed01" d="m821.21,157.99h33.7s.57-4.21,2.39-8.43h-33.23c-1.7,2.24-2.86,5.02-2.86,8.43Z"/>
    <path class="greenDark02" d="m861.04,162.59h-3.83c-2.11,0-3.83-1.72-3.83-3.83s1.72-3.83,3.83-3.83h3.83c2.11,0,3.83,1.72,3.83,3.83s-1.72,3.83-3.83,3.83Zm-3.83-5.36c-.84,0-1.53.69-1.53,1.53s.69,1.53,1.53,1.53h3.83c.84,0,1.53-.69,1.53-1.53s-.69-1.53-1.53-1.53h-3.83Z"/>
    <rect class="greenDark02" x="891.51" y="280.94" width=".77" height="204.02" transform="translate(-29.98 79.19) rotate(-5)"/>
    <polygon class="greenDark02" points="829.77 484.61 829.01 484.54 844.38 308.89 839.48 308.52 839.54 307.75 845.21 308.19 845.17 308.57 829.77 484.61"/>
    <path class="greenDark02" d="m819.68,162.59h-3.83c-2.11,0-3.83-1.72-3.83-3.83s1.72-3.83,3.83-3.83h3.83c2.11,0,3.83,1.72,3.83,3.83s-1.72,3.83-3.83,3.83Zm-3.83-5.36c-.84,0-1.53.69-1.53,1.53s.69,1.53,1.53,1.53h3.83c.84,0,1.53-.69,1.53-1.53s-.69-1.53-1.53-1.53h-3.83Z"/>
    <path class="greenDark02" d="m883.63,282.07c-13.73,0-24.89-11.17-24.89-24.89h.77c0,13.3,10.82,24.13,24.13,24.13,4.46,0,8.82-1.23,12.61-3.56l.4.65c-3.91,2.4-8.41,3.67-13.01,3.67Z"/>
    <rect class="redDimmed02" x="792.76" y="517.41" width="31.48" height="29.11"/>
    <path class="greenDark01" d="m824.51,540.7v37.53s-68.18-.01-68.18-.01v-3.83s.77-8.43,8.43-8.42c7.66,0,27.53-11.19,27.53-13.63s0-11.64,0-11.64h32.21Z"/>
    <rect class="greenDimmed01" x="794.45" y="551.75" width="1.53" height="8.12" transform="translate(-160.15 724.88) rotate(-44.99)"/>
    <path class="greenDimmed01" d="m791.44,553.41l.2-1.09c.16-.9,1.05-5.44,2.31-6.71,1.46-1.46,3.83-1.46,5.28,0s1.46,3.83,0,5.28h0c-1.27,1.26-5.81,2.15-6.71,2.31l-1.09.2Zm5.16-7.36c-.56,0-1.13.21-1.56.64-.57.57-1.24,2.85-1.66,4.78,1.93-.42,4.21-1.09,4.78-1.66.86-.86.86-2.26,0-3.12-.43-.43-.99-.64-1.56-.64Z"/>
    <path class="greenDimmed01" d="m792.72,553.41l-1.09-.2c-.9-.16-5.44-1.05-6.71-2.31-.71-.71-1.09-1.64-1.09-2.64,0-1,.39-1.94,1.09-2.64,1.46-1.46,3.83-1.46,5.28,0,1.26,1.27,2.15,5.81,2.31,6.71l.2,1.09Zm-5.15-7.36c-.56,0-1.13.21-1.56.64-.86.86-.86,2.26,0,3.12.57.57,2.85,1.24,4.78,1.66-.42-1.93-1.09-4.21-1.66-4.78h0c-.43-.43-.99-.65-1.56-.65Z"/>
    <rect class="greenDimmed01" x="785.02" y="555.05" width="8.12" height="1.53" transform="translate(-161.9 720.76) rotate(-45)"/>
    <path class="greenColor" d="m824.51,556.65c-1.46-.41-3-.64-4.6-.64-9.31,0-16.85,7.54-16.85,16.85h-26.04c0-3.54-1.41-6.73-3.69-9.08-3.34,1.31-6.43,2.18-8.56,2.18-7.66,0-8.43,8.42-8.43,8.42v3.83s68.17.01,68.17.01v-21.57Z"/>
  </g>
  <g>
    <circle class="redDimmed01" cx="621.52" cy="342.58" r="19.15"/>
    <path class="yellowDark01" d="m658.28,375.52h-127.91v-22.89c0-1.57.36-3.12,1.05-4.53l42.08-86.27c1.73-3.55,5.33-5.8,9.28-5.8h24.19v16.08h-14.92c-3.4,0-6.37,2.29-7.24,5.57l-16.81,63.5c-1.59,6.01-2.4,12.2-2.4,18.41h0c0,4.14,3.35,7.49,7.49,7.49h79.94c2.9,0,5.25,2.35,5.25,5.25v3.18Z"/>
    <rect class="yellowColor" x="606.84" y="227.69" width="29.87" height="78.13"/>
    <g>
      <circle class="yellowDark02" cx="606.96" cy="250.67" r="13.02"/>
      <path class="yellowDimmed02" d="m606.96,267.52c-9.29,0-16.85-7.56-16.85-16.85s7.56-16.85,16.85-16.85,16.85,7.56,16.85,16.85-7.56,16.85-16.85,16.85Zm0-26.04c-5.07,0-9.19,4.12-9.19,9.19s4.12,9.19,9.19,9.19,9.19-4.12,9.19-9.19-4.12-9.19-9.19-9.19Z"/>
    </g>
    <rect class="yellowDimmed02" x="594.58" y="361.73" width="54.38" height="5.36"/>
    <rect class="yellowDark02" x="612.2" y="221.56" width="19.15" height="6.13"/>
    <rect class="yellowColor" x="609.9" y="217.74" width="23.74" height="3.83" rx="1.91" ry="1.91"/>
    <rect class="yellowDimmed01" x="604.92" y="295.09" width="33.7" height="4.6"/>
    <rect class="yellowDark02" x="609.13" y="305.82" width="25.28" height="2.3"/>
    <path class="yellowDark02" d="m521.95,375.52h145.53c3.8,0,6.89,3.09,6.89,6.89h-159.31c0-3.8,3.09-6.89,6.89-6.89Z"/>
    <rect class="greenColor" x="510.46" y="393.9" width="183.06" height="28.34"/>
    <path class="greenColor" d="m698.76,579.66h0c-4.21.37-7.93-2.75-8.3-6.96l-19.1-174.4c-.37-4.21,6.56-8.26,10.78-8.63h0c4.21-.37,11.74,2.41,12.11,6.63l11.47,175.06c.37,4.21-2.75,7.93-6.96,8.3Z"/>
    <path class="greenColor" d="m508.24,579.99h0c-4.21-.37-7.33-4.08-6.96-8.3l11.47-175.06c.37-4.21,7.9-7,12.11-6.63h0c4.21.37,11.15,4.42,10.78,8.63l-19.1,174.4c-.37,4.21-4.08,7.33-8.3,6.96Z"/>
    <rect class="greenDimmed01" x="490.54" y="382.41" width="223.65" height="11.49"/>
    <path class="greenDimmed02" d="m654.45,295.09h12.25v54.38c0,3.38-2.75,6.13-6.13,6.13h0c-3.38,0-6.13-2.75-6.13-6.13v-54.38h0Z"/>
    <path class="greenDimmed02" d="m669.77,295.09h12.25v54.38c0,3.38-2.75,6.13-6.13,6.13h0c-3.38,0-6.13-2.75-6.13-6.13v-54.38h0Z"/>
    <path class="greenDimmed02" d="m685.09,295.09h12.25v54.38c0,3.38-2.75,6.13-6.13,6.13h0c-3.38,0-6.13-2.75-6.13-6.13v-54.38h0Z"/>
    <path class="redDimmed01" d="m671.3,319.36h9.09v30.16c0,2.51-2.04,4.55-4.55,4.55h0c-2.51,0-4.55-2.04-4.55-4.55v-30.16h0Z"/>
    <path class="redDimmed01" d="m655.98,333.39h9.09v16.13c0,2.51-2.04,4.55-4.55,4.55h0c-2.51,0-4.55-2.04-4.55-4.55v-16.13h0Z"/>
    <path class="redDimmed01" d="m686.62,327.26h9.09v22.26c0,2.51-2.04,4.55-4.55,4.55h0c-2.51,0-4.55-2.04-4.55-4.55v-22.26h0Z"/>
    <path class="darkBlueDark02" d="m702.71,313.09h-54.38c-.63,0-1.15-.51-1.15-1.15s.51-1.15,1.15-1.15h54.38c.63,0,1.15.51,1.15,1.15s-.51,1.15-1.15,1.15Z"/>
    <path class="darkBlueDark02" d="m706.1,383.43c-.59,0-1.09-.45-1.14-1.05l-6.14-70.2c-.06-.63.41-1.19,1.04-1.24.64-.06,1.19.41,1.24,1.04l6.14,70.2c.06.63-.41,1.19-1.04,1.24-.03,0-.07,0-.1,0Z"/>
    <path class="darkBlueDark02" d="m645.58,383.43s-.07,0-.1,0c-.63-.06-1.1-.61-1.04-1.24l6.14-70.2c.06-.63.61-1.1,1.24-1.04.63.06,1.1.61,1.04,1.24l-6.14,70.2c-.05.6-.55,1.05-1.14,1.05Z"/>
  </g>
</svg>