<?xml version="1.0" encoding="UTF-8"?>
<svg id="Layer_5" data-name="Layer 5" xmlns="http://www.w3.org/2000/svg" viewBox="0 0 227.43 227.43">
  <defs>
    <style>
      .cls-1 {
        fill: #9572e8;
      }

      .cls-2 {
        fill: #ffd300;
      }
    </style>
  </defs>
  <path d="m221.19,57.42l4.74-3-13.97-15.09-16.7,3.69-15.35-2.51-16.3.77-15.39-2.51-14.25.48-20.55-10.38-6.77,11.27-2.51,4.75-1.71-3.77-8.08-6.06-10.32,2.26-4.87-.5-9.69-4.2-17.03,3.38-3.44,10.22-5.53,18.42-5.63,17.83-6.31,17.69-6.1,17.73-6.98,16.68-.83,17.74-3.86,14.32-11.41,27.96,29.45.99,27.72-2.22,7.33-12.97,1.81-4.88,10.48-.81,19.43-.24,4.38,7.46,5.7,13.9,10.84-1.98-.48,3.11,29.13-3.03,21.23,6.35,6.06-6.74,4.64-3.5,4.1-22.56-2.28-18.59-.64-16.76.14-15.92,4.52-16.79.22-7.19,4.82,1.24,17.03-.04,11.47-2.27-.99-16.71-.89-3.52,6.54-8.08-2.93-5.4Zm-91.36,37.08l-.61,2.89-2.55-3.45-1.69-3.69,4.3-.49.56,4.74Z"/>
  <g>
    <path class="cls-2" d="m156.28,177.37l-4.7,3.58-18.42.21-18.32,3.35-2.89-7.05-7.68-13.08-25.56.32-17.19,1.32-3.75,10.13-4.32,7.65-21.86,1.75-14.53-.49,6.22-15.25,4.31-15.97.79-17.06,6.42-15.35,6.17-17.93,6.37-17.86,5.71-18.07,5.45-18.18,1.59-4.73,8.29-1.64,8.24,3.58,8,.82,7.41-1.62,2.37,1.78,7.78,17.15,7.95,17.15,7.89,17.18,11.53,15.57,6.94,15.33,1.61,17.67,10.08,13.95,8.1,15.8Zm-76.09-82.42l-5.45,16.59-5.86,17.9,6.58-.96,10.04,3.45,5.62-3.64.52-.83-5.09-17.33-6.36-15.18Z"/>
    <path d="m68.38,43.02l8.24,3.58,8,.82,7.41-1.62,2.37,1.78,7.78,17.15,7.95,17.15,7.89,17.18,11.53,15.57,6.94,15.33,1.61,17.67,10.08,13.95,8.1,15.8-4.7,3.58-18.42.21-18.32,3.35-2.89-7.05-7.68-13.08-25.56.31-17.19,1.32-3.75,10.13-4.32,7.65-21.86,1.75-14.53-.49,6.22-15.25,4.31-15.97.79-17.06,6.42-15.35,6.17-17.93,6.37-17.86,5.71-18.07,5.45-18.18,1.59-4.73,8.29-1.64m.5,86.41l6.58-.96,10.04,3.45,5.62-3.64.52-.83-5.09-17.33-6.36-15.18-5.45,16.59-5.86,17.9m.17-92.66l-1.84.36-8.29,1.64-3.41.68-1.11,3.3-1.59,4.73-.03.09-.03.1-5.44,18.14-5.66,17.92-6.34,17.76v.03s-.02.03-.02.03l-6.11,17.74-6.35,15.17-.41.98-.05,1.06-.76,16.41-4.04,14.98-6.08,14.9-3.25,7.97,8.61.29,14.53.49h.34s.34-.02.34-.02l21.86-1.75,3.18-.25,1.57-2.77,4.32-7.65.24-.42.17-.45,2.42-6.53,13.16-1.01,21.88-.27,5.7,9.71,2.73,6.66,1.84,4.5,4.79-.87,17.82-3.26,17.91-.2,1.99-.02,1.58-1.21,4.7-3.58,3.99-3.04-2.29-4.47-8.1-15.8-.21-.41-.27-.37-9.12-12.61-1.46-16.03-.09-1.01-.42-.92-6.94-15.33-.26-.58-.38-.51-11.16-15.07-7.63-16.61-7.95-17.15-7.77-17.13-.63-1.4-1.23-.92-2.37-1.78-2.2-1.65-2.68.59-6.47,1.42-6.12-.63-7.39-3.21-1.72-.75h0Zm8.32,86.02l3.08-9.39.43-1.3.02.04,3.86,13.13-.06.04-7.28-2.5h-.04Z"/>
  </g>
  <g>
    <path class="cls-1" d="m208.96,83.02l-1.97.39-14.79.04-15.68-4.02-.57,18.5-4.55,16.9-.15,17.44.66,17.41,2.15,17.5-3.13,17.21-2.29,1.73-2.47,2.75-17.07-5.11-18.22,1.89.76-4.89.31-17.29,1.09-17.29-.57-17.49,3.93-16.93,3.56-16.79-1.91-16.26-14.66,1.65-15.58-2.83-.41-1.45,1.5-7.3,2.75-8.15.38-9.27,3.21-6.09,1.98-3.3,14.53,7.34,15.83-.54,15.45,2.52,16.29-.77,16.21,2.65,12.97-2.87,1.92,2.07-2.49,1.58,4.2,7.74-5.49,6.79,1.89,7.45.42,7.06Z"/>
    <path d="m117.22,41.98l14.53,7.34,15.83-.54,15.45,2.52,16.29-.77,16.21,2.65,12.97-2.87,1.92,2.07-2.49,1.58,4.2,7.74-5.49,6.79,1.89,7.45.42,7.06-1.97.39-14.79.04-15.68-4.02-.57,18.5-4.55,16.9-.15,17.44.66,17.41,2.15,17.5-3.13,17.21-2.29,1.73-2.47,2.75-17.07-5.11-18.22,1.89.76-4.89.31-17.29,1.09-17.29-.57-17.49,3.93-16.93,3.56-16.79-1.91-16.26-14.66,1.65-15.58-2.83-.41-1.45,1.5-7.3,2.75-8.15.38-9.27,3.21-6.09,1.98-3.3m-2.27-7.87l-2.87,4.78-1.98,3.3-.09.14-.08.15-3.21,6.09-.63,1.2-.06,1.35-.35,8.42-2.47,7.33-.12.35-.07.36-1.5,7.3-.29,1.43.4,1.41.41,1.45,1.02,3.61,3.69.67,15.58,2.83.87.16.88-.1,8.72-.98,1.1,9.34-3.35,15.77-3.91,16.87-.18.77.03.79.56,17.2-1.07,17v.13s-.01.13-.01.13l-.3,16.88-.69,4.49-1.19,7.69,7.74-.8,17.03-1.77,15.92,4.77,3.64,1.09,2.54-2.83,2.08-2.32,1.83-1.38,1.87-1.41.42-2.31,3.13-17.21.16-.9-.11-.91-2.12-17.25-.65-17.02.15-16.53,4.35-16.16.18-.68.02-.7.34-11.01,8.43,2.16.74.19h.76s14.79-.04,14.79-.04h.58s.57-.11.57-.11l1.97-.39,5.13-1.02-.31-5.22-.42-7.06-.03-.57-.14-.55-1.15-4.54,3.6-4.45,2.52-3.11-1.91-3.52-1.53-2.81,3.84-2.43-4.89-5.29-1.92-2.07-2.34-2.52-3.36.74-11.85,2.62-15.07-2.46-.62-.1-.63.03-15.67.74-14.83-2.42-.58-.09-.59.02-14.3.48-13.16-6.65-4.98-2.51h0Z"/>
  </g>
</svg>