<?xml version="1.0" encoding="UTF-8"?>
<svg id="Layer_1" data-name="Layer 1" xmlns="http://www.w3.org/2000/svg" viewBox="0 0 776.28 797.27">
  <defs>
    <style>
      .skin01Dark04{
        fill: #b25235;
      }

      .skin04 {
        fill: #d59174;
      }
    </style>
  </defs>
  <path class="skin04" d="m360.7,465.94h0c-2.28-9.27-11.65-14.93-20.92-12.65l-171.54,42.26c-3.59.88-6.63,2.84-8.89,5.43h0s-.03.04-.03.04c-1.05,1.21-1.93,2.56-2.61,4.01l-112.51,173.06,28.99,18.85,110.2-169.51,164.66-40.56c9.27-2.28,14.93-11.65,12.65-20.92Z"/>
  <path class="skin04" d="m417.35,500.17c-3.2-8.99-13.09-13.69-22.09-10.48l-166.42,59.3c-6.57,2.34-10.83,8.25-11.41,14.77h-.08s.04.44.04.44c-.11,1.69.03,3.41.45,5.12l17.93,204.89,34.44-3.01-16.99-194.18,153.65-54.75c8.99-3.2,13.69-13.09,10.48-22.09Z"/>
  <path class="skin04" d="m536.46,24.81c-1.54-1.65-4.13-1.74-5.78-.19-3.39,3.18-5.57,6.96-6.97,10.46-.36-.54-.72-1.08-1.09-1.62-.43-.64-.81-1.2-1.17-1.73,0-.36-.03-.73-.13-1.1l-7.67-27.63c-.6-2.18-2.86-3.45-5.04-2.85-2.18.6-3.45,2.86-2.85,5.04l3.6,12.95c-.14.02-.28.04-.42.07l-2.82-10.15c-.6-2.18-2.86-3.45-5.04-2.85-2.18.6-3.45,2.86-2.85,5.04l1.2,4.34c-.95-.63-2.16-.88-3.35-.55-2.18.6-3.45,2.86-2.85,5.04l.5,1.79c-2.13.63-3.38,2.86-2.78,5.01l7.41,26.67c.13.8.28,1.6.45,2.4.23,1.05.47,2.01.73,2.89l-20.79,107.21c-.01.07-.02.14-.03.2-.25.85-.41,1.73-.46,2.65l-6.8,119.86c-.38,6.62,4.71,12.32,11.35,12.73l2.41.15c6.64.41,12.34-4.63,12.71-11.25l6.7-117.98c.12-.4.22-.8.3-1.22l22.86-117.88c.1-.5.15-.99.18-1.48.56-.89.88-1.83,1-2.81.23-.49.37-1.03.39-1.61,0-.1.5-9.83,6.9-15.82,1.65-1.54,1.74-4.13.19-5.78Z"/>
  <path class="colorDark01" fill="var(--redDark01)"  d="m527.58,436l-10-27.21-4.66,1.71c-13.26-19.82-37.99-30.17-62.43-23.99l-231.86,58.6,20.65,81.71,30.88-7.8,22.84,62.13,201.77-74.17c28.66-10.54,43.35-42.31,32.82-70.97Z"/>
  <rect class="colorDark01" fill="var(--redDark01)"  x="510.99" y="193.69" width="73.2" height="87.65" rx="36.6" ry="36.6" transform="translate(416.15 -344.71) rotate(53.83)"/>
  <path class="skin04" d="m577.53,253.8c7.59-10.88,7.85-25.81-.42-37.12l-3.1-4.24c-10.41-14.24-30.4-17.35-44.64-6.94l-2.33,1.71c-4.62-4.23-11.8-3.92-16.05.69-3.53,3.84-3.91,9.46-1.28,13.69-8.23,10.95-8.74,26.41-.24,38.04l3.1,4.24c.24.32.48.63.73.94l-8.7,16.64,21.07,11.01,8.27-15.81c7.94,1.11,16.3-.74,23.28-5.84l3.66-2.68c.61,1.25,1.44,2.41,2.52,3.4,4.62,4.25,11.82,3.95,16.07-.67,4.25-4.62,3.95-11.82-.67-16.07-.4-.37-.82-.69-1.25-.99Z"/>
  <path class="skin01Dark04" d="m522.58,241.44c1.05.97.86,2.89-.43,4.29-1.29,1.4-3.19,1.75-4.24.79s-.86-2.89.43-4.29c1.29-1.4,3.19-1.75,4.24-.79Z"/>
  <path class="skin01Dark04" d="m566.92,260.41c-.26,0-.52-.09-.73-.29-.44-.4-.47-1.09-.06-1.53,1.22-1.33,2.88-2.1,4.68-2.17,1.78-.07,3.52.55,4.85,1.77.44.4.47,1.09.06,1.53-.41.44-1.09.47-1.53.06-.9-.83-2.06-1.26-3.29-1.21-1.22.05-2.35.58-3.18,1.48-.21.23-.5.35-.8.35Z"/>
  <path class="skin01Dark04" d="m528.84,240.05c-3.3,0-6.05-2.61-6.19-5.94-.13-2.97,3.43-4.4,5.56-4.78.58-.1,1.15.29,1.25.87.11.59-.29,1.15-.87,1.25-1,.18-3.84,1.04-3.78,2.56.09,2.22,1.95,3.95,4.2,3.86.55,0,1.1.44,1.12,1.03.03.6-.44,1.1-1.03,1.12-.09,0-.17,0-.26,0Z"/>
  <rect class="mainColor" fill="var(--redColor)"  x="533.55" y="210.81" width="2.16" height="6.48" transform="translate(127.84 621.69) rotate(-66.88)"/>
  <rect class="mainColor" fill="var(--redColor)"  x="551.05" y="226.9" width="2.16" height="6.48" transform="translate(-42.42 295.88) rotate(-28.94)"/>
  <path class="mainColor" fill="var(--redColor)"  d="m568.2,294.75s-3.21-8.02-22.98-10.49c-4.04-.5-8.94-1.26-14.16-2.13l1.44-2.76-21.07-11.01-4.88,9.33c-2.69-.52-5.25-1.01-7.59-1.48-14.45-2.84-29.45,2.91-37.72,15.1-1.53,2.25-2.84,4.75-3.82,7.49-6.54,18.32,2.62,37.65,2.62,37.65l-3.91,55.96,61.06,21.79s54.08-72.49,51.01-119.47Z"/>
  <rect class="mainColor" fill="var(--redColor)"  x="243.37" y="530.65" width="86.55" height="17.23" transform="translate(693.88 84.16) rotate(69.82)"/>
  <rect class="mainColor" fill="var(--redColor)"  x="193.72" y="474.55" width="86.55" height="17.23" transform="translate(647.36 135) rotate(75.82)"/>
  <path class="skin01Dark04" d="m528.97,228.75c-.05,0-.1,0-.16-.01-4.8-.7-5.74-4.24-5.56-6.02.06-.59.58-1.03,1.18-.97.59.06,1.02.58.97,1.17-.03.32-.13,3.11,3.72,3.68.59.09,1,.63.91,1.23-.08.54-.54.92-1.07.92Z"/>
  <path class="skin01Dark04" d="m544.18,242.67c-.05,0-.1,0-.16-.01-4.8-.7-5.74-4.24-5.56-6.02.06-.59.58-1.03,1.18-.97.59.06,1.02.58.97,1.17-.03.32-.13,3.11,3.72,3.68.59.09,1,.63.91,1.23-.08.54-.54.92-1.07.92Z"/>
  <path class="skin04" d="m776.03,124.81c-.77-2.12-3.12-3.22-5.24-2.45l-9.91,3.59c-.06-.13-.12-.26-.19-.38l12.65-4.59c2.12-.77,3.22-3.12,2.45-5.24-.77-2.12-3.12-3.22-5.24-2.45l-26.96,9.78c-.36.13-.67.32-.97.53-.64.02-1.32.03-2.09.05-.65.02-1.31.03-1.96.06,2.04-3.17,3.86-7.14,4.48-11.75.3-2.24-1.27-4.3-3.51-4.6-2.25-.3-4.3,1.27-4.6,3.51-1.17,8.7-8.75,14.69-8.89,14.8-.46.35-.81.78-1.08,1.25-.73.66-1.31,1.46-1.71,2.44-.38.31-.75.64-1.1,1.01l-82.76,87c-.29.31-.56.63-.82.96l-92.22,73.89c-5.17,4.15-5.97,11.7-1.79,16.88l1.52,1.87c4.19,5.18,11.78,6.01,16.95,1.86l93.69-75.07c.72-.58,1.34-1.22,1.89-1.91.05-.05.1-.09.15-.14l75.28-79.15c.87-.3,1.78-.64,2.76-1.07.74-.32,1.48-.66,2.2-1.02l26.03-9.44c2.1-.76,3.19-3.06,2.47-5.17l1.75-.63c2.12-.77,3.22-3.12,2.45-5.24-.42-1.16-1.32-2-2.39-2.41l4.23-1.54c2.12-.77,3.22-3.12,2.45-5.24Z"/>
  <path class="mainColor" fill="var(--redColor)"  d="m197.69,797.27h75.63v-82.12l-49.7-4.32,6.29,49.13c.11.49-1.89,4.91-4.54,5.14-10.37.88-29.84,4.93-29.84,23.52,0,6.48,2.16,8.64,2.16,8.64Z"/>
  <path class="mainColor" fill="var(--redColor)"  d="m0,672.81l59.58,46.59,50.59-64.68-36.49-34.02-25.32,42.58c-.22.45-4.51,2.7-6.74,1.25-8.71-5.69-26.55-14.5-38,.15-3.99,5.11-3.62,8.14-3.62,8.14Z"/>
  <path class="skin01Dark04" d="m515.19,212.84c.29,0,.58-.12.79-.35,1.37-1.49,3.51-1.84,5.26-1.05l1.92-1.4c-2.72-1.86-6.48-1.5-8.77.99-.4.44-.38,1.12.06,1.53.21.19.47.29.73.29Z"/>
  <path class="mainColor" fill="var(--redColor)"  d="m611.04,203.1c-2.07-1.08-4.27-1.6-6.46-1.64-.72-4.26-3.34-8.15-7.47-10.31-4.95-2.59-10.72-1.98-14.97,1.07-.29-.04-.57-.09-.86-.11-1.81-.15-3.57.06-5.22.54-6.79-2.02-11.29,2.74-16.42,8.31v.85s5.97,5.49,5.97,5.49c.35,7.17,5.96,13.15,13.32,13.75.54.04,1.08.05,1.61.04-8.52,8.51-9.5,22.25-1.85,31.92,5.81,7.35,15.05,10.36,23.64,8.62-.97-.9-1.9-1.86-2.75-2.93-.3-.38-.58-.76-.86-1.15,2.65.91,5.51,1.11,8.27.55-.63-.59-1.24-1.22-1.8-1.92-5.89-7.44-4.64-18.25,2.8-24.13,1.37-1.08,2.85-1.92,4.39-2.52-.41-.27-.84-.51-1.27-.73,2.5-1.33,4.65-3.39,6.06-6.1,3.72-7.11.96-15.88-6.14-19.6Z"/>
</svg>