<?xml version="1.0" encoding="UTF-8"?>
<svg id="Layer_2" data-name="Layer 2" xmlns="http://www.w3.org/2000/svg" xmlns:xlink="http://www.w3.org/1999/xlink" viewBox="0 0 278.9 289.91">
  <defs>
    <style>
      .darkBlueDark02 {
        fill: #03112e;
      }

      .darkBlueDark02, .redColor, .skin04, .alex_profile_gradient_21, .alex_profile_gradient_88, .skin06 {
        fill-rule: evenodd;
      }

      .skin06 {
        fill: #b25235;
      }

      .redColor {
        fill: #f4313b;
      }

      .skin04 {
        fill: #d59174;
      }

      .alex_profile_clippath {
        clip-path: url(#alex_profile_clippath);
      }

      .alex_profile_clippath .cls-9 {
        clip-rule: evenodd;
        fill: none;
      }

      .alex_profile_gradient_21 {
        fill: url(#alex_profile_gradient_21);
      }

      .alex_profile_gradient_88 {
        fill: url(#alex_profile_gradient_88);
      }
    </style>
    <linearGradient id="alex_profile_gradient_88" data-name="Degradado sin nombre 88" x1="139.45" y1="202.75" x2="139.45" y2="163.91" gradientUnits="userSpaceOnUse">
      <stop offset=".5" stop-color="#d59174"/>
      <stop offset=".66" stop-color="#d38e71"/>
      <stop offset=".77" stop-color="#ce8467"/>
      <stop offset=".87" stop-color="#c57457"/>
      <stop offset=".96" stop-color="#b95e41"/>
      <stop offset="1" stop-color="#b25235"/>
    </linearGradient>
    <clipPath id="alex_profile_clippath">
      <path class="cls-9" d="m88.38,191.74h102.14c27.02,0,48.93,21.91,48.93,48.93v.31c0,27.02-21.91,48.93-48.93,48.93h-102.14c-27.02,0-48.93-21.91-48.93-48.93v-.31c0-27.02,21.91-48.93,48.93-48.93Z"/>
    </clipPath>
    <radialGradient id="alex_profile_gradient_21" data-name="Degradado sin nombre 21" cx="191.4" cy="54.98" fx="222.91" fy="20.49" r="46.72" gradientUnits="userSpaceOnUse">
      <stop offset=".65" stop-color="#b85d40"/>
      <stop offset=".74" stop-color="#bb6245"/>
      <stop offset=".85" stop-color="#c37255"/>
      <stop offset=".98" stop-color="#d28c6f"/>
      <stop offset="1" stop-color="#d59174"/>
    </radialGradient>
  </defs>
  <path class="alex_profile_gradient_88" d="m117.28,163.91h44.34v38.84h-44.34v-38.84Z"/>
  <g class="alex_profile_clippath">
    <path class="redColor" d="m88.38,191.74h102.14c27.02,0,48.93,21.91,48.93,48.93v.31c0,27.02-21.91,48.93-48.93,48.93h-102.14c-27.02,0-48.93-21.91-48.93-48.93v-.31c0-27.02,21.91-48.93,48.93-48.93Z"/>
    <path class="skin04" d="m0,183.33h86.7v106.57H0v-106.57Z"/>
    <path class="skin04" d="m192.2,183.26h86.7v106.64h-86.7v-106.64Z"/>
  </g>
  <path class="skin06" d="m139.14,33.64c32.09,0,58.1,26.01,58.1,58.1v22.63c0,32.09-26.01,58.1-58.1,58.1s-58.1-26.01-58.1-58.1v-22.63c0-32.09,26.01-58.1,58.1-58.1Z"/>
  <path class="alex_profile_gradient_21" d="m132.72,47.4h13c25.33,0,45.87,20.54,45.87,45.87v33.33c0,25.33-20.54,45.87-45.87,45.87h-13c-25.33,0-45.87-20.54-45.87-45.87v-33.33c0-25.33,20.54-45.87,45.87-45.87Z"/>
  <path class="skin04" d="m82.57,100.92c10.13,0,18.35,8.21,18.35,18.35s-8.21,18.35-18.35,18.35-18.35-8.21-18.35-18.35,8.21-18.35,18.35-18.35Z"/>
  <path class="skin04" d="m193.88,100.92c10.13,0,18.35,8.21,18.35,18.35s-8.21,18.35-18.35,18.35-18.35-8.21-18.35-18.35,8.21-18.35,18.35-18.35Z"/>
  <path class="skin06" d="m71.56,120.75c-.82,0-1.49-.67-1.49-1.49,0-6.89,5.61-12.5,12.5-12.5.82,0,1.49.67,1.49,1.49s-.67,1.49-1.49,1.49c-5.25,0-9.52,4.27-9.52,9.52,0,.82-.67,1.49-1.49,1.49Z"/>
  <path class="skin06" d="m139.3,151.88c-5.1,0-9.9-1.99-13.51-5.6-.58-.58-.58-1.52,0-2.1.58-.58,1.52-.58,2.1,0,3.05,3.05,7.1,4.72,11.4,4.72s8.36-1.68,11.4-4.72c.58-.58,1.52-.58,2.1,0,.58.58.58,1.52,0,2.1-3.61,3.61-8.41,5.6-13.51,5.6Z"/>
  <path class="skin06" d="m139.3,136.24c-2.19,0-4.37-.83-6.03-2.5-2.9-2.9-.62-7.67,1.18-10.03.5-.65,1.43-.78,2.08-.28.65.5.78,1.43.28,2.08-.85,1.12-2.93,4.63-1.44,6.12,2.17,2.17,5.69,2.17,7.86,0,.58-.58,1.52-.58,2.1,0,.58.58.58,1.52,0,2.1-1.66,1.66-3.85,2.5-6.03,2.5Z"/>
  <path class="skin06" d="m204.89,120.75c-.82,0-1.49-.67-1.49-1.49,0-5.25-4.27-9.52-9.52-9.52-.82,0-1.49-.67-1.49-1.49s.67-1.49,1.49-1.49c6.89,0,12.5,5.61,12.5,12.5,0,.82-.67,1.49-1.49,1.49Z"/>
  <path class="darkBlueDark02" d="m121.41,109.94c1.27,0,2.29,1.03,2.29,2.29v3.06c0,1.27-1.03,2.29-2.29,2.29s-2.29-1.03-2.29-2.29v-3.06c0-1.27,1.03-2.29,2.29-2.29Z"/>
  <path class="darkBlueDark02" d="m157.03,109.94c1.27,0,2.29,1.03,2.29,2.29v3.06c0,1.27-1.03,2.29-2.29,2.29s-2.29-1.03-2.29-2.29v-3.06c0-1.27,1.03-2.29,2.29-2.29Z"/>
  <path class="redColor" d="m110,101.36l11.99-3.21c1.13-.3,2.3.37,2.6,1.5.18.66-.22,1.34-.88,1.52l-13.7,3.67c-.66.18-1.34-.22-1.52-.88-.3-1.13.37-2.3,1.5-2.6Z"/>
  <path class="redColor" d="m155.79,99.69h12.42c1.17,0,2.12.95,2.12,2.12,0,.68-.55,1.24-1.24,1.24h-14.19c-.68,0-1.24-.55-1.24-1.24,0-1.17.95-2.12,2.12-2.12Z"/>
  <path class="redColor" d="m152.45,18.96c-15.37,0-27.83,12.46-27.83,27.83l.92.92h31.04v26.57c13.41-2,23.7-13.53,23.7-27.49,0-15.37-12.46-27.83-27.83-27.83Z"/>
  <path class="redColor" d="m160.86,0c11.48,0,20.8,9.31,20.8,20.8s-9.31,20.8-20.8,20.8-20.8-9.31-20.8-20.8S149.37,0,160.86,0Z"/>
  <path class="redColor" d="m183.79,5.2c11.65,0,21.1,9.45,21.1,21.1s-9.45,21.1-21.1,21.1-21.1-9.45-21.1-21.1,9.45-21.1,21.1-21.1Z"/>
  <path class="redColor" d="m197.25,31.19c11.65,0,21.1,9.45,21.1,21.1s-9.45,21.1-21.1,21.1-21.1-9.45-21.1-21.1,9.45-21.1,21.1-21.1Z"/>
  <path class="redColor" d="m217.74,74.92c-22.8,0-41.28-18.48-41.28-41.28,0-4.19.63-8.23,1.8-12.04-14.91,5.05-25.65,19.13-25.65,35.74,0,20.86,16.91,37.77,37.77,37.77,14.71,0,27.43-8.43,33.67-20.71-2.06.32-4.15.53-6.3.53Z"/>
  <path class="redColor" d="m220.1,65.56c-14.91,0-26.99-12.08-26.99-26.97,0-2.74.42-5.38,1.17-7.87-9.74,3.3-16.77,12.5-16.77,23.35,0,13.63,11.05,24.67,24.69,24.67,9.62,0,17.93-5.51,22.01-13.53-1.35.21-2.71.35-4.11.35Z"/>
  <path class="redColor" d="m117.28,180.39h44.34v22.36h-44.34v-22.36Z"/>
</svg>