<?xml version="1.0" encoding="UTF-8"?>
<svg id="Layer_2" data-name="Layer 2" xmlns="http://www.w3.org/2000/svg" viewBox="0 0 248.52 786.95">
  <defs>
    <style>
      .skinDark03 {
        fill: #dfa890;
      }

      .redDark02 {
        fill: #91082c;
      }

      .blueDimmed02 {
        fill: #e0e8fa;
      }

      .skin03 {
        fill: #e9c0ac;
      }

      .darkBlueDark02 {
        fill: #03112e;
      }

      .blueColor {
        fill: #628ae6;
      }

      .yellowDimmed01 {
        fill: #ffe566;
      }

      .blueDimmed01{
        fill: #a1b9f0;
      }

      .yellowDark01 {
        fill: #fec60d;
      }

      .pinkDark02 {
        fill: #7d4a62;
      }

      .orangeColor {
        fill: #fc8500;
      }

      .yellowDark02 {
        fill: #e3ae00;
      }
    </style>
  </defs>
  <path class="redDark02" d="m188.67,80.47c-3.92,0-7.6,1.01-10.81,2.77.5-1.91.93-3.87,1.25-5.87,4.7-29.12-12.17-56.07-37.67-60.18-25.5-4.11-49.97,16.17-54.67,45.29-4.7,29.12,12.17,56.07,37.67,60.18,15.89,2.56,31.38-4.35,41.94-16.97,1.36,11.11,10.82,19.71,22.3,19.71,12.41,0,22.47-10.06,22.47-22.47s-10.06-22.47-22.47-22.47Z"/>
  <path class="blueDimmed02" d="m126.07,140.93h0c-9.11-6.45-21.73-4.28-28.17,4.83L3,279.95c-1.26,1.78-2.08,3.73-2.5,5.73-1.55,5.96.55,12.52,5.83,16.37l88,64.21,23.83-32.66-68.33-49.85,81.08-114.63c6.45-9.11,4.28-21.73-4.83-28.17Z"/>
  <path class="skin03" d="m174.15,65.66c-1.05,0-2.06.15-3.03.41-3.31-18.36-16.48-33.12-34.23-35.98-23.14-3.73-45.28,14.17-49.44,39.98-4.16,25.81,11.23,49.76,34.37,53.49,2.57.41,5.12.55,7.65.45v34.2h35.11v-56.21c2.47-4.12,4.42-8.69,5.68-13.62,1.22.43,2.53.68,3.89.68,6.46,0,11.7-5.24,11.7-11.7s-5.24-11.7-11.7-11.7Z"/>
  <path class="pinkDark02" d="m121.93,734.82v52.13H31.04c-1.51,0-2.73-1.22-2.73-2.73v-3.65c0-2.84,2.14-5.22,4.96-5.51,7.91-.79,24.09-4.4,39.72-20.03,0,0,5.32-5.32,5.32-20.21h0s43.62,0,43.62,0Z"/>
  <path class="pinkDark02" d="m226.19,734.82v52.13h-90.89c-1.51,0-2.73-1.22-2.73-2.73v-3.65c0-2.84,2.14-5.22,4.96-5.51,7.91-.79,24.09-4.4,39.72-20.03,0,0,5.32-5.32,5.32-20.21h0s43.62,0,43.62,0Z"/>
  <path class="blueColor" d="m166.62,734.82h68.09l-8.96-389.85c-.93-40.56-31.89-72.93-69.76-72.93h-14.89c-37.87,0-68.83,32.36-69.76,72.93l-8.96,389.85h68.09l7.86-341.95h20.45l7.86,341.95Z"/>
  <path class="orangeColor" d="m160.57,131.06c-19.21.41-32.21,4.29-35.57,5.41-.44.14-.88.25-1.34.26-1.24.04-4.69.91-8.07,8.72-4.22,9.76-26.56,37.85-22.3,49.74,2.76,7.71,6.42,11.33,8.65,12.92,1.28.91,2.07,2.35,2.17,3.92l4.08,64.19s0,5.4,4.26,5.4h76.03c2.78,0,5.07-2.17,5.24-4.94l7.92-136c.11-1.93-1.28-3.59-3.13-3.82-.28-.03-.55-.07-.8-.17-2.44-.94-16.7-6.07-37.12-5.63Z"/>
  <path class="yellowDimmed01" d="m197.71,207.92c-12.35,5.01-23.17,8.4-32.62,10.6.42-14.72,2.55-28.17,5.09-39.29,5-21.87,12.33-38.67,15.76-45.85-4.84-1.02-10.96-1.94-18.07-2.24-4.11,9.29-10.07,24.6-14.47,43.69-3.66,15.87-5.56,31.5-5.73,46.66-8.96.91-16.14.58-21.77-.31-.18-39.66,5.37-73.3,8.03-87.09-6.3,1.37-9.79,2.67-9.79,2.67,0,0-4.33-1.08-8.55,8.68-.44,1.01-1.08,2.23-1.85,3.6-2.47,16.49-5.03,39.7-5.25,65.98-2.15-1.38-3.58-2.67-4.41-3.53l1.37,21.57c1.05.49,2.16.96,3.32,1.41.58,15.25,2.05,31.17,4.82,47.15h17.62c-2.65-14.39-4.15-28.86-4.84-42.87,3.64.44,7.42.67,11.34.67,3.41,0,6.94-.18,10.56-.51,1.19,14.89,4.15,29.21,8.85,42.71h18.51c-6.1-15.31-9.12-30.73-10.18-45.37,9.77-2.08,20.15-5.18,31.14-9.29l1.11-19.04Z"/>
  <path class="cls-8" d="m155,61.03c0-2.14-1.74-3.88-3.88-3.88h-61.1c-2.14,0-3.88,1.74-3.88,3.88v13.33h0c0,.12,0,.24,0,.36,0,7.72,7.33,13.99,15.05,13.99s13.99-6.26,13.99-13.99c0-.12,0-.24,0-.36h.03c.19-3.4,1.93-5.03,5.37-5.03s5.19,1.64,5.37,5.03h.03c0,.12,0,.24,0,.36,0,7.72,6.26,13.99,13.99,13.99s15.05-6.26,15.05-13.99c0-.12,0-.24,0-.36h0v-13.33Z"/>
  <path class="blueDimmed02" d="m152.87,61.03c0-2.14-1.74-3.88-3.88-3.88h-61.1c-2.14,0-3.88,1.74-3.88,3.88v13.33h0c0,.12,0,.24,0,.36,0,7.72,7.33,13.99,15.05,13.99s13.99-6.26,13.99-13.99c0-.12,0-.24,0-.36h.03c.19-3.4,1.93-5.03,5.37-5.03s5.19,1.64,5.37,5.03h.03c0,.12,0,.24,0,.36,0,7.72,6.26,13.99,13.99,13.99s15.05-6.26,15.05-13.99c0-.12,0-.24,0-.36h0v-13.33Z"/>
  <path class="skinDark03" d="m112.45,90.17c-.15,0-.3-.02-.46-.05-1.17-.25-1.92-1.4-1.67-2.57l3.19-14.89c.25-1.17,1.4-1.92,2.57-1.67,1.17.25,1.92,1.4,1.67,2.57l-3.19,14.89c-.22,1.02-1.12,1.71-2.12,1.71Z"/>
  <path class="skinDark03" d="m115.61,99.38c-1.79,0-3.89-.53-5.76-2.4-.85-.85-.85-2.22,0-3.07.85-.85,2.22-.85,3.07,0,2.06,2.06,4.92.67,4.95.66,1.07-.53,2.37-.1,2.91.97.54,1.07.1,2.37-.97,2.91-.13.06-1.9.93-4.19.93Z"/>
  <path class="skinDark03" d="m119.95,110.11c-3.61,0-6.73-1.07-8.6-2.15-1.04-.6-1.39-1.93-.79-2.96.6-1.03,1.92-1.39,2.96-.79.38.21,8.84,4.85,16.54-2.84.85-.85,2.22-.85,3.07,0s.85,2.22,0,3.07c-4.3,4.3-9.06,5.68-13.17,5.68Z"/>
  <path class="skinDark03" d="m168.83,79.53c-1.2,0-2.17-.97-2.17-2.17,0-4.13,3.36-7.49,7.49-7.49,1.2,0,2.17.97,2.17,2.17s-.97,2.17-2.17,2.17c-1.74,0-3.15,1.41-3.15,3.15,0,1.2-.97,2.17-2.17,2.17Z"/>
  <ellipse class="darkBlueDark02" cx="103.95" cy="70.85" rx="2.13" ry="3.19"/>
  <ellipse class="darkBlueDark02" cx="128.42" cy="70.85" rx="2.13" ry="3.19"/>
  <path class="skin03" d="m216.2,486.59l-30.86-2.03-3.39,20.88c-2.73,2.13-6.46,6.14-7.35,12.56-1.46,10.43-1.23,14.26,4.5,11.26,3.06-1.6,8.04-4.65,10.16-9.38,6.53.9,14.89,1.13,19.59-2.42,8.49-6.41,5.91-15.13,5.91-15.13l1.44-15.75Z"/>
  <path class="yellowDark01" d="m180.61,63.04c4.45-27.6-12.73-53.33-38.38-57.47-25.65-4.13-50.04,14.89-54.49,42.49"/>
  <path class="yellowDark02" d="m67.03,42.03l112.99,21.01-114.18-13.06c-2.03-.23-3.56-1.95-3.56-4h0c0-2.52,2.28-4.41,4.76-3.95Z"/>
  <path class="yellowDark02" d="m148.4,8.82c1.19-3.74-.38-7.58-3.52-8.58-3.14-1-6.65,1.21-7.85,4.95"/>
  <path class="yellowDark02" d="m158.9,59.54l-4.28-.69c4.18-25.93-1.65-49.35-12.74-51.14l.69-4.28c13.87,2.24,21.04,26.88,16.33,56.11Z"/>
  <path class="blueDimmed02" d="m135.3,175.97l-8.01-40.21s16.44.89,41.57-4.58l-33.56,44.79Z"/>
  <path class="skin03" d="m138.11,153.5l-10.82-17.74s18.95-7.24,41.57-4.58l-30.75,22.32Z"/>
  <rect class="blueDimmed02" x="140.92" y="139.46" width="36.51" height="14.04" transform="translate(-55.16 117.26) rotate(-34.86)"/>
  <rect class="blueDimmed02" x="114.13" y="138.47" width="24.59" height="14.04" transform="translate(182.09 -39.04) rotate(57.78)"/>
  <path class="pinkDark02" d="m242.7,497.55v68.61c0,5.44-3.67,11.6-8.19,13.76l-83.62,40c-4.52,2.16-8.19-.49-8.19-5.93v-68.61c0-5.44,3.67-11.6,8.19-13.76l83.62-40c4.52-2.16,8.19.49,8.19,5.93Z"/>
  <path class="blueDimmed02" d="m248.44,311.69c-.07-1.37-.34-2.7-.76-3.97l-35.31-158.28c-2.43-10.9-13.23-17.76-24.13-15.33-10.9,2.43-17.76,13.23-15.33,24.13l34.71,155.57-24.85,178.06,40.04,5.59,25.12-180c.53-1.84.71-3.79.51-5.78Z"/>
  <path class="skin03" d="m210.06,499.22c-.55-.08-1.09-.07-1.61-.02-.77-.75-1.74-1.33-2.86-1.62-2.46-.66-4.97.2-6.55,1.99-.58-.39-1.24-.71-1.96-.9-2.11-.56-4.24-.02-5.81,1.27-.56-.36-1.18-.64-1.85-.82-3.47-.93-7.03,1.14-7.96,4.61l-7.99,30.03c-.92,3.47,1.14,7.03,4.61,7.96.56.15,1.12.22,1.68.22,1.53,0,2.97-.55,4.12-1.5.56.36,1.18.65,1.86.83.56.15,1.12.22,1.68.22,1.88,0,3.64-.83,4.86-2.21.59.4,1.24.71,1.97.9.56.15,1.12.22,1.68.22,2.88,0,5.51-1.92,6.28-4.83l.15-.57c.76.48,1.62.81,2.57.95.31.04.61.06.91.06,3.19,0,5.98-2.35,6.43-5.6l3.33-23.84c.5-3.56-1.98-6.84-5.54-7.34Z"/>
  <polygon class="blueDimmed02" points="173.53 84.53 175.18 86.36 176.84 84.53 176.71 87 179.18 86.87 177.35 88.53 179.18 90.18 176.71 90.06 176.84 92.53 175.18 90.69 173.53 92.53 173.65 90.06 171.18 90.18 173.02 88.53 171.18 86.87 173.65 87 173.53 84.53"/>
</svg>