<?xml version="1.0" encoding="UTF-8"?>
<svg id="Layer_1" data-name="Layer 1" xmlns="http://www.w3.org/2000/svg" viewBox="0 0 229 435.6">
  <path class="mainColor" fill="var(--redDimmed01)" d="m127.94,386h36.62c24.11,0,43.69,19.58,43.69,43.69h0c0,3.26-2.65,5.9-5.9,5.9h-112.19c-3.26,0-5.9-2.65-5.9-5.9h0c0-24.11,19.58-43.69,43.69-43.69Z"/>
  <rect class="colorDimmed02" fill="var(--redDimmed02)" x="132.75" y="148" width="27" height="238"/>
  <path class="mainColor" fill="var(--redDimmed01)" d="m185.28,257c6.66,0,8.92,4.7,5.05,10.51l-8.66,12.98c-3.87,5.8-12.4,10.51-19.06,10.51h-66.89c-6.66,0-8.92-4.7-5.05-10.51l8.66-12.98c3.87-5.8,12.4-10.51,19.06-10.51h66.89m0-10h-66.89c-9.92,0-21.69,6.43-27.38,14.96l-8.66,12.98c-4.02,6.03-4.69,12.54-1.83,17.87,2.78,5.2,8.32,8.19,15.2,8.19h66.89c9.92,0,21.69-6.43,27.38-14.96l8.66-12.98c4.02-6.03,4.69-12.54,1.83-17.87-2.78-5.2-8.32-8.19-15.2-8.19h0Z"/>
  <rect class="colorDimmed02" fill="var(--redDimmed02)" x="132.75" y="238" width="27" height="36"/>
  <path class="mainColor" fill="var(--redDimmed01)" d="m215.05,0h-100.11c-7.7,0-13.95,6.24-13.95,13.95v69.05h-22.23C35.27,83,0,118.27,0,161.77h0c0,16.7,13.54,30.23,30.23,30.23h133.96c35.79,0,64.81-29.02,64.81-64.81V13.95c0-7.7-6.24-13.95-13.95-13.95Z"/>
</svg>