<?xml version="1.0" encoding="UTF-8"?>
<svg id="Layer_2" data-name="Layer 2" xmlns="http://www.w3.org/2000/svg" xmlns:xlink="http://www.w3.org/1999/xlink" viewBox="0 0 260.16 644.5">
  <defs>
    <style>
      .skinDark03 {
        fill: #dfa890;
      }

      .white {
        fill: #fff;
      }

      .white, .darkBlueDark02, .pinkDimmed02, .redDimmed02, .pinkDark01, .pinkColor {
        fill-rule: evenodd;
      }

      .skin03 {
        fill: #e9c0ac;
      }

      .darkBlueDark02 {
        fill: #03112e;
      }

      .redDimmed02 {
        fill: #fdd6d8;
      }

      .pinkDimmed02 {
        fill: #fee9f3;
      }

      .pinkColor {
        fill: #f993c3;
      }

      .clippedpath {
        clip-path: url(#clippath);
      }

      .clippath {
        clip-rule: evenodd;
        fill: none;
      }

      .pinkDark01{
        fill: #bb6e92;
      }

      .pinkDark02 {
        fill: #7d4a62;
      }
    </style>
    <clipPath id="clippath">
      <polygon class="clippath" points="256.28 195.95 157.45 292.01 141.73 275.84 238.12 178.32 256.28 195.95"/>
    </clipPath>
  </defs>
  <rect class="redDimmed02" x="156.34" y="421.5" width="39" height="196.78" transform="translate(351.68 1039.77) rotate(180)"/>
  <path class="redDimmed02" d="m130.53,103.08c-6.04-5.26-15.19-4.64-20.46,1.4l-45.81,52.52-8.9-82.54-.25.03,8.02-6.53s2.83-1.42,2.4-4.39c-.02-.17-.07-.34-.12-.52h.02s-4.8-17.99-4.8-17.99c0,0-1.39-.27-2.22.29s-3.32,2.23-2.47,5.28c.43,1.55,1.22,4.11,1.9,6.24l-.95.09c-1.13.11-2.23.31-3.3.57v-20.51c0-2.04-1.66-3.7-3.7-3.7s-3.7,1.66-3.7,3.7v17.48l-2.23-20.67c-.22-2.03-2.04-3.5-4.08-3.28s-3.5,2.04-3.28,4.08l2.15,19.89-3.9-16.58c-.47-1.99-2.46-3.22-4.45-2.76-1.99.47-3.22,2.46-2.76,4.45l4.2,17.87-.21.02-5.1-14.48c-.68-1.93-2.79-2.94-4.72-2.26-1.93.68-2.94,2.79-2.26,4.72l5.15,14.63,1.82,17.43,12.34,114.4c.86,7.96,8.01,13.72,15.97,12.86.35-.04.7-.1,1.04-.17,3.57-.34,7.02-1.98,9.56-4.89l66.49-76.23c5.26-6.04,4.64-15.19-1.4-20.46Z"/>
  <path class="pinkDark01" d="m109.73,93.29h0c9.67,0,17.53,7.85,17.53,17.53v52.93h-35.05v-52.93c0-9.67,7.85-17.53,17.53-17.53Z" transform="translate(116.23 -40.35) rotate(42.7)"/>
  <circle class="pinkColor" cx="133" cy="39.72" r="36.5"/>
  <circle class="pinkColor" cx="151.21" cy="47.8" r="36.5"/>
  <ellipse class="redDimmed02" cx="144.75" cy="47.4" rx="41.95" ry="38.88" transform="translate(60.36 174.2) rotate(-74.49)"/>
  <path class="pinkDark01" d="m108.89,231.5l51.71-.5c5.74,0,10.39-4.65,10.39-10.39l14.5-111.71c0-5.74-4.65-10.39-10.39-10.39h-54.21c-5.74,0-10.39,4.65-10.39,10.39l-12,112.21c0,5.74,4.65,10.39,10.39,10.39Z"/>
  <rect class="redDimmed02" x="57.9" y="412.23" width="39" height="197.94" transform="translate(81.67 1028.2) rotate(-171.86)"/>
  <rect class="redDimmed02" x="135.86" y="75.96" width="29.67" height="29.67" transform="translate(11.05 -16.22) rotate(6.39)"/>
  <path class="darkBlueDark02" d="m143.81,46.67c.18-1.57-.64-2.96-1.82-3.09s-2.28,1.04-2.46,2.61c-.18,1.57.64,2.96,1.82,3.09s2.28-1.04,2.46-2.61Z"/>
  <path class="darkBlueDark02" d="m121,44.11c.18-1.57-.64-2.96-1.82-3.09-1.18-.13-2.28,1.04-2.46,2.61-.18,1.57.64,2.96,1.82,3.09s2.28-1.04,2.46-2.61Z"/>
  <path class="white" d="m145.13,61.5c-5.34,15.45-19.8,8.53-20.57,1.44l20.57-1.44Z"/>
  <path class="skinDark03" d="m127.27,53.47c-.29,0-.58-.13-.78-.38-6.43-8.04,4.91-23.07,5.39-23.7.34-.44.96-.52,1.4-.19.44.34.52.96.19,1.4-.11.14-10.88,14.41-5.42,21.24.34.43.27,1.06-.16,1.41-.18.15-.4.22-.62.22Z"/>
  <path class="redDimmed02" d="m172.56,57.04c-.62,5.51,3.35,10.48,8.86,11.1,5.51.62,10.48-3.35,11.1-8.86.62-5.51-3.35-10.48-8.86-11.1-5.51-.62-10.48,3.35-11.1,8.86Z"/>
  <path class="pinkColor" d="m201.44,12.5c-2.66-3.33-7.44-3.96-10.87-1.53,0-.01-.02-.02-.03-.04,3.14-2.81,3.58-7.61.92-10.94-3.01,2.41-3.83,6.55-2.15,9.86-.65-.42-1.38-.71-2.2-.8l-50.54-5.66c-2.46,21.95,13.34,41.75,35.3,44.21l15.9,1.78,3.88-34.65c.09-.81-.03-1.6-.29-2.32,2.86,2.37,7.08,2.49,10.09.09Z"/>
  <path class="pinkColor" d="m204.86,425.82l-13.26-171.02c-.77-9.93-6.86-18.17-15.26-22.15v-16.16h-83v17.4l-26.67,186.01,59.6,8.55,11.31-78.85,6.28,80.95,61.01-4.73Z"/>
  <path class="redDimmed02" d="m166.84,106c-4.84,12.15-18.62,22-30.77,22s-18.08-9.85-13.23-22c1.05-2.63,2.52-5.16,4.3-7.5h41.37c-.08,2.34-.63,4.87-1.68,7.5Z"/>
  <path class="redDimmed02" d="m214.44,130.99h29v62.15c0,8-6.5,14.5-14.5,14.5h-14.5v-76.65h0Z" transform="translate(-52.99 209.29) rotate(-44.56)"/>
  <path class="skinDark03" d="m187.72,59.74s-.07,0-.11,0c-.55-.06-.94-.56-.88-1.11.13-1.12-.19-2.22-.9-3.1s-1.71-1.43-2.83-1.56c-.55-.06-.94-.56-.88-1.11.06-.55.56-.94,1.1-.88,1.65.18,3.13,1,4.17,2.3,1.04,1.3,1.51,2.92,1.32,4.57-.06.51-.49.89-.99.89Z"/>
  <path class="white" d="m182.12,71.79c-.5,0-.93-.38-.99-.88l-.41-3.51c-.06-.55.33-1.04.88-1.11.55-.07,1.05.33,1.11.88l.41,3.51c.06.55-.33,1.04-.88,1.11-.04,0-.08,0-.12,0Z"/>
  <path class="pinkDark01" d="m192.34,270c-20.68,0-37.5-16.82-37.5-37.5h2c0,19.58,15.93,35.5,35.5,35.5v2Z"/>
  <g>
    <path class="redDimmed02" d="m256.29,195.97l-73.58,71.52c-1.79,1.74-4.63-.39-6.37-2.18l-12.59-10.85,74.5-76.23,18.03,17.73Z"/>
    <g class="clippedpath">
      <path class="skin03" d="m208.52,273.9c-3.69,0-7.33-.99-10.59-2.94-4.76-2.84-8.13-7.36-9.48-12.73h0c-1.36-5.37-.54-10.95,2.29-15.71,2.84-4.76,7.36-8.13,12.73-9.49,11.09-2.8,22.39,3.94,25.19,15.02,2.8,11.09-3.94,22.39-15.02,25.19-1.7.43-3.41.64-5.12.64Zm.03-37.49c-1.35,0-2.73.17-4.1.51-4.33,1.1-7.98,3.81-10.27,7.65-2.29,3.84-2.95,8.34-1.85,12.68h0c1.1,4.33,3.81,7.98,7.65,10.27,3.84,2.29,8.34,2.95,12.68,1.85,8.95-2.26,14.39-11.38,12.13-20.33-1.92-7.58-8.75-12.64-16.23-12.64Z"/>
      <path class="skin03" d="m180.48,260.53h-.02c-1.9-.01-3.74-1.62-5.78-5.07-5.91-5.79-.03-17.83.67-19.2.5-.98,1.7-1.37,2.69-.87.98.5,1.38,1.7.88,2.69-1.34,2.65-4.35,10.52-1.86,14.03,2.28,0,5.2,1.33,6.24,5.47l.2.8-.42.71c-.4.66-1.32,1.44-2.6,1.44Z"/>
      <path class="skin03" d="m208.68,217.09c-3.38,0-6.72-.91-9.7-2.69-4.36-2.6-7.44-6.74-8.69-11.66h0c-2.57-10.16,3.61-20.51,13.76-23.08,10.16-2.57,20.51,3.61,23.08,13.76,2.57,10.16-3.61,20.51-13.76,23.08-1.55.39-3.13.59-4.69.59Zm-14.51-15.33c.98,3.88,3.42,7.15,6.86,9.21,3.44,2.05,7.48,2.64,11.36,1.66,8.02-2.03,12.89-10.2,10.87-18.22-2.03-8.02-10.2-12.9-18.22-10.87-8.02,2.03-12.89,10.2-10.87,18.22h0Z"/>
      <path class="skin03" d="m209.55,217.06c-.18,0-.36-.03-.55-.08-1.06-.3-1.68-1.41-1.38-2.47,1.27-4.47-3.86-7.01-4.08-7.11-.99-.48-1.41-1.67-.94-2.67.48-.99,1.66-1.42,2.66-.95,2.91,1.38,7.96,5.63,6.21,11.81-.25.88-1.05,1.46-1.92,1.46Z"/>
      <path class="skin03" d="m215.76,215.88c-.18,0-.36-.03-.55-.08-1.06-.3-1.68-1.41-1.38-2.47,1.27-4.47-3.86-7.01-4.08-7.11-.99-.48-1.41-1.67-.94-2.67.48-.99,1.66-1.42,2.66-.95,2.91,1.38,7.96,5.63,6.21,11.81-.25.88-1.05,1.46-1.92,1.46Z"/>
      <path class="skin03" d="m221.7,210.3c-1.04,0-1.91-.8-1.99-1.85-.35-4.63-6.03-5.25-6.27-5.28-1.1-.11-1.9-1.09-1.8-2.18.11-1.1,1.07-1.91,2.17-1.8,3.21.3,9.41,2.55,9.89,8.96.08,1.1-.74,2.06-1.85,2.14-.05,0-.1,0-.15,0Z"/>
      <path class="skin03" d="m225.13,202.34c-.64,0-1.28-.31-1.66-.88-3-4.47-9.14-1.76-9.21-1.73-1.01.46-2.19,0-2.65-1-.46-1.01,0-2.19,1-2.65,3.2-1.45,10.28-2.66,14.18,3.14.62.92.37,2.16-.54,2.78-.34.23-.73.34-1.11.34Z"/>
      <path class="skin03" d="m208.67,222.39c-4.33,0-8.59-1.17-12.4-3.44-5.57-3.32-9.52-8.62-11.11-14.91h0c-3.28-12.99,4.61-26.23,17.6-29.51,12.99-3.28,26.23,4.61,29.51,17.6,3.28,12.99-4.61,26.23-17.6,29.51-1.99.5-4,.75-6,.75Zm-19.63-19.33c1.33,5.26,4.63,9.68,9.28,12.46,4.66,2.78,10.11,3.57,15.37,2.24,10.85-2.74,17.45-13.8,14.7-24.65-2.74-10.85-13.8-17.45-24.65-14.7-10.85,2.74-17.45,13.8-14.7,24.65h0Z"/>
      <path class="skin03" d="m208.56,266.61c-6.01,0-11.51-4.07-13.05-10.16-1.82-7.19,2.55-14.52,9.75-16.34,7.19-1.83,14.53,2.55,16.34,9.75.88,3.48.35,7.1-1.49,10.19s-4.77,5.27-8.26,6.15c-1.1.28-2.21.41-3.3.41Zm0-22.91c-.77,0-1.54.09-2.32.29-5.05,1.28-8.13,6.43-6.85,11.49,1.28,5.05,6.43,8.13,11.49,6.85,2.45-.62,4.51-2.15,5.8-4.32s1.67-4.71,1.05-7.16c-1.08-4.28-4.94-7.14-9.17-7.14Z"/>
    </g>
  </g>
  <g>
    <path class="pinkColor" d="m136.22,611.5h60.12v23h-80v-3.12c0-10.97,8.91-19.88,19.88-19.88Z"/>
    <rect class="pinkDark02" x="116.34" y="634.5" width="80" height="10"/>
    <polygon class="pinkDimmed02" points="168.91 611.5 144.6 611.5 153.77 634.5 178.07 634.5 168.91 611.5"/>
    <path class="pinkColor" d="m186.34,606.5h10c0,5.52-4.48,10-10,10h0v-10h0Z" transform="translate(382.68 1222.99) rotate(180)"/>
    <path class="pinkColor" d="m154.19,598.5h3c5.52,0,10,4.48,10,10v3h-13v-13h0Z"/>
  </g>
  <g>
    <path class="pinkColor" d="m23.01,604.88h60.12v23H3.13v-3.12c0-10.97,8.91-19.88,19.88-19.88Z" transform="translate(107.69 1.88) rotate(10)"/>
    <rect class="pinkDark02" x=".26" y="627.63" width="80" height="10" transform="translate(110.47 2.62) rotate(10)"/>
    <polygon class="pinkDimmed02" points="57.51 607.24 33.57 603.01 38.59 627.26 62.53 631.48 57.51 607.24"/>
    <path class="pinkColor" d="m74.59,606.13h10c0,5.52-4.48,10-10,10h0v-10h0Z" transform="translate(51.85 1226.8) rotate(-170)"/>
    <path class="pinkColor" d="m44.03,592.91h3c5.52,0,10,4.48,10,10v3h-13v-13h0Z" transform="translate(104.85 .33) rotate(10)"/>
  </g>
  <path class="pinkDark01" d="m156.87,233.65h13.09v-2h-76.62v2h31.5v54.85h16v-2h-14v-52.85h28.03c.61,20.14,17.18,36.35,37.47,36.35v-2c-19.19,0-34.86-15.3-35.47-34.35Z"/>
  <path class="pinkDark01" d="m168.16,295.99v-2c13.9,0,15.3-13.5,15.36-14.07l1.99.18c-.01.16-1.65,15.89-17.35,15.89Z"/>
  <rect class="white" x="45.52" y="48.29" width="8.74" height="3.69" transform="translate(99.78 100.26) rotate(180)"/>
  <rect class="skin03" x="223.54" y="142.12" width="7.77" height="21.08" transform="translate(496.59 101.87) rotate(135.44)"/>
  <rect class="skin03" x="222.05" y="159.3" width="5.27" height="5.48" rx="2.64" ry="2.64" transform="translate(498.48 119.86) rotate(135.44)"/>
  <rect class="skin03" x="217.18" y="154.41" width="5.27" height="5.48" rx="2.64" ry="2.64" transform="translate(486.7 114.89) rotate(135.44)"/>
  <rect class="skin03" x="212.26" y="149.46" width="5.27" height="5.48" rx="2.64" ry="2.64" transform="translate(474.81 109.88) rotate(135.44)"/>
  <path class="pinkDark01" d="m189.23,93.76h0c9.67,0,17.53,7.85,17.53,17.53v52.93h-35.05v-52.93c0-9.67,7.85-17.53,17.53-17.53Z" transform="translate(-36.1 169.84) rotate(-44.56)"/>
</svg>