<?xml version="1.0" encoding="UTF-8"?>
<svg id="Isolation_Mode" data-name="Isolation Mode" xmlns="http://www.w3.org/2000/svg" viewBox="0 0 863.81 177.74">
  <path d="m437.59,134.62l-.14-7.87c-.02-1.4-.34-2.79-.94-4.06l-2.38-5.1c-1.65-3.53-5.19-5.77-9.06-5.77-.21,0-.42,0-.63.02l-9.32.59c-2.73.17-5.27,1.45-7.02,3.54l-.27-.71,1.49-3c.61-1.22.96-2.55,1.03-3.91.14-.09.28-.18.42-.28l.67-.48,1.69,1c1.59.94,3.34,1.39,5.07,1.39,3.08,0,6.1-1.42,8.05-4.06l5.43-7.36c1.92-2.6,2.46-5.96,1.47-9.03l-1.26-3.88,1.33-3.97c.71-2.11.69-4.4-.05-6.49l-2.29-6.51-1.71-7.31c-.88-3.77-3.86-6.69-7.65-7.5l-2.99-.64c-.69-.15-1.39-.22-2.09-.22-.28,0-.56.01-.85.04l-10.58.9.32-1.22c.22-.85.33-1.73.33-2.61l-.11-13.97c-.04-4.93-3.66-9.1-8.54-9.82l-6.34-.94c-.48-.07-.96-.11-1.44-.11l-12.19-.03-5.02-2.96c-1.36-.8-2.88-1.27-4.46-1.37l-10.36-.65c-.21-.01-.43-.02-.64-.02-4.67,0-8.76,3.26-9.77,7.88l-3.58,16.47c-.44,2.04-.24,4.17.59,6.09l2.13,4.94-5.07-3.99c-1.1-.87-2.37-1.49-3.72-1.83l-17.9-4.54c-.81-.2-1.63-.31-2.46-.31-.65,0-1.3.06-1.95.19l-4.98.99c-13.38.3-25.08,4.62-34.81,12.85-1.54.81-2.83,2.01-3.77,3.47-1.4,1.41-2.72,2.87-3.96,4.4-1.01-1.63-2.2-3.5-3.61-5.64-1.11-1.68-2.14-3.2-3.08-4.53l-3.57-6.82c-1.75-3.34-5.19-5.37-8.86-5.37-.59,0-1.2.05-1.8.16l-16.34,2.98c-.59.11-1.16.27-1.72.48l-15.88,5.96c-1.26.47-2.38,1.19-3.34,2.09l-3.93-10.53c-.94-2.53-2.87-4.57-5.34-5.66-1.28-.56-2.65-.85-4.03-.85-1.28,0-2.55.24-3.76.73l-11.54,4.68c-2.15.38-4.3.9-6.42,1.53l-10.16,1.04c-1.77.18-3.47.83-4.9,1.89l-13.23,9.71c-1.49,1.09-2.64,2.58-3.34,4.28l-6.48,15.9c-.97,2.38-.99,5.05-.04,7.44l6.33,16.05c.33.84.78,1.63,1.32,2.36l6.74,8.93.13.56-5.63.47-.59-6.51c-.1-1.11-.39-2.2-.85-3.22l-7.08-15.63c-.29-.64-.64-1.25-1.06-1.81l-11.01-14.94-7.38-16.07-7.94-17.13-7.97-17.58c-.69-1.53-1.76-2.86-3.1-3.87l-3.51-2.63c-1.75-1.31-3.86-2-6-2-.71,0-1.43.08-2.14.23l-.93.2c-1.69.14-3.77.36-6.32.66-.74.09-1.44.17-2.09.24l-1.32-.14-7.11-3.08c-1.26-.55-2.62-.83-3.98-.83-.65,0-1.3.06-1.94.19l-10.04,1.99c-3.52.7-6.39,3.22-7.53,6.62l-1.98,5.89c-.04.1-.07.21-.1.32l-5.42,18.08-5.61,17.76-6.32,17.71s-.03.07-.04.11l-6.04,17.56-6.41,15.32c-.45,1.08-.71,2.23-.76,3.39l-.74,15.8c-2.3,7.58-4.16,13.83-5.55,18.61l-5.26,12.9c-1.24,3.03-.91,6.47.87,9.22,1.78,2.75,4.79,4.45,8.06,4.56l17.52.59c.11,0,.22,0,.34,0,.27,0,.53-.01.8-.03l23.03-1.85c3.31-.27,6.27-2.16,7.91-5.05l4.85-8.57c.26-.46.48-.93.66-1.43l1.21-3.24,9.15-.71,18.21-.22,3.72,6.34,3.18,7.76c1.56,3.8,5.25,6.21,9.25,6.21.6,0,1.2-.05,1.8-.16l18.92-3.46,18.07-.21c2.15-.02,4.24-.74,5.95-2.05l6.56-5c.56-.43,1.07-.91,1.51-1.42l8.77-3.12c1.98-.47,3.96-1.04,5.91-1.68.04-.01.08-.03.12-.04.91-.31,1.83-.65,2.87-1.05l16.14-3.89c1.09-.26,2.1-.71,3.02-1.3,1.15,1.77,2.55,3.8,4.26,6.18.62.86,1.23,1.7,1.84,2.51l6.03,10.87c1.81,3.26,5.21,5.15,8.75,5.15,1.26,0,2.54-.24,3.77-.74l20.32-8.28c.66-.27,1.28-.6,1.86-1l16.95-11.57c.8-.55,1.52-1.21,2.13-1.97l1.13-1.4,17.73,12.98c1.68,1.23,3.69,1.9,5.77,1.93l17.94.24c.94.11,1.87.21,2.78.29.98.09,1.98.16,2.99.22l17.14,2.72c.52.08,1.05.12,1.57.12,1.77,0,3.52-.47,5.06-1.38l17.99-10.55,5.2-2.69c1.55,2.52,3.33,4.5,5.08,6.05l.42.84c1.37,2.79,3.96,4.78,7.01,5.39l21.3,4.26c.65.13,1.3.19,1.96.19,1.43,0,2.85-.31,4.17-.91l10.03-4.59c4.01-1.16,7.95-2.72,11.72-4.66l3.54-1.32,5.36-.89c4.5-.75,7.92-4.45,8.32-8.99l.57-6.48c.1-1.11,0-2.23-.26-3.31l-1.92-7.65Zm-273.89-16.36l-2.17-9.75-8.15-10.79-.75-1.9c.3.59.62,1.19.96,1.78.22.4,2.9,4.01,8.05,10.83,1.58,2.15,2.68,4.13,3.32,5.93-.07-.19-.13-.38-.21-.58l.86,3.85c0-.26-.03-.52-.06-.79.06.55.09,1.08.04,1.58-.06.66-.19,1.28-.39,1.86.11-.31.2-.64.26-.97l-5.91,6.15c.39-.15.76-.31,1.11-.48-1.16.56-2.52,1.02-4.09,1.38-4.52.43-9.01.85-13.46,1.28-.7.07-1.07.38-1.12.94-.06.73.33,2.13,1.18,4.19l-3.37-4.38,3.24-1.5,13.44-1.11,7.22-7.51Zm260.27,7.09c-.79.07-1.92.32-3.41.76,0,0,0,0,0,0l-2.77.17-.76.97c.22-.07.44-.14.66-.22-1.5.51-2.83.91-3.98,1.2l3.06-3.89,7.07-.44.68,1.46c-.17-.02-.35-.02-.55,0Zm-4.62,1.13c-.09.03-.18.06-.28.09.09-.03.19-.06.28-.09Zm-23.39-28.05c-.01.28-.02.6,0,.93,0-.34,0-.65,0-.93Zm0,.98c0,.35.03.72.07,1.13.05.6.12,1.33.19,2.16-.07-.83-.14-1.55-.19-2.16-.04-.41-.06-.78-.07-1.13Zm.67,8.04c-.05-.57-.1-1.11-.14-1.63l.26-5.22-.78-2.18c.07-1.46.45-2.23,1.14-2.29h.16s1.5,4.17,1.5,4.17l-.35,6.97-1.49,2.99c-.09-.85-.19-1.78-.3-2.81Zm2-11.45l5.52-.48.08.02.05-.03h.13c.85-.09,2.08-.17,3.68-.27l-3.49,2.5-5.97-1.73Zm18.84-1.35c1.88-.16,2.76-.93,2.64-2.29-.13-1.44-.34-3.5-.62-6.17l1.97,6.05-3.75,5.08-4.08-2.4c1.68-.1,2.97-.19,3.84-.27Zm1.13-18.81c0,.28,0,.56.02.82,0-.26-.01-.53-.02-.82Zm.02.84c0,.25.02.49.02.72,0-.23-.02-.47-.02-.72Zm.03.77c0,.21.02.41.03.6-.01-.19-.02-.39-.03-.6Zm.04.69c.01.18.02.35.04.52-.01-.16-.03-.33-.04-.52Zm.05.68c.02.22.04.44.06.69-.02-.24-.04-.47-.06-.69Zm.08.82c.02.25.05.5.07.77-.03-.27-.05-.53-.07-.77Zm.58,5.62c-.21-1.9-.37-3.5-.5-4.8l.65-1.95-.94-2.68c-.01-1.1,0-2.38.02-3.83.02-1.12.03-2.14.03-3.05l.72,3.07,2.28,6.48-2.27,6.77Zm-24.64-18.97c-.83-.19-1.45-.82-1.86-1.89l1.86,1.89Zm-2.69-10.11c-.06-1.83-.09-3.91-.11-6.26-.04-5.29-.17-9.23-.4-11.83-.02-.19-.07-.35-.15-.51l2.21.33.09,11.99-1.64,6.28Zm-32.68,12.98c0-.21.01-.43.02-.66l-.57,2.13-.65.9c-.59.32-1.4.54-2.45.67-.42.05-.79.11-1.17.16l1.1-.76,1.33-1.85,2.1-7.81c.26,3.01.36,5.4.29,7.21Zm-62.49,52.63c-.76-1.38-1.24-2.89-1.44-4.51.04,0,.09,0,.13,0l8.04,9.1,9.47,4.8c-3.81-.59-7.22-1.77-10.21-3.55-1.75-1.03-3.18-2.2-4.32-3.5.65.73,1.39,1.42,2.23,2.07l-3.89-4.41Zm1.56,2.22c-.28-.33-.56-.66-.8-1.01.25.35.52.68.8,1.01Zm7.87-42.7l3.58-.45c.33,0,.65,0,.98.03.26.02.5.07.75.1l7.95,4.09c-.47-.49-.96-.92-1.47-1.33.92.73,1.79,1.59,2.58,2.6,2.3,2.94,3.44,6.17,3.41,9.68l-4.6-8.75-8.79-4.52-9.11,1.15c1.45-1.25,3.02-2.12,4.71-2.61Zm0,0c.2-.06.4-.1.61-.15-.2.05-.41.09-.61.15Zm1.1-.25c.41-.08.82-.13,1.24-.16-.42.03-.83.09-1.24.16Zm1.44-.18c.34-.02.69-.03,1.04-.02-.08,0-.16,0-.23,0-.27,0-.54,0-.81.03Zm2.78.11c1.5.21,2.9.64,4.19,1.29-1.3-.65-2.69-1.08-4.19-1.29Zm4.33,1.36c.26.14.52.29.78.44-.26-.16-.51-.31-.78-.44Zm1.1.64c.23.15.46.3.68.47-.22-.17-.45-.32-.68-.47Zm-18.81,14.44l16.31,1.48c-7.17.31-12.65.3-16.43-.04-1.7-.15-2.52-1-2.5-2.54l2.63,1.1Zm34.3,29.27l4-.06c-1.09.56-2.18,1.12-3.27,1.68-5.32,2.27-10.52,3.35-15.59,3.26l14.85-4.89Zm-2.58-7.56l-9.67-1.77c3.68-.02,6.9-.06,9.64-.12,12.82-.18,19.6-.31,20.33-.38.37-.05.73-.13,1.08-.22l-.89,1.72-20.48.76Zm28.67-47.93c.13-.11.24-.23.33-.35-.09.12-.2.24-.33.35Zm-.49.32c.18-.1.34-.2.48-.32-.14.11-.3.22-.48.32Zm.85-.7c.08-.11.15-.24.2-.37-.05.13-.12.25-.2.37Zm.23-.43c.05-.15.09-.31.1-.47,0,0,0-.01,0-.02,0,0,0,.01,0,.02-.01.17-.05.32-.1.47Zm7.62-34.96l-1.09-.64-5.98-.38-.07.34c-.47,0-.9.02-1.3.05-.43.04-.77.42-1.01,1.14l.79-3.65,8.17.52,5.37,3.17c-1.27-.11-2.9-.3-4.88-.56Zm-2.48-.34c-.11-.01-.22-.03-.33-.04.11.01.22.03.33.04Zm-3.21-.3s-.08,0-.12,0c.04,0,.08,0,.12,0Zm-3.9,11.47s0,.02,0,.03c0-.02,0-.03,0-.03Zm0,.01s0,0,0,0c0-.06,0-.12-.02-.19l-.04.17.08.18c0-.06-.01-.1-.02-.13.05.37.34,2.74.86,7.12l-3.01-6.97,2-9.21c-.26,1.9-.22,4.9.14,9.02Zm-10.04,26.27c-.63-.78-1.28-1.52-1.93-2.24l2.42,1.9-.49.34Zm-71.06,70.1c-.37-.39-.74-.77-1.09-1.17-.08-.09-.16-.19-.24-.29.08.09.16.19.24.29.35.4.72.79,1.09,1.17Zm-52.82-8.7c-1.23.94-2.78,1.77-4.67,2.48-4.05.96-8.06,1.92-12.05,2.88l.43-1.07,11.24-3.04,8.4-6.47c-.32,1.98-1.41,3.7-3.27,5.14.37-.28.71-.58,1.01-.88l-2.3,1.77c.43-.26.84-.54,1.21-.83Zm-12.94-9.04l-.63.17c.03-.22.05-.43.07-.64l.56.47Zm-19.85-26.09s0,0,0,0l-1.69-3.19-3.67-4.6c-.61-1.37-.88-2.59-.79-3.63.27-3.05,1.67-5.38,4.19-7-1.48.95-2.58,2.15-3.28,3.6l3.28-3.6c.32-.21.66-.41,1.02-.59.32-.17.65-.33.98-.47l7.39-.66c-.26.68-.49,1.38-.7,2.07l-6.86.61-5.54,6.08,5.66,7.09,5.06,9.58,1.37,4.03c-.16-.31-.31-.63-.48-.94-.81-1.53-2.8-4.34-5.95-8.38Zm-.88-1.12c-.39-.49-.78-.99-1.2-1.52-.38-.48-.72-.94-1.05-1.39.32.45.67.91,1.05,1.39.42.53.82,1.03,1.2,1.52Zm-2.35-3.05c-.29-.41-.56-.8-.81-1.19.24.39.52.78.81,1.19Zm-.83-1.23c-.54-.85-.97-1.64-1.3-2.39.33.75.76,1.55,1.3,2.39Zm11.7-15.28c-.28-.01-.57-.03-.85-.04.28,0,.57.01.86.03,0,0,0,0,0,.01Zm-7.59,1.2c.44-.19.9-.35,1.36-.5-.47.15-.92.31-1.36.5Zm1.7-.6c.38-.11.76-.2,1.16-.29-.39.08-.78.18-1.16.29Zm1.49-.35c.49-.09.99-.16,1.51-.21-.52.05-1.02.12-1.51.21Zm1.76-.23c.44-.04.89-.05,1.35-.06-.46,0-.91.02-1.35.06Zm9.27,15.77c.34.04.68.06,1.02.06.48,4.76,2.35,9.22,5.64,13.38,0,.01.03.03.04.05,0,0,0,0,0,0l.03.08.19.16s0,0,0,0c.91.98,4.1,4.2,9.56,9.66,2.07,2.12,3.54,4.11,4.44,5.97l-5.04-5.38-10.86-9.24-.77-2.25v-.24c-.04-1.56-.43-3.09-1.16-4.47l-1.24-2.36-1.85-5.43Zm41.03-9.97c2.51-1.83,5.68-2.84,9.52-3.04.59-.03,1.19-.03,1.79-.01l-1.72,1.27-8.98,2.64-4.75,5.57c.38-2.6,1.75-4.74,4.14-6.42Zm17.84,19.57c-.1,1.17-.16,2.33-.21,3.47l-1.03-3.58,1.65-3.45c-.16,1.17-.3,2.35-.41,3.56Zm-42.46-37.81s0,0,0,0l-2.14.81-.44,1.12c.2-.16.39-.32.59-.48,0,0,0,0,.01,0,0,0,0,0-.01,0-1.04.8-2.01,1.62-2.93,2.45l-.35-.6,1.6-4.05,14.71-5.55,2.03-.37c-4.54,1.53-8.89,3.76-13.07,6.68Zm-26.69-11.89c-1.53-.13-3.05-.19-4.57-.17l4.75-1.93,1.29,3.47c-.63-.88-1.13-1.34-1.48-1.37Zm-39.45,100.11l-.94-1.83c.31.25.58.39.8.41,1.24.11,2.52.14,3.83.11l-3.69,1.32Zm.84-85.28l-.87.64-.44,1.07s0,0,0,0c-2.27,3.21-3.72,6.76-4.33,10.62,0,0,0,0,0,0l-.68,1.67.41,1.03c.01-.27.01-.55.04-.82,0,0,0,0,0-.01,0,0,0,0,0,.01-.26,2.93.06,5.83.91,8.68l-3.51-8.91,5.96-14.63,12.33-9.05,3.71-.38c-1.02.49-2.03,1.02-3.03,1.58-4.37,2.49-7.87,5.32-10.5,8.49Zm9.21,46.21c.07.22.12.44.18.66-.05-.22-.11-.44-.18-.66Zm.26,1.02c.05.25.09.49.13.72-.03-.24-.07-.48-.13-.72Zm-2.58,7.71c.54-.44,1.01-.93,1.4-1.45-.39.53-.85,1.01-1.4,1.45Zm1.45-1.53c.38-.54.69-1.12.91-1.75-.22.62-.52,1.21-.91,1.75Zm-1.57,1.63c-.55.43-1.17.82-1.88,1.18.7-.35,1.33-.74,1.88-1.18Zm-32.08-11.09l-.23-2.49-6.71-14.83-1.93-2.62c-1.3-2.92-2.57-5.74-3.79-8.47l7.46,10.07,6.94,15.33.8,8.73c-.81-1.84-1.66-3.75-2.53-5.73Zm-1.71-3.85c-.11-.24-.22-.49-.33-.73.11.24.22.49.33.73Zm-1.71-3.85c-.18-.4-.36-.8-.54-1.21.18.4.36.81.54,1.21Zm-1.89-4.24c-.16-.35-.31-.69-.47-1.05.16.35.31.7.47,1.05Zm-54.18,9.51l-2.8.41c-1.9-.21-2.9-.72-2.94-1.53,0-.02,0-.04,0-.06l5.93-.87,6.95,2.39c-2.7.12-4.81.18-6.33.18.22,0,.45,0,.7,0l-1.51-.52Zm-.69.52c-.31,0-.6,0-.88-.02.28.01.58.02.88.02Zm-1.1-.03c-.36-.02-.69-.04-1-.08.31.03.65.06,1,.08Zm17.65-2.72l.52-.83-5.09-17.33-6.36-15.18-5.45,16.59-4.78,14.59c.63-3.08,1.92-8.02,3.89-14.84,2.75-9.73,4.73-16.06,5.95-18.99,1.5,2.53,3.96,8.4,7.38,17.61,3.5,9.53,5.3,15.37,5.42,17.51.03.59-.01,1.04-.12,1.38-.32.86-1.95,1.44-4.83,1.76l3.48-2.25Zm-22.33-82.91l-.64-.28-1.1.22c.37.01.76.02,1.15.04-3.64-.13-6.34-.15-8.08-.06-.09,0-.18.03-.27.05l.23-.69,8.29-1.64,5.67,2.46c-1.45,0-3.2-.03-5.25-.1ZM31.26,101.25c-1.53,4.93-2.96,9.56-4.31,13.92l-.71,1.7-.04.72c.03-.11.07-.22.1-.33-.86,2.79-1.68,5.47-2.46,8.02l.41-8.85,6.42-15.35,6.17-17.93.25-.7c-1.8,5.81-3.75,12.07-5.84,18.81Zm25.67,43.93c.68-.62,6.55-1.22,17.61-1.8,16.38-.86,25.11-1.09,26.17-.69,1.03.47,2.52,3.78,4.48,9.92l-5.04-8.6-25.56.32-17.19,1.32-3.51,9.47c1.01-5.57,2.02-8.89,3.04-9.95Zm54.16,16.43c.23.03.5.06.78.09l.08.2.74-.13c2.46.16,6.32.13,11.6-.09l-13.57,2.48-1.25-3.04c.49.24,1.02.41,1.62.5Zm38.39-4.46c0-.11-.04-.28-.11-.53l.25-.19-.98-1.91c-1.13-3.01-3.41-8.48-6.85-16.44l2.27,3.14,5.74,11.18,1.32,3.18.71,1.7-4.36,3.33-6.87.08c3.36-.31,5.56-.62,6.58-.96,1.6-.54,2.37-1.4,2.31-2.57Zm-.6-1.97s0,0,0,.02c0,0,0,0,0-.02Zm.2.56s.02.04.02.07c0-.02-.01-.04-.02-.07Zm.16.48s.02.06.03.09c0-.03-.02-.06-.03-.09Zm41.73-15.14c.12-.08.23-.18.35-.27.23.73.54,1.42.93,2.08l-6.59,1.59c1.85-1.06,3.63-2.19,5.31-3.41Zm29.8,22.42c2.15-.11,4.36-.43,6.64-.96l-6.55,2.67-1.2-2.17c.45.31.83.47,1.11.46Zm41.9-34.7c0-.11,0-.23,0-.34,0,.11,0,.23,0,.34Zm-.11,1.84h0s.97-3.91.97-3.91l-1.14-2.53c-.67-4.7-2.51-9.08-5.55-13.13-1.27-1.76-4.54-5.14-9.82-10.14-2.28-2.18-3.84-4.13-4.68-5.85l5.31,5.19,10.57,9.79,5.5,12.22.51,1.77,1.04,4.04-2.43,9.74-3.52,4.35c.73-1.41,1.38-3.01,1.94-4.83.68-2.32,1.11-4.55,1.31-6.69Zm-.06-5.57c.06.54.12,1.08.15,1.62-.03-.55-.09-1.08-.15-1.62Zm12.31,16.11l.18.72,1.44,1.06c3.74,3.9,8.06,7.06,12.96,9.49l1.72,1.26,1.04.02h0c1.85.79,3.77,1.48,5.77,2.08l-7.48-.1-17.21-12.61-1.48-5.78c.94,1.33,1.96,2.62,3.05,3.87Zm63.19,14.31l-6.33,3.72-5.9-.94c4.48-.46,8.56-1.39,12.23-2.78Zm11.22-6.74c1.06-.95,1.62-1.66,1.66-2.11.08-.97-.35-2.79-1.28-5.42l3.6,5.62-3.89,2.01-.71.42c.2-.17.42-.34.61-.52Zm10.82-49.83c2.01.33,3.12,1.59,3.32,3.79.2,2.29.41,5.23.62,8.77l-1.17-8.72-2.61-2.32-.16-1.52Zm35.72,61.54c.89-.08,1.77-.2,2.65-.31l-2.57,1.18-3.33-.67c1.06-.04,2.14-.11,3.26-.2Zm30.23-11.86c.34-.55.43-1.75.27-3.6-.13-1.49-.16-3.68-.1-6.56l1.62,6.43-.4,4.6-2.75.46c.69-.55,1.15-.99,1.36-1.32Zm-57.84,1.68c-.06-.12-.12-.25-.18-.38.06.12.11.25.18.38Z"/>
  <path d="m863.79,106.71l-1.14-16.22c-.06-.83-.22-1.65-.48-2.44l-1.3-3.92c-.54-3.77-1.71-7.31-3.5-10.57l-2.26-6.81c-1.02-3.07-3.46-5.46-6.55-6.41l-22.25-6.85c-.96-.29-1.95-.44-2.94-.44-.88,0-1.77.12-2.63.35l-5.74,1.56c-3.27.53-6.73,1.48-10.32,2.81l-3.18.87-.09-1.74c-.16-3.11-1.76-5.97-4.33-7.73-1.69-1.16-3.66-1.76-5.66-1.76-1.04,0-2.09.16-3.11.5l-16.67,5.45-.52.05-12.31-2.75c-1.41-2.15-3.63-3.73-6.28-4.3l-7.64-1.63c-.53-.11-1.07-.18-1.61-.21l-14.12-.67c-.16,0-.32-.01-.47-.01-.2,0-.4,0-.61.02l-14.91.9c-4.11.25-7.64,2.99-8.91,6.9l-2.58,7.97c-.17.53-.3,1.07-.38,1.61l-.79-4.11c-.89-4.59-4.83-7.95-9.51-8.1l-12.96-.41c-.1,0-.21,0-.31,0-1.12,0-2.23.19-3.28.55l-1.17.41-1.14.06c-2.1.1-4.09.86-5.71,2.14l-9.27,2.75c-1.06.31-2.05.8-2.95,1.44l-3.76,2.67c-1.84,1.31-3.14,3.16-3.77,5.23-1.27-2.84-3.84-4.99-7.02-5.68l-.22-.05c-1.78-1.03-3.83-1.58-6-1.58-.37,0-.74.02-1.12.05-.13.01-.26.02-.39.03l-10.35-1.9c-.6-.11-1.2-.16-1.81-.16-.38,0-.75.02-1.13.06l-14.12,1.6c-1.31.15-2.58.56-3.74,1.2l-4.66,2.59c-.21-.11-.43-.2-.65-.3l-17.77-7.39c-.1-.04-.19-.08-.29-.11l-17.91-6.8c-1.14-.43-2.34-.65-3.55-.65-.52,0-1.04.04-1.56.12l-.56.09c-.05-.31-.11-.62-.18-.92l-.5-2.02,2.57-3.17c2.54-3.14,2.95-7.5,1.02-11.06l-.45-.82c.27-.72.47-1.48.57-2.26.38-2.94-.56-5.91-2.58-8.08l-4.33-4.68c-1.91-2.07-4.58-3.2-7.34-3.2-.72,0-1.44.08-2.16.24l-11.84,2.62-14.14-2.31c-.53-.09-1.07-.13-1.61-.13-.16,0-.31,0-.47.01l-15.25.72-14.41-2.35c-.53-.09-1.07-.13-1.61-.13-.11,0-.23,0-.34,0l-12.96.44-13.45-6.79c-1.44-.73-2.98-1.08-4.5-1.08-3.41,0-6.71,1.75-8.58,4.85l-2.94,4.9c-.1.16-.19.32-.27.49l-3.47,6.59c-.69,1.31-1.08,2.77-1.15,4.25l-.33,8.01-2.2,6.52c-.13.38-.23.77-.32,1.16l-1.66,8.01c-.33,1.57-.27,3.2.17,4.74l.88,3.12c1.04,3.68,4.08,6.45,7.84,7.13l17.1,3.1c.59.11,1.19.16,1.78.16.37,0,.75-.02,1.12-.06l3.08-.35.29,2.43-3.13,14.74-3.96,17.09c-.2.85-.28,1.72-.25,2.58l.56,17.18-1.06,16.8c0,.15-.02.3-.02.45l-.14,7.54c-.36,3.36-.66,6.33-.88,8.85-.11,1.26-.05,2.49.16,3.67l-.47,3.07c-.47,3.06.5,6.17,2.64,8.42,1.9,1.99,4.52,3.11,7.24,3.11.34,0,.69-.02,1.04-.05l17.86-1.86c.21.02.41.04.62.05.15.01.29.02.43.04l15.49,4.64c.94.28,1.91.42,2.87.42,2.79,0,5.51-1.17,7.44-3.31l2.54-2.83,1.99-1.5c2.01-1.51,3.37-3.73,3.82-6.2l1.53-8.43,12.08,10.71c1.4,1.24,3.12,2.07,4.97,2.38l19.54,3.3c.55.09,1.11.14,1.67.14.72,0,1.44-.08,2.15-.23l19.25-4.23c1.26-.28,2.45-.79,3.51-1.52l16.16-11.09c1.39-.96,2.52-2.25,3.28-3.76l4.65-9.26c.07.07.14.15.21.22l9.97,9.98,6.72,10.92c.93,1.52,2.26,2.76,3.83,3.59l7.72,4.09c2.55,1.98,4.92,3.12,7.39,3.59.02,0,.04,0,.06.01,1.16.21,2.49.31,4.17.31.9,0,1.89-.03,3.03-.08l3.57.2c.18.01.37.02.55.02.46,0,.91-.03,1.36-.09l14.28-1.97c3.07-.42,5.77-2.24,7.31-4.93l6.2-10.8,7.35,10.19c1.92,2.66,4.96,4.15,8.11,4.15,1.09,0,2.2-.18,3.28-.55l2.06-.72,7.21,3.02c1.24.52,2.55.78,3.87.78,1.41,0,2.81-.3,4.12-.89l14.81-6.7c2.45-1.11,4.35-3.16,5.28-5.68l2.63-7.2.14,2.17-.12,1.34c-.18,2.11.1,4.17.83,6.04l.17,1.36c.58,4.66,4.33,8.29,9.01,8.72l16.5,1.52c.3.03.61.04.91.04.11,0,.23,0,.34,0l13.96-.47c.63-.02,1.26-.1,1.87-.24l7.6-1.72c2.73-.62,4.99-2.32,6.35-4.59.53.99,1.22,1.9,2.08,2.69l5.72,5.25c1.25,1.15,2.77,1.96,4.42,2.35l15.71,3.78c.77.18,1.55.28,2.34.28.17,0,.34,0,.51-.01l15.39-.78c2.4-.12,4.67-1.1,6.41-2.76l3.87-3.7c1.77-1.7,2.86-3.98,3.05-6.43l1.55-19.36,2.49-18.27,2.67-15.47c.14-.79.18-1.6.12-2.4Zm-113.06,22.09l.51-20.36,2.48-3.68.04-.06-.46,1.37-.29,11.7c.22-2.37.42-4.53.59-6.48-.42,4.64-.96,10.51-1.63,17.62-.26,2.81-.51,5.42-.73,7.84l-.51-7.95Zm-184.5-9.46l-3.9,2.73c-1.65.78-3.45,1.21-5.39,1.33l9.47-6.62,3.44-11.63-1.29-11.26c1.42,2.1,2.38,4.37,2.91,6.8-.07-.32-.14-.65-.23-.97l.64,5.6-3.34,11.31c.22-.32.43-.65.63-.98-.45.74-.94,1.47-1.5,2.16-.46.56-.95,1.07-1.44,1.54Zm0,0c-.49.47-1,.89-1.53,1.28.53-.39,1.04-.81,1.53-1.28Zm-2.07,1.67c-.2.13-.39.26-.59.38.2-.12.4-.25.59-.38Zm-1.41.83c-.14.07-.28.15-.42.22.14-.07.28-.15.42-.22Zm-19.35-89.76c.14-1.08.26-2.08.38-3l1.78,3.28-2.57,3.18c.12-1.01.26-2.16.42-3.45Zm-.76,62.49c-.92,1.45-1.62,3.01-2.1,4.66.48-1.65,1.19-3.21,2.1-4.66Zm4.79-5.11c-.48.33-.95.7-1.4,1.1.45-.4.92-.76,1.4-1.1Zm4.75-2.12c-.57.13-1.12.3-1.65.5.54-.2,1.09-.37,1.65-.5Zm-1.72.53c-.52.2-1.03.42-1.52.68.49-.26,1-.48,1.52-.68Zm-1.56.7c-.5.26-.99.56-1.47.89.47-.33.96-.62,1.47-.89Zm-23.66-34.59l-4.83-1.24c1.93.28,3.71.53,5.37.76l-.54.47Zm-16.07,15.27c.08-.71.15-1.44.23-2.19l-.05,1.49-.19.7Zm31.25,30.35c-.08.29-.15.59-.21.88.07-.3.13-.59.21-.88Zm-.35,1.57c-.05.25-.09.5-.13.76.04-.26.08-.51.13-.76Zm-.24,1.71c-.02.2-.04.4-.06.6.01-.2.04-.4.06-.6Zm10.72,19.61l-6.43-4.92-4.27-12.38,2.8-10.64c.44-.69.91-1.37,1.44-2.01.61-.75,1.27-1.4,1.95-1.99l6.15-3.22c1.18-.28,2.43-.44,3.74-.44,4.11,0,7.56,1.39,10.35,4.16l-10.35-3.42-10.89,5.69-3.1,11.79,3.88,11.24,9.19,7.03c-1.58-.08-3.06-.37-4.45-.88Zm0,0c-.55-.2-1.08-.44-1.6-.71.52.27,1.05.51,1.6.71Zm-2.14-1.01c-.28-.16-.55-.33-.82-.51.27.18.55.35.82.51Zm-1.57-1.05c-.14-.11-.28-.21-.41-.32.14.11.27.22.41.32Zm-1.43-1.24c-.08-.08-.17-.17-.25-.25.08.08.17.17.25.25Zm12.27-15.14l-1.51,5.1-.17-.13-1.51-4.37.83-3.14,1.69-.88.29.1.38,3.33Zm13.93-2.86c.05.28.1.56.14.85-.04-.28-.09-.57-.14-.85Zm.24,1.67c.02.22.05.44.07.67-.02-.22-.04-.45-.07-.67Zm.06,3.96c-.01.21-.04.41-.06.62.02-.21.05-.41.06-.62Zm-.18,1.65c-.04.25-.09.5-.13.75.05-.25.09-.49.13-.75Zm-.3,1.58c-.06.27-.13.54-.21.81.07-.27.14-.53.21-.81Zm-.41,1.51c-.09.28-.19.57-.29.85.1-.28.2-.56.29-.85Zm-.52,1.44c-.12.3-.24.59-.38.88.13-.29.26-.58.38-.88Zm-.62,1.36c-.15.31-.31.61-.48.91.17-.3.33-.61.48-.91Zm2.09-9.25s0,0,0,0c0,0,0,.01,0,.02,0,0,0-.01,0-.02,0,0,0,0,0,0Zm-16.21-46.36c-.65,0-1.29.02-1.93.04.21-.56.37-1.14.48-1.74l1.45-.23,5.84,2.22c-1.89-.18-3.83-.29-5.84-.29Zm-13.95-36.33s-2.11-.03-6.18-.07l6.31-1.39,1.58,1.71c-.38-.09-.93-.17-1.71-.24Zm-39.61-.75l10.56-.5,5.99.98c-6.78-.11-12.3-.28-16.55-.48Zm-35.76,94.15l-.54-16.5,3.93-16.93.76-3.59c-.11,1.44-.2,2.66-.29,3.63-.66,7.49-1.94,18.63-3.86,33.39Zm-15.03-100.59l-.12.2c-.4-.08-.8-.17-1.18-.25-.38-.07-.68-.12-.91-.15l1.45-2.42,8.49,4.29c-2.86-.47-5.46-.96-7.82-1.46.29.06.57.12.87.18l-.77-.39Zm-10.13,32.51c3.58.31,7.75.54,12.5.67l3.12.57,3.87-.44s0,0,0,0c3.63.03,7.54.03,11.72-.03-.13,2.18-.25,4.27-.36,6.26l-.64-5.43-14.66,1.65-15.58-2.83-.13-.46c.06,0,.1.02.17.03Zm4.07-23.06l.11-2.68.52-.98c-.07.33-.13.68-.2,1.04-.15.87-.28,1.75-.43,2.62Zm19.26,129.65c.06.02.11.04.18.06,1.6.39,3.8.77,6.57,1.15l-7.04.73.3-1.94Zm13.76-134.83l2.65-.09,6.34,1.04c-3.13-.31-6.14-.62-8.99-.95Zm21.15,137.93c.89-.03,1.57-.07,2.04-.11l-1.95,2.17-6.98-2.09c2.71.11,5.01.12,6.9.03Zm3.85-2.51c.24-2.7.48-5.9.72-9.56l1.39-7.62-.23-1.89,2.15,2.53-3.02,16.63-1.17.89c.08-.29.14-.6.18-.97Zm34.34-6.28l.36.32,1.01.17c-.38-.13-.76-.27-1.13-.4,5.38,2.01,11.31,3.03,17.81,3.03h0c-.44,0-.87-.02-1.31-.03l1.26.21.93-.2c-.17,0-.35,0-.52.01,9.61-.05,17.91-2.22,24.92-6.49l-6.78,4.65-18.49,4.07-18.59-3.14-6.17-5.46c2.13,1.28,4.36,2.37,6.71,3.26Zm51.44-9.82c.6-.61,1.17-1.23,1.72-1.86l-1.2,2.38-4.99,3.42c1.56-1.2,3.05-2.5,4.46-3.94Zm-3.22-70.08l4.3,1.79,3.98,7.34c-1.49-2.2-3.18-4.29-5.1-6.23-1.02-1.03-2.08-2-3.18-2.9Zm15.93,36.38s0-.03,0-.04v-.03s0-.05,0-.05c-.01-7.41-1.28-14.06-3.77-19.96l1.04,1.93,4.02,15.12.76,3.17-2.5,7.35c.3-2.41.44-4.91.44-7.5Zm73.47-42.25l.2-.02s-.12,0-.2,0l-.1-.38-.18-.96.56-.03,2.45-.85,10.99.34.18.91c-.05,0-.1-.02-.15-.02-4.75.22-8.36.47-10.82.75l-2.53.22-.19.02h0l-.2.02h0Zm123.51,8.41c-2.67,1.3-4.61,2.28-5.82,2.95,0,0,0,0,0,0l-2.01.32c-.28-.85-.44-2.41-.49-4.72l1.06,2.6,7.25-1.15Zm44.69.83c-.55-.47-1.14-.91-1.73-1.33l2.27.7.54,1.64c-.35-.34-.71-.67-1.09-1Zm-28.82,29.3c.2,1.1.29,2.3.27,3.6l-9.48-12.18c1.66.24,3.1.69,4.32,1.35-.37-.2-.75-.38-1.16-.54l6.04,7.76Zm-4.81-7.18c.34.19.67.39.97.61-.31-.22-.63-.43-.97-.61Zm1.06.68c.3.22.58.46.85.71-.27-.25-.55-.49-.85-.71Zm.92.79c.27.27.53.55.77.86-.24-.3-.49-.59-.77-.86Zm.8.89c1,1.29,1.68,2.9,2.02,4.83-.35-1.93-1.02-3.54-2.02-4.83Zm1.22,24.9l-1.19-3.75,1.71-4.53c-.09,1.39-.19,2.93-.29,4.61-.08,1.32-.16,2.53-.23,3.67Zm-22.41-46.22s0,0,0,0c0,0,0,0,0,0h0Zm-.26-.22c.08.12.17.19.26.22-.09-.03-.18-.11-.26-.22Zm.33.11s.02-.02.03-.03c-.01,0-.02.02-.03.03Zm.78-.54s-.02.01-.03.02c0,0,.02-.01.03-.02Zm-1.13.41c-.08-.12-.15-.28-.22-.48.07.2.14.36.22.48Zm-36.96,28.95h0c-.05.66-.1,1.31-.16,1.98-.03.36-.06.73-.1,1.11.03-.38.07-.75.1-1.11.06-.67.11-1.32.16-1.98Zm.56-8.71c-.1,2.21-.24,4.49-.42,6.85l-.32-4.63.74-2.22Zm.39-31.18c-.07.02-.12.06-.19.08l.04-2.08,7.75,1.73c-2.91.13-5.44.22-7.6.27Zm-1.59,3.43s0,.04,0,.06c.11.62.22,1.26.32,1.91l-.41-1.89.08-.08Zm-3.59,29.46l-1.66,4.96v-.17c.92-3.06,1.26-7.75,1.01-14.08l.65,9.29Zm-3.49-35.95s0,0,0,0l-.03-1.65-.39-.08s0,0,0,0c-.07-.23-.14-.45-.2-.64-.25-.71-.59-1.27-1.02-1.67l3.59.76.39,22.33c-.8-9.12-1.58-15.47-2.33-19.06Zm-.2-.91s0-.03,0-.04c0,.01,0,.03,0,.04Zm-29.76-1.05c.15-.01.32-.03.48-.05-.16.02-.32.03-.48.05Zm1.18-.12c.18-.02.37-.04.55-.06-.19.02-.37.04-.55.06Zm8.97-.99l-9.99.61-.16.5c-.38.04-.75.07-1.1.1-.6.05-1.04.35-1.32.87l1.1-3.38,13.44-.82,12.01.55c-2.9.28-6.82.72-11.78,1.32-.76.09-1.49.18-2.2.26Zm-1.8.21c-.19.02-.38.04-.56.06.19-.02.37-.04.56-.06Zm-1.76.2c-.19.02-.38.04-.56.06.18-.02.37-.04.56-.06Zm-1.78.2c-.12.01-.25.03-.38.04.12-.01.25-.03.38-.04Zm-1.74.19c-.19.02-.37.04-.55.06.18-.02.36-.04.55-.06Zm-5.83,3.99c.12,1.32.23,2.6.33,3.84l-.9-3.79.61-1.88c-.09.5-.11,1.11-.05,1.83Zm1.23,39.77c-.63,1.73-1.45,3.79-2.5,6.22-1.69,3.92-3.07,6.61-4.16,8.09l2.89-8.63,3.77-5.67Zm-20.65-2.58l-.11-.69-1.34-11.65-.59-1.24c-.1-1.41-.2-3.16-.27-5.25l2.81,5.94,1.36,11.9,1.04,6.58c-1.34-2.35-2.31-4.21-2.91-5.59Zm-.06-.13s-.02-.05-.03-.07c-.05-.13-.1-.28-.15-.44.05.16.1.31.15.44,0,.02.02.04.03.07Zm-.38-1.19c-.02-.07-.04-.14-.05-.22.02.07.04.15.05.22Zm-.24-1.08c-.05-.24-.1-.49-.15-.76.05.27.1.52.15.76Zm-.94-6.72c-.04-.39-.08-.79-.12-1.2-.07-.75-.15-1.54-.22-2.37-.01-.12-.02-.25-.03-.37.01.12.02.26.03.37.07.83.15,1.62.22,2.37.04.41.08.81.12,1.2Zm-32.3-12.22c.35,2.08.6,3.8.76,5.17l-.32,1.25.68,2.91c-.08-1-.16-2.05-.26-3.15-.03-.31-.06-.65-.1-1.01.04.36.08.7.1,1.01.54,6.12.77,10.75.71,13.91l-3.19-13.69,1.61-6.4Zm12.16-15.42l-1.12.13c-.95.09-1.82.18-2.66.26l2.6-.77,1.18.38Zm-13.89,4.26s0,.08,0,.12c.03.29.06.61.1.95l-.29-.94.19-.13Zm1.54,39.62c-.67,1.89-1.53,4.11-2.59,6.66-1.9,4.39-3.41,7.21-4.54,8.46l3.29-8.99,3.84-6.13Zm-22.04-7.07c-.48-3.44-.96-7.81-1.43-13.16-.15-1.71-.32-4.24-.5-7.58l2.41,7.42-.48,13.33Zm-31.97-31.67c-.2.02-.38.05-.56.08l.54-.3,13.42-1.52,3.58.66c-1.12.07-2.28.13-3.53.2-5.98.33-10.47.62-13.45.88Zm-3.09,13.56l-1.87-11.03,2.53-1.41c-.37.44-.62,1-.74,1.7-.26,1.72-.23,5.3.09,10.74Zm12.48,45.12l1.42,1.42s0,0,0,0c1.84,2.78,3.89,5.78,6.12,8.95l-9.33-9.33-2.2-8.18c1.1,1.84,2.32,3.8,3.66,5.88,0,0-.01-.02-.02-.03l.35,1.29Zm18.39,24.56l-2.42-1.28-4.99-8.1c2.78,3.78,5.25,6.91,7.41,9.38Zm30.55,3.02c2.7-3.5,7.5-12.91,14.39-28.22,8.96,13.53,15.45,21.95,19.46,25.26.3.23.6.44.91.63l-1.98.69-9.55-13.25-8.77-12.34-6.06,13.74-7.95,13.85-.93.13c.18-.16.34-.32.47-.49Zm47.5-1.61c-.09,0-.17.01-.26.02l1.16.49,1.68-.76s0,0,0,0c5.7-.66,9.27-1.91,10.71-3.75.71-.91,1.58-2.25,2.62-4.01l-1.72,4.71-13.25,5.99-5.62-2.35c1.34-.07,2.92-.18,4.69-.33Zm36.12-50.79l.12-.17-.81,2.43-.19.57-.02.6-.04,1.56-2.46,3.66c1.61-3.69,2.74-6.57,3.4-8.64Zm5.74,5.19c-.03.29-.05.58-.08.88.03-.3.05-.59.08-.88Zm-.11,1.29c-.02.27-.05.55-.07.83.03-.28.05-.56.07-.83Zm-.12,1.29c-.03.33-.06.66-.09,1,.03-.34.06-.67.09-1Zm30.9,44.65l.12-1.38h.02s0-.14,0-.14h0s1.34-15.34,1.34-15.34l.73,17.04-2.32.54c.05-.23.09-.47.11-.73Zm-1.7-92.33l6.63-2.17.1,1.92c-.08-.08-.16-.12-.25-.13-.73-.06-2.89.06-6.48.38Zm3.28,74.27l1.18-13.51-.08.95,1.1-4.36-.28-4.94,1.1-12.62c.12-1.36.84-2.68,2.13-3.96l-1.96,3.97,1.02,17.73-4.21,16.73Zm24.33,5.77l1.85-4.41c-.16,1.42-.34,2.93-.53,4.56-.73,6.14-1.23,10.74-1.5,13.79-.05.62-.02,1.17.08,1.67l-2-1.84,2.1-13.78Zm17.52,20.1c5.38.47,9.32.75,11.83.84l-11.95.61-10.78-2.59c2.62.36,6.26.74,10.91,1.14Zm20.34-39.78l2.49-28.42.92,13.08-2.66,15.4-1.94,14.19c.49-6.1.89-10.87,1.18-14.26Zm-45.33-13.36l-1.07,2.84-.26-4.55,1.33,1.71Zm-101.31-42.98l3.39,14.34-3.26-6.88c-.05-1.65-.1-3.15-.15-4.5l.02-2.96Zm-53.06,9.96l-.32,1.27-.48-1.46-.12-2.75.91,2.94Zm154.64,52.25l-3.95,9.39c-.32.76-.55,1.56-.67,2.37l-.39,2.53-.19-4.48,3.76-14.94,1.48,4.68c-.01.15-.03.3-.04.45Z"/>
  <g>
    <g>
      <path fill="var(--yellowColor)"d="m152.16,157.01l-4.7,3.58-18.42.21-18.32,3.35-2.89-7.05-7.68-13.08-25.56.32-17.19,1.32-3.75,10.13-4.32,7.65-21.86,1.75-14.53-.49,6.22-15.25,4.31-15.97.79-17.06,6.42-15.35,6.17-17.93,6.37-17.86,5.71-18.07,5.45-18.18,1.59-4.73,8.29-1.64,8.24,3.58,8,.82,7.41-1.62,2.37,1.78,7.78,17.15,7.95,17.15,7.89,17.18,11.53,15.57,6.94,15.33,1.61,17.67,10.08,13.95,8.1,15.8Zm-76.09-82.42l-5.45,16.59-5.86,17.9,6.58-.96,10.04,3.45,5.62-3.64.52-.83-5.09-17.33-6.36-15.18Z"/>
      <path fill="var(--white)"d="m64.26,22.67l8.24,3.58,8,.82,7.41-1.62,2.37,1.78,7.78,17.15,7.95,17.15,7.89,17.18,11.53,15.57,6.94,15.33,1.61,17.67,10.08,13.95,8.1,15.8-4.7,3.58-18.42.21-18.32,3.35-2.89-7.05-7.68-13.08-25.56.32-17.19,1.32-3.75,10.13-4.32,7.65-21.86,1.75-14.53-.49,6.22-15.25,4.31-15.97.79-17.06,6.42-15.35,6.17-17.93,6.37-17.86,5.71-18.07,5.45-18.18,1.59-4.73,8.29-1.64m.5,86.41l6.58-.96,10.04,3.45,5.62-3.64.52-.83-5.09-17.33-6.36-15.18-5.45,16.59-5.86,17.9m-.05-90.58l-1.22.24-8.29,1.64-2.27.45-.74,2.2-1.59,4.73-.02.06-.02.06-5.44,18.15-5.68,17.97-6.35,17.79-6.14,17.85-6.37,15.23-.27.65-.03.71-.77,16.63-4.13,15.31-6.13,15.02-2.17,5.32,5.74.19,14.53.49h.23s.23-.01.23-.01l21.86-1.75,2.12-.17,1.05-1.85,4.32-7.65.16-.28.11-.3,2.86-7.73,14.5-1.12,23.11-.28,6.36,10.83,2.78,6.79,1.23,3,3.19-.58,17.99-3.29,18.08-.21,1.33-.02,1.05-.8,4.7-3.58,2.66-2.03-1.53-2.98-8.1-15.8-.14-.27-.18-.25-9.44-13.06-1.51-16.58-.06-.67-.28-.61-6.94-15.33-.18-.39-.25-.34-11.28-15.24-7.72-16.8-7.96-17.16-7.76-17.12-.42-.93-.82-.61-2.37-1.78-1.47-1.1-1.79.39-6.78,1.48-6.75-.69-7.68-3.33-1.15-.5h0Zm5.86,85.69l3.85-11.77,2.1-6.4,2.13,5.09,4.31,14.67-2.13,1.38-8.2-2.82-.92-.32-.96.14-.19.03h0Z"/>
    </g>
    <g>
      <path fill="var(--violetColor)"d="m206.71,76.95l-2.04,4.77-5.76-1.12-8.5.76-5.54,6.08,5.66,7.09,6.53,12.36.32,15.82-.99,9.85-4.13,10.34-19.2,4.63-18.25,6.5-5.58-13.4-9.44-12.26,3.24-1.5,13.44-1.11,7.22-7.51-2.17-9.75-8.15-10.79-5.93-15.05,5.96-14.63,12.33-9.05,14.86-1.52,14.11-5.72,5.02,13.48,6.97,11.74Z"/>
      <path fill="var(--white)"d="m194.72,51.73l5.02,13.48,6.97,11.74-2.04,4.77-5.76-1.12-8.5.76-5.54,6.08,5.66,7.09,6.53,12.36.32,15.82-.99,9.85-4.13,10.34-19.2,4.63-18.25,6.5-5.58-13.4-9.44-12.26,3.24-1.5,13.44-1.11,7.22-7.51-2.17-9.75-8.15-10.79-5.93-15.05,5.96-14.63,12.33-9.05,14.86-1.52,14.11-5.72m2.31-5.25l-3.81,1.55-13.59,5.51-14.29,1.46-1.08.11-.88.64-12.33,9.05-.91.67-.43,1.05-5.96,14.63-.61,1.48.59,1.49,5.93,15.05.2.51.33.44,7.62,10.1,1.52,6.81-4.69,4.87-11.93.99-.71.06-.64.3-3.24,1.5-4.54,2.1,3.05,3.96,9.11,11.85,5.37,12.91,1.46,3.51,3.58-1.27,18.05-6.43,19-4.58,2.01-.49.77-1.92,4.13-10.34.21-.52.06-.56.99-9.85.02-.24v-.24s-.32-15.82-.32-15.82l-.02-.95-.44-.84-6.53-12.36-.18-.33-.23-.29-3.53-4.42,2.19-2.41,6.38-.57,5.21,1.01,3.17.61,1.27-2.97,2.04-4.77.8-1.87-1.04-1.75-6.78-11.44-4.9-13.14-1.44-3.86h0Z"/>
    </g>
    <g>
      <path fill="var(--greenColor)"d="m260.53,78.69l-.42.03-4.68,3.45-8.98,2.64-6.63,7.78,7.83,7.67,10.57,9.79,7.43,16.5-2.81,11.27-6.96,8.6-16.34,11.2-18.68,7.61-7.36-13.27-6.68-11.27-1.97-1.83,13.44-3.63,10.81-8.32-8.41-8.97-10.86-9.24-5.37-15.79,7.27-13.12,5.83-14.79,14.71-5.55,14.89-2.71,5.99,11.47,7.39,10.52Z"/>
      <path fill="var(--white)"d="m247.15,56.7l5.99,11.47,7.39,10.52-.42.03-4.68,3.45-8.98,2.64-6.63,7.78,7.83,7.67,10.57,9.79,7.43,16.5-2.81,11.27-6.96,8.6-16.34,11.2-18.68,7.61-7.36-13.27-6.68-11.27-1.97-1.83,13.44-3.63,10.81-8.32-8.41-8.97-10.86-9.24-5.37-15.79,7.27-13.12,5.83-14.79,14.71-5.55,14.89-2.71m2.18-4.46l-2.9.53-14.89,2.71-.36.07-.34.13-14.71,5.55-1.66.63-.65,1.65-5.74,14.55-7.15,12.89-.86,1.55.57,1.68,5.37,15.79.36,1.04.84.71,10.69,9.1,5.24,5.59-6.69,5.15-12.67,3.42-6.97,1.88,5.29,4.91,1.55,1.44,6.35,10.72,7.34,13.22,1.72,3.1,3.29-1.34,18.68-7.61.4-.16.35-.24,16.34-11.2.48-.33.37-.45,6.96-8.6.56-.69.21-.86,2.81-11.27.34-1.35-.57-1.26-7.43-16.5-.33-.74-.6-.55-10.53-9.75-5.13-5.02,3.43-4.03,7.84-2.3.68-.2.57-.42,3.77-2.77,6.25-.52-4.01-5.71-7.24-10.3-5.87-11.24-1.36-2.61h0Z"/>
    </g>
    <g>
      <path fill="var(--redColor)"d="m356.78,106.18l-6.35,12.2-20.48.76-17.28-3.15-17.83.49,8.74,9.9,11.79,5.97,17.16-5.65,8.87-.13,4.44,8.78,7.36,11.48-3.89,2.01-17.64,10.35-20.24-3.21-20.98-.29-17.21-12.61-5.15-20.12-5.65-19.56,8.63-18.07,10.08-16.02,16.7-8.59,18.91-3.76,17.05,4.32,14.02,11.03,7.13,16.39,1.81,17.47Zm-31.98-8.78l-5.32-10.11-8.79-4.52-11.43,1.44-4.62,11.73,3.6,1.5,22.5,2.05,4.07-2.09Z"/>
      <path fill="var(--white)"d="m316.77,56.97l17.05,4.32,14.02,11.03,7.13,16.39,1.81,17.47-6.35,12.2-20.48.76-17.28-3.15-17.83.49,8.74,9.9,11.79,5.97,17.16-5.65,8.87-.13,4.44,8.78,7.36,11.48-3.89,2.01-17.64,10.35-20.24-3.21-20.98-.29-17.21-12.61-5.15-20.12-5.65-19.56,8.63-18.07,10.08-16.02,16.7-8.59,18.91-3.76m3.96,42.52l4.07-2.09-5.32-10.11-8.79-4.52-11.43,1.44-4.62,11.73,3.6,1.5,22.5,2.05m-3.85-46.62l-.89.18-18.91,3.76-.55.11-.5.26-16.7,8.59-.97.5-.58.93-10.08,16.02-.12.2-.1.21-8.63,18.07-.66,1.37.42,1.46,5.63,19.5,5.14,20.06.36,1.39,1.16.85,17.21,12.61,1.03.76,1.28.02,20.7.28,19.95,3.17,1.42.22,1.24-.73,17.55-10.3,3.79-1.96,3.9-2.02-2.37-3.69-7.25-11.31-4.35-8.6-1.09-2.14,6.69-.25,2.33-.09,1.07-2.07,6.35-12.2.55-1.06-.12-1.19-1.81-17.47-.06-.62-.25-.57-7.13-16.39-.4-.92-.79-.62-14.02-11.03-.67-.52-.82-.21-17.05-4.32-.88-.22h0Zm-14.77,35.01l7.85-.99,6.56,3.38,2.66,5.06-19.32-1.76,2.24-5.69h0Zm1.39,32.37l8.87-.24,16.87,3.08.43.08.44-.02.53-.02-14.93,4.92-9.62-4.88-2.57-2.92h0Z"/>
    </g>
    <g>
      <path fill="var(--yellowColor)"d="m425.46,127.37l.15,8.83,2.18,8.66-.4,4.6-4.96.83-13.24,4.92-13.35,6.12-19.7-3.94-7.97-16.18-2.77-19.18-2.6-19.26-4.82-4.28-1.36-.42-1.25-.29-3.63-.91.48-4.78-.13-4.85-.26-6.33-.79-6.12,4.58-3.16,1.33-1.85,3.15-11.71-5-11.58,3.08-14.16,8.17.52,7.42,4.38h15.17s4.65.7,4.65.7l.09,11.99-3.17,12.1,5.13,5.23,10.3-1.36,10.38-.88,1.46.31,1.57,6.71,2.28,6.48-2.37,7.07,2.17,6.67-3.75,5.08-6.86-4.05-6.24,4.46-7.54-2.19,1.71,4.76-.35,6.97-3.63,7.3,4.36,11.66,11.94,5.34,5.69-7.22,7.07-.44,1.63,3.48Z"/>
      <path fill="var(--white)"d="m358.19,32.32l8.17.52,7.42,4.38h15.17s4.65.7,4.65.7l.09,11.99-3.17,12.1,5.13,5.23,10.3-1.36,10.38-.88,1.46.31,1.57,6.71,2.28,6.48-2.37,7.07,2.17,6.67-3.75,5.08-6.86-4.05-6.24,4.46-7.54-2.19,1.71,4.76-.35,6.97-3.63,7.3,4.36,11.66,11.94,5.34,5.69-7.22,7.07-.44,1.63,3.48.15,8.83,2.18,8.66-.4,4.6-4.96.83-13.24,4.92-13.35,6.12-19.7-3.94-7.97-16.18-2.77-19.18-2.6-19.26-4.82-4.28-1.36-.42-1.25-.29-3.63-.91.48-4.78-.13-4.85-.26-6.33-.79-6.12,4.58-3.16,1.33-1.85,3.15-11.71-5-11.58,3.08-14.16m-3.18-4.21l-.73,3.36-3.08,14.16-.27,1.26.51,1.18,4.45,10.3-2.6,9.66-.5.69-4.01,2.76-2.01,1.39.31,2.42.77,5.95.26,6.13.12,4.57-.45,4.53-.34,3.44,3.35.84,3.63.91h.04s.04.02.04.02l1.11.26.4.12,3.06,2.71,2.4,17.79,2.77,19.22.09.63.28.57,7.97,16.18.87,1.77,1.93.39,19.7,3.94,1.27.25,1.18-.54,13.22-6.06,12.74-4.74,4.58-.76,3.06-.51.27-3.09.4-4.6.06-.67-.16-.65-2.07-8.21-.14-8.37v-.85s-.38-.77-.38-.77l-1.63-3.48-1.15-2.47-2.72.17-7.07.44-1.78.11-1.11,1.4-3.76,4.78-7.57-3.38-3.17-8.46,2.86-5.74.37-.75.04-.83.31-6.12.77.22,1.86.54,1.58-1.13,4.12-2.95,4.62,2.72,3.11,1.83,2.14-2.9,3.75-5.08,1.22-1.66-.64-1.96-1.76-5.41,1.95-5.82.44-1.3-.46-1.3-2.21-6.28-1.52-6.5-.58-2.47-2.48-.53-1.46-.31-.58-.12-.59.05-10.38.88h-.09s-.09.02-.09.02l-8.32,1.1-2.14-2.18,2.59-9.9.13-.51v-.53s-.1-11.99-.1-11.99l-.03-3.43-3.39-.5-4.65-.69-.29-.04h-.29s-14.08-.01-14.08-.01l-6.48-3.83-.83-.49-.96-.06-8.17-.52-3.43-.22h0Z"/>
    </g>
    <g>
      <path fill="var(--greenColor)"d="m542.37,53.66l-1.97.39-14.79.04-15.68-4.02-.57,18.5-4.55,16.9-.15,17.44.66,17.41,2.15,17.5-3.13,17.21-2.29,1.73-2.47,2.75-17.07-5.11-18.22,1.89.76-4.89.31-17.29,1.09-17.29-.57-17.49,3.93-16.93,3.56-16.79-1.91-16.26-14.66,1.65-15.58-2.83-.41-1.45,1.5-7.3,2.75-8.15.38-9.27,3.21-6.09,1.98-3.3,14.53,7.34,15.83-.54,15.45,2.52,16.29-.77,16.21,2.65,12.97-2.87,1.92,2.07-2.49,1.58,4.2,7.74-5.49,6.79,1.89,7.45.42,7.06Z"/>
      <path fill="var(--white)"d="m450.63,12.62l14.53,7.34,15.83-.54,15.45,2.52,16.29-.77,16.21,2.65,12.97-2.87,1.92,2.07-2.49,1.58,4.2,7.74-5.49,6.79,1.89,7.45.42,7.06-1.97.39-14.79.04-15.68-4.02-.57,18.5-4.55,16.9-.15,17.44.66,17.41,2.15,17.5-3.13,17.21-2.29,1.73-2.47,2.75-17.07-5.11-18.22,1.89.76-4.89.31-17.29,1.09-17.29-.57-17.49,3.93-16.93,3.56-16.79-1.91-16.26-14.66,1.65-15.58-2.83-.41-1.45,1.5-7.3,2.75-8.15.38-9.27,3.21-6.09,1.98-3.3m-1.52-5.25l-1.91,3.19-1.98,3.3-.06.1-.05.1-3.21,6.09-.42.8-.04.9-.36,8.7-2.56,7.6-.08.23-.05.24-1.5,7.3-.2.95.26.94.41,1.45.68,2.41,2.46.45,15.58,2.83.58.1.58-.07,10.7-1.21,1.37,11.65-3.42,16.11-3.92,16.89-.12.51.02.52.56,17.3-1.08,17.09v.09s0,.09,0,.09l-.31,17.02-.72,4.63-.79,5.13,5.16-.54,17.43-1.81,16.31,4.88,2.43.73,1.69-1.88,2.21-2.46,1.98-1.49,1.25-.94.28-1.54,3.13-17.21.11-.6-.07-.6-2.13-17.33-.65-17.15.15-16.83,4.42-16.41.12-.45v-.47s.43-13.51.43-13.51l10.84,2.78.49.13h.51s14.79-.04,14.79-.04h.39s.38-.08.38-.08l1.97-.39,3.42-.68-.21-3.48-.42-7.06-.02-.38-.09-.37-1.4-5.51,4.23-5.23,1.68-2.08-1.27-2.35-2.42-4.46,3.39-2.15-3.26-3.52-1.92-2.07-1.56-1.68-2.24.49-12.22,2.7-15.45-2.53-.41-.07-.42.02-15.88.75-15.04-2.46-.39-.06h-.39s-14.81.51-14.81.51l-13.62-6.88-3.32-1.68h0Z"/>
    </g>
    <g>
      <path fill="var(--violetColor)"d="m603.93,105.14l-6.04,17.81-8.24,16.41-15.42,10.58-18.49,4.07-18.59-3.14-13.92-12.31-11.86-13.98-1.88-18.34,5.68-17.54,7.39-16.44,14.25-12.43,18.93-2.99,17.41,6.61,17.06,7.09,8.9,16.44,4.83,18.15Zm-34.07,0l-1.54-13.38-12.4-4.1-10.89,5.69-3.1,11.79,3.88,11.24,10.11,7.74,10.49-7.34,3.44-11.63Z"/>
      <path fill="var(--white)"d="m555.74,56.84l17.41,6.61,17.06,7.09,8.9,16.44,4.83,18.15-6.04,17.81-8.24,16.41-15.42,10.58-18.49,4.07-18.59-3.14-13.92-12.31-11.86-13.98-1.88-18.34,5.68-17.54,7.39-16.44,14.25-12.43,18.93-2.99m.18,67.27l10.49-7.34,3.44-11.63-1.54-13.38-12.4-4.1-10.89,5.69-3.1,11.79,3.88,11.24,10.11,7.74m.24-71.38l-1.05.17-18.93,2.99-1.14.18-.87.76-14.25,12.43-.66.58-.36.8-7.39,16.44-.09.2-.07.21-5.68,17.54-.26.8.09.84,1.88,18.34.13,1.23.8.95,11.86,13.98.19.22.21.19,13.92,12.31.86.76,1.13.19,18.59,3.14.77.13.76-.17,18.49-4.07.76-.17.64-.44,15.42-10.58.85-.58.46-.92,8.24-16.41.12-.25.09-.26,6.04-17.81.39-1.14-.31-1.17-4.83-18.15-.12-.46-.23-.42-8.9-16.44-.67-1.25-1.31-.54-17.06-7.09-.06-.02-.06-.02-17.41-6.61-.99-.38h0Zm-7.72,43.35l7.82-4.09,8.36,2.77,1.15,10.03-2.81,9.51-6.95,4.86-6.83-5.23-3.09-8.95,2.34-8.9h0Z"/>
    </g>
    <g>
      <path fill="var(--yellowColor)"d="m748.87,80.57l1.53,21.97-15.11,22.46-9.01,24.7-13.25,5.99-10.64-4.46-4.99,1.73-9.55-13.25-8.77-12.34-6.06,13.74-7.95,13.85-13.12,1.81-9.04-.5-11.27-5.97-7.18-11.65-10.59-10.59-3.95-14.71-4.82-20.2-3.79-22.27,4.95-2.76,13.42-1.52,13.72,2.52,2.2.48.37,8.63,2.75,8.44-.64,17.69,6.63,10.59,7.48,9.86,4.25-11.61,6.55-10.45-4.13-17.75,2.29-9.08-2.59-8.34,2.31-1.64,10.6-3.14,4.18,1.36-.45-1.68-.18-.96.56-.03,2.45-.85,10.99.34.75,3.87-.08,11.18,5.22,11.01,1.36,11.9,1.9,12.06,8.87,9.84,4.24-12.66,7.26-10.93-1.26-17.45-4.02-17.02,1.99-6.14,13.44-.82,13.69.62,6.09,1.3.4,22.8Z"/>
      <path fill="var(--white)"d="m728.69,55.84l13.69.62,6.09,1.3.4,22.8,1.53,21.97-15.11,22.46-9.01,24.7-13.25,5.99-10.64-4.46-4.99,1.73-9.55-13.25-8.77-12.34-6.06,13.74-7.95,13.85-13.12,1.81-9.04-.5-11.27-5.97-7.18-11.65-10.59-10.59-3.95-14.71-4.82-20.2-3.79-22.27,4.95-2.76,13.42-1.52,13.72,2.52,2.2.48.37,8.63,2.75,8.44-.64,17.69,6.63,10.59,7.48,9.86,4.25-11.61,6.55-10.45-4.13-17.75,2.29-9.08-2.59-8.34,2.31-1.64,10.6-3.14,4.18,1.36-.45-1.68-.18-.96.56-.03,2.45-.85,10.99.34.75,3.87-.08,11.18,5.22,11.01,1.36,11.9,1.9,12.06,8.87,9.84,4.24-12.66,7.26-10.93-1.26-17.45-4.02-17.02,1.99-6.14,13.44-.82m-.03-4.01h-.21s-13.44.83-13.44.83l-2.72.17-.84,2.59-1.99,6.14-.34,1.06.26,1.09,3.95,16.71,1.14,15.76-6.51,9.79-.29.44-.17.5-2.06,6.16-3.49-3.87-1.7-10.81-1.36-11.81-.08-.66-.28-.6-4.83-10.19.07-10.27v-.4s-.07-.39-.07-.39l-.75-3.87-.61-3.14-3.2-.1-10.99-.34-.74-.02-.7.24-1.91.66-4.59.23.23,1.18-.12.03-10.6,3.14-.64.19-.54.39-2.31,1.64-2.36,1.68.86,2.77,2.26,7.27-2.01,7.99-.24.94.22.94,3.75,16.13-5.67,9.04-.22.36-.14.39-1.73,4.73-2.95-3.89-5.88-9.4.6-16.46.03-.71-.22-.67-2.58-7.93-.35-8.09-.13-3.08-3.02-.65-2.2-.48h-.06s-.06-.02-.06-.02l-13.72-2.52-.58-.11-.59.07-13.42,1.52-.8.09-.7.39-4.95,2.76-2.47,1.38.47,2.79,3.79,22.27.02.13.03.13,4.82,20.2v.05s.03.05.03.05l3.95,14.71.28,1.03.76.76,10.26,10.26,6.93,11.25.57.93.96.51,11.27,5.97.78.41.88.05,9.04.5.38.02.38-.05,13.12-1.81,1.95-.27.98-1.7,7.95-13.85.11-.18.09-.19,3.22-7.3,4.69,6.6,9.56,13.27,1.74,2.42,2.81-.98,3.55-1.23,9.23,3.87,1.61.67,1.59-.72,13.25-5.99,1.53-.69.58-1.58,8.85-24.24,14.84-22.05.77-1.14-.1-1.37-1.53-21.86-.4-22.69-.06-3.18-3.11-.66-6.09-1.3-.32-.07-.33-.02-13.69-.62h-.21Z"/>
    </g>
    <g>
      <path fill="var(--redColor)"d="m845.06,160.49l-2.78,2.66-14.36.73-14.93-3.59-4.56-4.18,2.1-13.78,5.67-13.48-3.52-11.1,3.96-10.52-12.12-15.57-10.57,1.16-4.58,9.28,1.02,17.73-4.35,17.27.76,17.71-5.6,1.3-13.84.47-14.78-1.36-.41-3.24-1.48-23.17.58-23.08,6.34-18.96-4.13-19.15,1.44-1.37.07-4.13,16.9,3.77,17.62-5.76.43,8.5,1.57,3.83,11.59-1.83,20.18-5.5,20.71,6.38,6.65,20.09,1.11,15.73-2.66,15.4-2.57,18.84-1.51,18.93Z"/>
      <path fill="var(--white)"d="m789.56,60.12l.43,8.5,1.57,3.83,11.59-1.83,20.18-5.5,20.71,6.38,6.65,20.09,1.11,15.73-2.66,15.4-2.57,18.84-1.51,18.93-2.78,2.66-14.36.73-14.93-3.59-4.56-4.18,2.1-13.78,5.67-13.48-3.52-11.1,3.96-10.52-12.12-15.57-10.57,1.16-4.58,9.28,1.02,17.73-4.35,17.27.76,17.71-5.6,1.3-13.84.47-14.78-1.36-.41-3.24-1.48-23.17.58-23.08,6.34-18.96-4.13-19.15,1.44-1.37.07-4.13,16.9,3.77,17.62-5.76m3.73-5.43l-4.97,1.63-16.58,5.42-15.83-3.53-4.79-1.07-.08,4.9-.04,2.45-.22.21-1.63,1.55.47,2.2,3.9,18.08-5.99,17.92-.19.57-.02.6-.58,23.08v.18s0,.18,0,.18l1.48,23.17v.12s.02.12.02.12l.41,3.24.4,3.19,3.2.29,14.78,1.36.25.02h.25s13.84-.48,13.84-.48h.39s.38-.1.38-.1l5.6-1.3,3.24-.75-.14-3.32-.74-17.13,4.2-16.7.15-.59-.04-.61-.96-16.68,3.14-6.37,6.17-.68,9.37,12.04-3.17,8.43-.49,1.3.42,1.32,3.07,9.7-5.1,12.12-.19.46-.07.49-2.1,13.78-.32,2.11,1.57,1.44,4.56,4.18.76.7,1.01.24,14.93,3.59.56.13.58-.03,14.36-.73,1.49-.08,1.08-1.03,2.78-2.66,1.1-1.05.12-1.52,1.5-18.82,2.55-18.66,2.64-15.33.08-.48-.03-.48-1.11-15.73-.04-.5-.16-.48-6.65-20.09-.65-1.96-1.97-.61-20.71-6.38-1.11-.34-1.12.3-19.97,5.44-8.24,1.3-.11-.27-.4-7.82-.27-5.22h0Z"/>
    </g>
  </g>

</svg>