<?xml version="1.0" encoding="UTF-8"?>
<svg id="Layer_2" data-name="Layer 2" xmlns="http://www.w3.org/2000/svg" xmlns:xlink="http://www.w3.org/1999/xlink" viewBox="0 0 295.87 473.29">
  <defs>
    <style>
      .skinDark03 {
        fill: #dfa890;
      }

      .yellowDimmed02 {
        fill: #fff6cc;
      }

      .skin03{
        fill: #e9c0ac;
      }

      .darkBlueDark02 {
        fill: #03112e;
      }

      .yellowDimmed01 {
        fill: #ffe566;
      }

      .cls-7 {
        fill: #e6e6e6;
      }

      .nat_clippedPath {
        clip-path: url(#nat_clippath);
      }

      .yellowDark01 {
        fill: #fec60d;
      }

      .nat_clippath {
        fill: none;
      }

      .yellowDark02 {
        fill: #e3ae00;
      }

      .skin04 {
        fill: #d59174;
      }
    </style>
    <clippath id="nat_clippath">
      <rect class="nat_clippath" x="20.06" y="311" width="253.6" height="117.42" rx="49.89" ry="49.89"/>
    </clippath>
  </defs>
  <rect class="yellowDark01" x="90.84" y="275.01" width="118.62" height="56.18" rx="22.36" ry="22.36"/>
  <rect class="yellowDimmed01" x="20.06" y="311" width="253.6" height="117.42" rx="49.89" ry="49.89"/>
  <path class="skinDark03" d="m149.44,85.74h0c46.47,0,84.2,37.73,84.2,84.2v33.35c0,46.42-37.69,84.11-84.11,84.11h0c-46.52,0-84.29-37.77-84.29-84.29v-33.17c0-46.47,37.73-84.2,84.2-84.2Z" transform="translate(300.49 371.84) rotate(179.5)"/>
  <path class="yellowDimmed02" d="m192.59,84.78c3.51-5.49,5.85-11.85,6.6-18.77,0,0-3.02,5.68-9.02,11.79,8.36-11.64,10.82-27.16,5.16-41.48,0,0-.06,11.18-5.67,22.83-.43-3.21-1.24-6.41-2.48-9.56-8.22-20.8-31.74-31-52.54-22.78-20.8,8.22-31,31.74-22.78,52.54.46,1.17.98,2.31,1.54,3.41-22.92.37-41.39,19.06-41.39,42.07h0c0,7.41,6,13.41,13.41,13.41h122.89c7.41,0,13.41-6,13.41-13.41h0c0-18.72-12.23-34.58-29.14-40.05Z"/>
  <path class="yellowDimmed01" d="m208.31,139.51h-122.89c-.7,0-1.27-.57-1.27-1.27s.57-1.27,1.27-1.27h122.89c6.7,0,12.14-5.45,12.14-12.14,0-22.51-18.31-40.82-40.82-40.82h-47.7c-.7,0-1.27-.57-1.27-1.27s.57-1.27,1.27-1.27h47.7c23.91,0,43.35,19.45,43.35,43.35,0,8.09-6.59,14.68-14.68,14.68Z"/>
  <rect class="skin03" x="69.75" y="105.05" width="159.09" height="183.95" rx="79.54" ry="79.54" transform="translate(300.29 392.74) rotate(179.5)"/>
  <path class="skin03" d="m149.66,270.94h0c13.37,0,24.22,10.85,24.22,24.22v46.27h-48.44v-46.27c0-13.37,10.85-24.22,24.22-24.22Z" transform="translate(299.31 612.38) rotate(180)"/>
  <g>
    <circle class="skin03" cx="235.97" cy="193.47" r="26.16"/>
    <circle class="skin03" cx="62.62" cy="193.47" r="26.16"/>
  </g>
  <path class="skinDark03" d="m149.44,244.47c-5.52,0-11.68-1.63-17.8-6.22-1.41-1.05-1.69-3.05-.64-4.45,1.05-1.41,3.05-1.69,4.45-.64,14.35,10.74,27.06.83,27.6.41,1.37-1.09,3.37-.88,4.47.48,1.1,1.36.89,3.36-.47,4.46-3.39,2.76-9.88,5.96-17.61,5.96Z"/>
  <path class="skinDark03" d="m153.85,210.29c-.65,0-1.31-.2-1.87-.61-1.42-1.04-1.73-3.03-.69-4.44,9.93-13.58-3.85-26.35-4.44-26.88-1.3-1.18-1.4-3.19-.23-4.49,1.17-1.3,3.18-1.41,4.48-.24,6.51,5.85,16,20.76,5.32,35.37-.62.85-1.59,1.3-2.57,1.3Z"/>
  <g>
    <ellipse class="darkBlueDark02" cx="123.93" cy="186.31" rx="4.23" ry="6.34"/>
    <ellipse class="darkBlueDark02" cx="174.65" cy="186.31" rx="4.23" ry="6.34"/>
  </g>
  <g class="nat_clippedPath">
    <g>
      <rect class="yellowDark02" x="-1.07" y="302.55" width="127.5" height="194.71"/>
      <rect class="yellowDark02" x="173.87" y="302.55" width="120.92" height="194.71"/>
      <path class="yellowDark01" d="m90.84,311h35.59v94.9h-10.92c-13.62,0-24.67-11.05-24.67-24.67v-70.23h0Z"/>
      <path class="yellowDark01" d="m198.55,307.46h10.92v94.9h-35.59v-70.23c0-13.62,11.05-24.67,24.67-24.67Z" transform="translate(383.34 709.82) rotate(-180)"/>
    </g>
    <ellipse class="yellowDark01" cx="264.34" cy="376.84" rx="12.88" ry="22.55"/>
  </g>
  <path class="skinDark03" d="m147.62,250.16c-2.98,0-5.94-.31-7.99-1.27-1.59-.75-2.27-2.64-1.53-4.23.75-1.59,2.64-2.27,4.23-1.53,2.5,1.17,10.12.59,14.73-.21,1.73-.3,3.38.86,3.67,2.59.3,1.73-.86,3.38-2.59,3.67-1.32.23-5.94.96-10.53.96Z"/>
  <rect class="cls-7" x="234.57" y="163.88" width="19.5" height="7.61" transform="translate(19.12 360.27) rotate(-75)"/>
  <circle class="skin04" cx="96.11" cy="203.65" r="1.98"/>
  <path class="yellowDimmed02" d="m120.32,102.57h53.09c20.35,0,36.88,16.53,36.88,36.88h0c0,6.99-5.68,12.67-12.67,12.67h-101.51c-6.99,0-12.67-5.68-12.67-12.67h0c0-20.35,16.53-36.88,36.88-36.88Z"/>
  <path class="yellowDimmed01" d="m197.62,153.39h-101.51c-.7,0-1.27-.57-1.27-1.27s.57-1.27,1.27-1.27h101.51c6.29,0,11.4-5.12,11.4-11.4,0-19.64-15.98-35.61-35.61-35.61-.7,0-1.27-.57-1.27-1.27s.57-1.27,1.27-1.27c21.03,0,38.15,17.11,38.15,38.15,0,7.69-6.25,13.94-13.94,13.94Z"/>
  <path class="yellowDimmed01" d="m189.5,153.39c-.7,0-1.27-.57-1.27-1.27s.57-1.27,1.27-1.27c7.34,0,10.16-9.87,10.19-9.97.19-.67.89-1.07,1.56-.88.67.19,1.07.88.89,1.56-.13.48-3.36,11.83-12.63,11.83Z"/>
  <path class="yellowDimmed01" d="m180.79,153.39c-.7,0-1.27-.57-1.27-1.27s.57-1.27,1.27-1.27c4.65,0,6.99-7.26,7.01-7.34.21-.67.92-1.04,1.59-.83.67.21,1.04.92.83,1.59-.12.37-2.93,9.11-9.43,9.11Z"/>
  <path class="yellowDimmed01" d="m172.78,153.39c-.7,0-1.27-.57-1.27-1.27s.57-1.27,1.27-1.27c4.36,0,5.06-7.08,5.06-7.15.06-.7.68-1.2,1.38-1.15.7.06,1.21.68,1.15,1.38-.04.39-.94,9.46-7.59,9.46Z"/>
</svg>