<?xml version="1.0" encoding="UTF-8"?>
<svg id="Layer_2" data-name="Layer 2" xmlns="http://www.w3.org/2000/svg" xmlns:xlink="http://www.w3.org/1999/xlink" viewBox="0 0 293.51 725.56">
  <defs>
    <style>
      .redDark02 {
        fill: #91082c;
      }

      .redDark01 {
        fill: #ab123a;
      }

      .redColor {
        fill: #f4313b;
      }

      .redDimmed01 {
        fill: #f88389;
      }

      .blueDimmed02{
        fill: #e0e8fa;
      }

      .darkBlueDark02 {
        fill: #03112e;
      }

      .patra_action_gradient_02 {
        fill: url(#patra_action_gradient_02);
      }

      .blueDimmed01 {
        fill: #a1b9f0;
      }

      .patra_action_gradient_01{
        fill: url(#patra_action_gradient_01);
      }

      .pinkDark02 {
        fill: #7d4a62;
      }

      .redDark012 {
        fill: #af2f32;
      }

      .skin04 {
        fill: #d59174;
      }

      .lightBlueDimmed02 {
        fill: #e9f9fd;
      }

      .patra_action_gradient_03 {
        fill: url(#patra_action_gradient_03);
      }
    </style>
    <linearGradient id="patra_action_gradient_01" data-name="patra_action_gradient_01" x1="95.01" y1="78.56" x2="95.01" y2="67.56" gradientUnits="userSpaceOnUse">
      <stop offset="0" stop-color="#a1b9f0"/>
      <stop offset="1" stop-color="#e0e8fa"/>
    </linearGradient>
    <linearGradient id="patra_action_gradient_02" data-name="patra_action_gradient_02" x1="9.08" y1="261.58" x2="140.02" y2="130.64" gradientTransform="translate(-96.6 74.76) rotate(-33.85)" gradientUnits="userSpaceOnUse">
      <stop offset="0" stop-color="#e0e8fa"/>
      <stop offset="1" stop-color="#a1b9f0"/>
    </linearGradient>
    <radialGradient id="patra_action_gradient_03" data-name="patra_action_gradient_03" cx="336.98" cy="225.81" fx="336.98" fy="225.81" r="172.17" gradientUnits="userSpaceOnUse">
      <stop offset="0" stop-color="#a1b9f0"/>
      <stop offset="1" stop-color="#e0e8fa"/>
    </radialGradient>
  </defs>
  <circle class="patra_action_gradient_01" cx="95.01" cy="73.06" r="5.5"/>
  <g>
    <path class="redDark01" d="m174.51,58.06s1,12.5,4,17.5,14,25,13,35-71,6.55-71,6.55c0,0-8.95,4.7-12.98-3.43-4.02-8.13-3.02-20.13-.02-36.13s-12-49,67-19.5Z"/>
    <path class="redDark02" d="m189.51,117.56c-.21,0-.42-.02-.63-.07-1.62-.35-2.65-1.94-2.3-3.56,2.67-12.47-4.42-25.45-10.12-35.88l-.58-1.06c-6.37-11.68-4.44-31.88-4.35-32.73.17-1.65,1.63-2.84,3.28-2.69,1.65.16,2.85,1.63,2.69,3.28-.02.19-1.83,19.22,3.65,29.27l.58,1.05c6.18,11.3,13.86,25.37,10.72,40.01-.3,1.41-1.55,2.37-2.93,2.37Z"/>
    <path class="redDark02" d="m178.51,114.56c-.1,0-.2,0-.3-.01-1.65-.17-2.85-1.64-2.69-3.28.53-5.34-1.63-10.59-3.92-16.15-1.57-3.81-3.2-7.76-4.04-11.96-2.03-10.13-3.02-44.06-3.06-45.5-.05-1.66,1.26-3.04,2.91-3.08,1.64-.06,3.04,1.26,3.08,2.91.01.35,1.02,34.86,2.94,44.5.73,3.63,2.17,7.14,3.7,10.85,2.47,6,5.03,12.2,4.34,19.04-.15,1.55-1.46,2.7-2.98,2.7Z"/>
    <path class="redDark02" d="m109.51,126.56c-1.21,0-2.36-.74-2.81-1.95-.13-.34-3.14-8.43-4.17-16.68-.9-7.19.42-14.11,2.08-22.88.31-1.61.62-3.28.94-5.03,1.91-10.49-.02-34.98-.04-35.22-.13-1.65,1.1-3.1,2.75-3.23,1.65-.14,3.1,1.1,3.23,2.75.08,1.04,2.01,25.52-.04,36.78-.32,1.77-.64,3.45-.95,5.08-1.57,8.25-2.81,14.76-2.02,21.01.94,7.54,3.8,15.24,3.83,15.32.58,1.55-.21,3.28-1.76,3.86-.35.13-.7.19-1.05.19Z"/>
    <path class="redDark02" d="m114.51,121.56c-1.31,0-2.51-.86-2.88-2.18-.09-.31-2.15-7.78-.09-23.22,1.97-14.8,3.97-31.78,3.99-31.95.19-1.65,1.68-2.83,3.33-2.63,1.65.19,2.82,1.68,2.63,3.33-.02.17-2.03,17.19-4.01,32.05-1.87,13.99-.11,20.72-.09,20.78.46,1.59-.47,3.25-2.06,3.71-.28.08-.55.12-.83.12Z"/>
    <path class="redDark02" d="m122.5,116.56c-1.47,0-2.75-1.08-2.97-2.58-1.05-7.33.91-22.19,1-22.82.22-1.64,1.73-2.8,3.37-2.58,1.64.22,2.8,1.73,2.58,3.37-.02.15-1.93,14.67-1,21.18.23,1.64-.91,3.16-2.55,3.39-.14.02-.29.03-.43.03Z"/>
    <path class="redDark02" d="m168.51,113.56c-.1,0-.19,0-.29-.01-1.65-.16-2.86-1.62-2.7-3.27,1.81-19.03-8.51-28.05-8.95-28.42-1.26-1.07-1.42-2.96-.36-4.22,1.06-1.26,2.94-1.44,4.21-.38.54.45,13.19,11.27,11.07,33.59-.15,1.55-1.45,2.72-2.98,2.72Z"/>
  </g>
  <path class="skin04" d="m18.27,166.86s-8.87-10.19-4.27-24.23c4.6-14.04,7.26-18.77,12.72-11.74,5.46,7.03,16.42,24.39-8.46,35.97Z"/>
  <g>
    <rect class="patra_action_gradient_02" x="55.55" y="102.11" width="38" height="188" rx="19" ry="19" transform="translate(121.87 -8.29) rotate(33.85)"/>
    <path class="blueDimmed02" d="m12.98,160.5h38v97.91c0,10.49-8.51,19-19,19h0c-10.49,0-19-8.51-19-19v-97.91h0Z" transform="translate(-4.39 .69) rotate(-1.15)"/>
  </g>
  <path class="blueDimmed01" d="m10.51,541.56h164s0-437,0-437h-50.96c-18.25,0-33.04,14.79-33.04,33.04L10.51,541.56Z"/>
  <ellipse class="redDark02" cx="133.04" cy="45.68" rx="44.5" ry="42.29" transform="translate(66.77 169.75) rotate(-80.84)"/>
  <ellipse class="skin04" cx="130.41" cy="58.06" rx="44.5" ry="39.9" transform="translate(52.33 177.56) rotate(-80.84)"/>
  <rect class="skin04" x="130.51" y="73.56" width="33" height="61"/>
  <circle class="skin04" cx="172.51" cy="58.56" r="11"/>
  <path class="redDark02" d="m115.51,676.56v49H30.07c-1.42,0-2.56-1.15-2.56-2.56v-3.43c0-2.67,2.01-4.91,4.67-5.18,7.44-.74,22.64-4.13,37.33-18.83,0,0,5-5,5-19h0s41,0,41,0Z"/>
  <path class="redDark02" d="m213.51,676.56v49h-85.44c-1.42,0-2.56-1.15-2.56-2.56v-3.43c0-2.67,2.01-4.91,4.67-5.18,7.44-.74,22.64-4.13,37.33-18.83,0,0,5-5,5-19h0s41,0,41,0Z"/>
  <path class="redDark01" d="m157.51,676.56h64l-8.42-366.45c-.88-38.13-29.98-68.55-65.58-68.55h-14c-35.6,0-64.7,30.42-65.58,68.55l-8.42,366.45h64l7.39-321.43h19.22l7.39,321.43Z"/>
  <path class="redColor" d="m67.51,678.56h19c2.21,0,4,1.79,4,4h0c0,2.21-1.79,4-4,4h-19v-8h0Z"/>
  <path class="redColor" d="m67.51,688.56h19c2.21,0,4,1.79,4,4h0c0,2.21-1.79,4-4,4h-19v-8h0Z"/>
  <path class="redColor" d="m165.51,678.56h19c2.21,0,4,1.79,4,4h0c0,2.21-1.79,4-4,4h-19v-8h0Z"/>
  <path class="redColor" d="m165.51,688.56h19c2.21,0,4,1.79,4,4h0c0,2.21-1.79,4-4,4h-19v-8h0Z"/>
  <path class="redColor" d="m151.83,116.48h-26.32s-4.07-1-8.04,8.04c-3.96,9.04-24.96,35.04-20.96,46.04s10,13,10,13l4,62s0,5,4,5h55V116.56l-17.68-.07Z"/>
  <path class="patra_action_gradient_03" d="m293.51,540.56h-124l-10-437h20.96c18.25,0,33.04,14.79,33.04,33.04l80,403.96Z"/>
  <path class="skin04" d="m100.51,142.56s2-9-5-16-10-9-11-3-2,20,16,19Z"/>
  <rect class="darkBlueDark02" x="29.51" y="77.16" width="10" height="40.79" transform="translate(-18.46 8.66) rotate(-11.31)"/>
  <path class="pinkDark02" d="m115.74,197.56H51.25c-5.11,0-10.9-3.45-12.94-7.7L.71,111.26c-2.03-4.25.46-7.7,5.57-7.7h64.49c5.11,0,10.9,3.45,12.94,7.7l37.6,78.6c2.03,4.25-.46,7.7-5.57,7.7Z"/>
  <g>
    <path class="blueDimmed01" d="m154.51,43.21c0-2.01-1.63-3.65-3.65-3.65h-57.43c-2.01,0-3.65,1.63-3.65,3.65v12.53h0c0,.11,0,.22,0,.34,0,7.26,6.89,13.15,14.15,13.15s13.15-5.89,13.15-13.15c0-.11,0-.22,0-.34h.03c.18-3.19,1.81-4.73,5.05-4.73s4.88,1.54,5.05,4.73h.03c0,.11,0,.22,0,.34,0,7.26,5.89,13.15,13.15,13.15s14.15-5.89,14.15-13.15c0-.11,0-.22,0-.34h0v-12.53Z"/>
    <path class="blueDimmed02" d="m152.51,43.21c0-2.01-1.63-3.65-3.65-3.65h-57.43c-2.01,0-3.65,1.63-3.65,3.65v12.53h0c0,.11,0,.22,0,.34,0,7.26,6.89,13.15,14.15,13.15s13.15-5.89,13.15-13.15c0-.11,0-.22,0-.34h.03c.18-3.19,1.81-4.73,5.05-4.73s4.88,1.54,5.05,4.73h.03c0,.11,0,.22,0,.34,0,7.26,5.89,13.15,13.15,13.15s14.15-5.89,14.15-13.15c0-.11,0-.22,0-.34h0v-12.53Z"/>
  </g>
  <g>
    <path class="redDimmed01" d="m114.51,85.56s9.5,5.5,18-3c0,0-4.5,7-9,7.75-4.5.75-9-4.75-9-4.75Z"/>
    <path class="redDark012" d="m114.51,69.06s-.07,0-.11-.01c-.27-.06-.44-.32-.38-.59l3-14c.06-.27.32-.44.59-.38.27.06.44.32.38.59l-3,14c-.05.23-.26.4-.49.4Z"/>
    <path class="redDark012" d="m117.51,77.7c-1.37,0-2.97-.4-4.36-1.79-.2-.2-.2-.51,0-.71s.51-.2.71,0c2.7,2.7,6.27.98,6.42.91.25-.12.55-.02.67.23.12.25.02.55-.22.67-.02.01-1.43.69-3.22.69Z"/>
    <path class="redDark012" d="m121.71,87.78c-4.27,0-7.4-1.76-7.45-1.79-.24-.14-.32-.44-.18-.68.14-.24.44-.32.68-.18.38.22,9.28,5.2,17.4-2.92.2-.2.51-.2.71,0s.2.51,0,.71c-3.8,3.8-7.82,4.87-11.15,4.87Z"/>
    <path class="redDark012" d="m123.17,90.8c-1.67,0-2.89-.69-2.91-.7-.24-.14-.32-.44-.18-.68.14-.24.44-.32.68-.18.13.07,3.22,1.79,6.03-1.03.2-.2.51-.2.71,0s.2.51,0,.71c-1.47,1.47-3.03,1.89-4.32,1.89Z"/>
    <path class="redDark012" d="m168.01,58.56h-1c0-3.03,2.47-5.5,5.5-5.5v1c-2.48,0-4.5,2.02-4.5,4.5Z"/>
    <ellipse class="darkBlueDark02" cx="108.51" cy="61.56" rx="2" ry="3"/>
    <ellipse class="darkBlueDark02" cx="131.51" cy="61.56" rx="2" ry="3"/>
  </g>
  <path class="redDark01" d="m96.51,32.56s3-16,23-18,27.25-6.3,37.13-1.15,10.87,9.15,11.87,15.15,7,13-3,15-13,2.16-18.5-1.42c-5.5-3.58-14.5-9.76-15.5-14.17-1-4.41-8-3.41-8-3.41,0,0-35,25-27,8Z"/>
  <path class="redDark02" d="m173.09,43.06c.21-.37.36-.78.4-1.23.08-.86-.22-1.67-.76-2.27.18-.2.33-.42.45-.66.57-1.14.34-2.46-.46-3.35.48-.53.78-1.23.78-2,0-.49-.11-12.09-9.48-19.41-.22-.17-.44-.32-.67-.48-.09-.3-.22-.59-.41-.86C153.97.25,142.27-.96,133.09,1.39c-1.25-.54-2.55-.93-3.91-1.16-9.9-1.65-18.77,5.92-19.14,6.25-.5.43-.81.99-.95,1.58-3.22,1.69-5.78,3.89-7.36,5.72-.67.77-.86,1.78-.63,2.7-6.03,4.82-8.37,10.92-8.41,11.03-.34.91-.19,1.88.29,2.64-.72.91-1.4,1.83-2.01,2.78-.73,1.15-.57,2.6.28,3.58l-2.36,1.5c-1.23.79-1.7,2.32-1.18,3.63-.03,0-.06.02-.09.03-1.58.48-2.48,2.16-2,3.74.39,1.29,1.58,2.13,2.87,2.13.29,0,.58-.04.87-.13,23.63-7.19,35.01-21.41,35.49-22.02.77-.98.83-2.3.25-3.32h0c1.11-.7,1.58-2.01,1.3-3.22.57-.47.97-1.14,1.07-1.93,0-.04,0-.09,0-.13.06-.06.12-.11.18-.18-.18.54-.19,1.11-.06,1.64-.07.06-.15.11-.22.18-.76.76-1.02,1.83-.79,2.81-1.05.87-1.41,2.38-.77,3.65.13.27,12.2,23.78,35.91,23.78,2.98,0,6.15-.37,9.5-1.21,1.61-.4,2.58-2.03,2.18-3.64-.07-.28-.19-.53-.33-.77Zm-13.71-14.42l-19.38-9.69c7.88,1.46,14.6,5.73,19.38,9.69Zm-28.89-18.16c-.02-.58-.2-1.14-.53-1.62.75-.34,1.58-.67,2.48-.99.73.49,1.44,1.06,2.12,1.73-1.32.25-2.68.54-4.06.87Zm32.33,26.59c-8.41-2.36-16.03-6.84-21.63-10.81l21.63,10.81Zm3-10.83c-4.37-4.04-10.89-8.95-18.93-11.7,5.49.22,9.97,1.65,13.39,4.3,2.79,2.16,4.49,4.88,5.54,7.4Zm-15.93-17.48c-2.58-.29-5.36-.31-8.31-.09-.57-.81-1.16-1.55-1.77-2.25,3.2-.12,6.66.47,10.08,2.34Zm-34.81,12.61l-14.18,9.02c4.22-4.01,9.47-7.16,14.18-9.02Zm22.31,9.59c5.89,4.23,13.97,9.02,23.09,11.69-10.56-.42-18.24-6.32-23.09-11.69Z"/>
  <circle class="patra_action_gradient_01" cx="175.01" cy="73.06" r="5.5"/>
  <rect class="lightBlueDimmed02" x="194.51" y="436.56" width="55" height="9" transform="translate(376.9 -27.8) rotate(45)"/>
  <path class="skin04" d="m92.51,130.56s-.02.02-.06.04l-9.79-12.51c-1.36-1.74-3.88-2.05-5.62-.68-1.61,1.26-1.97,3.5-.95,5.2-1.05-.16-2.15.09-3.05.8-1.74,1.36-2.05,3.88-.68,5.62l.67.85c-1.29-.53-2.81-.39-3.98.53-1.74,1.36-2.05,3.88-.68,5.62l4.39,5.61c-.76.15-1.48.51-2.07,1.1-1.56,1.56-1.56,4.09,0,5.66l5.92,5.92c.86,8.61,7.91,11.26,7.91,11.26l11,10,19-22-22-23Z"/>
  <path class="blueDimmed02" d="m231.8,291.7c.13-.17.26-.35.39-.52.24-.35.46-.7.67-1.06.1-.16.2-.33.29-.49.2-.37.39-.74.57-1.12.09-.18.17-.36.25-.55.16-.36.29-.73.43-1.09.08-.22.16-.44.23-.67.11-.34.2-.68.29-1.02.07-.27.14-.53.19-.8.07-.32.12-.63.17-.95.05-.3.09-.59.13-.89.04-.32.05-.63.07-.95.02-.3.04-.59.04-.89,0-.35,0-.71-.02-1.06-.01-.26-.02-.51-.04-.77-.04-.43-.1-.86-.16-1.29-.02-.15-.03-.3-.06-.45l-.05-.28s0-.05-.01-.07l-25.99-147.37c-1.82-10.33-11.68-17.23-22.01-15.41h0c-10.33,1.82-17.23,11.68-15.41,22.01l15.58,88.38-76.89-76.89-26.87,26.87,119.5,119.5c.14.14.3.27.45.41.27.25.54.5.82.74.25.21.51.4.77.59.23.17.45.35.69.51.3.21.61.4.93.59.21.13.42.25.63.37.33.18.67.35,1,.51.22.1.44.21.66.31.33.14.66.27,1,.39.25.09.5.18.75.26.31.1.63.18.95.27.29.08.57.15.86.21.3.06.6.11.9.16.31.05.62.1.93.13.31.03.62.05.93.07.3.02.6.04.9.04.36,0,.71-.01,1.07-.02.25-.01.5-.02.75-.04.45-.04.9-.1,1.34-.17.14-.02.27-.03.41-.05h0s.06-.02.09-.02c.52-.09,1.04-.22,1.56-.36.09-.03.19-.04.28-.07.54-.15,1.07-.34,1.6-.54.06-.02.13-.04.19-.07.5-.2.99-.43,1.48-.67.08-.04.16-.07.23-.11.41-.21.8-.45,1.19-.69.14-.09.29-.17.44-.26.31-.2.6-.42.89-.64.21-.16.43-.3.63-.46.25-.2.48-.42.72-.64.23-.21.47-.4.69-.62.05-.05.1-.08.15-.13.2-.2.37-.41.56-.62.19-.2.38-.4.56-.61.25-.3.49-.61.72-.93Z"/>
  <polygon class="lightBlueDimmed02" points="161.06 171.33 159.51 101.56 185.51 96.56 177.19 108.96 183.51 113.69 161.06 171.33"/>
</svg>