<?xml version="1.0" encoding="UTF-8"?>
<svg id="Layer_1" data-name="Layer 1" xmlns="http://www.w3.org/2000/svg" xmlns:xlink="http://www.w3.org/1999/xlink" viewBox="0 0 418.24 646.13">
  <defs>
    <style>
      .white {
        fill: #fff;
      }

      .grey {
        fill: #ccc;
      }

      .outline{
        fill: #03112e;
      }
      
      .skin03 {
        fill: #e9c0ac;
      }

      .skin01Dark03 {
        fill: #d59174;
      }
    </style>
  </defs>
  <circle class="grey" cx="230.99" cy="72.39" r="5.4"/>
  <path class="skin03" d="m230.9,113.07l-2.53-.43c-6.99-1.19-13.65,3.48-14.87,10.44l-13.18,75.18-25-70.14c-.51-1.42-1.25-2.68-2.15-3.78,0,0-5.25-47.02-5.25-56.12,0,0,0-4.55-4.55-4.55-2.27,0-2.27,2.27-2.27,4.55s0,18.19,2.27,25.02c0,0-9.1-4.55-11.37,4.55,0,0-4.55-4.55-6.82,0,0,0-4.55-4.55-4.55,4.55,0,0-2.27,0-2.27,4.55s0,11.37,4.55,15.92l5.05,12.31h0c.12.87.32,1.75.63,2.61l42.95,120.48c2.37,6.65,9.74,10.09,16.45,7.68l2.43-.87c4.02-1.45,6.89-4.67,8.03-8.45.37-.88.66-1.8.83-2.78l22.07-125.96c1.22-6.96-3.46-13.56-10.45-14.75Z"/>
  <path class="mainColor" fill="var(--yellowColor)" d="m308.92,20.47c0-11.3-9.16-20.47-20.47-20.47-9.03,0-16.69,5.86-19.4,13.98-16.84-1.9-33.9,11.63-39.4,32.12-5.94,22.16,3.9,44.04,21.99,48.88,18.09,4.84,37.57-9.2,43.51-31.35,2.23-8.33,2.24-16.62.41-23.99,7.8-2.89,13.36-10.37,13.36-19.17Z"/>
  <path class="skin03" d="m297.55,45.48c-3.26,0-6.19,1.38-8.26,3.57-2.48-13.43-10.88-24.26-22.95-27.49-9.6-2.57-19.58.18-27.73,6.63-3.89,4.87-6.97,10.78-8.82,17.44-5.42.87-9.56,5.55-9.56,11.21,0,5.3,3.63,9.74,8.53,11,2.57,13.26,10.92,23.93,22.88,27.13,1.02.27,2.05.47,3.07.63l4.94,18.42,21.97-5.89-4.81-17.94c.87-.58,1.73-1.19,2.56-1.85,3.98-4.98,7.12-11.05,8.96-17.9.5-1.86.88-3.73,1.16-5.58,2.06,2.07,4.91,3.35,8.06,3.35,6.28,0,11.37-5.09,11.37-11.37s-5.09-11.37-11.37-11.37Z"/>
  <path class="white" d="m245.05,74.04s12.52,11.37,17.22-7.43"/>
  <path class="skin01Dark03" d="m250.72,67.03c-.11,0-.22-.02-.32-.05-.23-.07-5.57-1.81-5.57-6.9,0-4.55,4.72-14.63,4.92-15.06.25-.54.9-.77,1.44-.52.54.25.77.9.52,1.44-1.31,2.79-4.71,10.76-4.71,14.14s4.02,4.83,4.06,4.84c.57.18.89.78.71,1.35-.14.46-.57.76-1.03.76Z"/>
  <path class="skin01Dark03" d="m225.93,57.94c-.6,0-1.08-.48-1.08-1.08,0-3.72,3.03-6.75,6.75-6.75.6,0,1.08.48,1.08,1.08s-.48,1.08-1.08,1.08c-2.53,0-4.58,2.06-4.58,4.58,0,.6-.48,1.08-1.08,1.08Z"/>
  <path class="white" d="m247.77,52.77s.68-12.63-10.34-13.82c-11.02-1.19-24.95-2.7-24.95-2.7,0,0,4.79,18.15,12.9,19.03,8.11.88,17.64,2.43,22.38-2.5Z"/>
  <path class="white" d="m250.96,52.77s-.68-12.63,10.34-13.82c11.02-1.19,24.95-2.7,24.95-2.7,0,0-4.79,18.15-12.9,19.03-8.11.88-17.64,2.43-22.38-2.5Z"/>
  <path class="outline" d="m286.13,35.18l-24.95,2.7c-9.39,1.02-11,9.66-11.26,13.33-.36-.07-.74-.09-1.11-.04-.27-3.68-1.89-12.27-11.26-13.29l-24.95-2.7c-.59-.06-1.13.36-1.19.96s.36,1.13.96,1.19l24.95,2.7c9.85,1.07,9.4,12.22,9.37,12.69-.03.6.43,1.1,1.02,1.13.02,0,.04,0,.06,0,.16,0,.31-.04.45-.11.2-.04.4-.12.55-.27.48-.48,1.58.2,1.59.2l1.79,1.19-.11-2.14c-.02-.47-.48-11.63,9.37-12.69l24.95-2.7c.59-.06,1.02-.6.96-1.19s-.6-1.02-1.19-.96Z"/>
  <path class="outline" d="m239.41,46.58c1.06,0,1.92,1.14,1.92,2.56s-.86,2.56-1.92,2.56-1.92-1.14-1.92-2.56.86-2.56,1.92-2.56Z"/>
  <path class="outline" d="m262.04,46.58c1.06,0,1.92,1.14,1.92,2.56s-.86,2.56-1.92,2.56-1.92-1.14-1.92-2.56.86-2.56,1.92-2.56Z"/>
  <path class="skin01Dark03" d="m291.88,57.94c-.6,0-1.08-.48-1.08-1.08,0-3.72,3.03-6.75,6.75-6.75.6,0,1.08.48,1.08,1.08s-.48,1.08-1.08,1.08c-2.53,0-4.58,2.06-4.58,4.58,0,.6-.48,1.08-1.08,1.08Z"/>
  <g>
    <path class="mainColor" fill="var(--yellowColor)" d="m309.01,220.48c-5.2,0-10.21.78-14.94,2.22l-45.8,5.28s-6.18,3.92-10.62,11.78l-115.6,33.47c-5.94,1.72-11.08,4.85-15.18,8.92-4.53,3.59-8.24,8.33-10.65,14.02L15.75,486.2l65.67,27.8,74.69-176.4,62.39-18.06-53.7,43.64c-4.8,3.9-8.32,8.79-10.51,14.13-2.77,5.07-4.34,10.88-4.34,17.06v206.37h71.31v-191.56l117.71-95.64c12.95-9.32,21.4-24.52,21.4-41.7,0-28.37-22.99-51.36-51.36-51.36Z"/>
    <path class="skin03" d="m199.82,595.52l-2.07,46.28h-70.46s3.8-8.89,15.89-11.05c12.09-2.16,22.79-5.16,22.79-13.81s-.69-22.1-.69-22.1l34.54.69Z"/>
    <path class="mainColor" fill="var(--yellowColor)" d="m167.01,615.71c2.21.13,5.48,1.3,6.03,7.03.1,1,.89,1.78,1.85,1.78h22.9c1.03,0,1.87.89,1.87,1.98v17.66c0,1.09-.84,1.98-1.87,1.98h-71.89c-1.01,0-1.84-.84-1.87-1.9-.12-4.49.6-15.38,10.32-15.38,12.24,0,27.09-3.57,29.17-5.77,1.27-1.35,1.53-3.75,1.53-5.4,0-1.13.89-2.02,1.96-1.96Z"/>
    <path class="colorDark02" fill="var(--yellowDark02)"  d="m165.08,627.76c-.28,0-.55-.11-.76-.32l-4.32-4.32c-.42-.42-.42-1.11,0-1.53s1.11-.42,1.53,0l4.32,4.32c.42.42.42,1.11,0,1.53-.21.21-.49.32-.76.32Z"/>
    <path class="colorDark02" fill="var(--yellowDark02)" d="m162.92,629.92c-.28,0-.55-.11-.76-.32l-4.32-4.32c-.42-.42-.42-1.11,0-1.53s1.11-.42,1.53,0l4.32,4.32c.42.42.42,1.11,0,1.53-.21.21-.49.32-.76.32Z"/>
    <rect class="colorDimmed01" fill="var(--yellowDimmed01)" x="141.31" y="559.69" width="88.6" height="41.06" rx="9.47" ry="9.47"/>
    <path class="skin03" d="m81.98,497.47l-8.66,45.51-69.73-10.06s5.03-8.26,17.3-8.67c12.27-.41,23.3-1.85,24.53-10.42,1.24-8.56,2.47-21.98,2.47-21.98l34.08,5.62Z"/>
    <path class="mainColor" fill="var(--yellowColor)" d="m46.62,512.76c2.17.44,5.24,2.07,4.97,7.82-.05,1.01.63,1.89,1.57,2.02l22.66,3.27c1.02.15,1.72,1.14,1.57,2.22l-2.52,17.47c-.16,1.08-1.11,1.84-2.13,1.69l-71.15-10.27c-1-.14-1.7-1.09-1.58-2.15.53-4.46,2.79-15.14,12.41-13.75,12.12,1.75,27.32.33,29.69-1.55,1.45-1.15,2.05-3.49,2.29-5.13.17-1.11,1.17-1.87,2.22-1.66Z"/>
    <path class="colorDark02" fill="var(--yellowDark02)" d="m43.15,524.42c-.33,0-.65-.15-.87-.43l-3.66-4.9c-.36-.48-.26-1.15.22-1.51.48-.36,1.15-.26,1.51.22l3.66,4.9c.36.48.26,1.15-.22,1.51-.19.15-.42.22-.65.22Z"/>
    <path class="colorDark02" fill="var(--yellowDark02)" d="m40.7,526.25c-.33,0-.65-.15-.87-.43l-3.66-4.9c-.36-.48-.26-1.15.22-1.51.48-.36,1.16-.26,1.51.22l3.66,4.9c.36.48.26,1.15-.22,1.51-.19.15-.42.22-.65.22Z"/>
    <rect class="colorDimmed01" fill="var(--yellowDimmed01)" x="11.65" y="462.44" width="88.6" height="41.06" rx="9.47" ry="9.47" transform="translate(192.74 16.41) rotate(22.95)"/>
  </g>
  <path class="skin03" d="m263.43,126.35c11.75-2.41,22.56-14.18,24.82-26.7-6.08.24-13.08,1.1-20.59,3.07l-23.42,5.47c-1.12,12.51,7.28,20.6,19.18,18.16Z"/>
  <path class="skin03" d="m413.42,188.99l-87.23-79.68c-8.41,4.71-16.03,10.66-22.62,17.6l80.35,73.39-69.72,67.08c7.8,6.07,16.56,10.97,26.03,14.39l74.13-71.32c3.78-3.63,4.8-9.04,3.05-13.69-.38-2.89-1.69-5.66-4-7.77Z"/>
  <path class="colorDark02" fill="var(--yellowDark02)" d="m304.31,220.43c2.97-12.62,25.91-113.09,5.95-118.96,0,0-18.79-5.01-42.59,1.25l-41.74,9.75s-8.37,5.29-5.86,17.81c2.51,12.53,3.76,70.15,12.53,81.43,6.66,8.56,12.59,13.5,15.06,15.39-.63.4-8.83,5.82-13.08,16.58l2.01.79c3.7-9.39,10.81-14.58,12.07-15.44l55.93-6.45-.25-2.15h-.03Z"/>
  <path class="mainColor" fill="var(--yellowColor)" d="m370.37,144.78c-12.97-12.97-33.48-37.95-52.46-45.13-12.76-4.83-15.75-2.76-23.19-2.16,0,0-7.4,44.13-84.87,44.27l-9.52,54.34s-.3,2.17.95,5.93c.84,2.51,2.79,10.59,9.95,15.7,4.99,3.56,10.52,4.23,15.1,4.35,41.67-9.1,73.16-22.94,94.33-34.07,45.5-23.91,54.02-38.9,49.7-43.22Z"/>
  <path class="outline" d="m262.32,150.19s-.08,0-.12,0c-.49-.05-.88-.43-.95-.91l-6.48-43.22c-.09-.59.32-1.14.91-1.23.59-.09,1.14.32,1.23.91l5.88,39.22,17.97-45.93c.22-.56.84-.83,1.4-.61.56.22.83.84.61,1.4l-19.45,49.7c-.16.42-.57.69-1.01.69Z"/>
  <circle class="grey" cx="262.32" cy="157.75" r="8.64"/>
  <circle class="grey" cx="297.98" cy="72.39" r="5.4"/>
  <path class="skin01Dark03" d="m153.19,105.89c-.4,0-.78-.22-.97-.6-2.38-4.75-.1-9.41,0-9.61.27-.53.92-.75,1.45-.48.53.27.75.91.48,1.45h0s-1.88,3.92,0,7.68c.27.53.05,1.18-.48,1.45-.16.08-.32.11-.48.11Z"/>
  <path class="colorDark02" fill="var(--yellowDark02)" d="m257.4,289.29c.53-.27.75-.91.49-1.45-16.77-33.69-.27-56.83-.1-57.06.35-.48.25-1.16-.23-1.51-.48-.35-1.16-.25-1.51.23-.18.24-17.48,24.39-.1,59.31.13.26.35.44.61.53l-1.34-.26c-.56-.11-13.71-2.82-17.79-17.1-.16-.57-.76-.91-1.34-.74-.57.16-.91.76-.74,1.34,3.24,11.35,12.01,16.03,16.59,17.75l-112.49,31.84-65.04,145.25c-.24.54,0,1.18.54,1.43.14.06.29.09.44.09.41,0,.81-.24.99-.64l64.62-144.32,108.41-30.68-50.44,40.83c-.46.38-.54,1.06-.16,1.52.21.26.53.4.84.4.24,0,.48-.08.68-.24l54.37-44,.35-.1c.39-.11.65-.42.74-.78l1.71-1.38-.58-.11s0,0,0,0c.16,0,.33-.04.48-.11Z"/>
  <path class="colorDark02" fill="var(--yellowDark02)" d="m357.79,266.81l-17.14,13.97s-.03-.02-.05-.03c-9.24-3.34-17.9-8.12-25.74-14.23-.47-.37-1.15-.28-1.52.19-.37.47-.28,1.15.19,1.52,7.69,5.99,16.17,10.72,25.19,14.12l-139.07,113.36v163.98h2.16v-162.96l157.34-128.25-1.37-1.67Z"/>
</svg>