<?xml version="1.0" encoding="UTF-8"?>
<svg id="Layer_2" data-name="Layer 2" xmlns="http://www.w3.org/2000/svg" xmlns:xlink="http://www.w3.org/1999/xlink" viewBox="0 0 200 280.28">
  <defs>
    <style>
      .skinDark03 {
        fill: #dfa890;
      }

      .white {
        fill: #fff;
      }

      .victoria_profile_gradient_03 {
        fill: url(#victoria_profile_gradient_03);
      }

      .darkBlueDark02 {
        fill: #03112e;
      }

      .victoria_profile_gradient_07 {
        fill: url(#victoria_profile_gradient_07);
      }

      .victoria_profile_gradient_06 {
        fill: url(#victoria_profile_gradient_06);
      }

      .victoria_profile_gradient_02-2 {
        fill: url(#victoria_profile_gradient_02-2);
      }

      .skin03 {
        fill: #e9c0ac;
      }

      .victoria_profile_gradient_01 {
        fill: url(#victoria_profile_gradient_01);
      }

      .victoria_profile_gradient_05 {
        fill: url(#victoria_profile_gradient_05);
      }

      .victoria_profile_gradient_04 {
        fill: url(#victoria_profile_gradient_04);
      }

      .yellowColor {
        fill: #ffd300;
      }

      .victoria_profile_gradient_02 {
        fill: url(#victoria_profile_gradient_02);
      }

      .victoria_profile_gradient_08 {
        fill: url(#victoria_profile_gradient_08);
      }
    </style>
    <linearGradient id="victoria_profile_gradient_01" data-name="Degradado sin nombre 27" x1="100" y1="280.28" x2="100" y2="182.11" gradientUnits="userSpaceOnUse">
      <stop offset=".51" stop-color="#ce8015"/>
      <stop offset="1" stop-color="#e3ae3c"/>
    </linearGradient>
    <linearGradient id="victoria_profile_gradient_02" data-name="Degradado sin nombre 25" x1="148.93" y1="208.94" x2="200" y2="208.94" gradientUnits="userSpaceOnUse">
      <stop offset="0" stop-color="#d59174"/>
      <stop offset=".21" stop-color="#dda48a"/>
      <stop offset=".46" stop-color="#e3b39d"/>
      <stop offset=".72" stop-color="#e7bca8"/>
      <stop offset="1" stop-color="#e9c0ac"/>
    </linearGradient>
    <linearGradient id="victoria_profile_gradient_02-2" data-name="Degradado sin nombre 25" x1="25.08" y1="235.78" x2="25.08" y2="182.11" xlink:href="#victoria_profile_gradient_02"/>
    <linearGradient id="victoria_profile_gradient_03" data-name="Degradado sin nombre 16" x1="100.08" y1="182.11" x2="100.08" y2="130.73" gradientUnits="userSpaceOnUse">
      <stop offset="0" stop-color="#e9c0ac"/>
      <stop offset=".16" stop-color="#e6bba6"/>
      <stop offset=".36" stop-color="#e1ad96"/>
      <stop offset=".59" stop-color="#d7977b"/>
      <stop offset=".65" stop-color="#d59174"/>
    </linearGradient>
    <linearGradient id="victoria_profile_gradient_04" data-name="Degradado sin nombre 24" x1="22.02" y1="97.09" x2="55.96" y2="97.09" gradientUnits="userSpaceOnUse">
      <stop offset="0" stop-color="#e9c0ac"/>
      <stop offset=".28" stop-color="#e7bda8"/>
      <stop offset=".54" stop-color="#e3b39d"/>
      <stop offset=".78" stop-color="#dda48b"/>
      <stop offset="1" stop-color="#d59174"/>
    </linearGradient>
    <linearGradient id="victoria_profile_gradient_05" data-name="Degradado sin nombre 22" x1="156.53" y1="5.53" x2="121.45" y2="55.63" gradientUnits="userSpaceOnUse">
      <stop offset="0" stop-color="#ffd300"/>
      <stop offset=".27" stop-color="#fdcf01"/>
      <stop offset=".49" stop-color="#fac507"/>
      <stop offset=".7" stop-color="#f4b410"/>
      <stop offset=".75" stop-color="#f3af14"/>
    </linearGradient>
    <linearGradient id="victoria_profile_gradient_06" x1="-1421.73" y1="13648.32" x2="-1402.46" y2="13648.32" gradientTransform="translate(13686.54 1534.72) rotate(90)" gradientUnits="userSpaceOnUse">
      <stop offset="0" stop-color="#fff"/>
      <stop offset="1" stop-color="#ccc"/>
    </linearGradient>
    <linearGradient id="victoria_profile_gradient_07" y1="13527.06" y2="13527.06" xlink:href="#victoria_profile_gradient_06"/>
    <linearGradient id="victoria_profile_gradient_08" x1="-1309.8" y1="13587.16" x2="-1290.53" y2="13587.16" xlink:href="#victoria_profile_gradient_06"/>
  </defs>
  <path class="victoria_profile_gradient_01" d="m48.93,182.11h102.14c27.02,0,48.93,21.91,48.93,48.93v.31c0,27.02-21.91,48.93-48.93,48.93H48.93c-27.02,0-48.93-21.91-48.93-48.93v-.31c0-27.02,21.91-48.93,48.93-48.93Z"/>
  <path class="skin03" d="m71.87,182.57c0,15.2,12.32,27.52,27.52,27.52s27.52-12.32,27.52-27.52c0-.15-.02-.3-.02-.46h-55c0,.15-.02.3-.02.46Z"/>
  <path class="victoria_profile_gradient_02" d="m151.07,182.11h-2.14v53.67h50.85c.13-1.46.22-2.94.22-4.43v-.31c0-27.02-21.91-48.93-48.93-48.93Z"/>
  <path class="victoria_profile_gradient_02-2" d="m50.15,182.11h-1.22C21.91,182.11,0,204.02,0,231.04v.31c0,1.5.09,2.97.22,4.43h49.93v-53.67Z"/>
  <path class="yellowColor" d="m154.42,182.28c-.69,12.53-5.16,37.21-29.34,42.8-31.11,7.19-99.86,5.23-122.38-9.94C.98,220.13,0,225.47,0,231.04v.31C0,258.37,21.91,280.28,48.93,280.28h102.14c27.02,0,48.93-21.91,48.93-48.93v-.31c0-25.89-20.13-47.03-45.58-48.76Z"/>
  <path class="victoria_profile_gradient_03" d="m78.29,130.73h43.58v51.38h-43.58v-51.38Z"/>
  <path class="victoria_profile_gradient_04" d="m38.99,80.12c9.37,0,16.97,7.6,16.97,16.97s-7.6,16.97-16.97,16.97-16.97-7.6-16.97-16.97,7.6-16.97,16.97-16.97Z"/>
  <path class="victoria_profile_gradient_05" d="m138.99,0c16.89,0,30.58,13.69,30.58,30.58s-13.69,30.58-30.58,30.58-30.58-13.69-30.58-30.58S122.1,0,138.99,0Z"/>
  <path class="yellowColor" d="m105.25,23.5c29.95,2.62,52.1,29.02,49.48,58.97l-2.53,28.94c-2.62,29.95-29.02,52.1-58.97,49.48-29.95-2.62-52.1-29.02-49.48-58.97l2.53-28.94c2.62-29.95,29.02-52.1,58.97-49.48Z"/>
  <path class="victoria_profile_gradient_06" d="m47.86,122.63c0,5.32-4.31,9.63-9.63,9.63s-9.63-4.31-9.63-9.63,4.31-9.63,9.63-9.63,9.63,4.31,9.63,9.63Z"/>
  <path class="skin03" d="m159.48,80.12c-4.78,0-9.09,1.98-12.18,5.17-5.54-21.81-24.33-38.77-48.02-40.84-22.63-1.98-43.21,10.19-53.06,29.18l-2.48,28.3c-2.62,29.95,19.53,56.35,49.48,58.97,22.63,1.98,43.21-10.19,53.06-29.18l1.92-21.96c3,2.67,6.94,4.31,11.27,4.31,9.37,0,16.97-7.6,16.97-16.97s-7.6-16.97-16.97-16.97Z"/>
  <path class="victoria_profile_gradient_07" d="m169.11,122.63c0,5.32-4.31,9.63-9.63,9.63s-9.63-4.31-9.63-9.63,4.31-9.63,9.63-9.63,9.63,4.31,9.63,9.63Z"/>
  <path class="white" d="m90.92,98.27s1.04-19.25-15.75-21.06c-16.79-1.82-38.02-4.12-38.02-4.12,0,0,7.3,27.66,19.66,28.99,12.36,1.34,26.87,3.7,34.11-3.81Z"/>
  <path class="white" d="m95.78,98.27s-1.04-19.25,15.75-21.06c16.79-1.82,38.02-4.12,38.02-4.12,0,0-7.3,27.66-19.66,28.99-12.36,1.34-26.87,3.7-34.11-3.81Z"/>
  <polygon class="darkBlueDark02" points="99 227.97 76.18 182.01 78.87 180.68 99.17 221.57 122.24 180.61 124.85 182.08 99 227.97"/>
  <path class="victoria_profile_gradient_08" d="m109.02,234.56c0,5.32-4.31,9.63-9.63,9.63s-9.63-4.31-9.63-9.63,4.31-9.63,9.63-9.63,9.63,4.31,9.63,9.63Z"/>
  <path class="darkBlueDark02" d="m76.15,88.23c1.27,0,2.29,1.03,2.29,2.29v3.06c0,1.27-1.03,2.29-2.29,2.29s-2.29-1.03-2.29-2.29v-3.06c0-1.27,1.03-2.29,2.29-2.29Z"/>
  <path class="skinDark03" d="m150.99,98.59c-.83,0-1.5-.67-1.5-1.5,0-5.51,4.48-9.99,9.98-9.99.83,0,1.5.67,1.5,1.5s-.67,1.5-1.5,1.5c-3.85,0-6.99,3.14-6.99,6.99,0,.83-.67,1.5-1.5,1.5Z"/>
  <path class="darkBlueDark02" d="m110.7,88.23c1.27,0,2.29,1.03,2.29,2.29v3.06c0,1.27-1.03,2.29-2.29,2.29s-2.29-1.03-2.29-2.29v-3.06c0-1.27,1.03-2.29,2.29-2.29Z"/>
  <path class="skinDark03" d="m94.19,132.84c-10.48,0-12.5-4.12-12.7-4.59-.32-.76.04-1.64.81-1.96.75-.3,1.6.03,1.94.75.09.15,1.78,2.8,9.96,2.8s10.24-3.38,10.26-3.41c.36-.73,1.24-1.05,1.98-.71.74.34,1.08,1.19.76,1.93-.23.53-2.53,5.19-13,5.19Z"/>
  <path class="skinDark03" d="m95.41,119.85c-.15,0-.3-.02-.45-.07-.34-.11-8.39-2.72-8.39-10.38,0-6.9,7.18-22.23,7.48-22.88.35-.75,1.24-1.07,2-.72.75.35,1.07,1.24.72,1.99-.07.15-7.2,15.37-7.2,21.6,0,5.45,6.04,7.44,6.29,7.52.79.25,1.22,1.09.97,1.88-.2.64-.79,1.05-1.43,1.05Z"/>
  <path class="darkBlueDark02" d="m90.92,99.77s-.05,0-.08,0c-.83-.04-1.46-.75-1.42-1.57.04-.73.75-17.85-14.41-19.5l-38.01-4.12c-.82-.09-1.42-.83-1.33-1.65.09-.82.84-1.42,1.65-1.33l38.01,4.12c17.99,1.95,17.1,22.43,17.09,22.64-.04.8-.71,1.42-1.5,1.42Z"/>
  <path class="darkBlueDark02" d="m97.44,101.18l-2.49-1.66s-1.78-1.12-2.6-.29c-.59.59-1.53.59-2.12,0-.59-.59-.59-1.53,0-2.12,1.23-1.23,2.76-1.35,4.1-1.05.35-5.45,2.69-18.78,17.04-20.34l38.01-4.12.32,2.98-38.01,4.12c-15.2,1.65-14.45,18.77-14.41,19.49l.16,2.99Z"/>
</svg>