<?xml version="1.0" encoding="UTF-8"?>
<svg id="Layer_1" data-name="Layer 1" xmlns="http://www.w3.org/2000/svg" viewBox="0 0 266.97 772">
  <defs>
    <style>
      .skin01Dark03 {
        fill: #dfa890;
      }

      .white {
        fill: #fff;
      }

      .outline {
        fill: #03112e;
      }

      .skin03 {
        fill: #e9c0ac;
      }

      .grey {
        fill: #ccc;
      }

    </style>
  </defs>
  <path class="skin03" d="m249.62,274.09l-24.29-138.63c-1.34-7.66-8.67-12.8-16.36-11.49l-2.79.47c-7.69,1.31-12.84,8.58-11.5,16.24l23.71,135.31-20.25,138.85c-1.12,7.69,4.26,14.86,12.03,16.02l2.81.42c7.77,1.15,14.97-4.15,16.09-11.84l20.32-139.29c.01-.1.02-.19.03-.29.45-1.83.55-3.78.2-5.76Z"/>
  <path class="mainColor" fill="var(--yellowColor)" d="m238.43,489.64v-187.89c0-3.5-.46-6.88-1.32-10.11-3.68-27.66-27.35-49-56.01-49-8.21,0-16.01,1.76-23.05,4.91l-21.39-2.47c-5.21-1.59-10.73-2.45-16.45-2.45-31.22,0-56.53,25.31-56.53,56.53,0,9.86,2.53,19.12,6.96,27.18v163.28c0,.89.04,1.77.1,2.64-.06.87-.1,1.75-.1,2.64v227.13h78.48v-227.13c0-.89-.04-1.77-.1-2.64.06-.87.1-1.75.1-2.64v-132.42h10.82v132.42c0,.89.04,1.77.1,2.64-.06.87-.1,1.75-.1,2.64v227.13h78.48v-227.13c0-.89-.04-1.77-.1-2.64.06-.87.1-1.75.1-2.64Z"/>
  <path class="skin03" d="m221.57,715.55s-.76,14.8-.76,24.33,11.79,12.83,25.09,15.2c13.3,2.38,17.48,12.16,17.48,12.16h-77.54s-2.28-50.93-2.28-50.93l38.01-.76Z"/>
  <path class="mainColor" fill="var(--yellowColor)" d="m219.66,738.52c-2.43.14-6.03,1.43-6.64,7.74-.11,1.1-.98,1.96-2.03,1.96h-25.2c-1.13,0-2.05.97-2.05,2.18v19.43c0,1.2.92,2.18,2.05,2.18h79.12c1.11,0,2.02-.92,2.05-2.1.13-4.95-.66-16.93-11.36-16.93-13.48,0-29.82-3.93-32.1-6.35-1.4-1.48-1.68-4.12-1.69-5.94,0-1.24-.98-2.22-2.15-2.15Z"/>
  <path class="colorDark02" fill="var(--yellowDark02)" d="m221.79,751.78c-.3,0-.61-.12-.84-.35-.46-.46-.46-1.22,0-1.68l4.76-4.76c.46-.46,1.22-.46,1.68,0,.46.46.46,1.22,0,1.68l-4.76,4.76c-.23.23-.54.35-.84.35Z"/>
  <path class="colorDark02" fill="var(--yellowDark02)" d="m224.17,754.16c-.3,0-.61-.12-.84-.35-.46-.46-.46-1.22,0-1.68l4.76-4.76c.46-.46,1.22-.46,1.68,0,.46.46.46,1.22,0,1.68l-4.76,4.76c-.23.23-.54.35-.84.35Z"/>
  <circle class="grey" cx="206.08" cy="79.67" r="5.95"/>
  <path class="mainColor" fill="var(--yellowColor)" d="m207.55,50.74c-6.05-22.54-24.82-37.43-43.35-35.35-2.99-8.94-11.42-15.39-21.36-15.39-12.44,0-22.53,10.09-22.53,22.53,0,9.69,6.12,17.95,14.7,21.13-2.01,8.1-2,17.22.46,26.38,6.54,24.38,27.98,39.83,47.89,34.51,19.91-5.33,30.74-29.41,24.2-53.8Z"/>
  <path class="colorDark02" fill="var(--yellowDark02)" d="m118.83,111.67s20.68-5.51,46.88,1.38l45.94,10.73s9.21,5.82,6.45,19.61c-2.76,13.79-4.14,77.21-13.79,89.62-9.65,12.41-17.92,17.92-17.92,17.92l-60.66-6.89s-30.33-125.46-6.89-132.35Z"/>
  <path class="skin03" d="m207.4,50.23c-2.04-7.33-5.42-13.84-9.71-19.2-8.97-7.1-19.96-10.12-30.52-7.3-13.29,3.56-22.52,15.47-25.26,30.25-2.28-2.42-5.51-3.93-9.09-3.93-6.91,0-12.51,5.6-12.51,12.51s5.6,12.51,12.51,12.51c3.47,0,6.6-1.41,8.87-3.69.31,2.04.73,4.09,1.28,6.14,2.02,7.54,5.47,14.22,9.86,19.7.92.73,1.86,1.4,2.82,2.04l-3.01,11.22c-3.37-.44-6.59-.71-9.59-.83,2.49,13.78,14.39,26.74,27.32,29.38,13.1,2.68,22.34-6.22,21.11-19.99l-14.33-3.35,2.81-10.5c1.13-.17,2.26-.39,3.38-.69,13.17-3.52,22.36-15.26,25.18-29.86,5.4-1.39,9.39-6.28,9.39-12.11,0-6.23-4.56-11.39-10.52-12.34Z"/>
  <path class="skin01Dark03" d="m181.84,84.36c-.09,0-.18,0-.27,0-3.54-.1-7.17-2.18-10.8-6.18-.44-.49-.41-1.24.08-1.68.49-.44,1.24-.4,1.68.08,3.13,3.45,6.28,5.32,9.11,5.4,2.56.08,4.06-1.32,4.07-1.34.47-.46,1.22-.45,1.68.02.46.47.45,1.22-.02,1.68-.09.08-2.1,2.02-5.54,2.02Z"/>
  <path class="skin01Dark03" d="m184.36,73.78c-.51,0-.97-.33-1.13-.83-.2-.63.15-1.29.78-1.49h0c.18-.06,4.47-1.48,4.47-5.33s-3.75-12.49-5.19-15.56c-.28-.59-.02-1.3.57-1.58.6-.28,1.3-.02,1.58.57.22.47,5.41,11.56,5.41,16.57,0,5.61-5.88,7.52-6.13,7.6-.12.04-.24.05-.36.05Z"/>
  <path class="skin01Dark03" d="m211.64,63.76c-.66,0-1.19-.53-1.19-1.19,0-2.78-2.26-5.05-5.05-5.05-.66,0-1.19-.53-1.19-1.19s.53-1.19,1.19-1.19c4.09,0,7.42,3.33,7.42,7.42,0,.66-.53,1.19-1.19,1.19Z"/>
  <path class="white" d="m212.24,60.84c8.92-.97,14.2-20.94,14.2-20.94,0,0-15.33,1.66-27.46,2.97-12.13,1.31-11.37,15.21-11.37,15.21,5.23,5.43,15.71,3.72,24.63,2.75Z"/>
  <path class="white" d="m159.46,60.84c-8.92-.97-14.2-20.94-14.2-20.94,0,0,15.33,1.66,27.46,2.97,12.13,1.31,11.37,15.21,11.37,15.21-5.23,5.43-15.71,3.72-24.63,2.75Z"/>
  <path class="outline" d="m226.31,38.71l-27.46,2.97c-10.31,1.12-12.1,10.57-12.39,14.63-.41-.06-.83-.04-1.22.04-.28-4.03-2.05-13.55-12.39-14.67l-27.46-2.97c-.65-.07-1.24.4-1.31,1.05s.4,1.24,1.05,1.31l27.46,2.97c10.85,1.17,10.34,13.45,10.32,13.97l-.12,2.36,1.97-1.31s1.22-.74,1.75-.22c.17.17.38.26.61.3.15.07.32.12.5.12.02,0,.04,0,.06,0,.66-.03,1.16-.59,1.12-1.25-.03-.52-.53-12.79,10.32-13.97l27.46-2.97c.65-.07,1.12-.66,1.05-1.31s-.66-1.13-1.31-1.05Z"/>
  <path class="outline" d="m198.92,54.08c0,1.55-.95,2.81-2.11,2.81-1.17,0-2.11-1.26-2.11-2.81,0-1.55.95-2.81,2.11-2.81s2.11,1.26,2.11,2.81Z"/>
  <path class="outline" d="m174.02,54.08c0,1.55-.95,2.81-2.11,2.81-1.17,0-2.11-1.26-2.11-2.81,0-1.55.95-2.81,2.11-2.81s2.11,1.26,2.11,2.81Z"/>
  <path class="skin01Dark03" d="m139.06,63.76c-.66,0-1.19-.53-1.19-1.19,0-2.78-2.26-5.05-5.05-5.05-.66,0-1.19-.53-1.19-1.19s.53-1.19,1.19-1.19c4.09,0,7.42,3.33,7.42,7.42,0,.66-.53,1.19-1.19,1.19Z"/>
  <path class="skin03" d="m132.26,715.55s-.76,14.8-.76,24.33,11.79,12.83,25.09,15.2c13.3,2.38,17.48,12.16,17.48,12.16h-77.54s-2.28-50.93-2.28-50.93l38.01-.76Z"/>
  <path class="mainColor" fill="var(--yellowColor)" d="m130.36,738.52c-2.43.14-6.03,1.43-6.64,7.74-.11,1.1-.98,1.96-2.03,1.96h-25.2c-1.13,0-2.05.97-2.05,2.18v19.43c0,1.2.92,2.18,2.05,2.18h79.12c1.11,0,2.02-.92,2.05-2.1.13-4.95-.66-16.93-11.36-16.93-13.48,0-29.82-3.93-32.1-6.35-1.4-1.48-1.68-4.12-1.69-5.94,0-1.24-.98-2.22-2.15-2.15Z"/>
  <path class="colorDark02" fill="var(--yellowDark02)" d="m132.48,751.78c-.3,0-.61-.12-.84-.35-.46-.46-.46-1.22,0-1.68l4.76-4.76c.46-.46,1.22-.46,1.68,0s.46,1.22,0,1.68l-4.76,4.76c-.23.23-.54.35-.84.35Z"/>
  <path class="colorDark02" fill="var(--yellowDark02)" d="m134.86,754.16c-.3,0-.61-.12-.84-.35-.46-.46-.46-1.22,0-1.68l4.76-4.76c.46-.46,1.22-.46,1.68,0,.46.46.46,1.22,0,1.68l-4.76,4.76c-.23.23-.54.35-.84.35Z"/>
  <path class="colorDimmed01" fill="var(--yellowDimmed01)" d="m237.52,676.87h-76.66c-2.38,0-4.57.81-6.32,2.15-1.75-1.34-3.94-2.15-6.32-2.15h-76.66c-5.76,0-10.42,4.67-10.42,10.42v24.34c0,5.76,4.67,10.42,10.42,10.42h76.66c2.38,0,4.57-.81,6.32-2.15,1.75,1.34,3.94,2.15,6.32,2.15h76.66c5.76,0,10.42-4.67,10.42-10.42v-24.34c0-5.76-4.67-10.42-10.42-10.42Z"/>
  <path class="skin03" d="m5.3,208l96.01-87.7c9.26,5.18,17.64,11.73,24.89,19.37l-88.43,80.78,76.73,73.82c-8.59,6.68-18.23,12.07-28.65,15.84L4.27,231.61c-4.16-4-5.28-9.95-3.36-15.06.42-3.18,1.86-6.23,4.4-8.55Z"/>
  <path class="mainColor" fill="var(--yellowColor)" d="m52.68,159.35c14.27-14.27,36.85-41.77,57.74-49.67,14.05-5.31,17.34-3.04,25.52-2.38,0,0,8.15,48.57,93.41,48.73l10.48,59.81s.33,2.39-1.05,6.52c-.92,2.76-3.07,11.66-10.95,17.28-5.5,3.92-11.57,4.66-16.62,4.78-45.86-10.01-80.52-25.25-103.82-37.5-50.08-26.32-59.46-42.81-54.7-47.57Z"/>
  <path class="colorDark02" fill="var(--yellowDark02)" d="m85.86,311.3c-.49,0-.94-.3-1.12-.79-.22-.62.1-1.3.71-1.52,10.17-3.67,19.7-8.94,28.32-15.66.52-.4,1.27-.31,1.67.21.4.52.31,1.27-.21,1.67-8.83,6.87-18.57,12.26-28.98,16.02-.13.05-.27.07-.4.07Z"/>
  <path class="outline" d="m171.59,165.29c-.48,0-.93-.3-1.11-.76l-21.4-54.7c-.24-.61.06-1.3.67-1.54.61-.24,1.3.06,1.54.67l19.78,50.55,6.47-43.16c.1-.65.71-1.1,1.35-1,.65.1,1.1.7,1,1.35l-7.13,47.57c-.08.53-.51.95-1.04,1.01-.04,0-.09,0-.13,0Z"/>
  <circle class="grey" cx="171.6" cy="173.62" r="9.51"/>
  <circle class="grey" cx="132.35" cy="79.67" r="5.95"/>
</svg>