<?xml version="1.0" encoding="UTF-8"?>
<svg id="Layer_2" data-name="Layer 2" xmlns="http://www.w3.org/2000/svg" viewBox="0 0 607.22 469.53">
  <defs>
    <style>
      .cls-1 {
        fill: #dfa890;
      }

      .cls-2 {
        fill: #9572e8;
      }

      .cls-3 {
        fill: #e9c0ac;
      }

      .cls-4 {
        fill: #03112e;
      }

      .cls-5 {
        fill: #6ba9b8;
      }

      .cls-6 {
        fill: #625b72;
      }

      .cls-7 {
        fill: #7a69a4;
      }

      .cls-8 {
        fill: #48717b;
      }

      .cls-9 {
        fill: #8fe1f5;
      }
    </style>
  </defs>
  <path class="cls-5" d="m287.95,93.75c-6.77,0-12.28-5.51-12.28-12.28s5.51-12.28,12.28-12.28,12.28,5.51,12.28,12.28-5.51,12.28-12.28,12.28Zm0-22.52c-5.64,0-10.24,4.59-10.24,10.24s4.59,10.24,10.24,10.24,10.24-4.59,10.24-10.24-4.59-10.24-10.24-10.24Z"/>
  <g>
    <path class="cls-5" d="m438.54,321.01l36.64-26.94,46.96,63.89c.78,1.06.55,2.55-.51,3.33l-2.57,1.89c-2,1.47-4.78,1.2-6.44-.64-4.64-5.15-15.54-14.66-34.6-17.57,0,0-6.49-.99-16.96,6.71h0s-22.54-30.66-22.54-30.66Z"/>
    <path class="cls-5" d="m522.88,336.83l36.45-27.19,47.41,63.56c.79,1.05.57,2.54-.48,3.33l-2.55,1.91c-1.99,1.48-4.77,1.23-6.44-.6-4.68-5.12-15.64-14.55-34.72-17.33,0,0-6.49-.95-16.91,6.82h0s-22.75-30.5-22.75-30.5Z"/>
    <path class="cls-9" d="m530.66,327.87l-93.61,65.13-.49-12.4,33.32-25.38-29.13-38.26-6.5,4.95-2.99-76.21c-.81-20.71-27.82-37.24-60.86-37.24h-12.99c-33.04,0-60.05,16.53-60.86,37.24l-6.71,188.55c-.41,10.6,5.44,19.88,14.15,24.45,8.41,6.72,20.61,7.15,29.56.33l45.34-34.53.8,20.27h0c-.15,4.97,1.24,10.03,4.3,14.42,7.58,10.9,22.57,13.59,33.47,6l140.66-97.88-27.46-39.47Zm-179.76,57.53l2.64-71.53h21.02l2.04,51.96-25.69,19.56Z"/>
  </g>
  <g>
    <g>
      <path class="cls-5" d="m320.37,73.33h0v8.46h-3.76v-4.7c0-2.08,1.68-3.76,3.76-3.76Z" transform="translate(41.85 253.42) rotate(-46.13)"/>
      <path class="cls-8" d="m322.6,75.83h3.76v8.46h0c-2.08,0-3.76-1.68-3.76-3.76v-4.7h0Z" transform="translate(502.92 362.64) rotate(-136.13)"/>
      <path class="cls-8" d="m320.26,68.02h0v8.46h-3.76v-4.7c0-2.08,1.68-3.76,3.76-3.76Z" transform="translate(45.65 251.71) rotate(-46.13)"/>
      <path class="cls-5" d="m322.49,70.51h3.76v8.46h0c-2.08,0-3.76-1.68-3.76-3.76v-4.7h0Z" transform="translate(506.42 353.42) rotate(-136.13)"/>
      <path class="cls-5" d="m320.58,83.87h0v8.46h-3.76v-4.7c0-2.08,1.68-3.76,3.76-3.76Z" transform="translate(34.33 256.8) rotate(-46.13)"/>
      <path class="cls-8" d="m322.8,86.36h3.76v8.46h0c-2.08,0-3.76-1.68-3.76-3.76v-4.7h0Z" transform="translate(495.98 380.91) rotate(-136.13)"/>
      <path class="cls-8" d="m320.47,78.55h0v8.46h-3.76v-4.7c0-2.08,1.68-3.76,3.76-3.76Z" transform="translate(38.12 255.09) rotate(-46.13)"/>
      <path class="cls-5" d="m322.7,81.05h3.76v8.46h0c-2.08,0-3.76-1.68-3.76-3.76v-4.7h0Z" transform="translate(499.48 371.69) rotate(-136.13)"/>
      <path class="cls-5" d="m320.79,94.49h0v8.46h-3.76v-4.7c0-2.08,1.68-3.76,3.76-3.76Z" transform="translate(26.73 260.21) rotate(-46.13)"/>
      <path class="cls-8" d="m323.01,96.98h3.76v8.46h0c-2.08,0-3.76-1.68-3.76-3.76v-4.7h0Z" transform="translate(488.98 399.34) rotate(-136.13)"/>
      <path class="cls-8" d="m320.68,89.18h0v8.46h-3.76v-4.7c0-2.08,1.68-3.76,3.76-3.76Z" transform="translate(30.53 258.51) rotate(-46.13)"/>
      <path class="cls-5" d="m322.91,91.67h3.76v8.46h0c-2.08,0-3.76-1.68-3.76-3.76v-4.7h0Z" transform="translate(492.48 390.12) rotate(-136.13)"/>
    </g>
    <g>
      <path class="cls-5" d="m354.35,65.2h0v8.46h-3.76v-4.7c0-2.08,1.68-3.76,3.76-3.76Z" transform="translate(200.58 394.99) rotate(-76.13)"/>
      <path class="cls-8" d="m357.03,64.37h3.76v8.46h0c-2.08,0-3.76-1.68-3.76-3.76v-4.7h0Z" transform="translate(690.91 221.23) rotate(-166.13)"/>
      <path class="cls-8" d="m351.61,60.66h0v8.46h-3.76v-4.7c0-2.08,1.68-3.76,3.76-3.76Z" transform="translate(202.9 388.87) rotate(-76.13)"/>
      <path class="cls-5" d="m354.28,59.82h3.76v8.46h0c-2.08,0-3.76-1.68-3.76-3.76v-4.7h0Z" transform="translate(686.58 211.61) rotate(-166.13)"/>
      <path class="cls-5" d="m359.8,74.22h0v8.46h-3.76v-4.7c0-2.08,1.68-3.76,3.76-3.76Z" transform="translate(195.96 407.13) rotate(-76.13)"/>
      <path class="cls-8" d="m362.47,73.39h3.76v8.46h0c-2.08,0-3.76-1.68-3.76-3.76v-4.7h0Z" transform="translate(699.48 240.3) rotate(-166.13)"/>
      <path class="cls-8" d="m357.05,69.67h0v8.46h-3.76v-4.7c0-2.08,1.68-3.76,3.76-3.76Z" transform="translate(198.29 401.01) rotate(-76.13)"/>
      <path class="cls-5" d="m359.73,68.84h3.76v8.46h0c-2.08,0-3.76-1.68-3.76-3.76v-4.7h0Z" transform="translate(695.16 230.68) rotate(-166.13)"/>
      <path class="cls-5" d="m365.29,83.32h0v8.46h-3.76v-4.7c0-2.08,1.68-3.76,3.76-3.76Z" transform="translate(191.31 419.38) rotate(-76.13)"/>
      <path class="cls-8" d="m367.97,82.48h3.76v8.46h0c-2.08,0-3.76-1.68-3.76-3.76v-4.7h0Z" transform="translate(708.13 259.55) rotate(-166.13)"/>
      <path class="cls-8" d="m362.55,78.77h0v8.46h-3.76v-4.7c0-2.08,1.68-3.76,3.76-3.76Z" transform="translate(193.64 413.26) rotate(-76.13)"/>
      <path class="cls-5" d="m365.22,77.93h3.76v8.46h0c-2.08,0-3.76-1.68-3.76-3.76v-4.7h0Z" transform="translate(703.8 249.93) rotate(-166.13)"/>
    </g>
  </g>
  <path class="cls-3" d="m321.89,102.77h0c-8.67-4.43-19.29-1-23.73,7.67l-64.86,126.82-94.76,65.2,2.89,4.2-10.28,6.53c-2.98-.54-7.75-.65-12.45,2.49-4.37,2.92-7,4.94-7.48,6.51-.75.52-1.34,1.29-1.58,2.25l-.49,1.95-9.14,4.61c-2.8,1.41-3.92,4.82-2.51,7.62.86,1.7,2.45,2.77,4.2,3.05.09.57.26,1.14.54,1.68,1,1.98,3,3.12,5.07,3.12,0,0,.02,0,.02,0,.08.61.26,1.21.55,1.79,1,1.98,3,3.12,5.07,3.12.86,0,1.73-.2,2.55-.61l3.8-1.92c.07.12.14.24.21.36,1.09,1.64,2.89,2.53,4.72,2.53,1.08,0,2.18-.31,3.14-.96l17.47-11.66c.8-.53,1.41-1.23,1.84-2.02,3.73-1.5,5.5-4.32,5.5-4.32l4.78-3.53,1.56,2.27,97.14-66.84c2.37-1.63,4.12-3.83,5.21-6.29,1.37-1.13,2.53-2.55,3.39-4.23l65.28-127.65c4.43-8.67,1-19.29-7.67-23.73Z"/>
  <ellipse class="cls-8" cx="314.87" cy="46.48" rx="40.8" ry="46.6" transform="translate(-3.41 47.24) rotate(-8.53)"/>
  <ellipse class="cls-3" cx="313.72" cy="53.16" rx="37.03" ry="41.3" transform="translate(-4.42 47.15) rotate(-8.53)"/>
  <rect class="cls-3" x="322.77" y="58.76" width="30.63" height="56.61" transform="translate(-8.95 49.01) rotate(-8.18)"/>
  <path class="cls-5" d="m350.45,89.95c-19.34,3.2-30.75,9.45-30.75,9.45,0,0-3.88-.39-6.3,8.56-2.43,8.95-18.23,35.99-13.08,45.72,5.15,9.73,10.93,10.81,10.93,10.81l14.59,54.72s.67,4.66,4.35,4.14c3.67-.53,64.74-10.06,64.74-10.06l-7.82-120.13c-.15-1.81-1.78-3.13-3.55-2.88,0,0-13.74-3.54-33.1-.33Z"/>
  <path class="cls-1" d="m305.65,79.29c-1.53,0-2.52-.21-2.56-.21-.7-.15-1.14-.85-.99-1.55.15-.7.85-1.14,1.54-.99.38.08,9.06,1.81,13.64-7.06.33-.64,1.11-.89,1.75-.56.64.33.89,1.11.56,1.75-3.86,7.48-10.36,8.62-13.94,8.62Z"/>
  <ellipse class="cls-4" cx="288.43" cy="60.13" rx="1.86" ry="2.78" transform="translate(-4.63 90.5) rotate(-17.69)"/>
  <ellipse class="cls-4" cx="308.77" cy="53.64" rx="1.86" ry="2.78" transform="translate(-1.7 96.38) rotate(-17.69)"/>
  <path class="cls-8" d="m275.14,55.7c1.25-4.65,3.34-9.15,6.41-13.21,13.1-17.4,38.21-20.61,56.08-7.15,9.28,6.98,14.74,17.09,16.06,27.62,2.08-6.95,2.71-14.63,1.53-22.52-3.82-25.45-24.98-43.37-47.26-40.03-22.28,3.34-37.25,26.69-33.43,52.14.16,1.07.4,2.11.62,3.16Z"/>
  <circle class="cls-3" cx="351.09" cy="41.73" r="10.21"/>
  <path class="cls-3" d="m401.91,107.12c.31-9.73-7.33-17.88-17.06-18.19-9.73-.31-17.88,7.33-18.19,17.06l-4.34,135.92-97.2,93.58,2.17,2.25-11.34,12.5-6.26,5.66c-2.32,2.1-2.51,5.69-.41,8.01,1.12,1.24,2.66,1.87,4.21,1.87.22,0,.44-.03.66-.06.24.53.54,1.04.95,1.5,1.12,1.24,2.66,1.87,4.21,1.87.52,0,1.03-.09,1.53-.23.24.57.56,1.12,1,1.61,1.12,1.24,2.66,1.87,4.21,1.87,1.36,0,2.72-.48,3.8-1.46l3.17-2.87c.1.1.18.21.29.3,1.07.93,2.4,1.39,3.72,1.39,1.59,0,3.17-.66,4.29-1.96l7.04-8.12,1.22,1.27,102.02-98.22c1.63-1.57,2.81-3.41,3.57-5.39,1.29-1.99,2.08-4.33,2.16-6.87l4.58-143.31Z"/>
  <path class="cls-1" d="m301.71,67.8c-.21,0-.41-.05-.61-.15-7.02-3.72-6.13-11.45-4.68-15.01.27-.66,1.03-.98,1.69-.71.66.27.98,1.03.71,1.69-.14.34-3.2,8.19,3.49,11.74.63.34.88,1.12.54,1.75-.23.44-.68.69-1.15.69Z"/>
  <path class="cls-3" d="m367.1,88.81s-11.57,6.74-16.05,15.7-26.89,8.96-26.89,8.96c0,0-4.48,0-4.48-4.48s4.48-13.44,4.48-13.44l26.89-8.96,16.05,2.22Z"/>
  <path class="cls-5" d="m353.46,73.27c-6.77,0-12.28-5.51-12.28-12.28s5.51-12.28,12.28-12.28,12.28,5.51,12.28,12.28-5.51,12.28-12.28,12.28Zm0-22.52c-5.64,0-10.24,4.59-10.24,10.24s4.59,10.24,10.24,10.24,10.24-4.59,10.24-10.24-4.59-10.24-10.24-10.24Z"/>
  <g>
    <polygon class="cls-2" points="399.28 377.06 0 307.16 31.26 271.07 430.54 340.96 399.28 377.06"/>
    <polygon class="cls-7" points="399.28 377.06 0 307.16 2.6 316.11 401.88 386 399.28 377.06"/>
    <polyline class="cls-6" points="429.92 339.92 432.52 348.86 401.88 386 399.28 377.06"/>
  </g>
  <path class="cls-3" d="m119.97,327.6c-2.06-.62-4.23.55-4.85,2.61l-1.27,4.23-.83-4.37c-.4-2.11-2.44-3.5-4.55-3.1-1.55.29-2.71,1.48-3.05,2.92l-.02-.11c-.4-2.11-2.44-3.5-4.55-3.1-2.11.4-3.5,2.44-3.1,4.55l2,10.52c.35,1.87,1.99,3.17,3.82,3.17.24,0,.49-.02.73-.07,1.55-.29,2.71-1.48,3.05-2.92l.02.11c.35,1.87,1.99,3.17,3.82,3.17.24,0,.49-.02.73-.07.51-.1.97-.29,1.37-.55.39.32.85.57,1.36.73.37.11.75.17,1.12.17,1.67,0,3.22-1.09,3.73-2.78l3.08-10.25c.62-2.06-.55-4.23-2.61-4.85Z"/>
  <path class="cls-3" d="m269.16,350.72c-1.84-1.12-4.23-.52-5.35,1.32l-2.29,3.78.29-4.44c.14-2.15-1.49-4-3.63-4.14-1.57-.1-2.99.76-3.69,2.07v-.12c.15-2.15-1.48-4-3.63-4.14-2.13-.14-4,1.49-4.14,3.63l-.69,10.68c-.14,2.15,1.49,4,3.63,4.14.09,0,.17,0,.26,0,1.48,0,2.78-.84,3.43-2.08v.12c-.15,2.15,1.48,4,3.63,4.14.09,0,.17,0,.26,0,.42,0,.82-.08,1.21-.21.3.41.68.77,1.14,1.05.63.38,1.32.56,2.01.56,1.32,0,2.6-.67,3.34-1.88l5.54-9.16c1.11-1.84.52-4.23-1.32-5.35Z"/>
</svg>